<?xml version="1.0" encoding="UTF-8"?>
<svg width="300px" height="212px" viewBox="0 0 300 212" version="1.1" xmlns="http://www.w3.org/2000/svg" xmlns:xlink="http://www.w3.org/1999/xlink">
    <title>undraw_confirmation_2uy0</title>
    <g id="Sign-Up---Individual" stroke="none" stroke-width="1" fill="none" fill-rule="evenodd">
        <g id="Signup-Confirmation" transform="translate(-490.000000, -208.000000)">
            <g id="undraw_confirmation_2uy0" transform="translate(490.000000, 208.000000)">
                <path d="M278.440454,176.748803 C277.5256,177.553126 276.59034,178.334494 275.634675,179.092904 C275.47398,179.22299 275.308184,179.347975 275.144939,179.480612 C271.736215,182.124659 268.157522,184.541981 264.431963,186.716972 L263.735619,187.122535 C263.567272,187.224563 263.401476,187.31894 263.225477,187.413316 C259.333096,189.66049 255.295324,191.729115 251.209089,193.688059 L251.165727,193.711015 L250.857091,193.856406 C247.561576,195.436145 244.216746,196.947865 240.822604,198.391566 L240.740981,198.422174 C239.210556,199.066653 237.680131,199.694128 236.149705,200.304597 C235.524782,200.559668 234.897307,200.796884 234.269833,201.039201 C233.088855,201.490677 231.905326,201.9345 230.711595,202.360468 L230.563653,202.416584 L230.308583,202.505859 L229.989744,202.623191 C226.876179,203.7353 223.720952,204.762386 220.524064,205.704447 L220.467949,205.719752 C218.238629,206.369332 215.994856,206.970449 213.736629,207.523103 L213.427993,207.599624 C210.112072,208.400546 206.742586,209.089238 203.352694,209.640191 L202.572177,209.765175 C200.092888,210.154584 197.596595,210.472572 195.083297,210.71914 C180.954922,212.08377 166.6582,210.974211 152.616549,209.071383 C124.262872,205.224914 96.2841489,198.014061 70.7668599,186.711871 C65.8694994,184.543769 61.0673653,182.222624 56.3604576,179.748436 C56.322197,179.728031 56.2890378,179.707625 56.2507772,179.68977 C53.4330944,178.208659 50.6536722,176.66548 47.9125107,175.060234 C47.1090375,174.596005 46.3106657,174.121573 45.5173953,173.644591 C44.5413241,173.056227 43.5695042,172.461062 42.6019354,171.859095 C41.326581,171.063274 40.0512267,170.247047 38.7758724,169.412965 L38.1790066,169.015054 L37.9494428,168.859461 C37.6255028,168.642651 37.3066643,168.425841 36.985275,168.20648 C24.9969445,160.044212 14.3069246,150.152564 9.25652158,137.773975 C3.42050026,123.490007 7.15473768,105.379976 21.6096034,96.9371303 C26.5783838,94.0293225 32.3531881,92.4504339 38.1892094,91.1470218 L38.7860753,91.0143849 C39.7731995,90.7975747 40.7603237,90.5884166 41.7423465,90.3792585 C45.1832525,89.6497558 48.6420134,88.9253546 52.067615,88.1167799 L52.067615,88.1167799 C53.8531111,87.695913 55.6207521,87.2546404 57.3781904,86.7776579 L58.0974902,86.5787026 C62.3358673,85.4416346 66.4809767,83.9817647 70.4964848,82.2118895 L70.5219919,82.2118895 C70.9530616,82.0205863 71.37903,81.8216311 71.7973462,81.6175744 C72.0677213,81.490039 72.3380964,81.3625035 72.6084715,81.2222145 C76.9446762,79.0643151 81.5359517,76.0723338 85.0686831,72.5064432 C85.3518118,72.2207638 85.6272883,71.929983 85.8951127,71.6392023 C86.1017201,71.4121892 86.3057768,71.1826254 86.5021814,70.9530616 C88.9789195,68.0656595 90.6929956,64.8594188 91.0194864,61.4567735 L91.0194864,61.4567735 C91.1294183,60.3133806 91.0778989,59.1602063 90.8664438,58.0311718 C90.4659826,55.8911273 90.0782749,53.7969955 89.7925955,51.7538779 C89.2594974,47.9150614 89.0783971,44.2445917 89.8181026,40.7067588 L89.8181026,40.7067588 C90.5705616,37.1000569 92.2769857,33.6285424 95.5342406,30.2616071 C96.0256771,29.7514653 96.5553743,29.2413236 97.1233321,28.7311819 C99.7575384,26.4201326 102.738183,24.5368956 105.956436,23.1502314 C106.354347,22.9801842 106.754808,22.8101369 107.15782,22.6400897 C116.105706,19.0180835 126.856942,18.2630737 136.901633,18.7630126 C146.286053,19.2459582 155.610784,20.5431934 164.770675,22.6400897 C165.497627,22.8033351 166.224579,22.9742325 166.94643,23.1502314 C174.738445,25.0377784 182.405399,27.4085708 189.902807,30.2488535 C209.38512,37.5770394 227.773178,47.7518161 244.952201,58.9800354 C245.120548,59.0897159 245.288894,59.1993963 245.462343,59.3116275 C246.179942,59.7792574 246.89329,60.2485878 247.602387,60.7196187 C248.974668,61.6293714 250.335046,62.5450758 251.683521,63.4667319 L252.594124,64.086554 C253.043049,64.3926391 253.489423,64.6995744 253.933246,65.0073599 L255.300426,65.9536728 L255.300426,65.9536728 C255.364814,65.9923741 255.426204,66.0358586 255.484077,66.0837589 L256.6472,66.8897828 C257.320587,67.3591132 257.988873,67.8309943 258.659709,68.3054261 L258.659709,68.3054261 L260.098309,69.3257095 C260.396741,69.5399691 260.697725,69.7516779 260.996158,69.9684881 L262.526583,71.0856985 L262.868378,71.3407694 C262.939798,71.3917835 263.011218,71.4427977 263.080087,71.4989133 L263.123449,71.5269711 C267.270901,74.5699665 271.318876,77.725193 275.111779,81.069172 L275.601516,81.5027925 L275.65253,81.5487052 C276.065745,81.9160073 276.478959,82.2884107 276.884522,82.6633649 C281.837998,87.1730178 286.276231,92.0193641 289.903339,97.3758522 C306.564567,122.117726 301.618743,156.376293 278.440454,176.748803 Z" id="Path" fill="#0295F6" fill-rule="nonzero" opacity="0.1"></path>
                <circle id="Oval" fill="#E6E8EC" fill-rule="nonzero" cx="207.252727" cy="94.1134959" r="1"></circle>
                <g id="Group" transform="translate(0.142840, 0.193854)"></g>
                <path d="M214.657435,87.8464048 L204.199529,77.3298332 C203.163976,76.2709681 201.74833,75.6696705 200.267295,75.6594835 C198.786261,75.649553 197.362578,76.2315666 196.312738,77.2762683 L130.642194,142.390758 L102.87518,114.406934 C100.72822,112.229234 97.2224543,112.204111 95.0445046,114.350818 L84.474368,124.808723 C82.3005695,126.979742 82.2766937,130.49517 84.4208032,132.695514 L126.589118,175.195421 C128.759435,177.369934 132.274869,177.394946 134.475909,175.251537 L214.598768,95.7306452 C215.65753,94.695872 216.259249,93.2811532 216.270419,91.8007443 C216.281281,90.3203354 215.70068,88.8968189 214.657435,87.8464048 Z" id="Path" fill="#0295F6" fill-rule="nonzero"></path>
            </g>
        </g>
    </g>
</svg>