<?xml version="1.0" encoding="UTF-8"?>
<svg width="461px" height="360px" viewBox="0 0 461 360" version="1.1" xmlns="http://www.w3.org/2000/svg" xmlns:xlink="http://www.w3.org/1999/xlink">
    <title>undraw_time_management_30iu</title>
    <defs>
        <linearGradient x1="50%" y1="100%" x2="50%" y2="-3.43494416e-15%" id="linearGradient-1">
            <stop stop-color="#808080" stop-opacity="0.25" offset="0%"></stop>
            <stop stop-color="#808080" stop-opacity="0.12" offset="54%"></stop>
            <stop stop-color="#808080" stop-opacity="0.1" offset="100%"></stop>
        </linearGradient>
    </defs>
    <g id="Day-Parting" stroke="none" stroke-width="1" fill="none" fill-rule="evenodd">
        <g id="Day-Parting---Zero-State" transform="translate(-161.000000, -194.000000)" fill-rule="nonzero">
            <g id="undraw_time_management_30iu" transform="translate(161.000000, 194.000000)">
                <path d="M48.6209573,36.0139715 C45.6124191,37.2620957 42.5247089,38.8641656 40.8714101,41.672445 C39.1203105,44.6390686 39.3298836,48.3228978 39.6558862,51.7552393 C42.4967658,81.5239327 49.9808538,113.183441 37.0571798,140.148512 C30.7839586,153.23053 20.2913325,163.713842 11.9456662,175.594308 C3.6,187.474774 -2.70116429,202.307891 1.17360931,216.284088 C5.90530401,233.361966 23.5653299,242.830013 35.4690815,255.972574 C43.2605433,264.565071 48.7234153,275.006468 55.993273,284.046054 C63.2631307,293.08564 73.2248383,301.049418 84.8305304,301.580336 C101.521863,302.348771 115.102199,287.934799 131.467529,284.595602 C148.233376,281.177232 165.115653,289.876843 178.709961,300.290298 C192.304269,310.703752 204.669082,323.320052 220.50815,329.821475 C238.000517,337.007503 257.719017,335.908409 276.133506,340.225614 C292.899353,344.160931 308.333247,352.529884 324.978008,356.991462 C341.622768,361.45304 361.131695,361.182924 374.027426,349.786805 C390.835188,334.883829 389.512549,308.337904 400.247348,288.624062 C410.21837,270.307374 429.736611,259.372316 442.874515,243.179301 C466.51436,214.03467 465.741268,169.488745 445.668823,137.791979 C425.596378,106.095213 389.237775,86.9029754 352.059508,81.9058215 C335.293661,79.6564036 318.029495,79.9637775 301.910996,74.8455369 C258.766882,61.1534282 233.09185,12.094696 189.044243,1.88615783 C161.045278,-4.5919793 133.814748,6.62716688 109.96533,20.435705 C89.2641656,32.4232859 70.1650712,27.0768435 48.6209573,36.0139715 Z" id="Path" fill="#0295F6" opacity="0.1"></path>
                <circle id="Oval" fill="url(#linearGradient-1)" cx="243.076843" cy="179.026649" r="168.589909"></circle>
                <circle id="Oval" fill="#0295F6" cx="243.076843" cy="179.026649" r="165.795602"></circle>
                <circle id="Oval" fill="#DDE1EC" cx="243.076843" cy="179.026649" r="131.798189"></circle>
                <rect id="Rectangle" fill="#ACB5C2" x="239.3511" y="70.5143596" width="7.45148771" height="116.429495"></rect>
                <g id="Group" opacity="0.1" transform="translate(172.315653, 141.112549)" fill="#000000">
                    <rect id="Rectangle" x="78.6783959" y="35.119793" width="105.252264" height="9.31435964"></rect>
                    <rect id="Rectangle" transform="translate(35.321525, 21.738197) rotate(-62.360000) translate(-35.321525, -21.738197) " x="30.6643447" y="-15.640328" width="9.31435964" height="74.7570505"></rect>
                    <circle id="Oval" cx="70.7611902" cy="39.7769728" r="13.9715395"></circle>
                </g>
                <rect id="Rectangle" fill="#4B5461" x="250.994049" y="174.36947" width="105.252264" height="9.31435964"></rect>
                <rect id="Rectangle" fill="#4B5461" transform="translate(207.667802, 160.998540) rotate(27.640000) translate(-207.667802, -160.998540) " x="170.289276" y="156.34136" width="74.7570505" height="9.31435964"></rect>
                <circle id="Oval" fill="#4B5461" cx="243.076843" cy="179.026649" r="13.9715395"></circle>
                <g id="Group" opacity="0.1" transform="translate(110.840880, 47.037516)" fill="#222222">
                    <path d="M10.6742561,147.823545 C10.6742561,75.0318241 69.6807245,16.0253558 142.472445,16.0253558 C183.895667,15.9887008 222.918323,35.458618 247.799224,68.5769728 C225.370246,27.8173351 182.058473,0.190944373 132.226649,0.190944373 C59.4349288,0.190944373 0.42831339,59.1974127 0.42831339,131.989133 C0.38564777,160.584995 9.68584736,188.412004 26.9138422,211.235705 C16.2298386,191.809928 10.6427484,169.993518 10.6742561,147.823545 Z" id="Path"></path>
                </g>
            </g>
        </g>
    </g>
</svg>