<?xml version="1.0" encoding="UTF-8"?>
<svg width="346px" height="280px" viewBox="0 0 346 280" version="1.1" xmlns="http://www.w3.org/2000/svg" xmlns:xlink="http://www.w3.org/1999/xlink">
    <title>undraw_counting_stars_rrnl</title>
    <g id="Common-UI-Elements" stroke="none" stroke-width="1" fill="none" fill-rule="evenodd">
        <g id="404-Error-Page" transform="translate(-281.000000, -161.000000)" fill-rule="nonzero">
            <g id="undraw_counting_stars_rrnl" transform="translate(281.000000, 161.000000)">
                <path d="M105.61526,88.8524907 C104.611615,126.587433 154.912417,165.108052 217.69938,165.108052 C280.486344,165.108052 380.475212,90.7152474 332.986971,88.8524907 C241.4831,85.2631965 210.125984,47.3670917 219.301117,20.5031735 C235.733024,-27.6078846 107.591439,14.5522962 105.61526,88.8524907 Z" id="Path" fill="#4B5461"></path>
                <polygon id="Path" fill="#0295F6" points="189.132485 58.9657986 188.366973 58.4785522 188.854219 57.7130399 188.645239 57.5804609 188.158367 58.3459733 187.392855 57.8587269 187.259901 58.0673328 188.025414 58.5545791 187.538167 59.3200915 187.747148 59.453045 188.23402 58.6875326 188.999532 59.1744045"></polygon>
                <polygon id="Path" fill="#0295F6" points="246.05904 114.394286 245.293528 113.90704 245.780774 113.141527 245.571794 113.008948 245.084922 113.774461 244.319409 113.287214 244.186456 113.49582 244.951968 113.983066 244.464722 114.748579 244.673702 114.881532 245.160574 114.11602 245.926086 114.602892"></polygon>
                <polygon id="Path" fill="#0295F6" points="153.927906 107.652983 153.162393 107.165737 153.64964 106.400225 153.440659 106.267646 152.953787 107.033158 152.188275 106.545912 152.055321 106.754518 152.820834 107.241764 152.333587 108.007276 152.542568 108.14023 153.02944 107.374717 153.794952 107.861589"></polygon>
                <polygon id="Path" fill="#0295F6" points="222.838998 143.606597 222.073486 143.11935 222.560732 142.353838 222.351752 142.221259 221.86488 142.986772 221.099367 142.499525 220.966414 142.708131 221.731926 143.195377 221.24468 143.96089 221.45366 144.093843 221.940532 143.328331 222.706044 143.815203"></polygon>
                <polygon id="Path" fill="#0295F6" points="158.796624 129.749475 158.031112 129.262229 158.518358 128.496716 158.309378 128.364137 157.822506 129.12965 157.056993 128.642403 156.92404 128.851009 157.689552 129.338256 157.202306 130.103768 157.411286 130.236721 157.898158 129.471209 158.663671 129.958081"></polygon>
                <polygon id="Path" fill="#0295F6" points="313.097548 111.398151 312.332036 110.910905 312.819282 110.145393 312.610302 110.012814 312.12343 110.778326 311.357918 110.29108 311.224964 110.499686 311.990477 110.986932 311.50323 111.752444 311.712211 111.885398 312.199082 111.119886 312.964595 111.606757"></polygon>
                <polygon id="Path" fill="#0295F6" points="143.066918 66.0816179 142.301406 65.5943715 142.788652 64.8288592 142.579672 64.6962802 142.0928 65.4617926 141.327288 64.9745462 141.194334 65.1831521 141.959846 65.6703985 141.4726 66.4359108 141.68158 66.5688643 142.168452 65.8033519 142.933965 66.2902238"></polygon>
                <polygon id="Path" fill="#FFFFFF" points="207.109292 74.5003812 206.037425 73.8187606 206.71942 72.7468935 206.427297 72.5611332 205.745302 73.6326258 204.673809 72.9506307 204.487674 73.2431283 205.559541 73.9247489 204.877546 74.996616 205.169669 75.1827508 205.851665 74.1108837 206.923157 74.7928788"></polygon>
                <circle id="Oval" fill="#0295F6" cx="168.534065" cy="87.5416481" r="1.12355042"></circle>
                <circle id="Oval" fill="#0295F6" cx="124.715598" cy="87.5416481" r="1.12355042"></circle>
                <circle id="Oval" fill="#0295F6" cx="201.117027" cy="46.3447994" r="1.12355042"></circle>
                <circle id="Oval" fill="#0295F6" cx="190.630556" cy="114.881375" r="1.12355042"></circle>
                <circle id="Oval" fill="#0295F6" cx="189.881523" cy="91.2868162" r="1"></circle>
                <circle id="Oval" fill="#FF6584" cx="266.657468" cy="124.244295" r="1"></circle>
                <circle id="Oval" fill="#FF6584" cx="152.055325" cy="83.4219633" r="1"></circle>
                <circle id="Oval" fill="#FF6584" cx="198.869926" cy="22.7502406" r="1"></circle>
                <circle id="Oval" fill="#0295F6" cx="168.159548" cy="57.5803036" r="1"></circle>
                <circle id="Oval" fill="#FFFFFF" cx="177.522468" cy="32.4876776" r="1"></circle>
                <circle id="Oval" fill="#0295F6" cx="289.502993" cy="99.9007028" r="1.12355042"></circle>
                <circle id="Oval" fill="#0295F6" cx="214.974149" cy="104.020388" r="1.12355042"></circle>
                <circle id="Oval" fill="#0295F6" cx="195.873792" cy="130.611081" r="3.74516806"></circle>
                <circle id="Oval" fill="#FFFFFF" cx="241.190325" cy="89.788749" r="1.12355042"></circle>
                <path d="M34.4287682,269.882178 C34.4287682,269.882178 32.3325977,278.647934 34.2382103,279.029054 C36.143823,279.410173 45.4812498,279.287171 47.767967,279.668287 C50.0546843,280.049403 54.8186879,279.410173 54.8186879,277.695149 C54.8186879,275.980124 49.8641339,274.836735 49.8641339,274.836735 C49.8641339,274.836735 42.8134168,271.025544 42.6228514,270.834975 C42.432286,270.644405 34.4287682,269.882178 34.4287682,269.882178 Z" id="Path" fill="#2F2E41"></path>
                <path d="M36.6730902,207.291906 C36.6730902,207.291906 37.3565833,215.038326 37.3565833,215.721819 C37.3565833,216.405312 33.2555419,252.40337 34.1668836,259.694122 C35.0782253,266.984874 34.0825162,269.313331 34.0825162,270.680366 C34.0825162,272.047402 41.457651,271.541575 41.457651,271.541575 L49.431904,221.189888 L45.3308626,206.152742 L36.6730902,207.291906 Z" id="Path" fill="#222222"></path>
                <path d="M37.0966125,271.800966 C37.0966125,271.800966 35.1910186,278.661129 37.0966125,279.042248 C39.0022064,279.423368 48.3396595,278.60567 50.6263729,278.98679 C52.9130864,279.367909 57.67709,279.423368 57.67709,277.708343 C57.67709,275.993318 52.722536,274.849937 52.722536,274.849937 C52.722536,274.849937 45.6718152,271.038749 45.4812536,270.848176 C45.2906919,270.657603 37.0966125,271.800966 37.0966125,271.800966 Z" id="Path" fill="#2F2E41"></path>
                <path d="M34.6225732,198.178474 C34.6225732,198.178474 31.8885481,204.7857 35.0782441,208.203244 C38.26794,211.620789 41.9133181,218.45584 41.9133181,218.911511 C41.9133181,219.367182 35.5339411,264.706494 36.4452641,267.668356 C37.3565871,270.630219 37.1287573,272.452906 36.9009312,272.908577 C36.6731051,273.364248 39.1792892,275.870447 41.9133181,275.870447 C44.6473469,275.870447 48.7483884,273.819918 49.2040368,271.997239 C49.6596851,270.174559 48.5205436,254.45389 48.7483696,251.49202 C48.9761957,248.53015 58.0896465,201.140344 56.9504787,200.001154 C55.8113109,198.861964 34.6225732,198.178474 34.6225732,198.178474 Z" id="Path" fill="#222222"></path>
                <circle id="Oval" fill="#9F616A" cx="51.9380918" cy="138.029843" r="7.74641949"></circle>
                <path d="M47.1535423,141.903043 C47.1535423,141.903043 48.7483921,150.332971 47.6092094,151.244309 C46.4700266,152.155647 56.2669781,153.522663 56.2669781,153.522663 C56.2669781,153.522663 57.4061533,142.358714 57.6339981,141.219524 C57.8618429,140.080334 47.1535423,141.903043 47.1535423,141.903043 Z" id="Path" fill="#9F616A"></path>
                <path d="M57.6339831,152.839159 C57.6339831,152.839159 59.1035871,144.81147 47.939653,147.08982 C47.939653,147.08982 37.7465452,155.447635 38.2022161,163.194043 C38.6578869,170.940451 34.6225844,193.393895 35.078259,194.988756 C35.5339336,196.583617 32.3442302,198.634119 33.7112465,199.317635 C35.0782628,200.00115 59.6845188,204.102188 60.3680232,199.317635 C61.0515276,194.533081 60.1401822,182.457783 60.5958605,180.179451 C61.0515389,177.90112 60.5958605,158.762895 59.228848,156.484556 C57.8618354,154.206216 57.6339831,152.839159 57.6339831,152.839159 Z" id="Path" fill="#0295F6"></path>
                <path d="M52.8494373,208.431085 C52.8494373,208.431085 49.4319003,221.417729 53.760779,221.417729 C58.0896577,221.417729 57.8618204,207.975418 57.8618204,207.975418 L52.8494373,208.431085 Z" id="Path" fill="#9F616A"></path>
                <path d="M55.0941749,139.322589 C54.9953512,139.975889 53.986519,140.247271 52.5056758,140.120029 L52.5034287,140.119688 C51.8763162,140.06096 51.2545829,139.954587 50.6436157,139.801491 C49.7194468,139.574133 49.1987299,140.396332 48.8629156,141.534538 C48.3116269,143.412088 48.270033,146.15479 47.7850562,146.512327 C44.3995254,148.383652 34.395837,135.837201 39.5219983,132.58887 C41.3477677,131.431932 47.4936897,127.112311 51.7397927,127.98507 C55.9858957,128.857829 54.2669609,134.128045 54.2669609,134.128045 C54.2669609,134.128045 54.4226963,134.819852 54.5993671,135.708374 C54.8508292,136.827844 55.0208778,137.964057 55.1081781,139.108096 C55.1081781,139.179821 55.1034838,139.25147 55.0941749,139.322589 L55.0941749,139.322589 Z" id="Path" fill="#222222"></path>
                <path d="M55.5834662,155.117524 C55.5834662,155.117524 47.8370542,154.661854 47.153546,166.053651 C46.4700379,177.445449 46.6978752,188.153701 46.6978752,188.381549 C46.6978752,188.609398 49.8875749,210.253776 52.8494373,210.253776 C55.8112997,210.253776 58.0896764,209.798105 58.7731696,208.658915 C59.4566628,207.519725 56.9504825,191.115571 56.9504825,191.115571 C56.9504825,191.115571 55.8113072,173.800048 57.6339756,168.332002 C59.4566441,162.863955 59.6845076,155.801029 55.5834662,155.117524 Z" id="Path" fill="#0295F6"></path>
                <polyline id="Path" fill="#000000" opacity="0.1" points="46.8160989 169.186469 44.568998 193.530062 52.0593342 210.383318 47.1906157 193.155545 46.8160989 168.811952"></polyline>
                <polygon id="Path" fill="#000000" opacity="0.1" points="57.6770863 171.808087 58.2493479 200.506935 56.179019 184.916175"></polygon>
                <polygon id="Path" fill="#3F3D56" points="96.5272127 279.897757 0 279.897757 0 279.109025 96.6702781 279.109025"></polygon>
            </g>
        </g>
    </g>
</svg>