<?xml version="1.0" encoding="UTF-8"?>
<svg width="120px" height="120px" viewBox="0 0 120 120" version="1.1" xmlns="http://www.w3.org/2000/svg" xmlns:xlink="http://www.w3.org/1999/xlink">
    <title>Group 16</title>
    <g id="Research" stroke="none" stroke-width="1" fill="none" fill-rule="evenodd">
        <g id="Keyword-Detail-Page---No-Image" transform="translate(-1000.000000, -282.000000)">
            <g id="Group-16" transform="translate(1000.000000, 282.000000)">
                <rect id="Rectangle" fill="#F1F4F8" x="0" y="0" width="120" height="120" rx="7"></rect>
                <text id="NO-IMAGE-YET" font-family="OpenSans-Bold, Open Sans" font-size="10" font-weight="bold" letter-spacing="-0.1" fill="#ACB5C2">
                    <tspan x="25.5018555" y="104">NO IMAGE YET</tspan>
                </text>
                <g id="iconmonstr-picture-thin" transform="translate(24.000000, 21.000000)" fill="#ACB5C2" stroke="#F1F4F8" stroke-width="0.5">
                    <path d="M69,57.3061224 L3,57.3061224 C1.34314575,57.3061224 3.43777239e-15,55.9629767 0,54.3061224 L0,3 C-6.46995335e-16,1.34314575 1.34314575,3.04359188e-16 3,0 L69,0 C70.6568542,7.05355176e-15 72,1.34314575 72,3 L72,54.3061224 C72,55.9629767 70.6568542,57.3061224 69,57.3061224 Z M68,2.86530612 L4,2.86530612 C3.44771525,2.86530612 3,3.31302137 3,3.86530612 L3,53.4408163 C3,53.9931011 3.44771525,54.4408163 4,54.4408163 L68,54.4408163 C68.5522847,54.4408163 69,53.9931011 69,53.4408163 L69,3.86530612 C69,3.31302137 68.5522847,2.86530612 68,2.86530612 Z M60.65763,48.7102041 L14.1139106,48.7102041 C12.4570563,48.7102041 11.1139106,47.3670583 11.1139106,45.7102041 C11.1139106,45.1976995 11.2452068,44.6937399 11.4952779,44.2463862 L19.0946011,30.6519103 C19.9030454,29.2056794 21.7308208,28.6886512 23.1770517,29.4970955 C23.4048821,29.6244528 23.6151178,29.7809982 23.8024332,29.962766 L27.463392,33.5153007 C28.6524402,34.6691336 30.5517206,34.640586 31.7055535,33.4515379 C31.8193061,33.3343135 31.9232948,33.2079946 32.0164825,33.0738409 L42.4111806,18.1095585 C43.3564172,16.7487889 45.2258046,16.411933 46.5865741,17.3571697 C46.9296512,17.5954827 47.2191783,17.902817 47.4366144,18.2594913 L63.2191727,44.1486346 C64.0816037,45.5633355 63.6339005,47.4093157 62.2191995,48.2717467 C61.7488083,48.558507 61.2085378,48.7102041 60.65763,48.7102041 Z M26.2286124,36.3996912 L22.66013,32.9375499 C22.2637442,32.5529765 21.6306516,32.5625523 21.2460781,32.9589381 C21.185519,33.0213574 21.1333612,33.09141 21.090925,33.1673227 L14.8357813,44.3569508 C14.5662955,44.8390254 14.7386328,45.4482854 15.2207073,45.7177711 C15.3698271,45.801131 15.5378166,45.844898 15.7086545,45.844898 L59.0022333,45.844898 C59.554518,45.844898 60.0022333,45.3971827 60.0022333,44.844898 C60.0022333,44.6612658 59.9516696,44.4811792 59.8560866,44.3243843 L45.6731438,21.0586095 C45.3856721,20.5870394 44.770347,20.4377981 44.2987768,20.7252698 C44.1798998,20.7977379 44.0774648,20.8942304 43.99803,21.0085697 L33.8165737,35.6638589 C32.2410336,37.9317069 29.125352,38.4929334 26.857504,36.9173933 C26.6341422,36.7622174 26.4238139,36.5890756 26.2286124,36.3996912 Z M16.5,8.59591837 C20.64,8.59591837 24,11.8050612 24,15.7591837 C24,19.7133061 20.64,22.922449 16.5,22.922449 C12.36,22.922449 9,19.7133061 9,15.7591837 C9,11.8050612 12.36,8.59591837 16.5,8.59591837 Z M16.5,11.4612245 C18.984,11.4612245 21,13.3867102 21,15.7591837 C21,18.1316571 18.984,20.0571429 16.5,20.0571429 C14.016,20.0571429 12,18.1316571 12,15.7591837 C12,13.3867102 14.016,11.4612245 16.5,11.4612245 Z" id="Shape"></path>
                </g>
            </g>
        </g>
    </g>
</svg>