<?xml version="1.0" encoding="UTF-8"?>
<svg width="107px" height="105px" viewBox="0 0 107 105" version="1.1" xmlns="http://www.w3.org/2000/svg" xmlns:xlink="http://www.w3.org/1999/xlink">
    <title>undraw_mail_box_kd5i (1)</title>
    <defs>
        <linearGradient x1="50%" y1="100%" x2="50%" y2="0%" id="linearGradient-1">
            <stop stop-color="#F1F4F8" offset="0%"></stop>
            <stop stop-color="#808080" stop-opacity="0.12" offset="54%"></stop>
            <stop stop-color="#808080" stop-opacity="0.1" offset="100%"></stop>
        </linearGradient>
        <linearGradient x1="50%" y1="100%" x2="50%" y2="0%" id="linearGradient-2">
            <stop stop-color="#F1F4F8" offset="0%"></stop>
            <stop stop-color="#808080" stop-opacity="0.12" offset="54%"></stop>
            <stop stop-color="#808080" stop-opacity="0.1" offset="100%"></stop>
        </linearGradient>
        <linearGradient x1="50%" y1="100%" x2="50%" y2="0%" id="linearGradient-3">
            <stop stop-color="#808080" stop-opacity="0.25" offset="0%"></stop>
            <stop stop-color="#808080" stop-opacity="0.12" offset="54%"></stop>
            <stop stop-color="#808080" stop-opacity="0.1" offset="100%"></stop>
        </linearGradient>
    </defs>
    <g id="Notifications" stroke="none" stroke-width="1" fill="none" fill-rule="evenodd">
        <g id="Notifications---Zero-State" transform="translate(-918.000000, -143.000000)" fill-rule="nonzero">
            <g id="undraw_mail_box_kd5i-(1)" transform="translate(918.000000, 143.000000)">
                <rect id="Rectangle" fill="url(#linearGradient-1)" x="52.326703" y="46.0076294" width="13.180654" height="58.1014986"></rect>
                <rect id="Rectangle" fill="#DAE0E9" x="53.5399183" y="46.0076294" width="11.0995913" height="57.0618529"></rect>
                <path d="M96.1707084,0.739645777 L36.8099455,0.739645777 C34.7694834,0.791718802 32.7585893,1.23985403 30.8891008,2.05912807 C24.8549046,4.73351499 21.3427793,8.93106267 20.3509537,18.2400545 L20.3509537,39.7467302 L4.62166213,39.5802452 C1.45844687,39.5802452 0.301907357,44.5535422 0.301907357,47.9151226 L106.552997,47.9151226 L106.552997,11.7719346 C106.552997,5.67929155 101.910899,0.739645777 96.1707084,0.739645777 Z" id="Path" fill="url(#linearGradient-2)"></path>
                <path d="M38.9707084,2.99427793 L97.7859673,2.99427793 C101.765126,2.99427793 104.990872,6.22002361 104.990872,10.1991826 L104.990872,46.0076294 L38.9707084,46.0076294 L38.9707084,2.99427793 Z" id="Path" fill="#0295F6"></path>
                <path d="M37.5803815,2.99427793 L37.5803815,2.99427793 C46.3926339,2.99427793 53.536376,10.13802 53.536376,18.9502725 L53.536376,38.1987738 C53.536376,42.5114857 50.0402323,46.0076294 45.7275204,46.0076294 L29.4332425,46.0076294 C25.1205307,46.0076294 21.6243869,42.5114857 21.6243869,38.1987738 L21.6243869,18.9502725 C21.6243869,10.13802 28.768129,2.99427793 37.5803815,2.99427793 Z" id="Path" fill="#0295F6"></path>
                <path d="M37.5803815,2.99427793 L37.5803815,2.99427793 C46.3926339,2.99427793 53.536376,10.13802 53.536376,18.9502725 L53.536376,38.1987738 C53.536376,42.5114857 50.0402323,46.0076294 45.7275204,46.0076294 L29.4332425,46.0076294 C25.1205307,46.0076294 21.6243869,42.5114857 21.6243869,38.1987738 L21.6243869,18.9502725 C21.6243869,10.13802 28.768129,2.99427793 37.5803815,2.99427793 Z" id="Path" fill="#000000" opacity="0.2"></path>
                <polygon id="Path" fill="url(#linearGradient-3)" transform="translate(73.486240, 13.197820) rotate(90.000000) translate(-73.486240, -13.197820) " points="71.8391008 2.27179837 66.8959128 2.27179837 66.8959128 12.0678474 66.8959128 24.123842 72.8787466 24.123842 72.8787466 12.0678474 80.0765668 12.0678474 80.0765668 2.27179837"></polygon>
                <polygon id="Path" fill="#FFA815" transform="translate(73.485354, 12.330858) rotate(90.000000) translate(-73.485354, -12.330858) " points="79.0351499 2.27179837 72.0976839 2.27179837 67.9355586 2.27179837 67.9355586 11.290327 67.9355586 22.3899183 72.0976839 22.3899183 72.0976839 11.290327 79.0351499 11.290327"></polygon>
                <path d="M37.4103542,3.16784243 L37.4103542,3.16784243 C35.3230427,3.16619533 33.255819,3.5754274 31.3265668,4.37220708 C32.0780379,4.26439195 32.8362022,4.20994144 33.5953678,4.20926431 L33.5953678,4.20926431 C37.8271607,4.20926431 41.8856304,5.89033748 44.8779598,8.88266691 C47.8702892,11.8749963 49.5513624,15.933466 49.5513624,20.1652589 L49.5513624,45.4922343 L53.3663488,45.4922343 L53.3663488,19.123842 C53.3663488,10.3115895 46.2226067,3.16784243 37.4103542,3.16784243 Z" id="Path" fill="#000000" opacity="0.2"></path>
                <path d="M7.75299728,40.4569482 L53.5399183,40.4569482 L53.5399183,46.0076294 L2.20231608,46.0076294 L2.20231608,46.0076294 C2.20231608,42.9420729 4.6874407,40.4569482 7.75299728,40.4569482 L7.75299728,40.4569482 Z" id="Path" fill="#0295F6"></path>
                <path d="M7.75299728,40.4569482 L53.5399183,40.4569482 L53.5399183,46.0076294 L2.20231608,46.0076294 L2.20231608,46.0076294 C2.20231608,42.9420729 4.6874407,40.4569482 7.75299728,40.4569482 L7.75299728,40.4569482 Z" id="Path" fill="#FFFFFF" opacity="0.2"></path>
            </g>
        </g>
    </g>
</svg>