<?xml version="1.0" encoding="UTF-8"?>
<svg width="202px" height="168px" viewBox="0 0 202 168" version="1.1" xmlns="http://www.w3.org/2000/svg" xmlns:xlink="http://www.w3.org/1999/xlink">
    <title>Group 18</title>
    <g id="Payment" stroke="none" stroke-width="1" fill="none" fill-rule="evenodd">
        <g id="Payment-Details---Payment-Unsuccessful" transform="translate(-539.000000, -220.000000)" fill-rule="nonzero">
            <g id="Group-18" transform="translate(539.000000, 220.000000)">
                <rect id="Rectangle" fill-opacity="0.55" fill="#DAE0E9" transform="translate(90.854932, 70.580978) rotate(-17.261500) translate(-90.854932, -70.580978) " x="11.3110455" y="22" width="159.087773" height="97.1619563" rx="6.00436681"></rect>
                <rect id="Rectangle" fill="#FFFFFF" transform="translate(91.167168, 69.741603) rotate(-17.261500) translate(-91.167168, -69.741603) " x="13.2462157" y="22.8800517" width="155.841904" height="93.7231026" rx="6.00436681"></rect>
                <rect id="Rectangle" fill="#0295F6" transform="translate(82.920952, 43.203264) rotate(-17.261500) translate(-82.920952, -43.203264) " x="5" y="36.4828089" width="155.841904" height="13.4409105"></rect>
                <rect id="Rectangle" fill="#ACB5C2" transform="translate(57.050593, 114.198276) rotate(-17.261500) translate(-57.050593, -114.198276) " x="37.2524957" y="111.292133" width="39.5961943" height="5.81228603"></rect>
                <rect id="Rectangle" fill="#DAE0E9" transform="translate(68.016421, 100.520056) rotate(-17.261500) translate(-68.016421, -100.520056) " x="33.6876097" y="97.6139133" width="68.6576223" height="5.81228603"></rect>
                <rect id="Rectangle" fill-opacity="0.55" fill="#DAE0E9" x="41.9348798" y="53.1502958" width="159.984679" height="97.2576528" rx="6.00436681"></rect>
                <rect id="Rectangle" fill="#FFFFFF" x="43.7512182" y="54.1419705" width="155.841904" height="93.7231026" rx="6.00436681"></rect>
                <rect id="Rectangle" fill="#DAE0E9" x="80.8115217" y="99.6403439" width="4.54084716" height="12.8960087"></rect>
                <rect id="Rectangle" fill="#DAE0E9" x="86.6238077" y="99.6403439" width="4.54084716" height="12.8960087"></rect>
                <rect id="Rectangle" fill="#DAE0E9" x="92.4360937" y="99.6403439" width="4.54084716" height="12.8960087"></rect>
                <rect id="Rectangle" fill="#DAE0E9" x="102.607592" y="99.6403439" width="4.54084716" height="12.8960087"></rect>
                <rect id="Rectangle" fill="#DAE0E9" x="108.419878" y="99.6403439" width="4.54084716" height="12.8960087"></rect>
                <rect id="Rectangle" fill="#DAE0E9" x="114.232164" y="99.6403439" width="4.54084716" height="12.8960087"></rect>
                <rect id="Rectangle" fill="#DAE0E9" x="124.403664" y="99.6403439" width="4.54084716" height="12.8960087"></rect>
                <rect id="Rectangle" fill="#DAE0E9" x="130.215947" y="99.6403439" width="4.54084716" height="12.8960087"></rect>
                <rect id="Rectangle" fill="#DAE0E9" x="136.028233" y="99.6403439" width="4.54084716" height="12.8960087"></rect>
                <rect id="Rectangle" fill="#DAE0E9" x="146.199733" y="99.6403439" width="4.54084716" height="12.8960087"></rect>
                <rect id="Rectangle" fill="#DAE0E9" x="152.012019" y="99.6403439" width="4.54084716" height="12.8960087"></rect>
                <rect id="Rectangle" fill="#DAE0E9" x="157.824306" y="99.6403439" width="4.54084716" height="12.8960087"></rect>
                <rect id="Rectangle" fill="#0295F6" x="53.6662837" y="78.6961473" width="27.0742358" height="14.8471616"></rect>
                <g id="Group-16" transform="translate(178.959356, 74.566012) rotate(17.000000) translate(-178.959356, -74.566012) translate(166.459356, 62.566012)">
                    <path d="M1.25271659,23.2898483 L23.6351553,23.2898483 C24.0752283,23.2874796 24.4818528,23.0545951 24.7065758,22.6762177 C24.9312988,22.2978403 24.9412276,21.8293534 24.7327372,21.4417948 L13.5470057,0.659081687 C13.3285912,0.253162902 12.904886,8.12048841e-15 12.4439359,8.12048841e-15 C11.9829859,8.12048841e-15 11.5592807,0.253162902 11.3408661,0.659081687 L0.14964679,21.4417948 C-0.0592983741,21.8302135 -0.048826644,22.2998431 0.177224045,22.6785624 C0.403274735,23.0572816 0.811664454,23.2894012 1.25271659,23.2898483 L1.25271659,23.2898483 Z M13.8680484,19.4922149 L11.0198234,19.4922149 L11.0198234,16.6453619 L13.8680484,16.6453619 L13.8680484,19.4922149 Z M13.8680484,14.7465452 L11.0198234,14.7465452 L11.0198234,9.05146721 L13.8680484,9.05146721 L13.8680484,14.7465452 Z" id="Shape" fill="#464353"></path>
                    <path d="M1.25271659,23.2898483 L23.6351553,23.2898483 C24.0752283,23.2874796 24.4818528,23.0545951 24.7065758,22.6762177 C24.9312988,22.2978403 24.9412276,21.8293534 24.7327372,21.4417948 L13.5470057,0.659081687 C13.3285912,0.253162902 12.904886,8.12048841e-15 12.4439359,8.12048841e-15 C11.9829859,8.12048841e-15 11.5592807,0.253162902 11.3408661,0.659081687 L0.14964679,21.4417948 C-0.0592983741,21.8302135 -0.048826644,22.2998431 0.177224045,22.6785624 C0.403274735,23.0572816 0.811664454,23.2894012 1.25271659,23.2898483 L1.25271659,23.2898483 Z M13.8680484,19.4922149 L11.0198234,19.4922149 L11.0198234,16.6453619 L13.8680484,16.6453619 L13.8680484,19.4922149 Z M13.8680484,14.7465452 L11.0198234,14.7465452 L11.0198234,9.05146721 L13.8680484,9.05146721 L13.8680484,14.7465452 Z" id="Shape" fill="#DAE0E9"></path>
                    <path d="M1.25271659,23.975837 L23.6351553,23.975837 C24.0752283,23.9734682 24.4818528,23.7405838 24.7065758,23.3622064 C24.9312988,22.983829 24.9412276,22.515342 24.7327372,22.1277835 L13.5470057,1.34507037 C13.3285912,0.939151584 12.904886,0.685988681 12.4439359,0.685988681 C11.9829859,0.685988681 11.5592807,0.939151584 11.3408661,1.34507037 L0.14964679,22.1277835 C-0.0592983741,22.5162022 -0.048826644,22.9858318 0.177224045,23.3645511 C0.403274735,23.7432703 0.811664454,23.9753899 1.25271659,23.975837 L1.25271659,23.975837 Z M13.8680484,20.1782036 L11.0198234,20.1782036 L11.0198234,17.3313506 L13.8680484,17.3313506 L13.8680484,20.1782036 Z M13.8680484,15.4325339 L11.0198234,15.4325339 L11.0198234,9.73745589 L13.8680484,9.73745589 L13.8680484,15.4325339 Z" id="Shape" fill="#D61414"></path>
                </g>
                <g id="Group-17" transform="translate(27.459356, 107.566012)">
                    <circle id="Oval" fill="#0295F6" cx="30" cy="30" r="30"></circle>
                    <path d="M45.7410049,45.0758509 C45.7410049,49.8116694 38.2959481,45.480389 30.3141005,45.480389 C22.3322528,45.480389 14.2589951,49.6327391 14.2589951,44.8969206 C14.2589951,42.1964344 16.8320908,38.4408428 20.5235008,35.713128 L20.5235008,35.713128 C23.3047002,33.6573744 26.7199352,32.1850891 30.1507293,32.1850891 C33.6787682,32.1850891 37.134846,33.7789303 39.8917342,35.9669368 C43.3711507,38.7257699 45.7410049,42.4327391 45.7410049,45.0758509 Z" id="Path" fill="#4B5461"></path>
                    <path d="M39.8907618,35.9649919 C35.6479741,35.326094 27.9743922,34.5471637 20.5235008,35.7111831 C23.3047002,33.6554295 26.7199352,32.1831442 30.1507293,32.1831442 C33.6777958,32.1831442 37.1338736,33.7769854 39.8907618,35.9649919 Z" id="Path" fill="#F6F8FB"></path>
                    <path d="M14.2589951,8.82301459 C14.2589951,8.82301459 5.22204214,14.6003241 5.29594814,23.6372771 C5.36985413,32.6742301 14.2589951,8.82301459 14.2589951,8.82301459 Z" id="Path" fill="#000000" opacity="0.0883184524"></path>
                    <path d="M19.3341977,26.0664506 C19.9050243,26.0343598 22.5918963,25.8320908 24.2985413,24.858671 C24.5726344,24.6974177 24.8822587,24.6062339 25.2,24.5931929 C25.7426256,24.5776337 26.3669368,24.8042139 25.9672609,26.0722853 C25.319611,28.1465154 21.5591572,30.480389 19.2252836,30.3510535 C16.9808752,30.2265802 14.3183144,29.3222042 12.5601297,26.1423015 C12.3916735,25.8363679 12.3087042,25.4907186 12.3199352,25.1416532 C12.3403566,24.4998379 12.5737439,23.695624 13.7786062,24.5922204 C15.406483,25.8029173 18.4949757,26.0324149 19.1144246,26.0664506 C19.1876298,26.0703748 19.2609926,26.0703748 19.3341977,26.0664506 L19.3341977,26.0664506 Z" id="Path" fill="#4B5461"></path>
                    <path d="M40.9225284,26.0664506 C41.4933549,26.0343598 44.1802269,25.8320908 45.886872,24.858671 C46.160965,24.6974177 46.4705893,24.6062339 46.7883306,24.5931929 C47.3309562,24.5776337 47.9552674,24.8042139 47.5555916,26.0722853 C46.9079417,28.1465154 43.1474878,30.480389 40.8136143,30.3510535 C38.5692058,30.2265802 35.9066451,29.3222042 34.1484603,26.1423015 C33.9800042,25.8363679 33.8970349,25.4907186 33.9082658,25.1416532 C33.9286872,24.4998379 34.1620746,23.695624 35.3669368,24.5922204 C36.9948136,25.8029173 40.0833063,26.0324149 40.7027553,26.0664506 C40.7759604,26.0703748 40.8493232,26.0703748 40.9225284,26.0664506 L40.9225284,26.0664506 Z" id="Path" fill="#4B5461"></path>
                </g>
            </g>
        </g>
    </g>
</svg>