<?xml version="1.0" encoding="UTF-8"?>
<svg width="290px" height="180px" viewBox="0 0 290 180" version="1.1" xmlns="http://www.w3.org/2000/svg" xmlns:xlink="http://www.w3.org/1999/xlink">
    <title>undraw_online_articles_79ff</title>
    <g id="Products" stroke="none" stroke-width="1" fill="none" fill-rule="evenodd">
        <g id="Product-Catalog---Zero-State" transform="translate(-521.000000, -160.000000)" fill-rule="nonzero">
            <g id="undraw_online_articles_79ff" transform="translate(521.000000, 160.000000)">
                <rect id="Rectangle" fill="#DAE0E9" x="200.183068" y="35.1537071" width="59.2405063" height="108.065099"></rect>
                <polygon id="Path" fill="#FFFFFF" points="205.716522 137.685353 253.89012 137.685353 253.89012 40.6871609 205.716522 40.6871609"></polygon>
                <rect id="Rectangle" fill="#DAE0E9" x="224.226618" y="61.4911834" width="14.0690506" height="1.30651682"></rect>
                <rect id="Rectangle" fill="#DAE0E9" x="224.226618" y="66.0108304" width="24.5211754" height="1.30651682"></rect>
                <rect id="Rectangle" fill="#DAE0E9" x="224.226618" y="70.5304807" width="24.4971635" height="1.30651682"></rect>
                <rect id="Rectangle" fill="#DAE0E9" x="210.858845" y="61.510583" width="10.4521248" height="10.4521248"></rect>
                <rect id="Rectangle" fill="#DAE0E9" x="224.226618" y="83.9504962" width="14.0690506" height="1.30651682"></rect>
                <rect id="Rectangle" fill="#DAE0E9" x="224.226618" y="88.4701432" width="24.5211754" height="1.30651682"></rect>
                <rect id="Rectangle" fill="#DAE0E9" x="224.226618" y="92.9897935" width="24.4971635" height="1.30651682"></rect>
                <rect id="Rectangle" fill="#DAE0E9" x="210.858845" y="83.9698958" width="10.4521248" height="10.4521248"></rect>
                <rect id="Rectangle" fill="#DAE0E9" x="224.226618" y="106.409809" width="14.0690506" height="1.30651682"></rect>
                <rect id="Rectangle" fill="#DAE0E9" x="224.226618" y="110.929456" width="24.5211754" height="1.30651682"></rect>
                <rect id="Rectangle" fill="#DAE0E9" x="224.226618" y="115.449106" width="24.4971635" height="1.30651682"></rect>
                <rect id="Rectangle" fill="#DAE0E9" x="210.858845" y="106.429209" width="10.4521248" height="10.4521248"></rect>
                <rect id="Rectangle" fill="#DAE0E9" x="34.8304459" y="35.1537071" width="59.2405063" height="108.065099"></rect>
                <polygon id="Path" fill="#FFFFFF" points="40.3638998 137.685353 88.5374984 137.685353 88.5374984 40.6871609 40.3638998 40.6871609"></polygon>
                <rect id="Rectangle" fill="#DAE0E9" x="58.8739964" y="61.4911834" width="14.0690506" height="1.30651682"></rect>
                <rect id="Rectangle" fill="#DAE0E9" x="58.8739964" y="66.0108304" width="24.5211754" height="1.30651682"></rect>
                <rect id="Rectangle" fill="#DAE0E9" x="58.8739964" y="70.5304807" width="24.4971635" height="1.30651682"></rect>
                <rect id="Rectangle" fill="#DAE0E9" x="45.5062231" y="61.510583" width="10.4521248" height="10.4521248"></rect>
                <rect id="Rectangle" fill="#DAE0E9" x="58.8739964" y="83.9504962" width="14.0690506" height="1.30651682"></rect>
                <rect id="Rectangle" fill="#DAE0E9" x="58.8739964" y="88.4701432" width="24.5211754" height="1.30651682"></rect>
                <rect id="Rectangle" fill="#DAE0E9" x="58.8739964" y="92.9897935" width="24.4971635" height="1.30651682"></rect>
                <rect id="Rectangle" fill="#DAE0E9" x="45.5062231" y="83.9698958" width="10.4521248" height="10.4521248"></rect>
                <rect id="Rectangle" fill="#DAE0E9" x="58.8739964" y="106.409809" width="14.0690506" height="1.30651682"></rect>
                <rect id="Rectangle" fill="#DAE0E9" x="58.8739964" y="110.929456" width="24.5211754" height="1.30651682"></rect>
                <rect id="Rectangle" fill="#DAE0E9" x="58.8739964" y="115.449106" width="24.4971635" height="1.30651682"></rect>
                <rect id="Rectangle" fill="#DAE0E9" x="45.5062231" y="106.429209" width="10.4521248" height="10.4521248"></rect>
                <ellipse id="Oval" fill="#DAE0E9" cx="144.521831" cy="146.148282" rx="144.521831" ry="5.85895118"></ellipse>
                <rect id="Rectangle" fill="#4B5461" x="106.80064" y="0" width="80.6527367" height="147.124774"></rect>
                <polygon id="Path" fill="#FFFFFF" points="110.285932 143.381555 183.968102 143.381555 183.968102 3.74321881 110.285932 3.74321881"></polygon>
                <rect id="Rectangle" fill="#0295F6" x="139.534633" y="35.8570448" width="19.1542492" height="1.77874828"></rect>
                <rect id="Rectangle" fill="#DAE0E9" x="139.534633" y="42.0103009" width="33.3842485" height="1.77874828"></rect>
                <rect id="Rectangle" fill="#DAE0E9" x="139.534633" y="48.1635602" width="33.3515588" height="1.77874828"></rect>
                <rect id="Rectangle" fill="#0295F6" x="121.335136" y="35.8834557" width="14.2299993" height="14.2299993"></rect>
                <rect id="Rectangle" fill="#0295F6" x="139.534633" y="66.4341819" width="19.1542492" height="1.77874828"></rect>
                <rect id="Rectangle" fill="#DAE0E9" x="139.534633" y="72.587438" width="33.3842485" height="1.77874828"></rect>
                <rect id="Rectangle" fill="#DAE0E9" x="139.534633" y="78.7406973" width="33.3515588" height="1.77874828"></rect>
                <rect id="Rectangle" fill="#0295F6" x="121.335136" y="66.4605928" width="14.2299993" height="14.2299993"></rect>
                <rect id="Rectangle" fill="#0295F6" x="139.534633" y="97.011319" width="19.1542492" height="1.77874828"></rect>
                <rect id="Rectangle" fill="#DAE0E9" x="139.534633" y="103.164575" width="33.3842485" height="1.77874828"></rect>
                <rect id="Rectangle" fill="#DAE0E9" x="139.534633" y="109.317834" width="33.3515588" height="1.77874828"></rect>
                <rect id="Rectangle" fill="#0295F6" x="121.335136" y="97.0377298" width="14.2299993" height="14.2299993"></rect>
                <path d="M117.669506,104.321881 L116.693014,108.553345 C116.693014,108.553345 117.018511,118.318264 114.414533,117.341772 C111.810554,116.36528 112.461549,107.902351 112.461549,107.902351 L114.74003,103.670886 L117.669506,104.321881 Z" id="Path" fill="#FFB8B8"></path>
                <circle id="Oval" fill="#FFB8B8" cx="103.184876" cy="51.4285714" r="6.50994575"></circle>
                <path d="M98.1396684,53.2188065 L97.4886738,62.6582278 L105.626106,63.6347197 C105.626106,63.6347197 105.626106,55.8227848 106.277101,54.8462929 C106.928095,53.8698011 98.1396684,53.2188065 98.1396684,53.2188065 Z" id="Path" fill="#FFB8B8"></path>
                <path d="M116.204768,65.4249548 L105.66429,60.9612705 C105.66429,60.9612705 100.629173,57.0760893 97.6755613,59.9485345 L96.3494463,61.8444846 C96.3494463,61.8444846 84.6315439,66.4014467 84.6315439,69.9819168 L89.188506,87.8842676 C89.188506,87.8842676 86.5845277,97.9746835 90.4904951,98.6256781 L111.647819,100.578662 C111.647819,100.578662 114.577294,96.9981917 111.973316,92.4412297 L112.949808,81.6998192 L116.204768,65.4249548 Z" id="Path" fill="#0295F6"></path>
                <path d="M109.043827,65.7504521 L116.204768,65.4249548 C116.204768,65.4249548 118.483249,66.0759494 120.110735,72.2603978 C121.738222,78.4448463 122.063719,88.5352622 122.063719,88.5352622 L118.157752,106.76311 L113.275292,106.112116 L115.228276,88.5352622 L111.973303,76.8173599 L109.043827,65.7504521 Z" id="Path" fill="#0295F6"></path>
                <path d="M88.5374984,67.7034358 L85.0070051,68.8029656 C85.0070051,68.8029656 82.0275526,73.2368897 82.0275526,75.5153707 C82.0275526,77.7938517 80.7255635,95.045208 80.7255635,95.045208 L89.1884929,109.041591 L91.7924712,102.206148 L86.5845146,93.4177215 L90.8159794,82.676311 L88.5374984,67.7034358 Z" id="Path" fill="#0295F6"></path>
                <path d="M112.624298,99.9276673 L89.2220843,97.8686203 C89.2220843,97.8686203 86.9100119,112.622061 87.2355092,118.481013 C87.5610065,124.339964 87.8865038,133.453888 87.8865038,133.453888 L85.2825255,173.164557 L95.3729414,171.862568 L96.6749306,138.987342 L100.906395,121.084991 L105.788855,143.869801 L109.043827,173.164557 L117.832254,172.188065 L114.902779,136.708861 C114.902779,136.708861 117.506757,104.810127 112.624298,99.9276673 Z" id="Path" fill="#2F2E41"></path>
                <path d="M115.879271,170.560579 L118.808746,171.537071 C118.808746,171.537071 124.993195,169.909584 123.365708,174.141049 C121.738222,178.372514 117.18126,177.721519 117.18126,177.721519 C117.18126,177.721519 111.647806,181.952984 109.369325,178.698011 L110.671314,171.862568 L115.879271,170.560579 Z" id="Path" fill="#2F2E41"></path>
                <path d="M92.1179685,170.560579 L95.0474441,171.537071 C95.0474441,171.537071 101.231893,169.909584 99.6044061,174.141049 C97.9769197,178.372514 93.4199577,177.721519 93.4199577,177.721519 C93.4199577,177.721519 87.8865038,181.952984 85.6080228,178.698011 L86.9100119,171.862568 L92.1179685,170.560579 Z" id="Path" fill="#2F2E41"></path>
                <path d="M98.1396684,57.124774 C98.1396684,57.124774 91.3042253,52.2423146 94.8846955,46.3833635 C97.3686206,42.3187552 102.51569,42.6404929 105.435365,43.2187942 C107.032167,43.5135234 108.381629,44.5752552 109.043827,46.0578662 C109.532073,47.1971067 109.532073,48.3363472 107.57909,48.3363472 C103.673122,48.3363472 105.626106,51.2658228 105.626106,51.2658228 C105.626106,51.2658228 103.022128,51.9168174 103.673122,54.1952984 C104.324117,56.4737794 98.1396684,57.124774 98.1396684,57.124774 Z" id="Path" fill="#2F2E41"></path>
            </g>
        </g>
    </g>
</svg>