<?xml version="1.0" encoding="UTF-8"?>
<svg width="157px" height="150px" viewBox="0 0 157 150" version="1.1" xmlns="http://www.w3.org/2000/svg" xmlns:xlink="http://www.w3.org/1999/xlink">
    <title>undraw_files1_9ool</title>
    <g id="Products" stroke="none" stroke-width="1" fill="none" fill-rule="evenodd">
        <g id="Product-Groups---Zero-State" transform="translate(-588.000000, -160.000000)" fill-rule="nonzero">
            <g id="undraw_files1_9ool" transform="translate(588.000000, 160.000000)">
                <polygon id="Path" fill-opacity="0.547448645" fill="#DAE0E9" points="97.5308087 149.849807 0 149.849807 0 36.5795892 14.7362003 20.237484 97.5308087 20.237484"></polygon>
                <polygon id="Path" fill="#FAFAFA" points="96.0250321 146.405006 1.72336329 146.405006 1.72336329 37.4634146 15.970475 21.7451861 96.0250321 21.7451861"></polygon>
                <rect id="Rectangle" fill="#F1F4F8" x="10.9293967" y="35.2008986" width="45.9415918" height="7.75032092"></rect>
                <rect id="Rectangle" fill="#F1F4F8" x="11.0218228" y="56.4088575" width="33.6662388" height="7.75032092"></rect>
                <rect id="Rectangle" fill="#0295F6" x="11.0218228" y="88.2727856" width="75.5160462" height="28.4191271"></rect>
                <rect id="Rectangle" fill="#F5F5F5" x="69.4255456" y="35.3087291" width="17.1123235" height="7.75032092"></rect>
                <rect id="Rectangle" fill="#F5F5F5" x="69.4255456" y="47.3664955" width="17.1123235" height="7.75032092"></rect>
                <polygon id="Path" fill-opacity="0.55" fill="#DAE0E9" points="17.4396662 21.7451861 17.4396662 38.9691913 1.72336329 38.9691913 1.72336329 37.4634146 15.9319641 21.7451861"></polygon>
                <polygon id="Path" fill="#DAE0E9" points="1.68485237 37.4634146 15.9319641 21.7451861 15.9319641 37.4634146"></polygon>
                <polygon id="Path" fill-opacity="0.547448645" fill="#DAE0E9" points="127.457638 139.084082 29.9268293 139.084082 29.9268293 25.8138639 44.6630295 9.47368421 127.457638 9.47368421"></polygon>
                <polygon id="Path" fill="#FAFAFA" points="125.951861 135.639281 31.6501926 135.639281 31.6501926 26.6976893 45.8973042 10.9794608 125.951861 10.9794608"></polygon>
                <rect id="Rectangle" fill="#F1F4F8" x="40.8562259" y="24.4370988" width="45.9415918" height="7.75032092"></rect>
                <rect id="Rectangle" fill="#F1F4F8" x="40.9486521" y="45.6431322" width="33.6662388" height="7.75032092"></rect>
                <rect id="Rectangle" fill="#0295F6" x="40.9486521" y="77.5089859" width="75.5160462" height="28.4191271"></rect>
                <rect id="Rectangle" fill="#F5F5F5" x="99.3523748" y="24.5449294" width="17.1123235" height="7.75032092"></rect>
                <rect id="Rectangle" fill="#F5F5F5" x="99.3523748" y="36.6007702" width="17.1123235" height="7.75032092"></rect>
                <polygon id="Path" fill-opacity="0.55" fill="#DAE0E9" points="47.3664955 10.9794608 47.3664955 28.203466 31.6501926 28.203466 31.6501926 26.6976893 45.8587933 10.9794608"></polygon>
                <polygon id="Path" fill="#DAE0E9" points="31.6116816 26.6976893 45.8587933 10.9794608 45.8587933 26.6976893"></polygon>
                <polygon id="Path" fill-opacity="0.547448645" fill="#DAE0E9" points="156.739409 129.612323 59.2086008 129.612323 59.2086008 16.3421053 73.9428755 0 156.739409 0"></polygon>
                <polygon id="Path" fill="#FFFFFF" points="155.231707 126.167522 60.9300385 126.167522 60.9300385 17.2240051 75.1790757 1.50770218 155.231707 1.50770218"></polygon>
                <rect id="Rectangle" fill="#F1F4F8" x="70.1379974" y="14.9634146" width="45.9415918" height="7.75032092"></rect>
                <rect id="Rectangle" fill="#F1F4F8" x="70.2304236" y="36.1713736" width="33.6662388" height="7.75032092"></rect>
                <rect id="Rectangle" fill="#0295F6" x="70.2304236" y="68.0353017" width="75.5160462" height="28.4191271"></rect>
                <rect id="Rectangle" fill="#F1F4F8" x="128.634146" y="15.0712452" width="17.1123235" height="7.75032092"></rect>
                <rect id="Rectangle" fill="#F1F4F8" x="128.634146" y="27.127086" width="17.1123235" height="7.75032092"></rect>
                <rect id="Rectangle" fill="#F1F4F8" x="128.634146" y="39.1848524" width="17.1123235" height="7.75032092"></rect>
                <polygon id="Path" fill-opacity="0.55" fill="#DAE0E9" points="76.648267 1.50770218 76.648267 18.7317073 60.9300385 18.7317073 60.9300385 17.2240051 75.1405648 1.50770218"></polygon>
                <polygon id="Path" fill="#DAE0E9" points="60.8915276 17.2240051 75.1405648 1.50770218 75.1405648 17.2240051"></polygon>
            </g>
        </g>
    </g>
</svg>