<?xml version="1.0" encoding="UTF-8"?>
<svg width="524px" height="374px" viewBox="0 0 524 374" version="1.1" xmlns="http://www.w3.org/2000/svg" xmlns:xlink="http://www.w3.org/1999/xlink">
    <title>undraw_visual_data_b1wx</title>
    <defs>
        <linearGradient x1="99.982811%" y1="50.0000413%" x2="0.0187255522%" y2="50.0000413%" id="linearGradient-1">
            <stop stop-color="#808080" stop-opacity="0.25" offset="0%"></stop>
            <stop stop-color="#808080" stop-opacity="0.12" offset="54%"></stop>
            <stop stop-color="#808080" stop-opacity="0.1" offset="100%"></stop>
        </linearGradient>
    </defs>
    <g id="Sign-Up---Individual" stroke="none" stroke-width="1" fill="none" fill-rule="evenodd">
        <g id="Login-Landing-Page" transform="translate(-130.000000, -187.000000)">
            <g id="undraw_visual_data_b1wx" transform="translate(130.000000, 187.000000)">
                <ellipse id="Oval" fill="#0295F6" fill-rule="nonzero" opacity="0.1" cx="459.673077" cy="364.884615" rx="30.5769231" ry="8.15384615"></ellipse>
                <path d="M509.854782,330.770854 C498.257942,340.39113 481.755663,344.372591 465.796316,346.887197 L463.11023,347.296774 C446.441262,349.782805 429.586553,351.106784 412.674693,351.911649 C403.625825,352.3498 394.576956,352.659363 385.528087,352.935589 L378.436631,353.145139 C369.22901,353.41819 360.003927,353.686478 350.76138,353.950004 C341.712512,354.20718 332.663643,354.44848 323.614774,354.673906 C312.025872,354.956482 300.43697,355.191432 288.848068,355.378758 C279.799199,355.521633 270.75033,355.620059 261.701461,355.674034 C250.109384,355.740709 238.520482,355.718484 226.934755,355.607358 C217.879536,355.515283 208.830667,355.356533 199.788148,355.131107 C188.192896,354.832656 176.603994,354.396093 165.021442,353.821416 C157.160039,353.43724 149.303398,352.975276 141.45152,352.435525 L137.874836,352.183112 C104.170181,349.75423 69.8606801,345.396531 40.3661304,331.623344 L39.5707825,331.247105 C39.1754898,331.061367 38.7801971,330.875629 38.3849044,330.680366 C32.9694801,328.091249 27.7821205,325.049921 22.8780008,321.588729 C14.1577488,315.368887 6.95675427,307.777442 3.15146681,298.77153 C-2.81126147,284.645917 0.341554923,268.767699 7.15201934,254.956412 C13.9624837,241.145124 24.1877055,228.676866 33.0317841,215.670443 C35.6226181,211.860433 38.0801004,207.907547 40.3661304,203.854649 C54.653818,178.437118 61.740511,149.023838 46.7622519,124.530235 C44.785208,121.407352 42.6504026,118.387183 40.3661304,115.48146 C36.7132449,110.718947 32.9984462,105.956434 30.4885757,100.684333 C24.6353864,88.4160995 25.8927029,74.6190998 28.0263309,61.5126644 C30.8838684,44.0866299 36.1226872,25.3175667 52.4963771,14.4304623 C69.4844377,3.12425675 93.5972918,3.69575829 114.681156,7.76294427 C147.461874,14.0446987 177.718434,27.1939967 208.260747,39.0526538 C238.803061,50.9113108 270.797956,61.7555526 304.378784,62.9223682 C311.592469,63.1692247 318.814583,62.9066341 325.991293,62.1365536 L325.991293,62.1365536 C335.558747,61.1533899 344.996154,59.166 354.147562,56.2072251 C367.363673,51.8542883 379.389144,45.3058331 388.304661,36.2046711 C407.426349,16.749806 443.359884,15.2781896 469.268224,27.0273088 C493.990686,38.2382641 509.978608,61.9651031 508.797493,85.6633671 C507.45445,112.042926 487.699341,133.731409 469.596841,155.977107 C467.401299,158.672689 465.234333,161.377797 463.124518,164.101954 C461.946578,165.622783 460.790863,167.146787 459.657373,168.673966 L459.657373,168.673966 C457.671384,171.369549 455.752071,174.079418 453.942298,176.822626 C444.693401,190.886326 438.154403,207.778959 444.521949,222.96185 C448.093871,231.462936 454.909098,237.949478 463.124518,243.612106 C481.531822,256.294678 506.940093,264.829101 518.370243,282.583749 C528.219223,297.885703 524.5711,318.540721 509.854782,330.770854 Z" id="Path" fill="#0295F6" fill-rule="nonzero" opacity="0.1"></path>
                <g id="Group" opacity="0.1" transform="translate(217.096154, 0.000000)" fill-rule="nonzero">
                    <path d="M47.2173779,261.225897 C47.2365525,261.672884 47.270108,262.110361 47.3180444,262.538327 C51.0474982,261.064221 54.7082432,259.479161 58.3002792,257.783146 C60.2172221,257.530837 61.9992108,256.666187 63.3767466,255.319962 C64.4265543,254.796892 65.4715683,254.250046 66.5069951,253.7032 C66.2726905,253.211333 66.0068993,252.734841 65.7112504,252.276646 C63.693127,249.11445 60.6251958,247.136294 57.2456779,247.245664 C53.86616,247.355033 50.9420381,249.528151 49.1348349,252.804471 C47.7482833,255.391114 47.086148,258.299197 47.2173779,261.225897 L47.2173779,261.225897 Z" id="Path" fill="#3F3D56"></path>
                    <path d="M46.6661091,244.597027 C46.7383916,247.510913 47.590406,250.353338 49.1348349,252.833002 C51.157752,255.985687 54.2256832,257.963843 57.6052011,257.854474 C57.8400896,257.854474 58.0845653,257.821187 58.3002792,257.802167 C60.2172221,257.549858 61.9992108,256.685208 63.3767466,255.338982 C64.3116613,254.456461 65.0996105,253.432481 65.7112504,252.305177 C68.4615492,247.041219 68.2545611,240.737306 65.1647752,235.662041 C63.1418581,232.499846 60.0739269,230.52169 56.694409,230.631059 C53.3148911,230.740428 50.3955629,232.913546 48.5883597,236.189866 C47.2028795,238.771915 46.5391738,241.6747 46.6661091,244.597027 L46.6661091,244.597027 Z" id="Path" fill="#3F3D56"></path>
                    <ellipse id="Oval" fill="#3F3D56" transform="translate(56.601950, 227.619958) rotate(-1.880000) translate(-56.601950, -227.619958) " cx="56.6019505" cy="227.619958" rx="10.4836061" ry="13.6142035"></ellipse>
                    <ellipse id="Oval" fill="#3F3D56" transform="translate(56.052303, 210.994203) rotate(-1.880000) translate(-56.052303, -210.994203) " cx="56.0523031" cy="210.994203" rx="10.4836061" ry="13.6142035"></ellipse>
                    <ellipse id="Oval" fill="#3F3D56" transform="translate(55.502653, 194.363537) rotate(-1.880000) translate(-55.502653, -194.363537) " cx="55.5026532" cy="194.363537" rx="10.4836061" ry="13.6142035"></ellipse>
                    <path d="M90.9785397,79.3021623 C92.350221,77.4483269 93.5899845,75.5019119 94.6888189,73.477065 L67.0103275,69.8916581 L96.7884343,69.1403394 C102.149008,56.4969015 102.024173,42.2216184 96.4432921,29.6723327 L57.1785669,51.5223918 L93.1308851,23.4668208 C83.155348,7.72417868 65.170841,-1.19603691 46.489526,0.332965683 C27.808211,1.86196828 11.5407751,13.5855898 4.30125136,30.7372266 C-2.93827239,47.8888634 0.0555928995,67.61254 12.065598,81.8889811 C9.92927888,84.7752215 8.11165116,87.8807302 6.64398841,91.1520747 L42.9845917,108.403873 L4.4628811,96.9629065 C-0.444186151,113.077515 3.18164257,130.560414 14.102896,143.444806 C-1.39694783,164.383387 1.92948708,193.622863 21.7437458,210.608137 C41.5580045,227.593411 71.2048261,226.619427 89.8427514,208.370887 C108.480677,190.122348 109.849555,160.728617 92.9870759,140.853232 C106.711634,122.333241 105.881791,96.9029003 90.9785397,79.3021623 Z" id="Path" fill="#0295F6"></path>
                    <path d="M2.34383562,112.997379 C2.6942289,124.166424 6.83784531,134.890587 14.102896,143.43054 C-1.40101107,164.366282 1.91992079,193.606508 21.7310918,210.595475 C41.5422629,227.584441 71.1893967,226.615808 89.830695,208.370521 C108.471993,190.125233 109.846122,160.731609 92.9870759,140.853232 C99.4345249,132.170271 2.16193274,107.41004 2.34383562,112.997379 Z" id="Path" fill="#0295F6"></path>
                </g>
                <g id="Group" opacity="0.1" transform="translate(114.153846, 162.057692)" fill-rule="nonzero">
                    <path d="M41.1033555,186.377056 C41.1033555,186.691207 41.0699692,187.005357 41.0318134,187.329028 C38.3927026,186.281859 35.7996967,185.160118 33.2527959,183.963807 C31.8957743,183.78676 30.633416,183.173562 29.65661,182.216939 C28.9125715,181.839323 28.1733025,181.455361 27.438803,181.065053 C27.6045527,180.717007 27.7925394,180.379949 28.0016013,180.055963 C29.4324445,177.799789 31.5977872,176.390871 33.9920648,176.467029 C36.3863425,176.543186 38.4562956,178.085381 39.7154376,180.417712 C40.7012775,182.245484 41.1804069,184.302736 41.1033555,186.377056 L41.1033555,186.377056 Z" id="Path" fill="#3F3D56"></path>
                    <path d="M41.4753748,174.529766 C41.4284113,176.605096 40.8292364,178.630626 39.739285,180.398672 C38.3084418,182.645326 36.1383296,184.059004 33.7488215,183.982847 L33.2718738,183.944768 C31.9148522,183.76772 30.6524939,183.154522 29.6756879,182.197899 C29.0122393,181.570116 28.4535312,180.8406 28.0206792,180.036923 C26.075544,176.29113 26.2163659,171.806529 28.3926985,168.189633 C29.8235417,165.93346 31.9936538,164.524541 34.383162,164.600699 C36.7726701,164.676857 38.8473928,166.219051 40.1303821,168.551382 C41.1046567,170.388909 41.5690165,172.452951 41.4753748,174.529766 L41.4753748,174.529766 Z" id="Path" fill="#3F3D56"></path>
                    <ellipse id="Oval" fill="#3F3D56" transform="translate(34.443081, 162.470417) rotate(-88.190000) translate(-34.443081, -162.470417) " cx="34.4430808" cy="162.470417" rx="9.6958532" ry="7.42129178"></ellipse>
                    <ellipse id="Oval" fill="#3F3D56" transform="translate(34.813695, 150.625142) rotate(-88.190000) translate(-34.813695, -150.625142) " cx="34.8136954" cy="150.625142" rx="9.6958532" ry="7.42129178"></ellipse>
                    <ellipse id="Oval" fill="#3F3D56" transform="translate(35.189230, 138.775110) rotate(-88.190000) translate(-35.189230, -138.775110) " cx="35.1892302" cy="138.77511" rx="9.6958532" ry="7.42129178"></ellipse>
                    <path d="M9.97297707,56.8232019 C9.0004875,55.5026328 8.11927369,54.1174801 7.33545611,52.6773643 L26.9284689,50.0784811 L5.84260971,49.6024951 C2.03394069,40.5989286 2.109848,30.4272006 6.05246672,21.4812456 L33.8728279,37.0126669 L8.39428008,17.0450566 C15.4220243,5.77818734 28.1629006,-0.632428926 41.4186323,0.428738883 C54.674364,1.48990669 66.2283785,9.84541416 71.3666385,22.0862147 C76.5048985,34.3270153 74.3682039,48.4062493 65.8283259,58.57959 C67.3456689,60.6338725 68.6361483,62.8457655 69.6772941,65.1767552 L43.9602724,77.4952714 L71.2273743,69.3083132 C74.7137949,80.7858073 72.1633079,93.24403 64.4451775,102.436935 C75.4425776,117.336256 73.118726,138.168712 59.1072397,150.289542 C45.0957534,162.410373 24.102723,161.748508 10.8857899,148.769225 C-2.33114313,135.789942 -3.33275779,114.852641 8.58505917,100.675787 C-1.14694567,87.4915314 -0.573436446,69.3729292 9.97297707,56.8279617 L9.97297707,56.8232019 Z" id="Path" fill="#0295F6"></path>
                    <path d="M72.7394926,80.7462554 C72.5002161,88.7021486 69.577837,96.3447172 64.4451775,102.436935 C75.4425776,117.336256 73.118726,138.168712 59.1072397,150.289542 C45.0957534,162.410373 24.102723,161.748508 10.8857899,148.769225 C-2.33114313,135.789942 -3.33275779,114.852641 8.58505917,100.675787 C4.01113042,94.4879695 72.8728439,76.762253 72.7394926,80.7462554 Z" id="Path" fill="#000000"></path>
                </g>
                <g id="Group" opacity="0.1" transform="translate(361.826923, 99.884615)" fill-rule="nonzero">
                    <path d="M40.9936575,186.353257 C40.9936575,186.672167 40.9602712,186.981558 40.9268849,187.305228 C38.2845944,186.258059 35.6915886,185.136319 33.1478674,183.940008 C31.7896585,183.762278 30.5259886,183.149255 29.546912,182.193139 C28.807643,181.817111 28.0636045,181.431562 27.329105,181.041253 C27.4967052,180.694162 27.6846296,180.357216 27.8919034,180.032163 C29.3227465,177.77599 31.4880893,176.367071 33.8823669,176.443229 C36.2766445,176.519387 38.3465976,178.061581 39.6057396,180.393913 C40.5915795,182.221685 41.0707089,184.278937 40.9936575,186.353257 L40.9936575,186.353257 Z" id="Path" fill="#3F3D56"></path>
                    <path d="M41.3942936,174.505966 C41.3458923,176.581739 40.7450619,178.6073 39.6534344,180.374873 C38.2225912,182.621527 36.0572485,184.035205 33.6629709,183.959047 L33.1860232,183.920968 C31.8278143,183.743238 30.5641444,183.130216 29.5850678,182.1741 C28.923535,181.5446 28.3650737,180.815406 27.9300592,180.013124 C25.9849239,176.26733 26.1257458,171.78273 28.3020784,168.165834 C29.7329216,165.91442 31.9030338,164.500742 34.2925419,164.5769 C36.68205,164.653057 38.7615422,166.195252 40.0397621,168.527583 C41.0173427,170.364194 41.4850072,172.428286 41.3942936,174.505966 L41.3942936,174.505966 Z" id="Path" fill="#3F3D56"></path>
                    <ellipse id="Oval" fill="#3F3D56" transform="translate(34.349367, 162.442894) rotate(-88.190000) translate(-34.349367, -162.442894) " cx="34.3493673" cy="162.442894" rx="9.6958532" ry="7.42129178"></ellipse>
                    <ellipse id="Oval" fill="#3F3D56" transform="translate(34.724902, 150.597621) rotate(-88.190000) translate(-34.724902, -150.597621) " cx="34.7249021" cy="150.597621" rx="9.6958532" ry="7.42129178"></ellipse>
                    <ellipse id="Oval" fill="#3F3D56" transform="translate(35.100284, 138.752496) rotate(-88.190000) translate(-35.100284, -138.752496) " cx="35.1002838" cy="138.752496" rx="9.6958532" ry="7.42129178"></ellipse>
                    <path d="M9.86327909,56.7994026 C8.88961083,55.4806121 8.00986658,54.0952642 7.23052761,52.653565 L26.8235404,50.0784811 L5.73768121,49.5691761 C1.93088976,40.5655903 2.00506171,30.3952595 5.94276874,21.4479266 L33.7631299,36.9793479 L8.2845821,17.0212573 C15.3004682,5.72610703 28.0522764,-0.710033394 41.3264306,0.344251684 C54.6005849,1.39853676 66.1718362,9.7665094 71.3092792,22.0269245 C76.4467222,34.2873395 74.2891276,48.3848891 65.718628,58.5557907 C67.2344377,60.6102107 68.5233213,62.8221094 69.5628267,65.1529559 L43.845805,77.4714721 L71.1129068,69.2845139 C74.6047848,80.7602322 72.0536815,93.2196751 64.3307101,102.408376 C75.3296607,117.30522 73.0078935,138.137008 58.99775,150.257742 C44.9876065,162.378477 23.9954774,161.716471 10.7800887,148.737155 C-2.43529992,135.757839 -3.43453742,114.82132 8.48490015,100.647228 C-1.2471047,87.4629723 -0.673595469,69.3443701 9.87281805,56.7994026 L9.86327909,56.7994026 Z" id="Path" fill="#0295F6"></path>
                    <path d="M72.6345374,80.7224561 C72.3954805,88.6777979 69.4711452,96.3194097 64.3354795,102.408376 C75.3322657,117.305588 73.0091945,138.135879 58.9993911,150.255499 C44.9895877,162.37512 23.9988024,161.713213 10.7836126,148.735101 C-2.43157721,135.756989 -3.43232387,114.821887 8.48490015,100.647228 C3.90620192,94.4641702 72.7583765,76.7336939 72.6345374,80.7224561 Z" id="Path" fill="#000000"></path>
                </g>
                <ellipse id="Oval" fill="#0295F6" fill-rule="nonzero" cx="92.2403846" cy="356.221154" rx="27.0096154" ry="5.60576923"></ellipse>
                <ellipse id="Oval" fill="#3F3D56" fill-rule="nonzero" cx="91.7307692" cy="354.182692" rx="3.05769231" ry="4.58653846"></ellipse>
                <ellipse id="Oval" fill="#3F3D56" fill-rule="nonzero" cx="91.7307692" cy="349.086538" rx="3.05769231" ry="4.58653846"></ellipse>
                <ellipse id="Oval" fill="#3F3D56" fill-rule="nonzero" cx="91.7307692" cy="345.009615" rx="3.05769231" ry="4.58653846"></ellipse>
                <ellipse id="Oval" fill="#3F3D56" fill-rule="nonzero" cx="91.7307692" cy="338.894231" rx="3.05769231" ry="4.58653846"></ellipse>
                <ellipse id="Oval" fill="#3F3D56" fill-rule="nonzero" cx="91.7307692" cy="334.817308" rx="3.05769231" ry="4.58653846"></ellipse>
                <ellipse id="Oval" fill="#3F3D56" fill-rule="nonzero" cx="91.7307692" cy="329.721154" rx="3.05769231" ry="4.58653846"></ellipse>
                <ellipse id="Oval" fill="#3F3D56" fill-rule="nonzero" cx="91.7307692" cy="323.605769" rx="3.05769231" ry="4.58653846"></ellipse>
                <path d="M103.745005,289.347556 C104.180115,288.800845 104.576861,288.225603 104.932486,287.625826 L96.5480016,286.268308 L105.615168,286.339259 C107.372575,282.574265 107.478627,278.263835 105.908432,274.419592 L93.7403532,280.630117 L104.961332,272.499201 C102.093723,267.631198 96.7044341,264.744829 90.992385,265.017783 C85.2803359,265.290736 80.2007208,268.677366 77.8261071,273.795872 C75.4514934,278.914378 76.1789746,284.90882 79.7117263,289.333365 C79.0336932,290.184066 78.4502448,291.103785 77.9713689,292.076781 L88.8558142,297.639292 L77.2502263,293.807971 C75.593949,298.622817 76.5197337,303.934884 79.7117263,307.93183 C74.7843273,314.098672 75.501088,322.955668 81.3582351,328.277704 C87.2153823,333.59974 96.2461562,333.59974 102.103303,328.277704 C107.96045,322.955668 108.677211,314.098672 103.749812,307.93183 C108.108765,302.474021 108.108765,294.791175 103.749812,289.333365 L103.745005,289.347556 Z" id="Path" fill="#0295F6" fill-rule="nonzero"></path>
                <path d="M76.4423077,298.854877 C76.436918,302.20607 77.5888181,305.461015 79.7117263,308.092658 C74.7843273,314.218748 75.501088,323.017214 81.3582351,328.304081 C87.2153823,333.590947 96.2461562,333.590947 102.103303,328.304081 C107.96045,323.017214 108.677211,314.218748 103.749812,308.092658 C105.793049,305.550624 76.4423077,297.177417 76.4423077,298.854877 Z" id="Path" fill="#00233A" fill-rule="nonzero" opacity="0.1"></path>
                <path d="M165.115385,246.749771 L165.115385,353.673077 C157.146073,353.291433 149.181589,352.832515 141.221933,352.296321 L137.596154,352.045572 L137.596154,246.749771 C137.596154,245.643063 138.044788,244.581683 138.843363,243.799122 C139.641938,243.016561 140.725038,242.576923 141.854393,242.576923 L160.857146,242.576923 C161.986501,242.576923 163.069601,243.016561 163.868175,243.799122 C164.66675,244.581683 165.115385,245.643063 165.115385,246.749771 L165.115385,246.749771 Z" id="Path" fill="#4B5461" fill-rule="nonzero"></path>
                <path d="M199.769231,355.240195 L199.769231,174.410784 C199.769231,172.091605 201.675709,170.211538 204.02747,170.211538 L223.030223,170.211538 C224.159578,170.211538 225.242678,170.653958 226.041252,171.441469 C226.839827,172.22898 227.288462,173.297075 227.288462,174.410784 L227.288462,355.711538 L199.769231,355.240195 Z" id="Path" fill="#4B5461" fill-rule="nonzero"></path>
                <path d="M261.942308,354.692308 L261.942308,212.087882 C261.942308,209.787724 263.848786,207.923077 266.200547,207.923077 L285.2033,207.923077 C287.55506,207.923077 289.461538,209.787724 289.461538,212.087882 L289.461538,354.385378 L261.942308,354.692308 Z" id="Path" fill="#4B5461" fill-rule="nonzero"></path>
                <path d="M350.615385,106.108296 L350.615385,353.971045 C341.442308,354.227283 332.269231,354.467704 323.096154,354.692308 L323.096154,106.108296 C323.096154,103.796864 325.002632,101.923077 327.354393,101.923077 L346.357146,101.923077 C348.708906,101.923077 350.615385,103.796864 350.615385,106.108296 L350.615385,106.108296 Z" id="Path" fill="#4B5461" fill-rule="nonzero"></path>
                <path d="M412.788462,155.044432 L412.788462,351.630456 C403.615385,352.068372 394.442308,352.377769 385.269231,352.653846 L385.269231,155.044432 C385.269231,152.725787 387.175709,150.846154 389.52747,150.846154 L408.530223,150.846154 C410.881983,150.846154 412.788462,152.725787 412.788462,155.044432 Z" id="Path" fill="#4B5461" fill-rule="nonzero"></path>
                <polyline id="Path" stroke="#4B5461" stroke-width="7" stroke-linecap="round" points="151.865385 183.461538 213.783654 114.560161 275.701923 149.248441 337.620192 42.8076923 399.538462 93.652157"></polyline>
                <circle id="Oval" fill="#0295F6" fill-rule="nonzero" cx="151.865385" cy="183.461538" r="13.25"></circle>
                <circle id="Oval" fill="#0295F6" fill-rule="nonzero" cx="213.019231" cy="114.153846" r="13.25"></circle>
                <circle id="Oval" fill="#0295F6" fill-rule="nonzero" cx="275.192308" cy="149.826923" r="13.25"></circle>
                <circle id="Oval" fill="#0295F6" fill-rule="nonzero" cx="337.365385" cy="42.8076923" r="13.25"></circle>
                <circle id="Oval" fill="#0295F6" fill-rule="nonzero" cx="455.596154" cy="155.942308" r="13.25"></circle>
                <path d="M404.710311,163.276222 C404.798478,164.110319 405.128858,164.900155 405.660514,165.547859 C406.349411,166.328883 407.380381,166.686058 408.306829,167.152768 C410.704424,168.382864 412.535751,170.493228 413.41892,173.043783 C415.001007,177.672778 415.205301,182.568464 417.219731,187.03554 C419.234161,191.502615 421.600166,195.793484 423.339037,200.370094 C424.327248,202.965569 425.115916,205.665817 426.564976,208.027938 C427.2665,209.18965 428.161577,210.222167 429.21129,211.080598 C429.102017,212.756942 429.059258,214.414236 429.06876,216.09058 C429.721291,216.077687 430.334772,216.401342 430.693607,216.947802 C431.04519,217.49075 431.287297,218.09746 431.406259,218.733679 C432.057148,221.433927 431.254226,224.31038 431.838601,227.024914 C433.444075,234.57573 432.951063,242.423421 430.413297,249.712705 C429.762408,251.560493 428.945234,257.675339 429.638882,259.50884 C432.223433,259.246911 434.513422,260.837533 436.931688,261.89001 C437.127216,263.326726 437.010525,264.788834 436.589615,266.176117 C435.72018,268.68587 435.724931,271.414692 435.739184,274.067315 L435.857959,293.716733 C435.857959,296.207437 435.891216,298.731478 436.513599,301.145984 C437.2215,303.865281 438.708567,306.636963 438.661057,309.446744 C438.53278,315.494917 441.383388,321.257349 441.15534,327.257898 C441.11258,328.410385 440.955797,329.553346 440.846524,330.696308 C440.565945,333.741083 440.642484,336.808333 441.074572,339.83524 C441.939257,345.864363 444.224495,351.793477 443.654373,357.855937 C443.616365,358.265498 443.478585,358.808405 443.093753,358.965562 C443.568855,359.503707 444.072462,360.037089 444.585572,360.546659 C444.481744,360.720196 444.340519,360.868266 444.172233,360.980032 C443.610832,361.273916 442.990393,361.436722 442.357346,361.456266 C441.614622,361.475799 440.893465,361.710692 440.281153,362.132519 C439.836067,362.560571 439.534025,363.116189 439.416468,363.723141 C439.074418,364.9368 439.282969,366.239867 439.98659,367.285371 C440.410801,367.820651 440.965516,368.237269 441.597184,368.495006 C443.792152,369.447474 446.31019,368.756935 448.600179,368.061633 L457.570093,365.337574 C458.117217,365.223658 458.62211,364.959894 459.028654,364.5756 C459.214658,364.355345 459.337779,364.088769 459.38498,363.8041 C461.366153,364.280334 463.542118,363.694567 465.561299,363.089749 L474.531213,360.360928 C475.079105,360.249178 475.584561,359.98512 475.989774,359.598954 C476.316639,359.200455 476.4506,358.677286 476.355602,358.170251 C476.422117,358.141677 476.488631,358.122628 476.555145,358.089292 C477.239291,357.779739 477.980449,357.174922 477.814164,356.446284 C477.695388,355.97005 477.220287,355.693834 477.015993,355.255699 C476.82044,354.675938 476.947101,354.035683 477.348564,353.574593 C477.700139,353.098359 478.175241,352.703084 478.49831,352.203039 C479.534031,350.612417 478.830881,348.521749 478.441298,346.659674 C477.600368,342.68312 478.379534,338.530359 477.847421,334.501418 C477.666882,333.144151 477.339062,331.810696 477.077757,330.462953 C476.524047,327.277459 476.157587,324.062098 475.980272,320.833501 C475.638199,316.223555 474.360177,311.680282 475.091833,307.108435 C475.447129,304.425176 475.598014,301.718688 475.543179,299.012456 C475.594871,297.288505 475.520238,295.563075 475.319881,293.850078 C475.134592,292.573771 474.806772,291.321276 474.664241,290.040206 C474.548604,288.600231 474.523216,287.154401 474.588225,285.711238 C474.653734,282.494159 474.357301,279.279929 473.704537,276.129409 C472.754334,271.800441 470.967953,267.657205 470.20779,263.318713 C470.464345,263.375861 470.7209,263.433009 470.967953,263.499682 C470.996459,260.166043 468.084087,252.917761 467.005607,249.755566 C466.847738,249.368226 466.751546,248.958433 466.720546,248.54117 C466.785752,247.990878 466.885724,247.445288 467.01986,246.907687 C467.157639,245.7552 466.544758,244.659862 466.378473,243.507375 C466.313691,242.696685 466.372972,241.880832 466.55426,241.088106 C467.319174,236.825811 468.269377,232.596853 469.219579,228.372657 C469.63387,226.842726 469.776989,225.251768 469.64242,223.672227 C469.419002,221.978518 469.938912,220.270886 471.067724,218.990846 C471.485174,218.604767 471.840907,218.156631 472.122449,217.662153 C472.280452,217.237824 472.351548,216.785936 472.331494,216.33346 C472.312624,214.374517 472.024863,212.4275 471.476311,210.547216 C472.312489,209.028029 472.621305,207.161192 472.863607,205.399126 C473.395721,201.508293 473.927834,197.598412 473.90883,193.66948 C473.951161,191.573513 473.662535,189.484022 473.053648,187.478438 C472.608878,186.239801 472.065513,185.039001 471.428801,183.887633 C468.929767,179.063382 466.540007,173.986727 463.385334,169.567274 C462.435131,168.224294 463.033759,166.371744 463.100273,164.714449 C463.171539,162.714266 462.38287,160.795043 461.608455,158.956779 C461.21337,157.825416 460.607128,156.779741 459.822074,155.875545 C459.285474,155.283549 458.529424,154.93907 457.731627,154.923077 C456.82654,155.033925 456.013781,155.532471 455.503402,156.289869 C454.342865,157.874461 453.862211,159.858241 454.168367,161.799897 C454.483993,163.724131 455.320467,165.524614 456.586633,167.005135 C457.198231,167.750105 457.898695,168.417052 458.672328,168.991031 C459.457829,171.492848 460.249665,173.993076 461.047835,176.491718 C462.302103,180.468272 463.556371,184.463876 465.323748,188.226125 C465.841608,189.316701 466.41173,190.426327 466.473493,191.631199 C466.540007,192.931318 465.998392,194.169526 465.56605,195.393448 C464.655225,197.944397 464.139309,200.620068 464.036223,203.327507 C463.897329,203.389239 463.763835,203.462517 463.637138,203.546575 C462.140568,204.527617 461.670218,206.665908 460.111885,207.542179 C459.204442,208.051749 458.102207,208.018413 457.08549,208.251768 C456.99522,208.251768 456.904951,208.299391 456.809931,208.327965 C456.771923,208.137471 456.733915,207.95174 456.710159,207.756484 C456.695572,207.634688 456.695572,207.51158 456.710159,207.389784 C459.13266,206.054696 461.167619,204.111707 462.61567,201.751173 C462.920788,201.314014 463.15639,200.832047 463.314069,200.32247 C463.442302,199.711844 463.466398,199.083853 463.385334,198.465158 C463.305976,196.400153 463.011395,194.349129 462.506397,192.34555 C461.999525,190.332286 460.890434,188.522601 459.327968,187.159361 C458.548802,186.530732 457.65086,186.05926 456.876445,185.425869 C455.365622,184.201947 454.329901,182.392258 452.600532,181.482651 C450.327045,180.372773 447.585978,181.083394 446.134402,183.158995 C445.904357,183.623626 445.580833,184.035482 445.184199,184.368629 C444.881689,184.512088 444.586737,184.671042 444.300511,184.844863 C443.777899,185.263949 443.749393,186.068785 443.92043,186.721225 C444.244622,188.061837 444.426174,189.43311 444.462045,190.812076 C441.295331,194.537174 441.283269,200.012275 444.433539,203.751356 C444.433539,204.637151 444.433539,205.522946 444.400282,206.408742 C444.400282,206.575424 444.400282,206.746868 444.367025,206.91355 C443.819117,206.722183 443.328681,206.394446 442.941721,205.961082 C442.409607,205.294354 442.314587,204.313312 441.663698,203.765643 C441.195636,203.456311 440.662066,203.260638 440.105365,203.194162 C438.721751,202.879078 437.424177,202.262887 436.304554,201.389235 C435.425617,200.70822 434.513422,199.836712 433.487203,199.636693 C431.716431,196.307221 429.64926,193.144878 427.310885,190.188209 C426.717845,189.4883 426.177889,188.744886 425.69554,187.964196 C424.674072,186.178319 424.370007,184.078126 423.723869,182.120804 C421.918484,176.634588 417.414523,172.234185 416.317038,166.557475 C415.917953,164.500144 414.616175,162.709504 413.722985,160.814092 C413.119606,159.533023 412.454464,158.180518 411.247706,157.447117 C409.694125,156.494649 407.546666,156.932785 406.254391,158.213854 C404.986739,159.571363 404.41671,161.440241 404.710311,163.276222 L404.710311,163.276222 Z M461.1191,356.003386 C460.557699,356.29727 459.93726,356.460076 459.304213,356.47962 C458.984931,356.512921 458.667718,356.563796 458.35401,356.632015 C458.235235,355.631924 458.168721,354.617545 458.092705,353.631741 C457.840901,350.398111 457.337293,347.188294 456.838437,343.983239 C456.315825,340.6496 456.068773,337.001647 454.938031,333.801354 C453.118393,328.591354 451.274999,323.224196 451.507799,317.704643 C451.56006,316.452147 451.716844,315.209176 451.783358,313.961443 C451.93539,310.870684 451.503048,307.713252 452.258459,304.708215 C452.595781,303.341423 453.170654,302.036542 453.389201,300.645939 C453.528597,299.390111 453.54451,298.123589 453.436711,296.86464 C453.229068,292.494426 453.591627,288.115741 454.515191,283.839638 C455.39888,284.996887 455.688691,286.492262 455.940495,287.925727 L457.722125,297.612328 C458.781602,303.360473 459.717551,309.456269 462.525401,314.571023 C462.131066,316.414049 461.741483,318.380895 462.392372,320.142961 C462.672682,320.904936 463.13353,321.571663 463.418591,322.343163 C463.893693,323.624232 463.827178,325.033885 463.969709,326.391152 C464.278525,329.248557 465.456776,332.058338 464.592092,334.815733 C463.70267,337.65899 463.124397,340.590782 462.867474,343.55939 C462.82023,344.384953 462.725049,345.207055 462.582413,346.02152 C462.43038,346.754921 462.183328,347.450223 462.045548,348.202672 C461.855581,349.258618 461.902647,350.34372 462.183328,351.379154 C462.396645,351.953026 462.527808,352.554288 462.572911,353.165031 C462.572911,353.774611 461.827002,354.212746 461.228374,354.307993 C461.404161,354.536585 461.594202,354.755653 461.788993,354.969958 C461.674632,355.374204 461.441141,355.734406 461.1191,356.003386 L461.1191,356.003386 Z" id="Shape" fill="url(#linearGradient-1)" fill-rule="nonzero"></path>
                <path d="M441.404633,361.329631 C440.65375,361.34961 439.924671,361.589876 439.305633,362.021349 C438.854058,362.453997 438.548213,363.019817 438.431449,363.638606 C438.086532,364.870559 438.297606,366.194186 439.007834,367.253078 C439.436993,367.799133 439.997838,368.223628 440.63612,368.485505 C442.8552,369.459756 445.400898,368.748553 447.716043,368.042221 L456.784491,365.275348 C457.337279,365.1607 457.84779,364.892552 458.259075,364.500818 C458.770941,363.801613 458.786398,362.849301 458.297501,362.133388 C457.810327,361.445924 457.14548,360.908197 456.376219,360.579458 C453.556738,359.186279 450.377017,358.869647 447.278951,358.811192 C446.126182,358.811192 444.987823,358.52866 444.2049,359.429842 C443.791825,359.916967 443.868676,360.438192 443.24426,360.852248 C442.673517,361.147686 442.04515,361.310748 441.404633,361.329631 L441.404633,361.329631 Z" id="Path" fill="#222222" fill-rule="nonzero"></path>
                <path d="M458.731374,357.251164 C457.980831,357.273342 457.252315,357.513416 456.632277,357.942897 C456.181718,358.376365 455.876054,358.941836 455.758053,359.560189 C455.413652,360.793785 455.624649,362.118685 456.334464,363.179609 C456.765285,363.722786 457.325794,364.14534 457.962826,364.407191 C460.186812,365.381463 462.727824,364.675116 465.043075,363.968769 L474.111942,361.196965 C474.664755,361.082315 475.17529,360.814161 475.586594,360.422419 C476.097663,359.724727 476.113123,358.774217 475.625021,358.05981 C475.137281,357.372857 474.472563,356.835247 473.703651,356.505846 C470.879237,355.112638 467.699369,354.791128 464.60116,354.732672 C463.448338,354.732672 462.314729,354.455004 461.526967,355.356206 C461.113873,355.843341 461.190728,356.359706 460.566282,356.773771 C459.998742,357.073245 459.370979,357.236572 458.731374,357.251164 Z" id="Path" fill="#222222" fill-rule="nonzero"></path>
                <path d="M451.205061,258.546219 C456.552041,258.016795 461.930806,257.868028 467.299505,258.101077 C467.653768,258.097502 468.006175,258.151912 468.342352,258.262086 C469.524565,258.735642 469.707183,260.260491 469.817716,261.505943 C470.29829,266.563519 472.537768,271.275399 473.662312,276.228793 C474.322702,279.342376 474.622574,282.519723 474.556181,285.699909 C474.491223,287.120762 474.516905,288.544232 474.633073,289.961912 C474.777245,291.226306 475.113648,292.467022 475.296266,293.72668 C475.499016,295.418937 475.574512,297.123649 475.522136,298.826877 C475.577115,301.497418 475.424487,304.168188 475.06559,306.815763 C474.325505,311.32875 475.618251,315.813323 475.964265,320.378401 C476.136707,323.571249 476.50098,326.751223 477.055169,329.901609 C477.319485,331.232301 477.651082,332.548786 477.8337,333.888949 C478.371943,337.871553 477.583801,341.972546 478.434418,345.90306 C478.828489,347.740456 479.53974,349.80516 478.492087,351.377365 C478.165296,351.850921 477.684722,352.253443 477.329097,352.731735 C476.922851,353.18639 476.79452,353.82048 476.992694,354.393915 C477.199341,354.824851 477.679916,355.108985 477.80006,355.568334 C477.987484,356.292874 477.218564,356.884819 476.526537,357.19263 C471.312303,359.513054 464.589064,357.879286 461.071258,353.432597 C461.676782,353.337886 462.416867,352.90695 462.431284,352.300799 C462.385084,351.698187 462.252407,351.105075 462.037213,350.539171 C461.754175,349.517495 461.706558,348.446383 461.897846,347.404232 C462.037213,346.674956 462.287112,345.983564 462.440895,345.249553 C462.58517,344.444439 462.68145,343.631688 462.72924,342.815476 C462.989177,339.882162 463.574155,336.985695 464.473726,334.177818 C465.348372,331.454872 464.156547,328.698777 463.844173,325.857442 C463.700001,324.512544 463.762476,323.125025 463.286707,321.855896 C462.998362,321.107677 462.532205,320.435228 462.248666,319.68701 C461.590278,317.939589 461.98435,315.99801 462.383226,314.179556 C459.543031,309.126715 458.596299,303.103085 457.524617,297.425151 L455.722462,287.859324 C455.453341,286.438656 455.16019,284.965898 454.280739,283.819893 C453.346577,288.043105 452.979801,292.368993 453.189834,296.686404 C453.298822,297.930373 453.282725,299.181912 453.141777,300.42276 C452.920713,301.796071 452.339217,303.088879 451.998009,304.433777 C451.253119,307.402972 451.690442,310.518969 451.517435,313.573404 C451.450154,314.809385 451.291565,316.035895 451.238701,317.271875 C451.00322,322.727238 452.867849,328.031063 454.70845,333.178615 C455.8378,336.337232 456.087699,339.926785 456.630748,343.232205 C457.111323,346.400293 457.644761,349.568382 457.899465,352.764883 C458.134947,355.700929 458.240673,358.878489 460.095691,361.184706 C458.399263,362.269149 456.649971,363.372534 454.665198,363.746643 C452.352228,364.103226 449.98555,363.650876 447.9756,362.468042 C445.97703,361.290489 444.190651,359.794244 442.689279,358.040295 C443.078545,357.9077 443.217911,357.348904 443.256357,356.946381 C443.833047,350.951165 441.521483,345.107486 440.646837,339.140683 C440.209618,336.151465 440.13219,333.121824 440.416161,330.114709 C440.526694,328.982911 440.685283,327.851112 440.728535,326.714578 C440.959211,320.790395 438.061346,315.084048 438.167072,309.155129 C438.21513,306.375356 436.725348,303.638204 435.994875,300.953142 C435.365322,298.585363 435.346099,296.075517 435.331682,293.613027 L435.211538,274.197239 C435.211538,271.57374 435.211538,268.883943 436.071767,266.407246 C437.129031,263.423844 435.917983,260.000036 435.735365,256.846154 C440.72917,258.405739 445.985269,258.983366 451.205061,258.546219 L451.205061,258.546219 Z" id="Path" fill="#4B5461" fill-rule="nonzero"></path>
                <path d="M433.864358,202.978891 C431.846607,198.845236 429.38197,194.946126 426.514764,191.35167 C425.915681,190.649649 425.370086,189.903509 424.882588,189.119552 C423.850476,187.325198 423.543243,185.218155 422.890372,183.25543 C421.066175,177.752103 416.515284,173.331161 415.406364,167.640221 C415.00312,165.571663 413.687778,163.791741 412.785281,161.867501 C412.175615,160.583071 411.503542,159.226481 410.284211,158.500081 C408.714441,157.537961 406.544607,157.980769 405.238866,159.269777 C403.965687,160.629512 403.394608,162.504523 403.693099,164.34496 C403.782988,165.182959 404.116882,165.975948 404.653202,166.625185 C405.349277,167.409312 406.39099,167.765297 407.327091,168.236736 C409.745938,169.465379 411.596842,171.58391 412.492449,174.148964 C414.091022,178.791193 414.297444,183.707626 416.332864,188.191106 C418.368284,192.674585 420.758942,196.975262 422.515932,201.559764 C423.51444,204.162299 424.311326,206.851425 425.775484,209.256725 C427.239642,211.662025 429.524689,213.677667 432.284987,214.038462 C432.266286,212.294713 432.53056,210.559512 433.067472,208.90074 C433.667537,207.005364 434.733252,204.773245 433.864358,202.978891 Z" id="Path" fill="#A0616A" fill-rule="nonzero"></path>
                <path d="M463.266034,207.284702 C463.146824,203.902629 463.658601,200.528418 464.773561,197.345387 C465.200307,196.125692 465.70127,194.886865 465.659523,193.590641 C465.599222,192.385295 465.042596,191.280396 464.536995,190.189845 C462.792902,186.435099 461.568326,182.455547 460.362305,178.48556 L458.043032,170.999984 C457.286861,170.428198 456.602807,169.761387 456.006711,169.014991 C454.770402,167.541026 453.953303,165.743332 453.645691,163.820527 C453.346714,161.883932 453.816518,159.90477 454.949123,158.32951 C455.44922,157.571551 456.242147,157.072947 457.1246,156.961538 C457.90314,156.979283 458.640678,157.324977 459.16556,157.918162 C459.930701,158.818296 460.522609,159.860446 460.909653,160.988922 C461.665736,162.825639 462.435734,164.738885 462.366156,166.728661 C462.301216,168.383619 461.702844,170.229902 462.644469,171.573958 C465.724463,175.983991 468.057651,181.049311 470.497525,185.865908 C471.119896,187.013633 471.650449,188.21179 472.083908,189.448462 C472.679768,191.452639 472.961625,193.542032 472.918846,195.637814 C472.918846,199.555186 472.417883,203.458209 471.898366,207.342099 C471.569029,209.776705 471.137645,212.426551 469.351805,214.038462 C467.496387,211.589506 465.631692,209.197948 463.266034,207.284702 Z" id="Path" fill="#A0616A" fill-rule="nonzero"></path>
                <circle id="Oval" fill="#A0616A" fill-rule="nonzero" cx="452.028846" cy="198.240385" r="9.68269231"></circle>
                <path d="M455.216696,209.096699 C455.451986,210.869421 456.397849,212.45778 457.320183,213.989412 C457.875466,214.934863 458.58604,215.941769 459.673077,216.045769 C456.843964,217.537277 453.872066,218.737795 450.802668,219.629031 C449.759428,219.98114 448.665625,220.158417 447.565086,220.153846 C446.632488,220.083863 445.719584,219.848594 444.86867,219.45885 C441.097906,217.809265 438.289483,214.512304 437.25,210.514877 C438.465715,210.547411 439.68153,210.453947 440.878162,210.235968 C441.561498,210.183247 442.198437,209.868403 442.65695,209.356698 C442.929629,208.877487 443.057193,208.328762 443.024001,207.777794 C443.071059,206.142163 443.075765,204.501804 443.024001,202.866173 C445.423317,202.71255 447.83008,203.01076 450.120329,203.745443 C451.061486,204.052714 452.002643,204.421441 452.943801,204.662531 C453.53673,204.813803 455.169638,204.662531 455.607277,205.007621 C456.327262,205.494528 455.051994,207.891248 455.216696,209.096699 Z" id="Path" fill="#A0616A" fill-rule="nonzero"></path>
                <path d="M451.689161,214.876435 C451.913492,212.219791 453.839504,210.00333 456.469112,209.37565 C457.498196,209.148228 458.613838,209.176656 459.53232,208.674431 C461.109607,207.807382 461.585679,205.694247 463.100452,204.722963 C464.615225,203.751678 466.76476,204.291807 468.082372,205.518942 C469.399984,206.746076 470.068408,208.494388 470.606994,210.204795 C471.411053,212.517492 471.847396,214.938762 471.900562,217.382822 C471.920619,217.829879 471.848645,218.276311 471.688975,218.69524 C471.403826,219.184257 471.04373,219.626948 470.621421,220.007658 C469.479592,221.270199 468.952861,222.960317 469.178779,224.636656 C469.315436,226.19715 469.170537,227.769159 468.750796,229.279868 C467.789035,233.458758 466.827275,237.632911 466.053057,241.849705 C465.871393,242.625794 465.811389,243.42471 465.875131,244.218691 C466.024204,245.360542 466.663775,246.4408 466.52432,247.582651 C466.388133,248.114211 466.286937,248.653884 466.221365,249.198299 C466.252787,249.610358 466.350167,250.014926 466.509893,250.397006 C467.601492,253.519329 470.549288,260.673665 470.520436,263.980769 C465.39906,262.687303 457.849238,262.398287 452.559554,262.374597 C451.104877,262.359598 449.650454,262.422865 448.202778,262.564116 C444.726013,262.933678 441.167499,263.93339 437.796527,263.009485 C434.665996,262.151912 431.896125,259.692905 428.659801,260.000873 C427.957715,258.190968 428.78483,252.150055 429.443636,250.321198 C432.012021,243.119928 432.511266,235.359531 430.886277,227.89638 C430.294794,225.214688 431.107482,222.367168 430.448676,219.704428 C430.328267,219.074411 430.083168,218.473909 429.727355,217.937164 C429.363027,217.395306 428.742283,217.0752 428.082744,217.089068 C428.022811,212.805967 428.425815,208.528749 429.284945,204.329711 C429.602326,202.83725 430.246706,201.074725 431.799949,200.818874 C433.175267,200.586714 434.32938,201.733303 435.435405,202.571924 C436.569452,203.43683 437.882904,204.04506 439.282448,204.353401 C439.84592,204.419537 440.38598,204.614209 440.859735,204.921957 C441.518541,205.462086 441.614717,206.43337 442.153303,207.091948 C443.115064,208.271703 445.264599,208.172206 445.947449,209.532003 C446.096741,209.937045 446.217252,210.351829 446.30811,210.773352 C446.631122,211.581355 447.181693,212.281623 447.895015,212.791728 C448.96616,213.783914 450.269481,214.500029 451.689161,214.876435 Z" id="Path" fill="#0295F6" fill-rule="nonzero"></path>
                <path d="M443.457965,188.168429 C443.288941,187.514529 443.317112,186.73653 443.833572,186.297414 C444.091802,186.092175 444.429849,186.015807 444.70686,185.820115 C445.097259,185.486569 445.416756,185.075698 445.645879,184.612546 C447.092597,182.554443 449.789314,181.858487 452.026514,182.965862 C453.721443,183.867959 454.744974,185.672152 456.2521,186.889266 C457.017401,187.519302 457.904774,187.987055 458.674769,188.617091 C460.216892,189.971293 461.313222,191.773851 461.815788,193.781474 C462.314805,195.774967 462.605942,197.816338 462.684381,199.871819 C462.764513,200.488714 462.740697,201.114978 462.613954,201.723742 C462.45792,202.234374 462.225106,202.717387 461.923775,203.155642 C460.374394,205.54214 458.332027,207.709081 455.7732,208.940515 C453.214373,210.171948 450.101525,210.372414 447.575563,209.083705 C447.321437,208.979322 447.102789,208.801833 446.946421,208.572994 C446.802843,208.224516 446.768414,207.839517 446.847824,207.470431 C446.984744,206.011626 446.700875,204.543853 446.030877,203.246329 C445.561367,202.291729 444.857103,201.470773 444.481495,200.482763 C444.132226,199.376845 443.982704,198.2158 444.040156,197.055751 C443.997901,194.053535 444.19979,191.060866 443.457965,188.168429 Z" id="Path" fill="#2D293D" fill-rule="nonzero"></path>
            </g>
        </g>
    </g>
</svg>