<?xml version="1.0" encoding="UTF-8"?>
<svg width="206px" height="265px" viewBox="0 0 206 265" version="1.1" xmlns="http://www.w3.org/2000/svg" xmlns:xlink="http://www.w3.org/1999/xlink">
    <title>Group 2</title>
    <g id="Payment" stroke="none" stroke-width="1" fill="none" fill-rule="evenodd">
        <g id="Switch-Cycle---Success" transform="translate(-526.000000, -203.000000)" fill-rule="nonzero">
            <g id="Group-2" transform="translate(526.000000, 203.000000)">
                <g id="Group" transform="translate(51.000000, 0.000000)">
                    <g id="undraw_switches_1js3" transform="translate(0.217510, 0.000000)">
                        <circle id="Oval" fill="#0295F6" cx="105.386251" cy="41.8198732" r="14.1943922"></circle>
                        <path d="M108.225133,63.1114583 L44.3503781,63.1114583 C32.5913603,63.1114583 23.058793,53.578891 23.058793,41.8198732 C23.058793,30.0608554 32.5913603,20.5282881 44.3503781,20.5282881 L108.225133,20.5282881 C119.984151,20.5282881 129.516719,30.0608554 129.516719,41.8198732 C129.516719,53.578891 119.984151,63.1114583 108.225133,63.1114583 Z M44.3503781,23.367164 C34.1592282,23.367164 25.8976689,31.6287233 25.8976689,41.8198732 C25.8976689,52.0110231 34.1592282,60.2725824 44.3503781,60.2725824 L108.225133,60.2725824 C118.416283,60.2725824 126.677843,52.0110231 126.677843,41.8198732 C126.677843,31.6287233 118.416283,23.367164 108.225133,23.367164 L44.3503781,23.367164 Z" id="Shape" fill="#3F3D56"></path>
                        <circle id="Oval" fill="#DAE0E9" cx="46.6508462" cy="119.958939" r="14.1943922"></circle>
                        <path d="M108.225133,141.250524 L44.3503781,141.250524 C32.5913603,141.250524 23.058793,131.717956 23.058793,119.958939 C23.058793,108.199921 32.5913603,98.6673534 44.3503781,98.6673534 L108.225133,98.6673534 C119.984151,98.6673534 129.516719,108.199921 129.516719,119.958939 C129.516719,131.717956 119.984151,141.250524 108.225133,141.250524 Z M44.3503781,101.506236 C34.1592299,101.506236 25.897672,109.767794 25.897672,119.958942 C25.897672,130.15009 34.1592299,138.411648 44.3503781,138.411648 L108.225133,138.411648 C118.416282,138.411648 126.67784,130.15009 126.67784,119.958942 C126.67784,109.767794 118.416282,101.506236 108.225133,101.506236 L44.3503781,101.506236 Z" id="Shape" fill="#DAE0E9"></path>
                        <circle id="Oval" fill="#DAE0E9" cx="46.6508462" cy="198.09801" r="14.1943922"></circle>
                        <path d="M108.225133,219.389595 L44.3503781,219.389595 C32.5913603,219.389595 23.058793,209.857028 23.058793,198.09801 C23.058793,186.338992 32.5913603,176.806425 44.3503781,176.806425 L108.225133,176.806425 C119.984151,176.806425 129.516719,186.338992 129.516719,198.09801 C129.516719,209.857028 119.984151,219.389595 108.225133,219.389595 Z M44.3503781,179.645301 C34.1592282,179.645301 25.8976689,187.90686 25.8976689,198.09801 C25.8976689,208.28916 34.1592282,216.550719 44.3503781,216.550719 L108.225133,216.550719 C114.817652,216.550719 120.90939,213.033653 124.205649,207.324365 C127.501909,201.615077 127.501909,194.580944 124.205649,188.871655 C120.90939,183.162367 114.817652,179.645301 108.225133,179.645301 L44.3503781,179.645301 Z" id="Shape" fill="#DAE0E9"></path>
                        <path d="M151.236927,240 L2.36307336,240 C1.05861989,240 0,238.945869 0,237.646946 L0,2.3530538 C0,1.05413128 1.05861989,0 2.36307336,0 L151.236927,0 C152.54138,0 153.6,1.05413128 153.6,2.3530538 L153.6,237.646946 C153.6,238.945869 152.54138,240 151.236927,240 Z M2.36307336,0.94122152 C1.58037389,0.94122152 0.945229344,1.57367302 0.945229344,2.3530538 L0.945229344,237.646946 C0.945229344,238.426327 1.58037389,239.058778 2.36307336,239.058778 L151.236927,239.058778 C152.019625,239.058778 152.654771,238.426326 152.654771,237.646946 L152.654771,2.3530538 C152.654771,1.57367302 152.019626,0.94122152 151.236927,0.94122152 L2.36307336,0.94122152 Z" id="Shape" fill="#DAE0E9"></path>
                    </g>
                </g>
                <g id="undraw_pay_online_b1hk" transform="translate(57.000000, 208.000000) rotate(-8.000000) translate(-57.000000, -208.000000) translate(7.000000, 158.000000)">
                    <circle id="Oval" fill="#0295F6" cx="49.9255135" cy="50.207773" r="49.7297297"></circle>
                    <path d="M45.698,78.6390757 L45.698,71.8730919 C42.2778162,71.8063676 38.7395892,70.6001189 36.6757892,68.9254432 L38.0909243,64.4372486 C40.5435097,66.2752118 43.5178387,67.2840786 46.5825027,67.3175189 C50.7694108,67.3175189 53.5999351,64.5710324 53.5999351,60.7526919 C53.5999351,57.0681297 51.3000432,54.7906703 46.9363514,52.7807622 C40.9214486,50.1013027 37.2064378,47.019573 37.2064378,41.1916541 C37.2064378,35.6312919 40.6856432,31.4109784 46.1108919,30.4061838 L46.1108919,23.6402054 L49.7668757,23.6402054 L49.7668757,30.1383081 C52.4931079,30.1755259 55.1522976,30.9887786 57.4329946,32.4828162 L55.9585622,36.9042865 C53.7712141,35.4069797 51.1792423,34.6123721 48.5285405,34.6265027 C43.9880703,34.6265027 42.2778324,37.7079243 42.2778324,40.3876919 C42.2778324,43.8710973 44.4596757,45.6128 49.5900973,48.0246919 C55.6637351,50.8382054 58.7303514,54.3216378 58.7303514,60.2836595 C58.7303514,65.5758162 55.4869514,70.5333892 49.413027,71.6716108 L49.413027,78.6390757 L45.698,78.6390757 Z" id="Path" fill="#FFFFFF" opacity="0.170596168"></path>
                    <path d="M47.698,77.6390757 L47.698,70.8730919 C44.2778162,70.8063676 40.7395892,69.6001189 38.6757892,67.9254432 L40.0909243,63.4372486 C42.5435097,65.2752118 45.5178387,66.2840786 48.5825027,66.3175189 C52.7694108,66.3175189 55.5999351,63.5710324 55.5999351,59.7526919 C55.5999351,56.0681297 53.3000432,53.7906703 48.9363514,51.7807622 C42.9214486,49.1013027 39.2064378,46.019573 39.2064378,40.1916541 C39.2064378,34.6312919 42.6856432,30.4109784 48.1108919,29.4061838 L48.1108919,22.6402054 L51.7668757,22.6402054 L51.7668757,29.1383081 C54.4931079,29.1755259 57.1522976,29.9887786 59.4329946,31.4828162 L57.9585622,35.9042865 C55.7712141,34.4069797 53.1792423,33.6123721 50.5285405,33.6265027 C45.9880703,33.6265027 44.2778324,36.7079243 44.2778324,39.3876919 C44.2778324,42.8710973 46.4596757,44.6128 51.5900973,47.0246919 C57.6637351,49.8382054 60.7303514,53.3216378 60.7303514,59.2836595 C60.7303514,64.5758162 57.4869514,69.5333892 51.413027,70.6716108 L51.413027,77.6390757 L47.698,77.6390757 Z" id="Path" fill="#FFFFFF"></path>
                </g>
            </g>
        </g>
    </g>
</svg>