<?xml version="1.0" encoding="UTF-8"?>
<svg width="280px" height="200px" viewBox="0 0 280 200" version="1.1" xmlns="http://www.w3.org/2000/svg" xmlns:xlink="http://www.w3.org/1999/xlink">
    <title>Group 27</title>
    <g id="Payment" stroke="none" stroke-width="1" fill="none" fill-rule="evenodd">
        <g id="Payment-Details---Successful-upgrade-on-credit" transform="translate(-500.000000, -223.000000)">
            <g id="Group-27" transform="translate(500.000000, 223.000000)">
                <rect id="Rectangle" fill="#DAE0E9" fill-rule="nonzero" x="20.4178848" y="5.15993909" width="259.047619" height="162.857143"></rect>
                <path d="M280,168.571429 L20,168.571429 L20,4.76190476 L280,4.76190476 L280,168.571429 Z M20.952381,167.619048 L279.047619,167.619048 L279.047619,5.71428571 L20.952381,5.71428571 L20.952381,167.619048 Z" id="Shape" fill="#222222" fill-rule="nonzero"></path>
                <polygon id="Path" fill="#ACB5C2" fill-rule="nonzero" points="176.669989 10.4601329 123.712625 10.4601329 123.712625 0 176.669989 0 181.89701 5.2303433"></polygon>
                <polygon id="Path" fill="#4B5461" fill-rule="nonzero" points="124.368771 10.4601329 71.4114064 10.4601329 71.4114064 0 124.368771 0 129.596346 5.2303433"></polygon>
                <polygon id="Path" fill="#0295F6" fill-rule="nonzero" points="72.7214839 10.4601329 19.7641196 10.4601329 19.7641196 0 72.7214839 0 77.9490587 5.2303433"></polygon>
                <g id="Group-28" transform="translate(171.537652, 89.098560) scale(1, -1) translate(-171.537652, -89.098560) translate(102.037652, 45.598560)">
                    <rect id="Rectangle" fill="#FFFFFF" fill-rule="nonzero" transform="translate(73.089701, 50.387597) rotate(-180.000000) translate(-73.089701, -50.387597) " x="7.19822813" y="13.8427464" width="131.782946" height="73.089701" rx="6.94753045"></rect>
                    <rect id="Rectangle" stroke="#3F3D56" stroke-width="0.553709856" transform="translate(65.891473, 36.544850) rotate(-180.000000) translate(-65.891473, -36.544850) " x="0" y="0" width="131.782946" height="73.089701" rx="6.94753045"></rect>
                    <path d="M86.67299,52.8900111 C87.1917318,52.4049963 87.4861679,51.7266171 87.4861679,51.0164535 C87.4861679,50.3062899 87.1917318,49.6279107 86.67299,49.1428959 C85.5699382,48.110704 83.8554494,48.110704 82.7523976,49.1428959 L75.8653544,56.3422315 L75.8653544,37.7801107 C75.7989255,36.2954123 74.5758986,35.1258829 73.0897148,35.1258829 C71.6035311,35.1258829 70.3805042,36.2954123 70.3140753,37.7801107 L70.3140753,56.3422259 L63.4270321,49.1428904 C62.3239781,48.1107039 60.6094936,48.1107039 59.5064396,49.1428904 C58.9876979,49.6279051 58.6932618,50.3062844 58.6932618,51.016448 C58.6932618,51.7266115 58.9876979,52.4049908 59.5064396,52.8900055 L71.1294352,64.8686323 C71.641924,65.3853553 72.3448696,65.6677856 73.0724031,65.6492802 L73.1070986,65.6492802 C73.8346318,65.6677843 74.5375769,65.3853542 75.0500664,64.8686323 L86.673062,52.8900055 L86.67299,52.8900111 Z" id="Path" fill="#0295F6" fill-rule="nonzero"></path>
                </g>
                <g id="Group-26" transform="translate(51.782490, 148.184091) rotate(-3.000000) translate(-51.782490, -148.184091) translate(2.782490, 99.184091)" fill-rule="nonzero">
                    <circle id="Oval" fill="#0295F6" cx="48.7251053" cy="48.752456" r="48.7264673"></circle>
                    <path d="M72.347479,58.2226871 C72.347479,61.2203917 61.3835959,68.7391078 48.6926683,68.7391078 C36.0017407,68.7391078 26.389561,61.2203917 26.389561,58.2226871 C26.389561,55.2249826 36.0017407,59.2404053 48.6926683,59.2404053 C61.3835959,59.2404053 72.347479,55.224978 72.347479,58.2226871 Z" id="Path" fill="#D0CDE1"></path>
                    <circle id="Oval" fill="#3F3D56" cx="66.096067" cy="34.6921466" r="5.53709856"></circle>
                    <circle id="Oval" fill="#3F3D56" cx="31.1732162" cy="34.5253268" r="5.53709856"></circle>
                    <circle id="Oval" fill="#D0CDE1" cx="34.082866" cy="31.9054664" r="2.76854928"></circle>
                    <circle id="Oval" fill="#D0CDE1" cx="61.7883747" cy="32.2485111" r="2.76854928"></circle>
                </g>
            </g>
        </g>
    </g>
</svg>