<?xml version="1.0" encoding="UTF-8"?>
<svg width="192px" height="200px" viewBox="0 0 192 200" version="1.1" xmlns="http://www.w3.org/2000/svg" xmlns:xlink="http://www.w3.org/1999/xlink">
    <title>undraw_void_3ggu</title>
    <g id="Research" stroke="none" stroke-width="1" fill="none" fill-rule="evenodd">
        <g id="Keyword-Targeting-Research-Tool---No-results-found" transform="translate(-570.000000, -255.000000)" fill-rule="nonzero">
            <g id="undraw_void_3ggu" transform="translate(570.000000, 255.000000)">
                <ellipse id="Oval" fill="#4B5461" cx="73.8922156" cy="186.826347" rx="73.8922156" ry="13.0538922"></ellipse>
                <circle id="Oval" fill="#222222" opacity="0.891843378" cx="118.802395" cy="72.2155689" r="72.2155689"></circle>
                <circle id="Oval" fill="#222222" opacity="0.5" cx="118.802395" cy="72.2155689" r="59.6162563"></circle>
                <circle id="Oval" fill="#222222" opacity="0.751218378" cx="118.802395" cy="72.2155689" r="48.8607473"></circle>
                <circle id="Oval" fill="#222222" cx="118.802395" cy="72.2155689" r="35.0322323"></circle>
                <path d="M47.2264168,78.6783808 C47.2264168,78.6783808 41.5488263,94.6597485 44.0721988,100.337339 C46.5955713,106.014929 50.590915,111.482237 50.590915,111.482237 C50.590915,111.482237 49.1189461,79.7297868 47.2264168,78.6783808 Z" id="Path" fill="#D0CDE1"></path>
                <path d="M47.2264168,78.6783808 C47.2264168,78.6783808 41.5488263,94.6597485 44.0721988,100.337339 C46.5955713,106.014929 50.590915,111.482237 50.590915,111.482237 C50.590915,111.482237 49.1189461,79.7297868 47.2264168,78.6783808 Z" id="Path" fill="#000000" opacity="0.1"></path>
                <path d="M51.2217581,115.687861 C51.2217581,115.687861 50.8011952,119.683202 50.590915,119.893483 C50.3806347,120.103763 50.8011952,120.524326 50.590915,121.155169 C50.3806347,121.786012 50.1703521,122.627138 50.590915,122.837418 C51.0114778,123.047698 48.2778228,141.552438 48.2778228,141.552438 C48.2778228,141.552438 41.5488263,150.384247 44.2824814,164.2628 L45.1236048,178.351636 C45.1236048,178.351636 51.642321,178.772199 51.642321,176.459104 C51.642321,176.459104 51.2217581,173.725451 51.2217581,172.463763 C51.2217581,171.202074 52.2731641,171.202077 51.642321,170.571234 C51.0114778,169.94039 51.0114778,169.519828 51.0114778,169.519828 C51.0114778,169.519828 52.0628814,168.678704 51.8526012,168.468422 C51.642321,168.258139 53.7451305,153.328182 53.7451305,153.328182 C53.7451305,153.328182 56.0582228,151.01509 56.0582228,149.753401 L56.0582228,148.491715 C56.0582228,148.491715 57.1096287,145.758062 57.1096287,145.54778 C57.1096287,145.337497 62.7872192,132.51035 62.7872192,132.51035 L65.1003114,141.762719 L67.6236862,155.010431 C67.6236862,155.010431 68.8853725,166.996455 71.4087449,171.622647 C71.4087449,171.622647 75.8246491,186.762889 75.8246491,186.342326 C75.8246491,185.921763 83.1844886,184.870357 82.9742084,182.977828 C82.7639281,181.085298 78.5583042,154.589875 78.5583042,154.589875 L79.6097102,115.267305 L51.2217581,115.687861 Z" id="Path" fill="#222222"></path>
                <path d="M45.5441677,177.30023 C45.5441677,177.30023 39.8665772,188.44514 43.6516383,188.865691 C47.4366994,189.286242 48.9086659,189.286254 50.590915,187.604005 C51.5105988,186.684321 53.373018,185.45039 54.8725102,184.520687 C56.6855102,183.414728 57.7062092,181.369246 57.4997988,179.255598 C57.3889006,178.226781 57.0044886,177.379085 56.0582228,177.30023 C53.5348503,177.08995 50.5909174,174.776857 50.5909174,174.776857 L45.5441677,177.30023 Z" id="Path" fill="#222222"></path>
                <path d="M76.8760551,185.501193 C76.8760551,185.501193 71.1984647,196.646103 74.9835257,197.066656 C78.7685868,197.48721 80.2405533,197.487217 81.9228024,195.80497 C82.8424862,194.885284 84.7049054,193.651356 86.2043976,192.721653 C88.0173976,191.615693 89.0380966,189.570211 88.8316862,187.456563 C88.720788,186.427746 88.336376,185.58005 87.3901126,185.501193 C84.8667377,185.290913 81.9228072,182.97782 81.9228072,182.97782 L76.8760551,185.501193 Z" id="Path" fill="#222222"></path>
                <circle id="Oval" fill="#FFB8B8" cx="70.8754204" cy="51.6006036" r="8.83942994"></circle>
                <path d="M65.1929293,54.5049868 C65.1929293,54.5049868 58.8790419,66.1225246 58.3739401,66.1225246 C57.8688383,66.1225246 69.7389222,69.9108527 69.7389222,69.9108527 C69.7389222,69.9108527 73.0221389,58.798424 73.5272479,57.7882036 L65.1929293,54.5049868 Z" id="Path" fill="#FFB8B8"></path>
                <path d="M74.8783856,67.2180599 C74.8783856,67.2180599 62.2615162,60.2787832 60.9998228,60.4890635 C59.7381293,60.6993437 46.2801437,72.4750898 46.4904263,77.3115545 C46.700709,82.1480192 48.3829557,90.1387042 48.3829557,90.1387042 C48.3829557,90.1387042 49.0137988,112.428503 50.275485,112.638783 C51.5371713,112.849063 50.0652048,116.634125 50.4857677,116.634125 C50.9063305,116.634125 79.9251234,116.634125 80.135406,116.003281 C80.3456886,115.372438 74.8783856,67.2180599 74.8783856,67.2180599 Z" id="Path" fill="#D0CDE1"></path>
                <path d="M81.9228024,117.159828 C81.9228024,117.159828 85.9181437,129.356134 82.5536455,128.935571 C79.1891473,128.515008 77.7171808,118.421514 77.7171808,118.421514 L81.9228024,117.159828 Z" id="Path" fill="#FFB8B8"></path>
                <path d="M71.1984647,66.4820766 C71.1984647,66.4820766 63.4180623,68.1643257 64.6797509,78.6783808 C65.9414395,89.1924359 68.2545293,99.7064934 68.2545293,99.7064934 L76.0349317,116.739265 L76.8760551,119.893483 L82.5536455,118.421514 L78.348024,94.028903 C78.348024,94.028903 76.8760551,67.9540455 74.9835257,67.1129198 C73.7900997,66.6041443 72.4923895,66.3878594 71.1984647,66.4820766 Z" id="Path" fill="#D0CDE1"></path>
                <polygon id="Path" fill="#000000" opacity="0.1" points="66.4670659 99.3911377 76.1401198 116.634012 67.9904192 98.4646707"></polygon>
                <path d="M79.6756886,48.9978084 L79.7049102,48.3223305 L81.0486467,48.6567784 C81.0195094,48.2179103 80.799438,47.8138775 80.4465389,47.5513581 L81.8778707,47.4713269 C79.450835,44.0223794 75.718907,41.7160116 71.5486491,41.0877677 C68.4526419,40.6390347 65.0053269,41.2883808 62.8823018,43.586079 C61.8525389,44.7005701 61.2054946,46.1178587 60.7452192,47.5637677 C59.8974922,50.226812 59.7247689,53.4013485 61.4924383,55.5660144 C63.2889892,57.7660455 66.4270491,58.197006 69.2543353,58.4692814 C70.2491329,58.5650898 71.2916551,58.6542299 72.2135138,58.2682563 C72.3161168,57.2108679 72.1807605,56.1439213 71.8173701,55.1456503 C71.6660443,54.836622 71.5937226,54.4948875 71.6068814,54.1510491 C71.7325581,53.3099377 72.8545078,53.0980311 73.6973293,53.2116719 C74.5401509,53.3253126 75.5535784,53.4991713 76.1073892,52.8537509 C76.4888527,52.4091784 76.4663521,51.7617749 76.516891,51.1781222 C76.6544862,49.5892216 79.6612862,49.3309054 79.6756886,48.9978084 Z" id="Path" fill="#4B5461"></path>
                <circle id="Oval" fill="#0295F6" cx="133.892216" cy="178.323353" r="10.2994012"></circle>
                <circle id="Oval" fill="#0295F6" cx="12.9341317" cy="174.730539" r="10.2994012"></circle>
                <circle id="Oval" fill="#0295F6" cx="12.9341317" cy="161.077844" r="7.4251497"></circle>
                <circle id="Oval" fill="#0295F6" cx="12.9341317" cy="149.580838" r="5.26946108"></circle>
            </g>
        </g>
    </g>
</svg>