<?xml version="1.0" encoding="UTF-8"?>
<svg width="278px" height="228px" viewBox="0 0 278 228" version="1.1" xmlns="http://www.w3.org/2000/svg" xmlns:xlink="http://www.w3.org/1999/xlink">
    <title>undraw_well_done_i2wr</title>
    <g id="Advertising" stroke="none" stroke-width="1" fill="none" fill-rule="evenodd">
        <g id="Budget-View---No-Data-Copy" transform="translate(-329.000000, -819.000000)" fill-rule="nonzero">
            <g id="undraw_well_done_i2wr" transform="translate(329.000000, 819.000000)">
                <path d="M68.6559775,41.326449 C63.89125,27.0835164 49.1772578,19.1675043 39.4975562,22.4056877 C29.8178547,25.6438711 22.8290009,40.820186 27.5937284,55.0631272 C32.0040744,68.2467301 45.368058,75.8576081 54.5614749,74.4994247 C54.4951666,74.6147151 54.4515234,74.741625 54.4328979,74.8733131 L54.151782,77.2179412 C54.1082208,77.5813417 54.2559214,77.9413882 54.5421387,78.1695048 C54.8283559,78.3976215 55.2122782,78.4612813 55.5568036,78.3377509 L60.2924784,76.6396929 C60.6370242,76.5161686 60.8930462,76.2230529 60.9691123,75.865025 C61.0451784,75.506997 60.9304419,75.1351105 60.665878,74.8821756 L58.9588235,73.2504412 C58.898132,73.1948989 58.831095,73.1467165 58.7591047,73.1068945 C66.9587933,68.6880147 73.0759256,54.5387111 68.6559775,41.326449 Z" id="Path" fill="#F1F4F8"></path>
                <path d="M51.4069334,30.847673 C59.6243298,35.0886163 63.0801962,45.0227986 59.269109,53.4481661 C58.8593339,54.3810078 60.366263,54.871583 60.7733478,53.9448356 C64.7701121,44.8392136 61.0688694,34.1921466 52.2857353,29.5292042 C51.3920242,29.0556142 50.5066003,30.3705709 51.4069334,30.847673 Z" id="Path" fill="#FFFFFF"></path>
                <path d="M261.562552,20.5652033 C256.797846,6.32227076 242.083832,-1.59374135 232.404131,1.64444204 C222.724429,4.88262543 215.735575,20.0589403 220.500303,34.3018815 C224.910649,47.4854844 238.274632,55.0963625 247.468049,53.7381791 C247.401741,53.8534695 247.358098,53.9803794 247.339472,54.1120675 L247.058356,56.4566955 C247.014795,56.820096 247.162496,57.1801425 247.448713,57.4082592 C247.73493,57.6363758 248.118853,57.7000357 248.463378,57.5765052 L253.199053,55.8784472 C253.543599,55.7549229 253.799621,55.4618073 253.875687,55.1037793 C253.951753,54.7457513 253.837016,54.3738648 253.572452,54.1209299 L251.865398,52.4891955 C251.804706,52.4336533 251.737669,52.3854708 251.665679,52.3456488 C259.865368,47.926769 265.9825,33.7774654 261.562552,20.5652033 Z" id="Path" fill="#F1F4F8"></path>
                <path d="M244.313508,10.0864273 C252.530904,14.3273706 255.986771,24.2615529 252.175683,32.6869204 C251.765908,33.6197621 253.272837,34.1103374 253.679922,33.18359 C257.676687,24.077968 253.975444,13.430901 245.19231,8.76795848 C244.298599,8.29436851 243.413175,9.60932526 244.313508,10.0864273 Z" id="Path" fill="#FFFFFF"></path>
                <path d="M149.53833,27.6413279 C144.773625,13.3983953 130.059611,5.48238322 120.379909,8.72056661 C110.700208,11.95875 103.711354,27.1350649 108.476081,41.3780061 C112.886427,54.561609 126.250411,62.172487 135.443828,60.8143036 C135.37752,60.929594 135.333876,61.0565039 135.315251,61.188192 L135.034135,63.5328201 C134.990574,63.8962206 135.138274,64.2562671 135.424492,64.4843837 C135.710709,64.7125004 136.094631,64.7761602 136.439157,64.6526298 L141.174831,62.9545718 C141.519377,62.8310475 141.775399,62.5379318 141.851465,62.1799039 C141.927531,61.8218759 141.812795,61.4499894 141.548231,61.1970545 L139.841176,59.5653201 C139.780485,59.5097778 139.713448,59.4615954 139.641458,59.4217734 C147.841146,55.0028936 153.958279,40.85359 149.53833,27.6413279 Z" id="Path" fill="#F1F4F8"></path>
                <path d="M132.289286,17.1625519 C140.506683,21.4034952 143.962549,31.3376775 140.151462,39.763045 C139.741687,40.6958867 141.248616,41.1864619 141.655701,40.2597145 C145.652465,31.1540925 141.951222,20.5070255 133.168088,15.844083 C132.274377,15.3704931 131.388953,16.6854498 132.289286,17.1625519 Z" id="Path" fill="#FFFFFF"></path>
                <ellipse id="Oval" fill="#2F2E41" transform="translate(240.901176, 204.137973) rotate(-39.938370) translate(-240.901176, -204.137973) " cx="240.901176" cy="204.137973" rx="2.92390571" ry="9.31387976"></ellipse>
                <circle id="Oval" fill="#2F2E41" cx="221.0884" cy="200.903594" r="18.6277336"></circle>
                <rect id="Rectangle" fill="#2F2E41" x="223.313772" y="215.522768" width="5.65905709" height="10.1391479"></rect>
                <rect id="Rectangle" fill="#2F2E41" x="211.995657" y="215.522768" width="5.65905709" height="10.1391479"></rect>
                <ellipse id="Oval" fill="#2F2E41" cx="224.256938" cy="225.779814" rx="4.715891" ry="1.76846021"></ellipse>
                <ellipse id="Oval" fill="#2F2E41" cx="212.938824" cy="225.544031" rx="4.715891" ry="1.76846021"></ellipse>
                <path d="M215.239416,177.487963 C216.902729,170.789433 224.244849,166.847491 231.638525,168.683391 C239.032202,170.519291 243.677578,177.437846 242.01426,184.136375 C240.350943,190.834905 234.832625,190.856531 227.438949,189.02061 C220.045272,187.184689 213.576103,184.186505 215.239416,177.487963 Z" id="Path" fill="#F18805"></path>
                <ellipse id="Oval" fill="#2F2E41" transform="translate(200.107349, 192.260161) rotate(-64.625740) translate(-200.107349, -192.260161) " cx="200.107349" cy="192.260161" rx="2.92390571" ry="9.31387976"></ellipse>
                <circle id="Oval" fill="#FFFFFF" cx="218.303529" cy="196.972976" r="6.21048443"></circle>
                <circle id="Oval" fill="#3F3D56" cx="215.751034" cy="194.746856" r="2.07016003"></circle>
                <path d="M222.199459,209.912163 C222.464383,211.367443 221.9328,212.853512 220.804952,213.810583 C219.677104,214.767653 218.124339,215.050323 216.731567,214.552114 C215.338796,214.053904 214.317614,212.850505 214.05269,211.395225 L214.05269,211.395225 L214.051237,211.387223 C213.643897,209.137158 215.383586,208.340943 217.633646,207.933616 C219.883707,207.526289 221.792141,207.662128 222.199459,209.912163 Z" id="Path" fill="#FFFFFF"></path>
                <ellipse id="Oval" fill="#2F2E41" transform="translate(65.210339, 186.836897) rotate(-69.082170) translate(-65.210339, -186.836897) " cx="65.2103385" cy="186.836897" rx="9.31387976" ry="2.92390571"></ellipse>
                <circle id="Oval" fill="#2F2E41" cx="47.992699" cy="200.903568" r="18.6277465"></circle>
                <rect id="Rectangle" fill="#2F2E41" x="39.5041133" y="215.522772" width="5.65905709" height="10.1391479"></rect>
                <rect id="Rectangle" fill="#2F2E41" x="50.8222275" y="215.522772" width="5.65905709" height="10.1391479"></rect>
                <ellipse id="Oval" fill="#2F2E41" cx="44.2200087" cy="225.779814" rx="4.715891" ry="1.76846021"></ellipse>
                <ellipse id="Oval" fill="#2F2E41" cx="55.5381228" cy="225.544022" rx="4.715891" ry="1.76846021"></ellipse>
                <circle id="Oval" fill="#FFFFFF" cx="48.4642993" cy="196.187643" r="6.36644031"></circle>
                <circle id="Oval" fill="#3F3D56" cx="48.464295" cy="196.187643" r="2.1221583"></circle>
                <path d="M29.9231791,183.580247 C28.4190787,176.844178 33.2271021,170.037673 40.6621972,168.377478 C48.0972924,166.717284 55.3439533,170.832111 56.8480536,177.568153 C58.352154,184.304196 53.4246453,186.788577 45.9895502,188.448776 C38.554455,190.108975 31.4272794,190.316362 29.9231791,183.580247 Z" id="Path" fill="#F18805"></path>
                <ellipse id="Oval" fill="#2F2E41" transform="translate(27.011663, 192.260181) rotate(-64.625740) translate(-27.011663, -192.260181) " cx="27.011663" cy="192.260181" rx="2.92390571" ry="9.31387976"></ellipse>
                <path d="M38.8428287,207.623663 C38.8428287,209.446825 43.537154,213.04692 48.7461938,213.04692 C53.9552336,213.04692 58.8392474,207.914135 58.8392474,206.090999 C58.8392474,204.267863 53.9551946,206.444697 48.7461938,206.444697 C43.5371929,206.444697 38.8428287,205.800502 38.8428287,207.623663 Z" id="Path" fill="#FFFFFF"></path>
                <circle id="Oval" fill="#2F2E41" cx="136.971613" cy="183.169961" r="18.6277379"></circle>
                <rect id="Rectangle" fill="#2F2E41" x="128.483019" y="197.789204" width="5.65905709" height="10.1391479"></rect>
                <rect id="Rectangle" fill="#2F2E41" x="139.801142" y="197.789204" width="5.65905277" height="10.1391479"></rect>
                <ellipse id="Oval" fill="#2F2E41" cx="133.198888" cy="208.04625" rx="4.715891" ry="1.76846021"></ellipse>
                <ellipse id="Oval" fill="#2F2E41" cx="144.517029" cy="207.81045" rx="4.715891" ry="1.76846021"></ellipse>
                <path d="M118.902085,165.846734 C117.397989,159.110666 122.206003,152.304165 129.641125,150.643966 C137.076246,148.983767 144.322881,153.098599 145.826981,159.834667 C147.331081,166.570735 142.403573,169.055121 134.968478,170.71529 C127.533382,172.375458 120.406189,172.582798 118.902085,165.846734 Z" id="Path" fill="#0295F6"></path>
                <ellipse id="Oval" fill="#2F2E41" transform="translate(154.750005, 172.736900) rotate(-45.022100) translate(-154.750005, -172.736900) " cx="154.750005" cy="172.7369" rx="10.3341003" ry="3.24418253"></ellipse>
                <ellipse id="Oval" fill="#2F2E41" transform="translate(114.652536, 174.034528) rotate(-44.977900) translate(-114.652536, -174.034528) " cx="114.652536" cy="174.034528" rx="3.24418253" ry="10.3341003"></ellipse>
                <path d="M250.21917,64.9468339 C249.600787,45.8466306 236.51891,30.7701817 221.000026,31.2726125 C186.461531,32.2960078 185.618071,95.6329844 218.96394,100.182647 L218.257946,105.79484 L228.556721,105.46141 L227.489187,99.9066393 C240.903404,96.9417517 250.779805,82.2634256 250.21917,64.9468339 Z" id="Path" fill="#F18805"></path>
                <path d="M203.82474,75.5366869 L199.934048,75.6626471 C198.408858,68.411821 198.167267,60.9496724 199.220255,53.6153763 L203.110947,53.4894118 C201.673932,61.166857 201.911863,68.5159487 203.82474,75.5366869 Z" id="Path" fill="#FFFFFF"></path>
                <rect id="Rectangle" fill="#3F3D56" transform="translate(223.267374, 101.305124) rotate(-1.854340) translate(-223.267374, -101.305124) " x="217.428273" y="100.007546" width="11.6782007" height="2.59515571"></rect>
                <polygon id="Path" fill="#3F3D56" points="195.15917 199.138841 193.983997 198.588668 222.88192 100.590398 224.057093 101.141003"></polygon>
                <path d="M274.136894,81.0983088 C281.194118,63.3389273 275.217682,44.2937889 260.788218,38.559814 C228.712145,25.7114533 202.656648,83.4470156 231.414645,100.929122 L228.527102,105.793006 L238.102911,109.59824 L239.341406,104.07907 C252.824109,106.715151 267.738685,97.199295 274.136894,81.0983088 Z" id="Path" fill="#0295F6"></path>
                <path d="M227.371752,72.2887024 L223.754183,70.8511505 C225.250074,63.5942241 228.00722,56.6559133 231.900303,50.351583 L235.517872,51.7891349 C231.135709,58.2548068 228.420336,65.087996 227.371752,72.2887024 Z" id="Path" fill="#FFFFFF"></path>
                <rect id="Rectangle" fill="#3F3D56" transform="translate(234.912287, 103.676075) rotate(-68.328120) translate(-234.912287, -103.676075) " x="233.61471" y="97.8369744" width="2.59515571" height="11.6782007"></rect>
                <polygon id="Path" fill="#3F3D56" points="194.930796 196.559256 193.803201 195.917388 234.148356 103.846453 235.275952 104.487889"></polygon>
                <path d="M54.8409126,66.1809213 C47.205532,48.6623227 29.4770199,39.4898443 15.243192,45.6935683 C-16.4703633,59.4123486 6.15976644,118.574507 38.825372,110.474875 L40.2440571,115.950502 L49.6900346,111.833529 L46.6446843,107.066881 C58.0126514,99.3531747 61.7632829,82.0636029 54.8409126,66.1809213 Z" id="Path" fill="#0295F6"></path>
                <path d="M15.6477076,93.1712933 L12.0791869,94.7266133 C7.98161561,88.5532339 4.99859585,81.7089927 3.26571367,74.5049784 L6.83423875,72.9496626 C8.33714533,80.6144781 11.2749683,87.3550216 15.6477076,93.1712933 Z" id="Path" fill="#FFFFFF"></path>
                <rect id="Rectangle" fill="#3F3D56" transform="translate(43.238916, 109.927005) rotate(-23.549670) translate(-43.238916, -109.927005) " x="37.3998157" y="108.629427" width="11.6782007" height="2.59515571"></rect>
                <path d="M72.8423313,199.389542 L72.8423313,199.389542 C72.4945986,199.475764 72.1428017,199.263795 72.0565355,198.916073 L43.8526341,109.549191 L45.1119853,109.236907 L73.3158521,198.603651 C73.3572849,198.770659 73.3306717,198.947287 73.2418678,199.094673 C73.1530639,199.242059 73.0093448,199.348127 72.8423313,199.389542 Z" id="Path" fill="#3F3D56"></path>
                <path d="M80.3800995,227.644836 L12.4735251,227.644836 C12.2346476,227.644836 12.0409991,227.451187 12.0409991,227.21231 C12.0409991,226.973432 12.2346476,226.779784 12.4735251,226.779784 L80.3800995,226.779784 C80.618977,226.779784 80.8126254,226.973432 80.8126254,227.21231 C80.8126254,227.451187 80.618977,227.644836 80.3800995,227.644836 Z" id="Path" fill="#DAE0E9"></path>
                <path d="M252.957954,227.644836 L185.05138,227.644836 C184.812502,227.644836 184.618854,227.451187 184.618854,227.21231 C184.618854,226.973432 184.812502,226.779784 185.05138,226.779784 L252.957954,226.779784 C253.196832,226.779784 253.39048,226.973432 253.39048,227.21231 C253.39048,227.451187 253.196832,227.644836 252.957954,227.644836 Z" id="Path" fill="#DAE0E9"></path>
                <path d="M172.075601,209.911272 L104.169027,209.911272 C103.930149,209.911272 103.736501,209.717623 103.736501,209.478746 C103.736501,209.239868 103.930149,209.04622 104.169027,209.04622 L172.075601,209.04622 C172.314479,209.04622 172.508127,209.239868 172.508127,209.478746 C172.508127,209.717623 172.314479,209.911272 172.075601,209.911272 Z" id="Path" fill="#DAE0E9"></path>
                <circle id="Oval" fill="#FFFFFF" cx="136.187868" cy="180.53016" r="6.36644031"></circle>
                <circle id="Oval" fill="#3F3D56" cx="136.187868" cy="180.530164" r="2.1221583"></circle>
                <path d="M141.24173,192.304611 C141.651266,194.554279 140.159545,196.70999 137.909877,197.119526 C135.660209,197.529063 133.504498,196.037341 133.094961,193.787673 L133.094961,193.787673 L133.093512,193.779671 C132.686168,191.529606 134.425856,190.733391 136.675921,190.326064 C138.925986,189.918737 140.834416,190.054576 141.24173,192.304611 Z" id="Path" fill="#FFFFFF"></path>
            </g>
        </g>
    </g>
</svg>