<?xml version="1.0" encoding="UTF-8"?>
<svg width="16px" height="14px" viewBox="0 0 16 14" version="1.1" xmlns="http://www.w3.org/2000/svg" xmlns:xlink="http://www.w3.org/1999/xlink">
    <title>alert-triangle copy</title>
    <g id="Page-1" stroke="none" stroke-width="1" fill="none" fill-rule="evenodd">
        <g id="Artboard-Copy" transform="translate(-547.000000, -56.000000)" fill="#ACB5C2" fill-rule="nonzero">
            <g id="alert-triangle-copy" transform="translate(548.000000, 57.000000)">
                <path d="M7.09210526,-0.077756003 C6.411991,-0.077756003 5.78123781,0.277363207 5.42851151,0.858860903 L-0.0342912851,9.97856158 C-0.385336676,10.5863237 -0.387400791,11.3235071 -0.0450443007,11.9241325 C0.297312189,12.5247579 0.932667741,12.8986121 1.62397167,12.90625 L12.5530263,12.90625 C13.2515428,12.8986121 13.8868983,12.5247579 14.2292548,11.9241325 C14.5716113,11.3235071 14.5695472,10.5863237 14.2238326,9.98762484 L8.75758076,0.86198263 C8.40297271,0.277363207 7.77221953,-0.077756003 7.09210526,-0.077756003 Z M7.09210526,1.234744 C7.31344422,1.234744 7.51871893,1.35031534 7.63351151,1.53956015 L13.0925508,10.6530174 C13.1997307,10.8387969 13.2004025,11.0787087 13.0889847,11.2741785 C12.9775669,11.4696483 12.7707944,11.5913168 12.5458138,11.5937896 L1.63118421,11.5937896 C1.41341618,11.5913168 1.20664366,11.4696483 1.09522587,11.2741785 C0.983808074,11.0787087 0.984479827,10.8387969 1.0969905,10.6439541 L6.55258076,1.53643842 C6.6654916,1.35031534 6.8707663,1.234744 7.09210526,1.234744 Z" id="Path"></path>
                <path d="M7.09210526,3.85690789 C7.42159332,3.85690789 7.69436756,4.09972867 7.74123983,4.41618208 L7.74835526,4.51315789 L7.74835526,7.09210526 C7.74835526,7.45454213 7.45454213,7.74835526 7.09210526,7.74835526 C6.7626172,7.74835526 6.48984297,7.50553449 6.4429707,7.18908108 L6.43585526,7.09210526 L6.43585526,4.51315789 C6.43585526,4.15072103 6.7296684,3.85690789 7.09210526,3.85690789 Z" id="Path"></path>
                <path d="M7.09855263,9.01480263 C7.4609895,9.01480263 7.75480263,9.30861576 7.75480263,9.67105263 C7.75480263,10.0005407 7.51198186,10.2733149 7.19552845,10.3201872 L7.09855263,10.3273026 C6.7296684,10.3273026 6.43585526,10.0334895 6.43585526,9.67105263 C6.43585526,9.34156457 6.67867603,9.06879034 6.99512945,9.02191807 L7.09855263,9.01480263 Z" id="Path"></path>
            </g>
        </g>
    </g>
</svg>