<?xml version="1.0" encoding="UTF-8"?>
<svg width="16px" height="16px" viewBox="0 0 16 16" version="1.1" xmlns="http://www.w3.org/2000/svg" xmlns:xlink="http://www.w3.org/1999/xlink">
    <!-- Generator: Sketch 64 (93537) - https://sketch.com -->
    <title>download</title>
    <desc>Created with Sketch.</desc>
    <g id="Page-1" stroke="none" stroke-width="1" fill="none" fill-rule="evenodd">
        <g id="Artboard" transform="translate(-134.000000, -160.000000)" fill="#222222" fill-rule="nonzero">
            <g id="download" transform="translate(135.000000, 161.000000)">
                <path d="M14,8.83333333 C14.2454599,8.83333333 14.4496084,9.01020849 14.4919443,9.2434577 L14.5,9.33333333 L14.5,12.4444444 C14.5,13.5280941 13.6614589,14.4158919 12.597853,14.4943619 L12.4444444,14.5 L1.55555556,14.5 C0.471905933,14.5 -0.415891931,13.6614589 -0.494361882,12.597853 L-0.5,12.4444444 L-0.5,9.33333333 C-0.5,9.05719096 -0.276142375,8.83333333 0,8.83333333 C0.245459889,8.83333333 0.44960837,9.01020849 0.491944331,9.2434577 L0.5,9.33333333 L0.5,12.4444444 C0.5,12.9885472 0.911676936,13.4364977 1.44054115,13.4938061 L1.55555556,13.5 L12.4444444,13.5 C12.9885472,13.5 13.4364977,13.0883231 13.4938061,12.5594589 L13.5,12.4444444 L13.5,9.33333333 C13.5,9.05719096 13.7238576,8.83333333 14,8.83333333 Z" id="Path"></path>
                <path d="M2.75755772,5.09089105 C2.93112407,4.9173247 3.20054847,4.89803955 3.39541661,5.0330356 L3.4646645,5.09089105 L7,8.626 L10.5353355,5.09089105 C10.7089019,4.9173247 10.9783263,4.89803955 11.1731944,5.0330356 L11.2424423,5.09089105 C11.4160086,5.26445741 11.4352938,5.53388181 11.3002977,5.72874995 L11.2424423,5.79799784 L7.35355339,9.68688672 C7.17998704,9.86045308 6.91056264,9.87973823 6.7156945,9.74474217 L6.64644661,9.68688672 L2.75755772,5.79799784 C2.56229557,5.60273569 2.56229557,5.2861532 2.75755772,5.09089105 Z" id="Path"></path>
                <path d="M7,-0.5 C7.24545989,-0.5 7.44960837,-0.323124839 7.49194433,-0.0898756324 L7.5,0 L7.5,9.33333333 C7.5,9.60947571 7.27614237,9.83333333 7,9.83333333 C6.75454011,9.83333333 6.55039163,9.65645817 6.50805567,9.42320897 L6.5,9.33333333 L6.5,0 C6.5,-0.276142375 6.72385763,-0.5 7,-0.5 Z" id="Path"></path>
            </g>
        </g>
    </g>
</svg>