<?xml version="1.0" encoding="UTF-8"?>
<svg width="221px" height="190px" viewBox="0 0 221 190" version="1.1" xmlns="http://www.w3.org/2000/svg" xmlns:xlink="http://www.w3.org/1999/xlink">
    <title>Group 2</title>
    <g id="Action-Logs" stroke="none" stroke-width="1" fill="none" fill-rule="evenodd">
        <g id="Action-Manager---Zero-State" transform="translate(-556.000000, -181.000000)" fill-rule="nonzero">
            <g id="Group-2" transform="translate(556.000000, 181.000000)">
                <polygon id="Path" fill="#0295F6" points="51.7184129 82.7496774 0.14163871 82.7496774 0.14163871 68.2970323 27.0638323 68.2970323"></polygon>
                <path d="M6.96331881e-13,80.7660426 L6.96331881e-13,122.991074 L167.483179,122.991074 L167.483179,80.7660426 L6.96331881e-13,80.7660426 Z M65.3212955,115.906335 L10.9104968,115.906335 L10.9104968,109.955156 L65.3212955,109.955156 L65.3212955,115.906335 Z M156.572686,104.854142 L10.9104929,104.854142 L10.9104929,98.9029665 L156.572686,98.9029665 L156.572686,104.854142 Z M156.572686,93.8019523 L10.9104929,93.8019523 L10.9104929,87.8507768 L156.572686,87.8507768 L156.572686,93.8019523 Z" id="Shape" fill="#4B5461"></path>
                <polygon id="Path" fill="#0295F6" points="51.7184129 14.4530323 0.14163871 14.4530323 0.14163871 -2.48689958e-14 27.0638323 -2.48689958e-14"></polygon>
                <path d="M6.96331881e-13,13.3193458 L6.96331881e-13,55.5443768 L167.483179,55.5443768 L167.483179,13.3193458 L6.96331881e-13,13.3193458 Z M65.3212955,48.4596426 L10.9104968,48.4596426 L10.9104968,42.5084632 L65.3212955,42.5084632 L65.3212955,48.4596426 Z M96.7775265,37.4074529 L10.9104968,37.4074529 L10.9104968,31.4562735 L96.7775265,31.4562735 L96.7775265,37.4074529 Z M156.572706,26.3552632 L10.9105123,26.3552632 L10.9105123,20.4040839 L156.572706,20.4040839 L156.572706,26.3552632 Z" id="Shape" fill="#4B5461"></path>
                <polygon id="Path" fill="#0295F6" points="51.7184129 149.629548 0.14163871 149.629548 0.14163871 135.176903 27.0638323 135.176903"></polygon>
                <path d="M6.96331881e-13,146.795787 L6.96331881e-13,189.020822 L167.483179,189.020822 L167.483179,146.795787 L6.96331881e-13,146.795787 Z M96.7775071,181.936084 L10.9104968,181.936084 L10.9104968,175.984905 L96.7775071,175.984905 L96.7775071,181.936084 Z M96.7775071,170.883894 L10.9104968,170.883894 L10.9104968,164.932723 L96.7775071,164.932723 L96.7775071,170.883894 Z M156.572686,159.831705 L10.9104929,159.831705 L10.9104929,153.880525 L156.572686,153.880525 L156.572686,159.831705 Z" id="Shape" fill="#4B5461"></path>
                <polygon id="Path" fill="#3F3D56" points="214.950929 46.1926452 191.146026 46.1926452 191.146026 22.3877419 207.299574 22.3877419 207.299574 22.9544516 191.713123 22.9544516 191.713123 45.6259355 214.384219 45.6259355 214.384219 34.2901935 214.950929 34.2901935"></polygon>
                <path d="M202.925961,39.9834155 C202.375858,38.3591032 195.477445,32.83764 199.704619,31.9095832 L203.17116,36.5318206 L219.10877,20.5944852 L220.711695,22.1974065 L202.925961,39.9834155 Z" id="Path" fill="#0295F6"></path>
                <polygon id="Path" fill="#3F3D56" points="214.950929 113.639226 191.146026 113.639226 191.146026 89.8343226 207.299574 89.8343226 207.299574 90.4014194 191.713123 90.4014194 191.713123 113.072516 214.384219 113.072516 214.384219 101.736774 214.950929 101.736774"></polygon>
                <path d="M202.925961,107.430112 C202.375858,105.8058 195.477445,100.284337 199.704619,99.35628 L203.17116,103.978517 L219.10877,88.0411819 L220.711695,89.6441032 L202.925961,107.430112 Z" id="Path" fill="#0295F6"></path>
                <polygon id="Path" fill="#3F3D56" points="214.950929 180.802452 191.146026 180.802452 191.146026 156.997935 207.299574 156.997935 207.299574 157.564645 191.713123 157.564645 191.713123 180.235742 214.384219 180.235742 214.384219 168.9 214.950929 168.9"></polygon>
                <path d="M202.925961,174.593419 C202.375858,172.969107 195.477445,167.44764 199.704619,166.519587 L203.17116,171.141825 L219.10877,155.204485 L220.711695,156.807406 L202.925961,174.593419 Z" id="Path" fill="#0295F6"></path>
            </g>
        </g>
    </g>
</svg>