<?xml version="1.0" encoding="UTF-8"?>
<svg width="18px" height="22px" viewBox="0 0 18 22" version="1.1" xmlns="http://www.w3.org/2000/svg" xmlns:xlink="http://www.w3.org/1999/xlink">
    <title>file-text copy</title>
    <g id="Page-1" stroke="none" stroke-width="1" fill="none" fill-rule="evenodd">
        <g id="Artboard" transform="translate(-412.000000, -265.000000)" fill="#637082" fill-rule="nonzero">
            <g id="file-text-copy" transform="translate(413.000000, 266.000000)">
                <path d="M10,-0.75 L2,-0.75 C0.481216938,-0.75 -0.75,0.481216938 -0.75,2 L-0.75,18 C-0.75,19.5187831 0.481216938,20.75 2,20.75 L14,20.75 C15.5187831,20.75 16.75,19.5187831 16.75,18 L16.75,6 C16.75,5.80108763 16.6709824,5.6103222 16.5303301,5.46966991 L10.5303301,-0.530330086 C10.3896778,-0.67098237 10.1989124,-0.75 10,-0.75 Z M9.689,0.75 L15.25,6.311 L15.25,18 C15.25,18.6903559 14.6903559,19.25 14,19.25 L2,19.25 C1.30964406,19.25 0.75,18.6903559 0.75,18 L0.75,2 C0.75,1.30964406 1.30964406,0.75 2,0.75 L9.689,0.75 Z" id="Path"></path>
                <path d="M10,-0.75 C10.3796958,-0.75 10.693491,-0.467846118 10.7431534,-0.101770557 L10.75,-8.8817842e-16 L10.75,5.249 L16,5.25 C16.3796958,5.25 16.693491,5.53215388 16.7431534,5.89822944 L16.75,6 C16.75,6.37969577 16.4678461,6.69349096 16.1017706,6.74315338 L16,6.75 L10,6.75 C9.62030423,6.75 9.30650904,6.46784612 9.25684662,6.10177056 L9.25,6 L9.25,-8.8817842e-16 C9.25,-0.414213562 9.58578644,-0.75 10,-0.75 Z" id="Path"></path>
                <path d="M12,10.25 C12.4142136,10.25 12.75,10.5857864 12.75,11 C12.75,11.3796958 12.4678461,11.693491 12.1017706,11.7431534 L12,11.75 L4,11.75 C3.58578644,11.75 3.25,11.4142136 3.25,11 C3.25,10.6203042 3.53215388,10.306509 3.89822944,10.2568466 L4,10.25 L12,10.25 Z" id="Path"></path>
                <path d="M12,14.25 C12.4142136,14.25 12.75,14.5857864 12.75,15 C12.75,15.3796958 12.4678461,15.693491 12.1017706,15.7431534 L12,15.75 L4,15.75 C3.58578644,15.75 3.25,15.4142136 3.25,15 C3.25,14.6203042 3.53215388,14.306509 3.89822944,14.2568466 L4,14.25 L12,14.25 Z" id="Path"></path>
                <path d="M6,6.25 C6.41421356,6.25 6.75,6.58578644 6.75,7 C6.75,7.37969577 6.46784612,7.69349096 6.10177056,7.74315338 L6,7.75 L4,7.75 C3.58578644,7.75 3.25,7.41421356 3.25,7 C3.25,6.62030423 3.53215388,6.30650904 3.89822944,6.25684662 L4,6.25 L6,6.25 Z" id="Path"></path>
            </g>
        </g>
    </g>
</svg>