<?xml version="1.0" encoding="UTF-8"?>
<svg width="23px" height="23px" viewBox="0 0 23 23" version="1.1" xmlns="http://www.w3.org/2000/svg" xmlns:xlink="http://www.w3.org/1999/xlink">
    <title>Shape 2</title>
    <g id="Page-1" stroke="none" stroke-width="1" fill="none" fill-rule="evenodd">
        <g id="Artboard" transform="translate(-175.000000, -128.000000)" fill="#4B5461" fill-rule="nonzero" stroke="#4B5461" stroke-width="0.6">
            <g id="Shape-2" transform="translate(176.000000, 129.000000)">
                <path d="M19.4990054,16.9132721 L11.2160054,2.50840541 C11.1771387,2.40427208 11.1250721,2.30893874 11.0473387,2.23193874 C10.0214054,1.20747208 6.86807208,3.81887208 5.34347208,5.34347208 C3.81887208,6.86807208 1.20747208,10.0221387 2.23193874,11.0473387 C2.31627208,11.1316721 2.41673874,11.1888721 2.52820541,11.2270054 L10.7173387,15.9364721 L10.1240721,16.8260054 C10.0683387,16.9096054 10.0500054,17.0115387 10.0712721,17.1098054 C10.0932721,17.2073387 10.1548721,17.2924054 10.2406721,17.3437387 L12.0740054,18.4437387 C12.1319387,18.4789387 12.1972054,18.4958054 12.2624721,18.4958054 C12.3570721,18.4958054 12.4509387,18.4591387 12.5220721,18.3880054 L13.4196721,17.4904054 L16.9110721,19.4982721 C16.9990721,19.5657387 17.1002721,19.5958054 17.2095387,19.5958054 C17.6781387,19.5958054 18.2992721,19.0575387 18.6784054,18.6791387 C18.8940054,18.4635387 19.5958054,17.7221387 19.5958054,17.2168721 C19.5958054,17.0790054 19.5496054,16.9800054 19.4990054,16.9132721 Z M3.63480541,10.3184054 C3.51233874,10.3770721 3.40747208,10.4181387 3.30773874,10.4548054 C3.20800541,10.4892721 3.10973874,10.5215387 3.03127208,10.5347387 C3.02833874,10.5354721 3.02540541,10.5362054 3.02320541,10.5369387 C2.92127208,10.5538054 2.83767208,10.5530721 2.77680541,10.5332721 C2.77607208,10.5332721 2.77607208,10.5332721 2.77533874,10.5332721 C2.77020541,10.5296054 2.75553874,10.5325387 2.75187208,10.5281387 C2.52600541,10.3030054 3.33707208,8.38753874 5.86267208,5.86120541 C8.12280541,3.60033874 9.8938054,2.71373874 10.4034721,2.71373874 C10.4628721,2.71373874 10.5061387,2.72620541 10.5296054,2.74967208 C10.5303387,2.75040541 10.5318054,2.75480541 10.5325387,2.75627208 C10.5340054,2.76287208 10.5325387,2.76947208 10.5347387,2.77533874 C10.5523387,2.83253874 10.5516054,2.91320541 10.5369387,3.00707208 C10.5347387,3.02247208 10.5303387,3.03933874 10.5274054,3.05547208 C10.5112721,3.13980541 10.4826721,3.23733874 10.4430721,3.34513874 C10.4291387,3.38400541 10.4093387,3.42947208 10.3917387,3.47273874 C10.3528721,3.56733874 10.3066721,3.66853874 10.2516721,3.77707208 C10.2333387,3.81447208 10.2194054,3.84600541 10.1981387,3.88560541 C10.1277387,4.01907208 10.0404721,4.16647208 9.9480721,4.31680541 C9.8410054,4.49207208 9.71853874,4.67467208 9.59020541,4.85947208 C9.55133874,4.91593874 9.51907208,4.96727208 9.47727208,5.02593874 C9.30127208,5.27160541 9.10913874,5.52313874 8.90160541,5.77907208 C8.89940541,5.78127208 8.89867208,5.78273874 8.89793874,5.78420541 C8.46160541,6.32027208 7.96073874,6.87320541 7.41733874,7.41660541 C7.11080541,7.72313874 6.81453874,8.00180541 6.52853874,8.25920541 C6.47133874,8.30980541 6.41927208,8.35160541 6.36353874,8.40073874 C6.12520541,8.60973874 5.89127208,8.81067208 5.67053874,8.98593874 C5.64853874,9.00353874 5.62800541,9.01820541 5.60673874,9.03507208 C4.82647208,9.65033874 4.16280541,10.0624721 3.67147208,10.3008054 C3.65900541,10.3074054 3.64727208,10.3125387 3.63480541,10.3184054 Z M12.2060054,17.6664054 L10.9476054,16.9110721 L11.3538721,16.3016721 L12.7611387,17.1112721 L12.2060054,17.6664054 Z M18.1599387,18.1599387 C17.7485387,18.5706054 17.4002054,18.7920721 17.2535387,18.8485387 L13.5252721,16.7050054 C13.5150054,16.6998721 13.5062054,16.6918054 13.4952054,16.6874054 L3.73453874,11.0744721 C3.76240541,11.0634721 3.79320541,11.0458721 3.82180541,11.0341387 C3.91420541,10.9945387 4.00733874,10.9520054 4.10267208,10.9043387 C4.18407208,10.8640054 4.26620541,10.8207387 4.34980541,10.7752721 C4.37473874,10.7613387 4.39967208,10.7474054 4.42460541,10.7327387 C5.39847208,10.1871387 6.52193874,9.29027208 7.54493874,8.31420541 C7.68133874,8.18513874 7.81187208,8.05900541 7.93067208,7.94020541 C7.93213874,7.93873874 7.93360541,7.93727208 7.93507208,7.93580541 C8.17340541,7.69747208 8.40733874,7.44960541 8.63760541,7.19880541 C8.70067208,7.12987208 8.76373874,7.06093874 8.82607208,6.99200541 C9.03433874,6.75880541 9.23747208,6.52413874 9.43107208,6.28800541 C9.47947208,6.22860541 9.52347208,6.17140541 9.57040541,6.11200541 C9.72807208,5.91473874 9.8776721,5.71820541 10.0199387,5.52387208 C10.0624721,5.46520541 10.1072054,5.40580541 10.1475387,5.34787208 C10.3118054,5.11540541 10.4636054,4.88733874 10.5970721,4.66513874 C10.6044054,4.65340541 10.6139387,4.64020541 10.6212721,4.62847208 C10.8170721,4.30213874 10.9644721,4.00733874 11.0730054,3.73747208 C11.0730054,3.73673874 11.0737387,3.73600541 11.0744721,3.73527208 L18.8485387,17.2542721 C18.7920721,17.4002054 18.5713387,17.7485387 18.1599387,18.1599387 Z" id="Shape" transform="translate(10.797903, 10.797903) scale(-1, 1) rotate(-15.000000) translate(-10.797903, -10.797903) "></path>
            </g>
        </g>
    </g>
</svg>