<?xml version="1.0" encoding="UTF-8"?>
<svg width="20px" height="17px" viewBox="0 0 20 17" version="1.1" xmlns="http://www.w3.org/2000/svg" xmlns:xlink="http://www.w3.org/1999/xlink">
    <!-- Generator: Sketch 64 (93537) - https://sketch.com -->
    <title>Shape 2 Copy 2</title>
    <desc>Created with Sketch.</desc>
    <g id="Common-UI-Elements" stroke="none" stroke-width="1" fill="none" fill-rule="evenodd">
        <g id="Navbar---Expand" transform="translate(-16.000000, -307.000000)" fill="#4B5461" fill-rule="nonzero" stroke="#4B5461" stroke-width="0.6">
            <g id="Group" transform="translate(16.000000, 305.000000)">
                <g id="Shape-2-Copy-2">
                    <path d="M19.6990054,17.1132721 L11.4160054,2.70840541 C11.3771387,2.60427208 11.3250721,2.50893874 11.2473387,2.43193874 C10.2214054,1.40747208 7.06807208,4.01887208 5.54347208,5.54347208 C4.01887208,7.06807208 1.40747208,10.2221387 2.43193874,11.2473387 C2.51627208,11.3316721 2.61673874,11.3888721 2.72820541,11.4270054 L10.9173387,16.1364721 L10.3240721,17.0260054 C10.2683387,17.1096054 10.2500054,17.2115387 10.2712721,17.3098054 C10.2932721,17.4073387 10.3548721,17.4924054 10.4406721,17.5437387 L12.2740054,18.6437387 C12.3319387,18.6789387 12.3972054,18.6958054 12.4624721,18.6958054 C12.5570721,18.6958054 12.6509387,18.6591387 12.7220721,18.5880054 L13.6196721,17.6904054 L17.1110721,19.6982721 C17.1990721,19.7657387 17.3002721,19.7958054 17.4095387,19.7958054 C17.8781387,19.7958054 18.4992721,19.2575387 18.8784054,18.8791387 C19.0940054,18.6635387 19.7958054,17.9221387 19.7958054,17.4168721 C19.7958054,17.2790054 19.7496054,17.1800054 19.6990054,17.1132721 Z M3.83480541,10.5184054 C3.71233874,10.5770721 3.60747208,10.6181387 3.50773874,10.6548054 C3.40800541,10.6892721 3.30973874,10.7215387 3.23127208,10.7347387 C3.22833874,10.7354721 3.22540541,10.7362054 3.22320541,10.7369387 C3.12127208,10.7538054 3.03767208,10.7530721 2.97680541,10.7332721 C2.97607208,10.7332721 2.97607208,10.7332721 2.97533874,10.7332721 C2.97020541,10.7296054 2.95553874,10.7325387 2.95187208,10.7281387 C2.72600541,10.5030054 3.53707208,8.58753874 6.06267208,6.06120541 C8.32280541,3.80033874 10.0938054,2.91373874 10.6034721,2.91373874 C10.6628721,2.91373874 10.7061387,2.92620541 10.7296054,2.94967208 C10.7303387,2.95040541 10.7318054,2.95480541 10.7325387,2.95627208 C10.7340054,2.96287208 10.7325387,2.96947208 10.7347387,2.97533874 C10.7523387,3.03253874 10.7516054,3.11320541 10.7369387,3.20707208 C10.7347387,3.22247208 10.7303387,3.23933874 10.7274054,3.25547208 C10.7112721,3.33980541 10.6826721,3.43733874 10.6430721,3.54513874 C10.6291387,3.58400541 10.6093387,3.62947208 10.5917387,3.67273874 C10.5528721,3.76733874 10.5066721,3.86853874 10.4516721,3.97707208 C10.4333387,4.01447208 10.4194054,4.04600541 10.3981387,4.08560541 C10.3277387,4.21907208 10.2404721,4.36647208 10.1480721,4.51680541 C10.0410054,4.69207208 9.91853874,4.87467208 9.79020541,5.05947208 C9.75133874,5.11593874 9.71907208,5.16727208 9.67727208,5.22593874 C9.50127208,5.47160541 9.30913874,5.72313874 9.10160541,5.97907208 C9.09940541,5.98127208 9.09867208,5.98273874 9.09793874,5.98420541 C8.66160541,6.52027208 8.16073874,7.07320541 7.61733874,7.61660541 C7.31080541,7.92313874 7.01453874,8.20180541 6.72853874,8.45920541 C6.67133874,8.50980541 6.61927208,8.55160541 6.56353874,8.60073874 C6.32520541,8.80973874 6.09127208,9.01067208 5.87053874,9.18593874 C5.84853874,9.20353874 5.82800541,9.21820541 5.80673874,9.23507208 C5.02647208,9.85033874 4.36280541,10.2624721 3.87147208,10.5008054 C3.85900541,10.5074054 3.84727208,10.5125387 3.83480541,10.5184054 Z M12.4060054,17.8664054 L11.1476054,17.1110721 L11.5538721,16.5016721 L12.9611387,17.3112721 L12.4060054,17.8664054 Z M18.3599387,18.3599387 C17.9485387,18.7706054 17.6002054,18.9920721 17.4535387,19.0485387 L13.7252721,16.9050054 C13.7150054,16.8998721 13.7062054,16.8918054 13.6952054,16.8874054 L3.93453874,11.2744721 C3.96240541,11.2634721 3.99320541,11.2458721 4.02180541,11.2341387 C4.11420541,11.1945387 4.20733874,11.1520054 4.30267208,11.1043387 C4.38407208,11.0640054 4.46620541,11.0207387 4.54980541,10.9752721 C4.57473874,10.9613387 4.59967208,10.9474054 4.62460541,10.9327387 C5.59847208,10.3871387 6.72193874,9.49027208 7.74493874,8.51420541 C7.88133874,8.38513874 8.01187208,8.25900541 8.13067208,8.14020541 C8.13213874,8.13873874 8.13360541,8.13727208 8.13507208,8.13580541 C8.37340541,7.89747208 8.60733874,7.64960541 8.83760541,7.39880541 C8.90067208,7.32987208 8.96373874,7.26093874 9.02607208,7.19200541 C9.23433874,6.95880541 9.43747208,6.72413874 9.63107208,6.48800541 C9.67947208,6.42860541 9.72347208,6.37140541 9.77040541,6.31200541 C9.92807208,6.11473874 10.0776721,5.91820541 10.2199387,5.72387208 C10.2624721,5.66520541 10.3072054,5.60580541 10.3475387,5.54787208 C10.5118054,5.31540541 10.6636054,5.08733874 10.7970721,4.86513874 C10.8044054,4.85340541 10.8139387,4.84020541 10.8212721,4.82847208 C11.0170721,4.50213874 11.1644721,4.20733874 11.2730054,3.93747208 C11.2730054,3.93673874 11.2737387,3.93600541 11.2744721,3.93527208 L19.0485387,17.4542721 C18.9920721,17.6002054 18.7713387,17.9485387 18.3599387,18.3599387 Z" id="Shape" transform="translate(10.997903, 10.997903) scale(-1, 1) rotate(-15.000000) translate(-10.997903, -10.997903) "></path>
                </g>
            </g>
        </g>
    </g>
</svg>