<?xml version="1.0" encoding="UTF-8"?>
<svg width="28px" height="28px" viewBox="0 0 23 23" version="1.1" xmlns="http://www.w3.org/2000/svg" xmlns:xlink="http://www.w3.org/1999/xlink">
    <title>advertising-4B5461</title>
    <g id="Page-1" stroke="none" stroke-width="1" fill="none" fill-rule="evenodd">
        <g id="Artboard" transform="translate(-247.000000, -124.000000)" fill="#637082" fill-rule="nonzero" stroke="#637082" stroke-width="0.6">
            <g id="advertising-4B5461" transform="translate(248.000000, 125.000000)">
                <path d="M19.4990061,16.9132722 L11.2160061,2.5084055 C11.1771394,2.40427217 11.1250728,2.30893883 11.0473394,2.23193883 C10.0214061,1.20747217 6.86807275,3.81887217 5.34347275,5.34347217 C3.81887275,6.86807217 1.20747275,10.0221388 2.23193941,11.0473388 C2.31627275,11.1316722 2.41673941,11.1888722 2.52820608,11.2270055 L10.7173394,15.9364722 L10.1240728,16.8260055 C10.0683394,16.9096055 10.0500061,17.0115388 10.0712728,17.1098055 C10.0932728,17.2073388 10.1548728,17.2924055 10.2406728,17.3437388 L12.0740061,18.4437388 C12.1319394,18.4789388 12.1972061,18.4958055 12.2624728,18.4958055 C12.3570728,18.4958055 12.4509394,18.4591388 12.5220728,18.3880055 L13.4196728,17.4904055 L16.9110728,19.4982722 C16.9990728,19.5657388 17.1002728,19.5958055 17.2095394,19.5958055 C17.6781394,19.5958055 18.2992728,19.0575388 18.6784061,18.6791388 C18.8940061,18.4635388 19.5958061,17.7221388 19.5958061,17.2168722 C19.5958061,17.0790055 19.5496061,16.9800055 19.4990061,16.9132722 Z M3.63480608,10.3184055 C3.51233941,10.3770722 3.40747275,10.4181388 3.30773941,10.4548055 C3.20800608,10.4892722 3.10973941,10.5215388 3.03127275,10.5347388 C3.02833941,10.5354722 3.02540608,10.5362055 3.02320608,10.5369388 C2.92127275,10.5538055 2.83767275,10.5530722 2.77680608,10.5332722 C2.77607275,10.5332722 2.77607275,10.5332722 2.77533941,10.5332722 C2.77020608,10.5296055 2.75553941,10.5325388 2.75187275,10.5281388 C2.52600608,10.3030055 3.33707275,8.38753883 5.86267275,5.8612055 C8.12280608,3.60033883 9.89380607,2.71373883 10.4034728,2.71373883 C10.4628728,2.71373883 10.5061394,2.7262055 10.5296061,2.74967217 C10.5303394,2.7504055 10.5318061,2.7548055 10.5325394,2.75627217 C10.5340061,2.76287217 10.5325394,2.76947217 10.5347394,2.77533883 C10.5523394,2.83253883 10.5516061,2.9132055 10.5369394,3.00707217 C10.5347394,3.02247217 10.5303394,3.03933883 10.5274061,3.05547217 C10.5112728,3.1398055 10.4826728,3.23733883 10.4430728,3.34513883 C10.4291394,3.3840055 10.4093394,3.42947217 10.3917394,3.47273883 C10.3528728,3.56733883 10.3066728,3.66853883 10.2516728,3.77707217 C10.2333394,3.81447217 10.2194061,3.8460055 10.1981394,3.8856055 C10.1277394,4.01907217 10.0404728,4.16647217 9.94807277,4.3168055 C9.84100607,4.49207217 9.71853941,4.67467217 9.59020608,4.85947217 C9.55133941,4.91593883 9.51907275,4.96727217 9.47727275,5.02593883 C9.30127275,5.2716055 9.10913941,5.52313883 8.90160608,5.77907217 C8.89940608,5.78127217 8.89867275,5.78273883 8.89793941,5.7842055 C8.46160608,6.32027217 7.96073941,6.8732055 7.41733941,7.4166055 C7.11080608,7.72313883 6.81453941,8.0018055 6.52853941,8.2592055 C6.47133941,8.3098055 6.41927275,8.3516055 6.36353941,8.40073883 C6.12520608,8.60973883 5.89127275,8.81067217 5.67053941,8.98593883 C5.64853941,9.00353883 5.62800608,9.0182055 5.60673941,9.03507217 C4.82647275,9.65033883 4.16280608,10.0624722 3.67147275,10.3008055 C3.65900608,10.3074055 3.64727275,10.3125388 3.63480608,10.3184055 Z M12.2060061,17.6664055 L10.9476061,16.9110722 L11.3538728,16.3016722 L12.7611394,17.1112722 L12.2060061,17.6664055 Z M18.1599394,18.1599388 C17.7485394,18.5706055 17.4002061,18.7920722 17.2535394,18.8485388 L13.5252728,16.7050055 C13.5150061,16.6998722 13.5062061,16.6918055 13.4952061,16.6874055 L3.73453941,11.0744722 C3.76240608,11.0634722 3.79320608,11.0458722 3.82180608,11.0341388 C3.91420608,10.9945388 4.00733941,10.9520055 4.10267275,10.9043388 C4.18407275,10.8640055 4.26620608,10.8207388 4.34980608,10.7752722 C4.37473941,10.7613388 4.39967275,10.7474055 4.42460608,10.7327388 C5.39847275,10.1871388 6.52193941,9.29027217 7.54493941,8.3142055 C7.68133941,8.18513883 7.81187275,8.0590055 7.93067275,7.9402055 C7.93213941,7.93873883 7.93360608,7.93727217 7.93507275,7.9358055 C8.17340608,7.69747217 8.40733941,7.4496055 8.63760608,7.1988055 C8.70067275,7.12987217 8.76373941,7.06093883 8.82607275,6.9920055 C9.03433941,6.7588055 9.23747275,6.52413883 9.43107275,6.2880055 C9.47947275,6.2286055 9.52347275,6.1714055 9.57040608,6.1120055 C9.72807275,5.91473883 9.87767277,5.7182055 10.0199394,5.52387217 C10.0624728,5.4652055 10.1072061,5.4058055 10.1475394,5.34787217 C10.3118061,5.1154055 10.4636061,4.88733883 10.5970728,4.66513883 C10.6044061,4.6534055 10.6139394,4.6402055 10.6212728,4.62847217 C10.8170728,4.30213883 10.9644728,4.00733883 11.0730061,3.73747217 C11.0730061,3.73673883 11.0737394,3.7360055 11.0744728,3.73527217 L18.8485394,17.2542722 C18.7920728,17.4002055 18.5713394,17.7485388 18.1599394,18.1599388 Z" id="Shape" transform="translate(10.797903, 10.797903) scale(-1, 1) rotate(-15.000000) translate(-10.797903, -10.797903) "></path>
            </g>
        </g>
    </g>
</svg>