<?xml version="1.0" encoding="UTF-8"?>
<svg width="33px" height="22px" viewBox="0 0 33 22" version="1.1" xmlns="http://www.w3.org/2000/svg" xmlns:xlink="http://www.w3.org/1999/xlink">
    <title>agency</title>
    <g id="Page-1" stroke="none" stroke-width="1" fill="none" fill-rule="evenodd">
        <g id="Artboard" transform="translate(-244.000000, -138.000000)" fill="#637082" fill-rule="nonzero" stroke="#FFFFFF">
            <g id="agency" transform="translate(245.000000, 139.000000)">
                <path d="M8.88888889,17.7777778 L8.88888889,1.11111111 C8.88888889,0.497461389 9.38635028,0 10,0 L21.1111111,0 C21.7247608,0 22.2222222,0.497461389 22.2222222,1.11111111 L22.2222222,17.7777778 L26.6666667,17.7777778 L26.6666667,8.88888889 L24.4444444,8.88888889 L24.4444444,6.66666667 L27.7777778,6.66666667 C28.3914275,6.66666667 28.8888889,7.16412806 28.8888889,7.77777778 L28.8888889,17.7777778 L31.1111111,17.7777778 L31.1111111,20 L6.66666667,20 L6.66666667,20 L0,20 L0,17.7777778 L2.22222222,17.7777778 L2.22222222,7.77777778 C2.22222222,7.16412806 2.71968361,6.66666667 3.33333333,6.66666667 L3.33333333,6.66666667 L6.66666667,6.66666667 L6.66666667,8.88888889 L4.44444444,8.88888889 L4.44444444,17.7777778 L8.88888889,17.7777778 Z M20,2.22222222 L11.1111111,2.22222222 L11.1111111,17.7777778 L20,17.7777778 L20,2.22222222 Z M17.7777778,13.3333333 L17.7777778,15.5555556 L13.3333333,15.5555556 L13.3333333,13.3333333 L17.7777778,13.3333333 Z M17.7777778,8.88888889 L17.7777778,11.1111111 L13.3333333,11.1111111 L13.3333333,8.88888889 L17.7777778,8.88888889 Z M17.7777778,4.44444444 L17.7777778,6.66666667 L13.3333333,6.66666667 L13.3333333,4.44444444 L17.7777778,4.44444444 Z" id="Combined-Shape"></path>
            </g>
        </g>
    </g>
</svg>