<?xml version="1.0" encoding="UTF-8"?>
<svg width="21px" height="23px" viewBox="0 0 21 23" version="1.1" xmlns="http://www.w3.org/2000/svg" xmlns:xlink="http://www.w3.org/1999/xlink">
    <title>Alerts</title>
    <g id="Page-1" stroke="none" stroke-width="1" fill="none" fill-rule="evenodd">
        <g id="Artboard" transform="translate(-327.000000, -416.000000)" stroke="#0295F6">
            <g id="Alerts" transform="translate(328.000000, 417.000000)">
                <path d="M0.965987,5.918935 C1.893705,4.0996725 3.506195,2.723457 5.44863,2.0930525 C7.39101,1.462648 9.50433,1.629694 11.32362,2.557434 C13.142855,3.485174 14.519065,5.09762 15.149475,7.040055 L17.321205,13.73163 C17.880335,14.346035 18.602815,14.78818 19.396355,15.010325 C19.688845,15.09222 19.85962,15.39571 19.777725,15.688255 C19.722725,15.884605 19.567845,16.02612 19.38343,16.073145 C19.383045,16.073255 19.38266,16.073365 19.382275,16.07353 L2.37908,21.59179 C2.202255,21.662025 1.993805,21.638485 1.833975,21.511765 C1.5958965,21.323115 1.5558675,20.977165 1.744545,20.739125 C2.25643,20.093315 2.581535,19.31116 2.67333,18.4855 L0.501611,11.793925 C-0.128799,9.85149 0.038247,7.738225 0.965987,5.918935 Z M3.378485,20.11097 L17.704995,15.46138 C17.229575,15.17043 16.797,14.806825 16.42564,14.379805 C16.400285,14.351865 16.37768,14.321065 16.358265,14.28768 C16.335935,14.24951 16.318665,14.20936 16.3064,14.16811 L14.10321,7.379625 C13.56289,5.714665 12.38325,4.332581 10.82389,3.537369 C9.26453,2.7421625 7.453105,2.5989865 5.788145,3.139334 C4.12324,3.6796815 2.741145,4.859305 1.9459,6.418665 C1.150721,7.978025 1.0075395,9.78945 1.547887,11.454355 L3.751275,18.243555 C3.764585,18.28156 3.77377,18.321325 3.778445,18.362355 C3.78323,18.403605 3.78323,18.444745 3.778775,18.485005 C3.72889,19.048425 3.592325,19.5965 3.378485,20.11097 Z" id="Shape" stroke-width="0.3" fill="#0295F6"></path>
                <path d="M12.97417,18.1544 C13.349215,19.31006 12.71644,20.551025 11.560725,20.92607 C10.405065,21.30117 9.164155,20.66834 8.789055,19.512625" id="Path" stroke-width="1.3"></path>
                <path d="M3.52583,3.2956055 C3.150785,2.1399235 3.78356,0.898997 4.939275,0.5239245 C6.094935,0.148852 7.335845,0.7816655 7.710945,1.937353" id="Path" stroke-width="1.3"></path>
            </g>
        </g>
    </g>
</svg>