<?xml version="1.0" encoding="UTF-8"?>
<svg width="16px" height="22px" viewBox="0 0 16 22" version="1.1" xmlns="http://www.w3.org/2000/svg" xmlns:xlink="http://www.w3.org/1999/xlink">
    <title>bar-chart-2</title>
    <g id="Page-1" stroke="none" stroke-width="1" fill="none" fill-rule="evenodd">
        <g id="Artboard" transform="translate(-559.000000, -480.000000)" fill="#0295F6" fill-rule="nonzero">
            <g id="bar-chart-2" transform="translate(559.000000, 482.000000)">
                <path d="M14.625,5.625 C15.204899,5.625 15.6823199,6.06376095 15.7433987,6.62741886 L15.75,6.75 L15.75,18 C15.75,18.6213203 15.2463203,19.125 14.625,19.125 C14.045101,19.125 13.5676801,18.6862391 13.5066013,18.1225811 L13.5,18 L13.5,6.75 C13.5,6.12867966 14.0036797,5.625 14.625,5.625 Z" id="Path"></path>
                <path d="M7.875,-1.125 C8.45489899,-1.125 8.93231986,-0.686239055 8.99339865,-0.122581144 L9,0 L9,18 C9,18.6213203 8.49632034,19.125 7.875,19.125 C7.29510101,19.125 6.81768014,18.6862391 6.75660135,18.1225811 L6.75,18 L6.75,0 C6.75,-0.621320344 7.25367966,-1.125 7.875,-1.125 Z" id="Path"></path>
                <path d="M1.125,10.125 C1.70489899,10.125 2.18231986,10.5637609 2.24339865,11.1274189 L2.25,11.25 L2.25,18 C2.25,18.6213203 1.74632034,19.125 1.125,19.125 C0.545101013,19.125 0.067680135,18.6862391 0.00660134684,18.1225811 L0,18 L0,11.25 C0,10.6286797 0.503679656,10.125 1.125,10.125 Z" id="Path"></path>
            </g>
        </g>
    </g>
</svg>