<?xml version="1.0" encoding="UTF-8"?>
<svg width="16px" height="16px" viewBox="0 0 16 16" version="1.1" xmlns="http://www.w3.org/2000/svg" xmlns:xlink="http://www.w3.org/1999/xlink">
    <!-- Generator: Sketch 64 (93537) - https://sketch.com -->
    <title>arrow-left</title>
    <desc>Created with Sketch.</desc>
    <g id="Page-1" stroke="none" stroke-width="1" fill="none" fill-rule="evenodd">
        <g id="Artboard" transform="translate(-88.000000, -94.000000)" fill="#DAE0E9" fill-rule="nonzero">
            <g id="arrow-left" transform="translate(89.000000, 95.000000)">
                <path d="M14,6.1 C14.4970563,6.1 14.9,6.50294373 14.9,7 C14.9,7.45882118 14.5566633,7.83745178 14.1128941,7.89298772 L14,7.9 L0,7.9 C-0.497056275,7.9 -0.9,7.49705627 -0.9,7 C-0.9,6.54117882 -0.556663335,6.16254822 -0.112894088,6.10701228 L0,6.1 L14,6.1 Z" id="Path"></path>
                <path d="M6.3636039,-0.636396103 C6.71507576,-0.987867966 7.28492424,-0.987867966 7.6363961,-0.636396103 C7.95857864,-0.314213562 7.98542719,0.191465998 7.71694174,0.544231375 L7.6363961,0.636396103 L1.273,7 L7.6363961,13.3636039 C7.95857864,13.6857864 7.98542719,14.191466 7.71694174,14.5442314 L7.6363961,14.6363961 C7.31421356,14.9585786 6.808534,14.9854272 6.45576862,14.7169417 L6.3636039,14.6363961 L-0.636396103,7.6363961 C-0.958578644,7.31421356 -0.985427189,6.808534 -0.716941738,6.45576862 L-0.636396103,6.3636039 L6.3636039,-0.636396103 Z" id="Path"></path>
            </g>
        </g>
    </g>
</svg>