<?xml version="1.0" encoding="UTF-8"?>
<svg width="10px" height="6px" viewBox="0 0 10 6" version="1.1" xmlns="http://www.w3.org/2000/svg" xmlns:xlink="http://www.w3.org/1999/xlink">
    <!-- Generator: Sketch 64 (93537) - https://sketch.com -->
    <title>chevron-up</title>
    <desc>Created with Sketch.</desc>
    <g id="Page-1" stroke="none" stroke-width="1" fill="none" fill-rule="evenodd">
        <g id="Artboard" transform="translate(-130.000000, -143.000000)" fill="#222222" fill-rule="nonzero">
            <g id="chevron-up" transform="translate(135.000000, 146.000000) scale(1, -1) translate(-135.000000, -146.000000) translate(131.000000, 144.000000)">
                <path d="M3.64644661,-0.353553391 C3.82001296,-0.527119742 4.08943736,-0.546404893 4.2843055,-0.411408841 L4.35355339,-0.353553391 L8.35355339,3.64644661 C8.54881554,3.84170876 8.54881554,4.15829124 8.35355339,4.35355339 C8.17998704,4.52711974 7.91056264,4.54640489 7.7156945,4.41140884 L7.64644661,4.35355339 L4,0.707 L0.353553391,4.35355339 C0.179987039,4.52711974 -0.0894373624,4.54640489 -0.284305503,4.41140884 L-0.353553391,4.35355339 C-0.527119742,4.17998704 -0.546404893,3.91056264 -0.411408841,3.7156945 L-0.353553391,3.64644661 L3.64644661,-0.353553391 Z" id="Path"></path>
            </g>
        </g>
    </g>
</svg>