<?xml version="1.0" encoding="UTF-8"?>
<svg width="12px" height="7px" viewBox="0 0 12 7" version="1.1" xmlns="http://www.w3.org/2000/svg" xmlns:xlink="http://www.w3.org/1999/xlink">
    <title>arrow-down-0295F6</title>
    <g id="Page-1" stroke="none" stroke-width="1" fill="none" fill-rule="evenodd">
        <g id="Artboard" transform="translate(-329.000000, -267.000000)" fill="#0295F6" fill-rule="nonzero">
            <g id="arrow-down-0295F6" transform="translate(329.000000, 267.000000)">
                <g id="chevron-up-copy" transform="translate(6.000000, 3.500000) scale(-1, 1) rotate(-180.000000) translate(-6.000000, -3.500000) ">
                    <path d="M5.29289322,0.292893219 C5.65337718,-0.06759074 6.22060824,-0.09532028 6.61289944,0.209704612 L6.70710678,0.292893219 L11.7071068,5.29289322 C12.0976311,5.68341751 12.0976311,6.31658249 11.7071068,6.70710678 C11.3466228,7.06759074 10.7793918,7.09532028 10.3871006,6.79029539 L10.2928932,6.70710678 L6,2.415 L1.70710678,6.70710678 C1.34662282,7.06759074 0.779391764,7.09532028 0.387100557,6.79029539 L0.292893219,6.70710678 C-0.06759074,6.34662282 -0.09532028,5.77939176 0.209704612,5.38710056 L0.292893219,5.29289322 L5.29289322,0.292893219 Z" id="Path"></path>
                </g>
            </g>
        </g>
    </g>
</svg>