<?xml version="1.0" encoding="UTF-8"?>
<svg width="16px" height="16px" viewBox="0 0 16 16" version="1.1" xmlns="http://www.w3.org/2000/svg" xmlns:xlink="http://www.w3.org/1999/xlink">
    <!-- Generator: Sketch 64 (93537) - https://sketch.com -->
    <title>arrow-right-4B5461</title>
    <desc>Created with Sketch.</desc>
    <g id="Page-1" stroke="none" stroke-width="1" fill="none" fill-rule="evenodd">
        <g id="Artboard" transform="translate(-123.000000, -45.000000)" fill="#4B5461" fill-rule="nonzero">
            <g id="arrow-right-4B5461" transform="translate(131.000000, 53.000000) scale(-1, 1) translate(-131.000000, -53.000000) translate(124.000000, 46.000000)">
                <path d="M14,6.25 C14.4142136,6.25 14.75,6.58578644 14.75,7 C14.75,7.37969577 14.4678461,7.69349096 14.1017706,7.74315338 L14,7.75 L0,7.75 C-0.414213562,7.75 -0.75,7.41421356 -0.75,7 C-0.75,6.62030423 -0.467846118,6.30650904 -0.101770557,6.25684662 L0,6.25 L14,6.25 Z" id="Path"></path>
                <path d="M6.46966991,-0.530330086 C6.76256313,-0.823223305 7.23743687,-0.823223305 7.53033009,-0.530330086 C7.79659665,-0.264063523 7.8208027,0.152600159 7.60294824,0.446211653 L7.53033009,0.530330086 L1.061,7 L7.53033009,13.4696699 C7.79659665,13.7359365 7.8208027,14.1526002 7.60294824,14.4462117 L7.53033009,14.5303301 C7.26406352,14.7965966 6.84739984,14.8208027 6.55378835,14.6029482 L6.46966991,14.5303301 L-0.530330086,7.53033009 C-0.796596648,7.26406352 -0.8208027,6.84739984 -0.602948239,6.55378835 L-0.530330086,6.46966991 L6.46966991,-0.530330086 Z" id="Path"></path>
            </g>
        </g>
    </g>
</svg>