<?xml version="1.0" encoding="UTF-8"?>
<svg width="13px" height="20px" viewBox="0 0 13 20" version="1.1" xmlns="http://www.w3.org/2000/svg" xmlns:xlink="http://www.w3.org/1999/xlink">
    <!-- Generator: Sketch 64 (93537) - https://sketch.com -->
    <title>award</title>
    <desc>Created with Sketch.</desc>
    <g id="Page-1" stroke="none" stroke-width="1" fill="none" fill-rule="evenodd">
        <g id="Artboard" transform="translate(-106.000000, -106.000000)" fill="#222222" fill-rule="nonzero">
            <g id="award" transform="translate(107.000000, 107.000000)">
                <path d="M5.58264463,-0.65 C2.14045005,-0.65 -0.65,2.14045005 -0.65,5.58264463 C-0.65,9.02483921 2.14045005,11.8152893 5.58264463,11.8152893 C9.02483921,11.8152893 11.8152893,9.02483921 11.8152893,5.58264463 C11.8152893,2.14045005 9.02483921,-0.65 5.58264463,-0.65 Z M5.58264463,0.65 C8.30686903,0.65 10.5152893,2.85842022 10.5152893,5.58264463 C10.5152893,8.30686903 8.30686903,10.5152893 5.58264463,10.5152893 C2.85842022,10.5152893 0.65,8.30686903 0.65,5.58264463 C0.65,2.85842022 2.85842022,0.65 5.58264463,0.65 Z" id="Oval"></path>
                <path d="M8.51975805,9.62771258 C8.84327317,9.58479007 9.1427349,9.78767462 9.22998195,10.0922853 L9.24960147,10.1865762 L10.2146015,17.4599647 C10.2819782,17.9677957 9.76895329,18.3372261 9.31924654,18.1454607 L9.23582569,18.1028249 L5.582,15.911 L1.92946356,18.1028249 C1.49015121,18.3664124 0.947291335,18.0422869 0.944697874,17.5533719 L0.950700028,17.4598724 L1.91570003,10.1944592 C1.96296572,9.83859935 2.28976356,9.58843434 2.64562343,9.63570003 C2.9691324,9.67866884 3.20529025,9.95265595 3.210043,10.2694795 L3.20438262,10.3656234 L2.417,16.294 L5.24822239,14.5955222 C5.42465972,14.4896598 5.638797,14.4745366 5.82600575,14.5501526 L5.91706687,14.5955222 L8.748,16.294 L7.9608944,10.357556 C7.91797189,10.0340409 8.12085643,9.73457915 8.42546713,9.6473321 L8.51975805,9.62771258 Z" id="Path"></path>
            </g>
        </g>
    </g>
</svg>