<?xml version="1.0" encoding="UTF-8"?>
<svg width="10px" height="14px" viewBox="0 0 10 14" version="1.1" xmlns="http://www.w3.org/2000/svg" xmlns:xlink="http://www.w3.org/1999/xlink">
    <title>award</title>
    <g id="Page-1" stroke="none" stroke-width="1" fill="none" fill-rule="evenodd">
        <g id="Artboard" transform="translate(-274.000000, -516.000000)" fill="#222222" fill-rule="nonzero">
            <g id="award" transform="translate(275.000000, 517.000000)">
                <path d="M3.72176309,-0.6 C1.33491924,-0.6 -0.6,1.33491924 -0.6,3.72176309 C-0.6,6.10860693 1.33491924,8.04352617 3.72176309,8.04352617 C6.10860693,8.04352617 8.04352617,6.10860693 8.04352617,3.72176309 C8.04352617,1.33491924 6.10860693,-0.6 3.72176309,-0.6 Z M3.72176309,0.6 C5.44586523,0.6 6.84352617,1.99766094 6.84352617,3.72176309 C6.84352617,5.44586523 5.44586523,6.84352617 3.72176309,6.84352617 C1.99766094,6.84352617 0.6,5.44586523 0.6,3.72176309 C0.6,1.99766094 1.99766094,0.6 3.72176309,0.6 Z" id="Oval"></path>
                <path d="M5.65791821,6.2532562 C5.95356126,6.21403163 6.22744302,6.39719059 6.31103485,6.6736855 L6.33161984,6.76913033 L6.97495317,11.618056 C7.0369041,12.0849919 6.56727714,12.4251697 6.15333895,12.2528722 L6.07146784,12.2114655 L3.722,10.801 L1.37205833,12.2114655 C0.968123303,12.4538265 0.469351213,12.1579134 0.4630947,11.7095598 L0.468584302,11.6179708 L1.11191764,6.77436202 C1.1555475,6.44587598 1.45720705,6.21495443 1.78569308,6.2585843 C2.08133051,6.29785118 2.29794071,6.5461221 2.3065002,6.83484993 L2.30147079,6.93235975 L1.822,10.541 L3.41306563,9.58743262 C3.57593086,9.48971348 3.77359605,9.47575361 3.94640412,9.54555299 L4.03046054,9.58743262 L5.622,10.542 L5.14204408,6.92695782 C5.10281951,6.63131477 5.28597847,6.35743301 5.56247338,6.27384119 L5.65791821,6.2532562 Z" id="Path"></path>
            </g>
        </g>
    </g>
</svg>