<?xml version="1.0" encoding="UTF-8"?>
<svg width="14px" height="24px" viewBox="0 0 14 24" version="1.1" xmlns="http://www.w3.org/2000/svg" xmlns:xlink="http://www.w3.org/1999/xlink">
    <title>dollar-sign</title>
    <g id="Page-1" stroke="none" stroke-width="1" fill="none" fill-rule="evenodd">
        <g id="Artboard" transform="translate(-484.000000, -470.000000)" fill="#637082" fill-rule="nonzero">
            <g id="dollar-sign" transform="translate(484.000000, 470.000000)">
                <path d="M7,0.1 C7.45882118,0.1 7.83745178,0.443336665 7.89298772,0.887105912 L7.9,1 L7.9,23 C7.9,23.4970563 7.49705627,23.9 7,23.9 C6.54117882,23.9 6.16254822,23.5566633 6.10701228,23.1128941 L6.1,23 L6.1,1 C6.1,0.502943725 6.50294373,0.1 7,0.1 Z" id="Path"></path>
                <path d="M12,4.1 C12.4970563,4.1 12.9,4.50294373 12.9,5 C12.9,5.45882118 12.5566633,5.83745178 12.1128941,5.89298772 L12,5.9 L4.5,5.9 C3.06405965,5.9 1.9,7.06405965 1.9,8.5 C1.9,9.88071187 2.97623858,11.0100548 4.33557191,11.0948848 L4.5,11.1 L9.5,11.1 C11.9300529,11.1 13.9,13.0699471 13.9,15.5 C13.9,17.8585807 12.044228,19.7837227 9.71318397,19.8949261 L9.5,19.9 L1,19.9 C0.502943725,19.9 0.1,19.4970563 0.1,19 C0.1,18.5411788 0.443336665,18.1625482 0.887105912,18.1070123 L1,18.1 L9.5,18.1 C10.9359403,18.1 12.1,16.9359403 12.1,15.5 C12.1,14.1192882 11.0237614,12.9899452 9.66442809,12.9051152 L9.5,12.9 L4.5,12.9 C2.0699471,12.9 0.1,10.9300529 0.1,8.5 C0.1,6.14141924 1.95577197,4.21627726 4.28681603,4.10507391 L4.5,4.1 L12,4.1 Z" id="Path"></path>
            </g>
        </g>
    </g>
</svg>