<?xml version="1.0" encoding="UTF-8"?>
<svg width="14px" height="14px" viewBox="0 0 14 14" version="1.1" xmlns="http://www.w3.org/2000/svg" xmlns:xlink="http://www.w3.org/1999/xlink">
    <!-- Generator: Sketch 64 (93537) - https://sketch.com -->
    <title>calendar copy</title>
    <desc>Created with Sketch.</desc>
    <g id="Page-1" stroke="none" stroke-width="1" fill="none" fill-rule="evenodd">
        <g id="Artboard" transform="translate(-77.000000, -111.000000)" fill="#2193B0" fill-rule="nonzero">
            <g id="calendar-copy" transform="translate(78.000000, 112.000000)">
                <path d="M10.1123404,0.65 L1.40765957,0.65 C0.326474046,0.65 -0.55,1.52647405 -0.55,2.60765957 L-0.55,10.5923404 C-0.55,11.673526 0.326474046,12.55 1.40765957,12.55 L10.1123404,12.55 C11.193526,12.55 12.07,11.673526 12.07,10.5923404 L12.07,2.60765957 C12.07,1.52647405 11.193526,0.65 10.1123404,0.65 Z M1.40765957,1.75 L10.1123404,1.75 C10.5860127,1.75 10.97,2.13398727 10.97,2.60765957 L10.97,10.5923404 C10.97,11.0660127 10.5860127,11.45 10.1123404,11.45 L1.40765957,11.45 C0.933987271,11.45 0.55,11.0660127 0.55,10.5923404 L0.55,2.60765957 C0.55,2.13398727 0.933987271,1.75 1.40765957,1.75 Z" id="Rectangle"></path>
                <path d="M8.32,-0.55 C8.59338095,-0.55 8.82017619,-0.350542856 8.86280143,-0.0892128568 L8.87,0 L8.87,2.4 C8.87,2.70375661 8.62375661,2.95 8.32,2.95 C8.04661905,2.95 7.81982381,2.75054286 7.77719857,2.48921286 L7.77,2.4 L7.77,0 C7.77,-0.303756612 8.01624339,-0.55 8.32,-0.55 Z" id="Path"></path>
                <path d="M3.2,-0.55 C3.47338095,-0.55 3.70017619,-0.350542856 3.74280143,-0.0892128568 L3.75,0 L3.75,2.4 C3.75,2.70375661 3.50375661,2.95 3.2,2.95 C2.92661905,2.95 2.69982381,2.75054286 2.65719857,2.48921286 L2.65,2.4 L2.65,0 C2.65,-0.303756612 2.89624339,-0.55 3.2,-0.55 Z" id="Path"></path>
                <path d="M11.52,4.25 C11.8237566,4.25 12.07,4.49624339 12.07,4.8 C12.07,5.07338095 11.8705429,5.30017619 11.6092129,5.34280143 L11.52,5.35 L0,5.35 C-0.303756612,5.35 -0.55,5.10375661 -0.55,4.8 C-0.55,4.52661905 -0.350542856,4.29982381 -0.0892128568,4.25719857 L0,4.25 L11.52,4.25 Z" id="Path"></path>
            </g>
        </g>
    </g>
</svg>