<?xml version="1.0" encoding="UTF-8"?>
<svg width="14px" height="14px" viewBox="0 0 14 14" version="1.1" xmlns="http://www.w3.org/2000/svg" xmlns:xlink="http://www.w3.org/1999/xlink">
    <title>calendar-0295F6</title>
    <g id="Page-1" stroke="none" stroke-width="1" fill="none" fill-rule="evenodd">
        <g id="Artboard" transform="translate(-255.000000, -235.000000)" fill="#0295F6" fill-rule="nonzero">
            <g id="calendar-0295F6" transform="translate(255.000000, 235.000000)">
                <path d="M11.1123404,1.65 L2.40765957,1.65 C1.32647405,1.65 0.45,2.52647405 0.45,3.60765957 L0.45,11.5923404 C0.45,12.673526 1.32647405,13.55 2.40765957,13.55 L11.1123404,13.55 C12.193526,13.55 13.07,12.673526 13.07,11.5923404 L13.07,3.60765957 C13.07,2.52647405 12.193526,1.65 11.1123404,1.65 Z M2.40765957,2.75 L11.1123404,2.75 C11.5860127,2.75 11.97,3.13398727 11.97,3.60765957 L11.97,11.5923404 C11.97,12.0660127 11.5860127,12.45 11.1123404,12.45 L2.40765957,12.45 C1.93398727,12.45 1.55,12.0660127 1.55,11.5923404 L1.55,3.60765957 C1.55,3.13398727 1.93398727,2.75 2.40765957,2.75 Z" id="Rectangle"></path>
                <path d="M9.32,0.45 C9.59338095,0.45 9.82017619,0.649457144 9.86280143,0.910787143 L9.87,1 L9.87,3.4 C9.87,3.70375661 9.62375661,3.95 9.32,3.95 C9.04661905,3.95 8.81982381,3.75054286 8.77719857,3.48921286 L8.77,3.4 L8.77,1 C8.77,0.696243388 9.01624339,0.45 9.32,0.45 Z" id="Path"></path>
                <path d="M4.2,0.45 C4.47338095,0.45 4.70017619,0.649457144 4.74280143,0.910787143 L4.75,1 L4.75,3.4 C4.75,3.70375661 4.50375661,3.95 4.2,3.95 C3.92661905,3.95 3.69982381,3.75054286 3.65719857,3.48921286 L3.65,3.4 L3.65,1 C3.65,0.696243388 3.89624339,0.45 4.2,0.45 Z" id="Path"></path>
                <path d="M12.52,5.25 C12.8237566,5.25 13.07,5.49624339 13.07,5.8 C13.07,6.07338095 12.8705429,6.30017619 12.6092129,6.34280143 L12.52,6.35 L1,6.35 C0.696243388,6.35 0.45,6.10375661 0.45,5.8 C0.45,5.52661905 0.649457144,5.29982381 0.910787143,5.25719857 L1,5.25 L12.52,5.25 Z" id="Path"></path>
            </g>
        </g>
    </g>
</svg>