<?xml version="1.0" encoding="UTF-8"?>
<svg width="14px" height="14px" viewBox="0 0 14 14" version="1.1" xmlns="http://www.w3.org/2000/svg" xmlns:xlink="http://www.w3.org/1999/xlink">
    <title>calendar</title>
    <g id="Page-1" stroke="none" stroke-width="1" fill="none" fill-rule="evenodd">
        <g id="Artboard" transform="translate(-219.000000, -1013.000000)" fill="#ACB5C2" fill-rule="nonzero">
            <g id="calendar" transform="translate(220.000000, 1014.000000)">
                <path d="M9.63076923,0.6 L2,0.6 C0.56405965,0.6 -0.6,1.76405965 -0.6,3.2 L-0.6,10 C-0.6,11.4359403 0.56405965,12.6 2,12.6 L9.63076923,12.6 C11.0667096,12.6 12.2307692,11.4359403 12.2307692,10 L12.2307692,3.2 C12.2307692,1.76405965 11.0667096,0.6 9.63076923,0.6 Z M2,1.8 L9.63076923,1.8 C10.4039679,1.8 11.0307692,2.42680135 11.0307692,3.2 L11.0307692,10 C11.0307692,10.7731986 10.4039679,11.4 9.63076923,11.4 L2,11.4 C1.22680135,11.4 0.6,10.7731986 0.6,10 L0.6,3.2 C0.6,2.42680135 1.22680135,1.8 2,1.8 Z" id="Rectangle"></path>
                <path d="M8.4,-0.6 C8.69823376,-0.6 8.94564675,-0.382410388 8.99214701,-0.0973231165 L9,0 L9,2.4 C9,2.73137085 8.73137085,3 8.4,3 C8.10176624,3 7.85435325,2.78241039 7.80785299,2.49732312 L7.8,2.4 L7.8,0 C7.8,-0.33137085 8.06862915,-0.6 8.4,-0.6 Z" id="Path"></path>
                <path d="M3.23076923,-0.6 C3.529003,-0.6 3.77641598,-0.382410388 3.82291624,-0.0973231165 L3.83076923,0 L3.83076923,2.4 C3.83076923,2.73137085 3.56214008,3 3.23076923,3 C2.93253547,3 2.68512248,2.78241039 2.63862222,2.49732312 L2.63076923,2.4 L2.63076923,0 C2.63076923,-0.33137085 2.89939838,-0.6 3.23076923,-0.6 Z" id="Path"></path>
                <path d="M11.6307692,4.2 C11.9621401,4.2 12.2307692,4.46862915 12.2307692,4.8 C12.2307692,5.09823376 12.0131796,5.34564675 11.7280923,5.39214701 L11.6307692,5.4 L0,5.4 C-0.33137085,5.4 -0.6,5.13137085 -0.6,4.8 C-0.6,4.50176624 -0.382410388,4.25435325 -0.0973231165,4.20785299 L0,4.2 L11.6307692,4.2 Z" id="Path"></path>
            </g>
        </g>
    </g>
</svg>