<?xml version="1.0" encoding="UTF-8"?>
<svg width="210px" height="150px" viewBox="0 0 210 150" version="1.1" xmlns="http://www.w3.org/2000/svg" xmlns:xlink="http://www.w3.org/1999/xlink">
    <title>undraw_online_ad_mg4t</title>
    <g id="Products" stroke="none" stroke-width="1" fill="none" fill-rule="evenodd">
        <g id="Individual-Product-Page---Campaigns---Zero-State" transform="translate(-562.000000, -210.000000)" fill-rule="nonzero">
            <g id="undraw_online_ad_mg4t" transform="translate(562.000000, 210.000000)">
                <path d="M194.122257,28.1714718 L120.62802,28.1714718 L120.62802,26.6566921 L87.3028785,26.6566921 L87.3028785,28.1714718 L13.5056808,28.1714718 C12.1872012,28.1714703 10.9227227,28.6952334 9.99041662,29.6275389 C9.05811053,30.5598445 8.53434746,31.8243227 8.53434746,33.1428023 L8.53434746,133.779014 C8.53434746,136.524604 10.7600907,138.75035 13.5056808,138.75035 L194.122257,138.75035 C196.867851,138.75035 199.093588,136.524597 199.093588,133.779003 L199.093588,33.1428023 C199.093588,31.8243232 198.569825,30.5598454 197.637519,29.6275399 C196.705214,28.6952344 195.440736,28.171471 194.122257,28.1714718 Z" id="Path" fill="#222222"></path>
                <rect id="Rectangle" fill="#4B5461" x="15.1993785" y="36.9571921" width="177.229181" height="99.975435"></rect>
                <circle id="Oval" fill="#0295F6" cx="103.662492" cy="32.4128531" r="1.81773446"></circle>
                <path d="M204.069799,135.114887 L186.773384,135.114887 L186.773384,133.868689 C186.773386,133.803156 186.747353,133.740306 186.701014,133.693967 C186.654674,133.647628 186.591824,133.621599 186.526291,133.621599 L180.596093,133.621599 C180.53056,133.621599 180.46771,133.647628 180.42137,133.693967 C180.375031,133.740306 180.348999,133.803156 180.349,133.868689 L180.349,135.114887 L176.642624,135.114887 L176.642624,133.868689 C176.642626,133.803156 176.616594,133.740307 176.570255,133.693968 C176.523916,133.64763 176.461067,133.621599 176.395534,133.621599 L170.465333,133.621599 C170.3998,133.621599 170.336951,133.64763 170.290612,133.693968 C170.244274,133.740307 170.218241,133.803156 170.218243,133.868689 L170.218243,135.114887 L166.511864,135.114887 L166.511864,133.868689 C166.511866,133.803156 166.485833,133.740306 166.439494,133.693967 C166.393155,133.647628 166.330305,133.621599 166.264771,133.621599 L160.334576,133.621599 C160.269043,133.621599 160.206193,133.647628 160.159853,133.693967 C160.113514,133.740306 160.087482,133.803156 160.087483,133.868689 L160.087483,135.114887 L156.38111,135.114887 L156.38111,133.868689 C156.381112,133.803156 156.355079,133.740306 156.30874,133.693967 C156.2624,133.647628 156.19955,133.621599 156.134017,133.621599 L150.203816,133.621599 C150.138283,133.621599 150.075434,133.64763 150.029095,133.693968 C149.982757,133.740307 149.956724,133.803156 149.956726,133.868689 L149.956726,135.114887 L146.25035,135.114887 L146.25035,133.868689 C146.250352,133.803156 146.22432,133.740307 146.177981,133.693968 C146.131642,133.64763 146.068793,133.621599 146.00326,133.621599 L140.073059,133.621599 C140.007526,133.621599 139.944676,133.647628 139.898337,133.693967 C139.851997,133.740306 139.825965,133.803156 139.825966,133.868689 L139.825966,135.114887 L136.119593,135.114887 L136.119593,133.868689 C136.119595,133.803156 136.093562,133.740306 136.047223,133.693967 C136.000883,133.647628 135.938033,133.621599 135.8725,133.621599 L129.942299,133.621599 C129.876767,133.621599 129.813917,133.64763 129.767578,133.693968 C129.72124,133.740307 129.695208,133.803156 129.695209,133.868689 L129.695209,135.114887 L125.988833,135.114887 L125.988833,133.868689 C125.988835,133.803156 125.962803,133.740307 125.916464,133.693968 C125.870125,133.64763 125.807276,133.621599 125.741743,133.621599 L79.2885085,133.621599 C79.2229756,133.621599 79.1601263,133.64763 79.1137875,133.693968 C79.0674488,133.740307 79.0414166,133.803156 79.0414181,133.868689 L79.0414181,135.114887 L75.3350424,135.114887 L75.3350424,133.868689 C75.3350439,133.803156 75.3090117,133.740307 75.2626729,133.693968 C75.2163342,133.64763 75.1534849,133.621599 75.087952,133.621599 L69.1577514,133.621599 C69.0922183,133.621599 69.0293686,133.647629 68.9830296,133.693967 C68.9366907,133.740306 68.9106588,133.803156 68.910661,133.868689 L68.910661,135.114887 L65.2042853,135.114887 L65.2042853,133.868689 C65.2042868,133.803156 65.1782542,133.740306 65.1319149,133.693967 C65.0855755,133.647628 65.0227255,133.621599 64.9571921,133.621599 L59.0269944,133.621599 C58.961461,133.621599 58.8986109,133.647628 58.8522716,133.693967 C58.8059322,133.740306 58.7798996,133.803156 58.7799011,133.868689 L58.7799011,135.114887 L55.0735254,135.114887 L55.0735254,133.868689 C55.0735269,133.803156 55.0474947,133.740307 55.001156,133.693968 C54.9548172,133.64763 54.8919679,133.621599 54.826435,133.621599 L48.8962345,133.621599 C48.8307016,133.621599 48.7678523,133.64763 48.7215135,133.693968 C48.6751748,133.740307 48.6491426,133.803156 48.6491441,133.868689 L48.6491441,135.114887 L44.9427684,135.114887 L44.9427684,133.868689 C44.9427699,133.803156 44.9167377,133.740307 44.8703989,133.693968 C44.8240602,133.64763 44.7612109,133.621599 44.695678,133.621599 L38.7654774,133.621599 C38.699944,133.621599 38.637094,133.647628 38.5907546,133.693967 C38.5444153,133.740306 38.5183827,133.803156 38.5183842,133.868689 L38.5183842,135.114887 L34.8120113,135.114887 L34.8120113,133.868689 C34.8120128,133.803156 34.7859802,133.740306 34.7396409,133.693967 C34.6933015,133.647628 34.6304515,133.621599 34.5649181,133.621599 L28.6347175,133.621599 C28.5691846,133.621599 28.5063353,133.64763 28.4599966,133.693968 C28.4136578,133.740307 28.3876256,133.803156 28.3876271,133.868689 L28.3876271,135.114887 L24.6812514,135.114887 L24.6812514,133.868689 C24.6812529,133.803156 24.6552207,133.740307 24.608882,133.693968 C24.5625432,133.64763 24.4996939,133.621599 24.434161,133.621599 L18.5039548,133.621599 C18.4384214,133.621599 18.3755714,133.647628 18.329232,133.693967 C18.2828927,133.740306 18.2568601,133.803156 18.2568616,133.868689 L18.2568616,135.114887 L6.89064689,135.114887 C3.61549041,135.114892 0.960451977,137.769931 0.960451977,141.045088 L0.960451977,143.726582 C0.960451977,147.001735 3.61549937,149.656768 6.89065254,149.656768 L204.069799,149.656768 C207.344953,149.656768 210,147.001735 210,143.726582 L210,141.045088 C210,137.769929 207.344958,135.114889 204.069799,135.114887 L204.069799,135.114887 Z" id="Path" fill="#222222"></path>
                <rect id="Rectangle" fill="#0295F6" x="67.9686695" y="48.3050847" width="71.7514124" height="75.4237288"></rect>
                <path d="M105.918105,45.1739718 C105.918105,45.1739718 99.7999407,42.9889153 95.8668362,51.7291469 C91.9337316,60.4693785 85.8155678,70.0836356 85.8155678,70.0836356 L89.311661,70.9576469 C89.311661,70.9576469 90.1856723,64.8394831 92.3707429,63.9654605 L91.4967316,71.8316695 C91.4967316,71.8316695 117.717429,81.0089153 129.516746,70.9576582 L129.07974,67.8985763 C129.07974,67.8985763 130.827785,68.3355819 130.827785,70.9576582 L132.138819,69.6466215 C132.138819,69.6466215 130.827785,67.0245537 126.894681,63.5284605 C124.313164,61.2337768 123.426037,56.8681667 123.121186,54.1387203 C122.892797,51.8595969 121.980932,49.7027063 120.505184,47.9509266 C117.891415,44.9217458 113.128797,41.7021582 105.918105,45.1739718 Z" id="Path" fill="#222222"></path>
                <path d="M72.1105537,53.4200169 L69.5681808,26.8663446 C69.5681808,26.8663446 64.483435,12.459565 72.1105537,13.5895085 C79.7376723,14.719452 75.2178983,25.7364011 75.2178983,25.7364011 L79.4551864,53.4200169 L72.1105537,53.4200169 Z" id="Path" fill="#FFB9B9"></path>
                <circle id="Oval" fill="#FFB9B9" cx="109.116203" cy="63.0245367" r="10.1694915"></circle>
                <path d="M101.771571,67.5443107 C101.771571,67.5443107 101.206599,79.1262316 98.3817401,79.9736893 C95.5568814,80.8211469 87.6472768,90.1431808 91.3195932,92.9680395 C94.9919096,95.7928983 116.17835,93.8154972 116.17835,93.8154972 L114.200949,79.1262316 C114.200949,79.1262316 109.681175,76.018887 113.353492,70.6516554 L101.771571,67.5443107 Z" id="Path" fill="#FFB9B9"></path>
                <path d="M122.977138,124.293785 L83.033661,124.293785 C83.1777288,121.737288 83.5393107,118.127119 84.0025706,114.158192 C84.1438136,112.954802 84.2935311,111.714689 84.4489181,110.463277 C85.818935,99.4322034 87.6466102,87.319209 87.6466102,87.319209 L88.126822,86.2090395 L93.0138418,74.8898305 L93.0647373,74.9096045 L99.5110169,77.4322034 L99.7398475,78.5169492 L101.488418,86.7542373 L112.801977,77.6214689 L123.239831,75.9887006 L123.946045,75.8785311 L125.217232,87.8841808 C125.217232,87.8841808 125.160734,90.5677966 125.101438,94.3898305 C125.033641,98.7824859 124.960195,104.680791 124.965845,109.734463 C124.968669,112.149718 124.988463,114.372881 125.036466,116.146893 C125.075983,117.641243 125.135362,118.819209 125.217226,119.522599 C125.406542,121.124285 124.400879,122.78813 122.977138,124.293785 Z" id="Path" fill="#222222"></path>
                <polygon id="Path" fill="#222222" points="93.2968927 76.3014124 93.0144068 74.6064972 85.1048023 65.0019774 80.5850282 48.9002825 69.5680791 53.1375706 77.4776836 72.629096 88.7771186 87.0358757"></polygon>
                <path d="M95.7561638,64.2407458 C95.7561638,64.2407458 99.2522571,59.4336186 102.311339,58.5595932 C105.370421,57.6855678 105.807432,53.3154548 105.807432,53.3154548 C105.807432,53.3154548 113.673641,62.0556864 118.480771,62.4926977 C123.287901,62.929709 118.917777,52.0044181 118.917777,52.0044181 L110.177542,49.8193616 L101.874322,50.6933729 L95.3191525,55.0634887 L95.7561638,64.2407458 Z" id="Path" fill="#222222"></path>
                <path d="M123.900873,114.689266 L96.8747797,115.761246 C96.8747797,115.761246 81.9822203,119.170285 83.9743785,111.721732 C85.9665367,104.273178 96.3963418,110.01954 96.3963418,110.01954 L124.382545,108.96615 L123.900873,114.689266 Z" id="Path" fill="#FFB9B9"></path>
                <path d="M120.839367,77.8550452 L123.38174,75.8776441 C123.38174,75.8776441 127.619028,73.6177571 128.466486,81.5273616 C129.313944,89.4369661 135.528633,115.708153 129.313944,115.990638 C123.099254,116.273124 107.280045,116.55561 107.280045,116.55561 L108.97496,107.798548 L121.969311,106.95109 L120.839367,77.8550452 Z" id="Path" fill="#222222"></path>
                <polygon id="Path" fill="#000000" opacity="0.15" points="121.686723 90.0019774 120.839266 106.103672 108.409887 108.646045 119.709322 104.126271"></polygon>
                <rect id="Rectangle" fill="#0295F6" x="41.0453107" y="0" width="68.9265537" height="18.079096"></rect>
                <rect id="Rectangle" fill="#FFFFFF" x="49.8023729" y="7.26641808" width="51.4124294" height="3.54625989"></rect>
            </g>
        </g>
    </g>
</svg>