<?xml version="1.0" encoding="UTF-8"?>
<svg width="16px" height="12px" viewBox="0 0 16 12" version="1.1" xmlns="http://www.w3.org/2000/svg" xmlns:xlink="http://www.w3.org/1999/xlink">
    <title>credit-card copy</title>
    <g id="Page-1" stroke="none" stroke-width="1" fill="none" fill-rule="evenodd">
        <g id="Artboard" transform="translate(-85.000000, -35.000000)" fill="#222222" fill-rule="nonzero">
            <g id="credit-card-copy" transform="translate(86.000000, 36.000000)">
                <path d="M12.6363636,-0.4 L1,-0.4 C0.22680135,-0.4 -0.4,0.22680135 -0.4,1 L-0.4,9 C-0.4,9.77319865 0.22680135,10.4 1,10.4 L12.6363636,10.4 C13.4095623,10.4 14.0363636,9.77319865 14.0363636,9 L14.0363636,1 C14.0363636,0.22680135 13.4095623,-0.4 12.6363636,-0.4 Z M1,0.4 L12.6363636,0.4 C12.9677345,0.4 13.2363636,0.66862915 13.2363636,1 L13.2363636,9 C13.2363636,9.33137085 12.9677345,9.6 12.6363636,9.6 L1,9.6 C0.66862915,9.6 0.4,9.33137085 0.4,9 L0.4,1 C0.4,0.66862915 0.66862915,0.4 1,0.4 Z" id="Rectangle"></path>
                <path d="M13.6363636,3.35 C13.8572775,3.35 14.0363636,3.5290861 14.0363636,3.75 C14.0363636,3.94329966 13.8992508,4.10457492 13.7169776,4.14187342 L13.6363636,4.15 L0,4.15 C-0.2209139,4.15 -0.4,3.9709139 -0.4,3.75 C-0.4,3.55670034 -0.262887205,3.39542508 -0.0806139517,3.35812658 L0,3.35 L13.6363636,3.35 Z" id="Path"></path>
            </g>
        </g>
    </g>
</svg>