<?xml version="1.0" encoding="UTF-8"?>
<svg width="18px" height="18px" viewBox="0 0 18 18" version="1.1" xmlns="http://www.w3.org/2000/svg" xmlns:xlink="http://www.w3.org/1999/xlink">
    <title>Group</title>
    <g id="Page-1" stroke="none" stroke-width="1" fill="none" fill-rule="evenodd">
        <g id="Artboard" transform="translate(-98.000000, -69.000000)">
            <g id="Group" transform="translate(99.000000, 70.000000)">
                <circle id="check-circle-unchecked" stroke="#D61414" fill="#D61414" cx="8" cy="8" r="8"></circle>
                <g id="Group-4" transform="translate(4.600000, 4.700000)" fill="#FFFFFF" fill-rule="nonzero">
                    <path d="M6.12792809,-0.353553391 C6.32319024,-0.548815536 6.63977273,-0.548815536 6.83503487,-0.353553391 C7.00860122,-0.179987039 7.02788637,0.0894373624 6.89289032,0.284305503 L6.83503487,0.353553391 L0.353553391,6.83503487 C0.158291245,7.03029702 -0.158291245,7.03029702 -0.353553391,6.83503487 C-0.527119742,6.66146852 -0.546404893,6.39204412 -0.411408841,6.19717598 L-0.353553391,6.12792809 L6.12792809,-0.353553391 Z" id="Path"></path>
                    <path d="M-0.353553391,-0.353553391 C-0.179987039,-0.527119742 0.0894373624,-0.546404893 0.284305503,-0.411408841 L0.353553391,-0.353553391 L6.83503487,6.12792809 C7.03029702,6.32319024 7.03029702,6.63977273 6.83503487,6.83503487 C6.66146852,7.00860122 6.39204412,7.02788637 6.19717598,6.89289032 L6.12792809,6.83503487 L-0.353553391,0.353553391 C-0.548815536,0.158291245 -0.548815536,-0.158291245 -0.353553391,-0.353553391 Z" id="Path"></path>
                </g>
            </g>
        </g>
    </g>
</svg>