<?xml version="1.0" encoding="UTF-8"?>
<svg width="15px" height="15px" viewBox="0 0 15 15" version="1.1" xmlns="http://www.w3.org/2000/svg" xmlns:xlink="http://www.w3.org/1999/xlink">
    <title>copy copy</title>
    <g id="Page-1" stroke="none" stroke-width="1" fill="none" fill-rule="evenodd">
        <g id="Artboard-Copy" transform="translate(-663.000000, -295.000000)" fill="#0295F6" fill-rule="nonzero">
            <g id="copy-copy" transform="translate(664.000000, 296.000000)">
                <path d="M11.7,3.99285714 L5.85,3.99285714 C4.82432832,3.99285714 3.99285714,4.82432832 3.99285714,5.85 L3.99285714,11.7 C3.99285714,12.7256717 4.82432832,13.5571429 5.85,13.5571429 L11.7,13.5571429 C12.7256717,13.5571429 13.5571429,12.7256717 13.5571429,11.7 L13.5571429,5.85 C13.5571429,4.82432832 12.7256717,3.99285714 11.7,3.99285714 Z M5.85,5.10714286 L11.7,5.10714286 C12.1102687,5.10714286 12.4428571,5.43973133 12.4428571,5.85 L12.4428571,11.7 C12.4428571,12.1102687 12.1102687,12.4428571 11.7,12.4428571 L5.85,12.4428571 C5.43973133,12.4428571 5.10714286,12.1102687 5.10714286,11.7 L5.10714286,5.85 C5.10714286,5.43973133 5.43973133,5.10714286 5.85,5.10714286 Z" id="Rectangle"></path>
                <path d="M7.15,-0.557142857 C8.12683017,-0.557142857 8.92751476,0.197026013 9.0015554,1.15486538 L9.00714286,1.3 L9.00714286,1.95 C9.00714286,2.2577015 8.7577015,2.50714286 8.45,2.50714286 C8.17306865,2.50714286 7.94332802,2.30509536 7.9001492,2.04037147 L7.89285714,1.95 L7.89285714,1.3 C7.89285714,0.923920385 7.61339044,0.613113715 7.25080131,0.563924267 L7.15,0.557142857 L1.3,0.557142857 C0.923920385,0.557142857 0.613113715,0.836609559 0.563924267,1.19919869 L0.557142857,1.3 L0.557142857,7.15 C0.557142857,7.52607962 0.836609559,7.83688629 1.19919869,7.88607573 L1.3,7.89285714 L1.95,7.89285714 C2.2577015,7.89285714 2.50714286,8.1422985 2.50714286,8.45 C2.50714286,8.72693135 2.30509536,8.95667198 2.04037147,8.9998508 L1.95,9.00714286 L1.3,9.00714286 C0.32316983,9.00714286 -0.477514762,8.25297399 -0.551555403,7.29513462 L-0.557142857,7.15 L-0.557142857,1.3 C-0.557142857,0.32316983 0.197026013,-0.477514762 1.15486538,-0.551555403 L1.3,-0.557142857 L7.15,-0.557142857 Z" id="Path"></path>
            </g>
        </g>
    </g>
</svg>