<?xml version="1.0" encoding="UTF-8"?>
<svg width="13px" height="13px" viewBox="0 0 13 13" version="1.1" xmlns="http://www.w3.org/2000/svg" xmlns:xlink="http://www.w3.org/1999/xlink">
    <title>globe</title>
    <g id="Page-1" stroke="none" stroke-width="1" fill="none" fill-rule="evenodd">
        <g id="Artboard" transform="translate(-298.000000, -516.000000)" fill="#222222" fill-rule="nonzero">
            <g id="globe" transform="translate(299.000000, 517.000000)">
                <path d="M5.5,-0.504166667 C2.18399031,-0.504166667 -0.504166667,2.18399031 -0.504166667,5.5 C-0.504166667,8.81600969 2.18399031,11.5041667 5.5,11.5041667 C8.81600969,11.5041667 11.5041667,8.81600969 11.5041667,5.5 C11.5041667,2.18399031 8.81600969,-0.504166667 5.5,-0.504166667 Z M5.5,0.504166667 C8.25912256,0.504166667 10.4958333,2.74087744 10.4958333,5.5 C10.4958333,8.25912256 8.25912256,10.4958333 5.5,10.4958333 C2.74087744,10.4958333 0.504166667,8.25912256 0.504166667,5.5 C0.504166667,2.74087744 2.74087744,0.504166667 5.5,0.504166667 Z" id="Oval"></path>
                <path d="M11,4.99583333 C11.2784436,4.99583333 11.5041667,5.22155644 11.5041667,5.5 C11.5041667,5.74750539 11.3258175,5.95335511 11.0906246,5.99604387 L11,6.00416667 L0,6.00416667 C-0.278443561,6.00416667 -0.504166667,5.77844356 -0.504166667,5.5 C-0.504166667,5.25249461 -0.325817546,5.04664489 -0.090624596,5.00395613 L0,4.99583333 L11,4.99583333 Z" id="Path"></path>
                <path d="M5.12775098,-0.340021612 C3.66962441,1.25630688 2.84097414,3.32793254 2.7959427,5.48949909 C2.84097414,7.67206746 3.66962441,9.74369312 5.12775098,11.3400216 C5.32766328,11.5588817 5.67233672,11.5588817 5.87224902,11.3400216 C7.33037559,9.74369312 8.15902586,7.67206746 8.2040573,5.51050091 C8.15902586,3.32793254 7.33037559,1.25630688 5.87224902,-0.340021612 C5.67233672,-0.558881685 5.32766328,-0.558881685 5.12775098,-0.340021612 Z M5.46202085,0.827090656 L5.5,0.78 L5.53797915,0.827119465 C6.57577874,2.16518247 7.16044001,3.80632649 7.1959427,5.51050091 L7.18287394,5.82592693 C7.09207306,7.29479491 6.58541736,8.71591744 5.72723292,9.91859783 L5.5,10.219 L5.46202085,10.1728805 C4.42422126,8.83481753 3.83955999,7.19367351 3.8040573,5.48949909 C3.83955999,3.80399296 4.42422126,2.16492318 5.46202085,0.827090656 Z" id="Path"></path>
            </g>
        </g>
    </g>
</svg>