<?xml version="1.0" encoding="UTF-8"?>
<svg width="32px" height="24px" viewBox="0 0 32 24" version="1.1" xmlns="http://www.w3.org/2000/svg" xmlns:xlink="http://www.w3.org/1999/xlink">
    <title>noun_cvv_2628960</title>
    <g id="Page-1" stroke="none" stroke-width="1" fill="none" fill-rule="evenodd">
        <g id="Artboard" transform="translate(-61.000000, -170.000000)" fill="#FFFFFF" fill-rule="nonzero">
            <g id="noun_cvv_2628960" transform="translate(61.000000, 170.000000)">
                <path d="M2.48275862,20.0255862 L14.5055172,20.0255862 C15.7623377,22.4472788 18.2635263,23.9671702 20.991931,23.9671702 C23.7203358,23.9671702 26.2215244,22.4472788 27.4783448,20.0255862 L28.6896552,20.0255862 C30.0602147,20.0240659 31.1708935,18.9133871 31.1724138,17.5428276 L31.1724138,2.51558621 C31.1708935,1.14502671 30.0602147,0.0343478976 28.6896552,0.0328275862 L2.48275862,0.0328275862 C1.11219912,0.0343478976 0.00152031144,1.14502671 0,2.51558621 L0,17.5431724 C0.00171028823,18.9135972 1.11233357,20.0240663 2.48275862,20.0255862 L2.48275862,20.0255862 Z M5.65517241,16.3051034 L5.65517241,13.6844138 L14.3137931,13.6844138 C13.9441786,14.5113976 13.7326724,15.4002754 13.6902069,16.3051034 L5.65517241,16.3051034 Z M26.6790345,19.766 L15.3048276,19.766 C14.1348845,17.6301492 14.2631578,15.018311 15.6367586,13.0073793 L26.3471034,13.0073793 C27.7207732,15.0182819 27.8490745,17.6301475 26.6791034,19.766 L26.6790345,19.766 Z M16.3077241,12.1797931 C17.5292215,10.8988952 19.221972,10.1740842 20.991931,10.1740842 C22.7618901,10.1740842 24.4546406,10.8988952 25.6761379,12.1797931 L16.3077241,12.1797931 Z M20.991931,23.1395862 C18.9732734,23.1394911 17.0701212,22.1980519 15.8451034,20.5935862 L26.1387586,20.5935862 C24.9137409,22.1980519 23.0105886,23.1394911 20.991931,23.1395862 L20.991931,23.1395862 Z M28.6896552,19.198 L27.8464138,19.198 C29.1137287,15.7840891 27.6744382,11.9580725 24.4712436,10.2259007 C21.268049,8.49372897 17.2783815,9.3839616 15.1153793,12.3135172 C15.0933553,12.3371997 15.0742108,12.3634049 15.0583448,12.3915862 C14.9495632,12.5425747 14.8464138,12.6976552 14.7488966,12.8568276 L5.24137931,12.8568276 C5.01284769,12.8568276 4.82758621,13.0420891 4.82758621,13.2706207 L4.82758621,16.7188966 C4.82758621,16.9474282 5.01284769,17.1326897 5.24137931,17.1326897 L13.6974483,17.1326897 C13.7426538,17.8388877 13.8908648,18.5346827 14.1373793,19.198 L2.48275862,19.198 C1.56905753,19.1969738 0.82861239,18.4565287 0.827586207,17.5428276 L0.827586207,7.71724138 L30.3448276,7.71724138 L30.3448276,17.5428276 C30.3438014,18.4565287 29.6033563,19.1969738 28.6896552,19.198 Z M0.827586207,6.88965517 L0.827586207,4.52289655 L30.3448276,4.52289655 L30.3448276,6.88965517 L0.827586207,6.88965517 Z M2.48275862,0.860413793 L28.6896552,0.860413793 C29.6033563,0.861439976 30.3438014,1.60188512 30.3448276,2.51558621 L30.3448276,3.69531034 L0.827586207,3.69531034 L0.827586207,2.51558621 C0.82861239,1.60188512 1.56905753,0.861439976 2.48275862,0.860413793 L2.48275862,0.860413793 Z" id="Shape"></path>
                <path d="M17.3671034,15.1117241 C17.8754483,15.1117241 17.9607586,15.4228276 17.9781379,15.6928276 C17.9824828,15.8238621 18.062,15.9806207 18.416,15.9806207 C18.6864138,15.9806207 18.854,15.9084138 18.854,15.5488966 C18.854,14.8229655 18.2464828,14.3351034 17.3422759,14.3351034 C16.4092414,14.3351034 15.874069,14.8657241 15.874069,15.7908966 L15.874069,17.5225517 C15.874069,18.4477931 16.4068966,18.9784138 17.3361379,18.9784138 C18.244069,18.9784138 18.854069,18.4706897 18.854069,17.7149655 C18.854069,17.3555172 18.6841379,17.2832414 18.4098621,17.2832414 C18.0684828,17.2832414 17.9867586,17.4391724 17.9782759,17.5697931 C17.9624828,17.7904828 17.9331724,18.2018621 17.3795862,18.2018621 C16.9617931,18.2018621 16.75,17.9733103 16.75,17.5225517 L16.75,15.7909655 C16.749931,15.3402759 16.9575862,15.1117241 17.3671034,15.1117241 Z" id="Path"></path>
                <path d="M21.9973793,14.3351724 C21.7848276,14.3351724 21.7133793,14.4368966 21.6911034,14.5213793 L20.7807586,17.7673793 L19.8646207,14.521931 C19.8422069,14.4365517 19.7707586,14.3348276 19.5582069,14.3348276 C19.3313103,14.3348276 19.0147586,14.4754483 19.0147586,14.7044828 C19.0166332,14.7278701 19.0210029,14.75099 19.0277931,14.7734483 L19.0617241,14.7665517 L19.0282069,14.7748966 L20.2268276,18.6814483 C20.2877931,18.8644138 20.5001379,18.978 20.7808966,18.978 C21.0057931,18.978 21.2694483,18.8997931 21.3352414,18.6804828 L22.5273793,14.7747586 L22.5311034,14.7603448 C22.5367587,14.7421786 22.5400275,14.7233541 22.5408276,14.7043448 C22.5407586,14.4791724 22.2189655,14.3351724 21.9973793,14.3351724 Z" id="Path"></path>
                <path d="M25.5663448,14.3351724 C25.3537931,14.3351724 25.2823448,14.4368966 25.260069,14.5213793 L24.3497241,17.7673793 L23.4335862,14.521931 C23.4111724,14.4365517 23.3397241,14.3348276 23.1271724,14.3348276 C22.9002759,14.3348276 22.5837241,14.4754483 22.5837241,14.7044828 C22.5855987,14.7278701 22.5899684,14.75099 22.5967586,14.7734483 L22.6306897,14.7665517 L22.5971724,14.7748966 L23.7957931,18.6814483 C23.8567586,18.8644138 24.0691034,18.978 24.3498621,18.978 C24.5747586,18.978 24.8384138,18.8997931 24.9042069,18.6804828 L26.0965517,14.7752414 L26.1002759,14.7608276 C26.1059311,14.7426614 26.1091999,14.7238369 26.11,14.7048276 C26.1097241,14.4791724 25.787931,14.3351724 25.5663448,14.3351724 Z" id="Path"></path>
            </g>
        </g>
    </g>
</svg>