<?xml version="1.0" encoding="UTF-8"?>
<svg width="23px" height="23px" viewBox="0 0 23 23" version="1.1" xmlns="http://www.w3.org/2000/svg" xmlns:xlink="http://www.w3.org/1999/xlink">
    <title>dashboard-0295F6</title>
    <g id="Page-1" stroke="none" stroke-width="1" fill="none" fill-rule="evenodd">
        <g id="Artboard" transform="translate(-122.000000, -287.000000)" fill="#0295F6" fill-rule="nonzero">
            <g id="dashboard-0295F6" transform="translate(122.000000, 287.000000)">
                <path d="M11.5,0.25 C5.28679656,0.25 0.25,5.28679656 0.25,11.5 C0.25,17.7132034 5.28679656,22.75 11.5,22.75 C17.7132034,22.75 22.75,17.7132034 22.75,11.5 C22.75,5.28679656 17.7132034,0.25 11.5,0.25 Z M11.5,1.75 C16.8847763,1.75 21.25,6.11522369 21.25,11.5 C21.25,16.8847763 16.8847763,21.25 11.5,21.25 C6.11522369,21.25 1.75,16.8847763 1.75,11.5 C1.75,6.11522369 6.11522369,1.75 11.5,1.75 Z" id="Oval"></path>
                <path d="M15.7148292,6.33648753 L9.03682918,8.56248753 C8.81287543,8.63713878 8.63713878,8.81287543 8.56248753,9.03682918 L6.33648753,15.7148292 C6.14104802,16.3011477 6.6988523,16.858952 7.28517082,16.6635125 L13.9631708,14.4375125 C14.1871246,14.3628612 14.3628612,14.1871246 14.4375125,13.9631708 L16.6635125,7.28517082 C16.858952,6.6988523 16.3011477,6.14104802 15.7148292,6.33648753 Z M14.766,8.234 L13.133,13.133 L8.234,14.766 L9.867,9.867 L14.766,8.234 Z" id="Path"></path>
            </g>
        </g>
    </g>
</svg>