<?xml version="1.0" encoding="UTF-8"?>
<svg width="23px" height="23px" viewBox="0 0 23 23" version="1.1" xmlns="http://www.w3.org/2000/svg" xmlns:xlink="http://www.w3.org/1999/xlink">
    <!-- Generator: Sketch 64 (93537) - https://sketch.com -->
    <title>compass</title>
    <desc>Created with Sketch.</desc>
    <g id="Page-1" stroke="none" stroke-width="1" fill="none" fill-rule="evenodd">
        <g id="Artboard" transform="translate(-33.000000, -29.000000)" fill="#2193B0" fill-rule="nonzero">
            <g id="compass" transform="translate(34.000000, 30.000000)">
                <path d="M10.5,-0.75 C4.28679656,-0.75 -0.75,4.28679656 -0.75,10.5 C-0.75,16.7132034 4.28679656,21.75 10.5,21.75 C16.7132034,21.75 21.75,16.7132034 21.75,10.5 C21.75,4.28679656 16.7132034,-0.75 10.5,-0.75 Z M10.5,0.75 C15.8847763,0.75 20.25,5.11522369 20.25,10.5 C20.25,15.8847763 15.8847763,20.25 10.5,20.25 C5.11522369,20.25 0.75,15.8847763 0.75,10.5 C0.75,5.11522369 5.11522369,0.75 10.5,0.75 Z" id="Oval"></path>
                <path d="M14.7148292,5.33648753 L8.03682918,7.56248753 C7.81287543,7.63713878 7.63713878,7.81287543 7.56248753,8.03682918 L5.33648753,14.7148292 C5.14104802,15.3011477 5.6988523,15.858952 6.28517082,15.6635125 L12.9631708,13.4375125 C13.1871246,13.3628612 13.3628612,13.1871246 13.4375125,12.9631708 L15.6635125,6.28517082 C15.858952,5.6988523 15.3011477,5.14104802 14.7148292,5.33648753 Z M13.766,7.234 L12.133,12.133 L7.234,13.766 L8.867,8.867 L13.766,7.234 Z" id="Path"></path>
            </g>
        </g>
    </g>
</svg>