<?xml version="1.0" encoding="UTF-8"?>
<svg width="24px" height="24px" viewBox="0 0 24 24" version="1.1" xmlns="http://www.w3.org/2000/svg" xmlns:xlink="http://www.w3.org/1999/xlink">
    <title>Group 25</title>
    <g id="Page-1" stroke="none" stroke-width="1" fill="none" fill-rule="evenodd">
        <g id="Artboard" transform="translate(-472.000000, -496.000000)">
            <g id="Group-25" transform="translate(472.000000, 496.000000)">
                <rect id="Rectangle" fill="#00CC55" opacity="0.13" x="0" y="0" width="24" height="24" rx="7"></rect>
                <g id="Day-Parting-Copy-9" transform="translate(5.000000, 5.000000)">
                    <path d="M8.76728837,13.5459442 C8.15102791,13.7159953 7.51347442,13.8222651 6.85469302,13.8222651 C3.11454419,13.8222651 0.0756325581,10.7825395 0.0756325581,7.04134884 C0.0756325581,3.30012558 3.11454419,0.2604 6.85469302,0.2604 C10.5948744,0.2604 13.633786,3.30012558 13.633786,7.04134884 C13.633786,7.19013953 13.633786,7.3601907 13.6125256,7.5089814" id="Path" stroke="#00CC55" stroke-linecap="round" stroke-linejoin="round"></path>
                    <path d="M5.95048837,2.6782 C5.95048837,4.26928372 5.95048837,5.83917209 5.95048837,7.43025581 C5.95048837,8.10912558 7.01090698,8.10912558 7.01090698,7.43025581 C7.01090698,5.83917209 7.01090698,4.26928372 7.01090698,2.6782 C7.01090698,1.99933023 5.95048837,1.99933023 5.95048837,2.6782 Z" id="Path" fill="#00CC55" fill-rule="nonzero"></path>
                    <path d="M6.7140093,7.91807442 C7.71084186,7.30285581 8.72883721,6.68763721 9.72566977,6.0724186 C10.2983023,5.71177209 9.76809302,4.79952558 9.19542791,5.16017209 C8.19862791,5.7753907 7.1806,6.3906093 6.1838,7.00586047 C5.61116744,7.36650698 6.14137674,8.27872093 6.7140093,7.91807442 Z" id="Path" fill="#00CC55" fill-rule="nonzero"></path>
                    <path d="M14.8582,10.542586 C15.0752,10.6679349 15.0752,10.9811442 14.8582,11.106493 L10.2688372,13.7568884 C10.0517721,13.8822372 9.78043256,13.7256 9.78043256,13.4749349 L9.78043256,8.17414419 C9.78043256,7.92347907 10.0517721,7.76684186 10.2688372,7.8921907 L14.8582,10.542586 Z" id="Path" fill="#00CC55" fill-rule="nonzero"></path>
                </g>
            </g>
        </g>
    </g>
</svg>