<?xml version="1.0" encoding="UTF-8"?>
<svg width="16px" height="16px" viewBox="0 0 16 16" version="1.1" xmlns="http://www.w3.org/2000/svg" xmlns:xlink="http://www.w3.org/1999/xlink">
    <title>Day Parting Copy 7</title>
    <g id="Page-1" stroke="none" stroke-width="1" fill="none" fill-rule="evenodd">
        <g id="Artboard-Copy" transform="translate(-569.000000, -263.000000)" fill="#ACB5C2" fill-rule="nonzero">
            <g id="Day-Parting-Copy-7" transform="translate(569.000000, 263.000000)">
                <path d="M7.85472558,0.7604 C11.7907588,0.7604 15.0030078,3.89478049 15.1299234,7.80123363 L15.1338186,8.04134884 L15.1308834,8.29182593 C15.1273721,8.39714305 15.120219,8.49090877 15.1075307,8.57970724 C15.0684699,8.85307304 14.8151981,9.04301478 14.5418323,9.00395398 C14.2684665,8.96489317 14.0785248,8.71162136 14.1175856,8.43825555 L14.1283211,8.32630064 L14.1333633,8.16867066 L14.1338186,8.04134884 C14.1338186,4.57624373 11.3187404,1.7604 7.85472558,1.7604 C4.39071774,1.7604 1.57566512,4.57623679 1.57566512,8.04134884 C1.57566512,11.506433 4.39072241,14.3222651 7.85472558,14.3222651 C8.43052791,14.3222651 9.01711919,14.2342596 9.63432787,14.0639558 C9.90052273,13.9905057 10.1758593,14.1467563 10.2493094,14.4129511 C10.3227594,14.679146 10.1665088,14.9544826 9.90031399,15.0279326 C9.2005557,15.221014 8.52567751,15.3222651 7.85472558,15.3222651 C3.83837604,15.3222651 0.575665116,12.0586562 0.575665116,8.04134884 C0.575665116,4.02401438 3.83837063,0.7604 7.85472558,0.7604 Z" id="Path"></path>
                <path d="M6.95048837,3.6782 C6.95048837,5.26928372 6.95048837,6.83917209 6.95048837,8.43025581 C6.95048837,9.10912558 8.01093953,9.10912558 8.01093953,8.43025581 C8.01093953,6.83917209 8.01093953,5.26928372 8.01093953,3.6782 C8.01093953,2.99933023 6.95048837,2.99933023 6.95048837,3.6782 Z" id="Path"></path>
                <path d="M7.7140093,8.91807442 C8.7108093,8.30285581 9.72883721,7.68763721 10.7256372,7.0724186 C11.2982698,6.71177209 10.7680605,5.79952558 10.1954279,6.16017209 C9.19862791,6.7753907 8.1806,7.3906093 7.1838,8.00586047 C6.61116744,8.36650698 7.14137674,9.27872093 7.7140093,8.91807442 Z" id="Path"></path>
                <path d="M10.852907,10.1061209 C10.852907,11.4426326 10.852907,12.7791442 10.852907,14.1156558 C10.852907,15.1339442 12.4435674,15.1339442 12.4435674,14.1156558 C12.4435674,12.7791442 12.4435674,11.4426326 12.4435674,10.1061209 C12.4435674,9.0878 10.852907,9.0878 10.852907,10.1061209 Z" id="Path"></path>
                <path d="M13.1858605,10.1061209 C13.1858605,11.4426326 13.1858605,12.7791442 13.1858605,14.1156558 C13.1858605,15.1339442 14.7765209,15.1339442 14.7765209,14.1156558 C14.7765209,12.7791442 14.7765209,11.4426326 14.7765209,10.1061209 C14.7765209,9.0878 13.1858605,9.0878 13.1858605,10.1061209 Z" id="Path"></path>
            </g>
        </g>
    </g>
</svg>