<?xml version="1.0" encoding="UTF-8"?>
<svg width="24px" height="24px" viewBox="0 0 24 24" version="1.1" xmlns="http://www.w3.org/2000/svg" xmlns:xlink="http://www.w3.org/1999/xlink">
    <title>Group 7 Copy</title>
    <g id="Page-1" stroke="none" stroke-width="1" fill="none" fill-rule="evenodd">
        <g id="Artboard" transform="translate(-472.000000, -526.000000)">
            <g id="Group-7-Copy" transform="translate(472.000000, 526.000000)">
                <g id="Buttons-/-Dependent-/-Subtle-/-Normal" fill="#F1F4F8">
                    <rect id="Rectangle" x="0" y="0" width="24" height="24" rx="7"></rect>
                </g>
                <g id="Day-Parting-Copy-6" transform="translate(5.000000, 5.000000)">
                    <path d="M8.76732093,13.5459442 C8.15102791,13.7159953 7.51350698,13.8222651 6.85472558,13.8222651 C3.11454419,13.8222651 0.0756651163,10.7825395 0.0756651163,7.04134884 C0.0756651163,3.30012558 3.11454419,0.2604 6.85472558,0.2604 C10.594907,0.2604 13.6338186,3.30012558 13.6338186,7.04134884 C13.6338186,7.19013953 13.6338186,7.3601907 13.6125581,7.5089814" id="Path" stroke="#ACB5C2" stroke-linecap="round" stroke-linejoin="round"></path>
                    <path d="M5.95048837,2.6782 C5.95048837,4.26928372 5.95048837,5.83917209 5.95048837,7.43025581 C5.95048837,8.10912558 7.01093953,8.10912558 7.01093953,7.43025581 C7.01093953,5.83917209 7.01093953,4.26928372 7.01093953,2.6782 C7.01093953,1.99933023 5.95048837,1.99933023 5.95048837,2.6782 Z" id="Path" fill="#ACB5C2" fill-rule="nonzero"></path>
                    <path d="M6.7140093,7.91807442 C7.7108093,7.30285581 8.72883721,6.68763721 9.72563721,6.0724186 C10.2982698,5.71177209 9.76806047,4.79952558 9.19542791,5.16017209 C8.19862791,5.7753907 7.1806,6.3906093 6.1838,7.00586047 C5.61116744,7.36650698 6.14137674,8.27872093 6.7140093,7.91807442 Z" id="Path" fill="#ACB5C2" fill-rule="nonzero"></path>
                    <path d="M9.85290698,9.10612093 C9.85290698,10.4426326 9.85290698,11.7791442 9.85290698,13.1156558 C9.85290698,14.1339442 11.4435674,14.1339442 11.4435674,13.1156558 C11.4435674,11.7791442 11.4435674,10.4426326 11.4435674,9.10612093 C11.4435674,8.0878 9.85290698,8.0878 9.85290698,9.10612093 Z" id="Path" fill="#ACB5C2" fill-rule="nonzero"></path>
                    <path d="M12.1858605,9.10612093 C12.1858605,10.4426326 12.1858605,11.7791442 12.1858605,13.1156558 C12.1858605,14.1339442 13.7765209,14.1339442 13.7765209,13.1156558 C13.7765209,11.7791442 13.7765209,10.4426326 13.7765209,9.10612093 C13.7765209,8.0878 12.1858605,8.0878 12.1858605,9.10612093 Z" id="Path" fill="#ACB5C2" fill-rule="nonzero"></path>
                </g>
            </g>
        </g>
    </g>
</svg>