<?xml version="1.0" encoding="UTF-8"?>
<svg width="16px" height="16px" viewBox="0 0 16 16" version="1.1" xmlns="http://www.w3.org/2000/svg" xmlns:xlink="http://www.w3.org/1999/xlink">
    <title>Day Parting Copy 8</title>
    <g id="Page-1" stroke="none" stroke-width="1" fill="none" fill-rule="evenodd">
        <g id="Artboard-Copy" transform="translate(-595.000000, -263.000000)" fill="#00CC55" fill-rule="nonzero">
            <g id="Day-Parting-Copy-8" transform="translate(596.000000, 264.000000)">
                <path d="M6.85472558,-0.2396 C10.7907588,-0.2396 14.0030078,2.89478049 14.1299234,6.80123363 L14.1338186,7.04134884 L14.1308834,7.29182593 C14.1273721,7.39714305 14.120219,7.49090877 14.1075307,7.57970724 C14.0684699,7.85307304 13.8151981,8.04301478 13.5418323,8.00395398 C13.2684665,7.96489317 13.0785248,7.71162136 13.1175856,7.43825555 L13.1283211,7.32630064 L13.1333633,7.16867066 L13.1338186,7.04134884 C13.1338186,3.57624373 10.3187404,0.7604 6.85472558,0.7604 C3.39071774,0.7604 0.575665116,3.57623679 0.575665116,7.04134884 C0.575665116,10.506433 3.39072241,13.3222651 6.85472558,13.3222651 C7.43052791,13.3222651 8.01711919,13.2342596 8.63432787,13.0639558 C8.90052273,12.9905057 9.17585932,13.1467563 9.24930936,13.4129511 C9.3227594,13.679146 9.16650885,13.9544826 8.90031399,14.0279326 C8.2005557,14.221014 7.52567751,14.3222651 6.85472558,14.3222651 C2.83837604,14.3222651 -0.424334884,11.0586562 -0.424334884,7.04134884 C-0.424334884,3.02401438 2.83837063,-0.2396 6.85472558,-0.2396 Z" id="Path"></path>
                <path d="M5.95048837,2.6782 C5.95048837,4.26928372 5.95048837,5.83917209 5.95048837,7.43025581 C5.95048837,8.10912558 7.01093953,8.10912558 7.01093953,7.43025581 C7.01093953,5.83917209 7.01093953,4.26928372 7.01093953,2.6782 C7.01093953,1.99933023 5.95048837,1.99933023 5.95048837,2.6782 Z" id="Path"></path>
                <path d="M6.7140093,7.91807442 C7.7108093,7.30285581 8.72883721,6.68763721 9.72563721,6.0724186 C10.2982698,5.71177209 9.76806047,4.79952558 9.19542791,5.16017209 C8.19862791,5.7753907 7.1806,6.3906093 6.1838,7.00586047 C5.61116744,7.36650698 6.14137674,8.27872093 6.7140093,7.91807442 Z" id="Path"></path>
                <path d="M9.85290698,9.10612093 C9.85290698,10.4426326 9.85290698,11.7791442 9.85290698,13.1156558 C9.85290698,14.1339442 11.4435674,14.1339442 11.4435674,13.1156558 C11.4435674,11.7791442 11.4435674,10.4426326 11.4435674,9.10612093 C11.4435674,8.0878 9.85290698,8.0878 9.85290698,9.10612093 Z" id="Path"></path>
                <path d="M12.1858605,9.10612093 C12.1858605,10.4426326 12.1858605,11.7791442 12.1858605,13.1156558 C12.1858605,14.1339442 13.7765209,14.1339442 13.7765209,13.1156558 C13.7765209,11.7791442 13.7765209,10.4426326 13.7765209,9.10612093 C13.7765209,8.0878 12.1858605,8.0878 12.1858605,9.10612093 Z" id="Path"></path>
            </g>
        </g>
    </g>
</svg>