<?xml version="1.0" encoding="UTF-8"?>
<svg width="10px" height="11px" viewBox="0 0 10 11" version="1.1" xmlns="http://www.w3.org/2000/svg" xmlns:xlink="http://www.w3.org/1999/xlink">
    <title>chevrons-up copy</title>
    <g id="Page-1" stroke="none" stroke-width="1" fill="none" fill-rule="evenodd">
        <g id="Artboard" transform="translate(-619.000000, -230.000000)" fill="#FFFFFF" fill-rule="nonzero">
            <g id="chevrons-up-copy" transform="translate(624.500000, 235.500000) scale(1, -1) translate(-624.500000, -235.500000) translate(620.000000, 231.000000)">
                <path d="M3.7424026,-0.424264069 C3.95068222,-0.632543691 4.2739915,-0.655685871 4.50783327,-0.493690609 L4.59093074,-0.424264069 L8.7575974,3.7424026 C8.99191198,3.97671717 8.99191198,4.35661616 8.7575974,4.59093074 C8.54931778,4.79921036 8.2260085,4.82235254 7.99216673,4.66035728 L7.90906926,4.59093074 L4.166,0.848 L0.424264069,4.59093074 C0.215984446,4.79921036 -0.107324835,4.82235254 -0.341166604,4.66035728 L-0.424264069,4.59093074 C-0.632543691,4.38265111 -0.655685871,4.05934183 -0.493690609,3.82550006 L-0.424264069,3.7424026 L3.7424026,-0.424264069 Z" id="Path"></path>
                <path d="M3.7424026,4.40906926 C3.95068222,4.20078964 4.2739915,4.17764746 4.50783327,4.33964272 L4.59093074,4.40906926 L8.7575974,8.57573593 C8.99191198,8.81005051 8.99191198,9.18994949 8.7575974,9.42426407 C8.54931778,9.63254369 8.2260085,9.65568587 7.99216673,9.49369061 L7.90906926,9.42426407 L4.166,5.681 L0.424264069,9.42426407 C0.215984446,9.63254369 -0.107324835,9.65568587 -0.341166604,9.49369061 L-0.424264069,9.42426407 C-0.632543691,9.21598445 -0.655685871,8.89267517 -0.493690609,8.6588334 L-0.424264069,8.57573593 L3.7424026,4.40906926 Z" id="Path"></path>
            </g>
        </g>
    </g>
</svg>