<?xml version="1.0" encoding="UTF-8"?>
<svg width="15px" height="16px" viewBox="0 0 15 16" version="1.1" xmlns="http://www.w3.org/2000/svg" xmlns:xlink="http://www.w3.org/1999/xlink">
    <!-- Generator: Sketch 64 (93537) - https://sketch.com -->
    <title>trash-2</title>
    <desc>Created with Sketch.</desc>
    <g id="Page-1" stroke="none" stroke-width="1" fill="none" fill-rule="evenodd">
        <g id="Artboard" transform="translate(-113.000000, -111.000000)" fill="#ACB5C2" fill-rule="nonzero">
            <g id="trash-2" transform="translate(114.000000, 112.000000)">
                <path d="M12.6,2.3 C12.8761424,2.3 13.1,2.52385763 13.1,2.8 C13.1,3.04545989 12.9231248,3.24960837 12.6898756,3.29194433 L12.6,3.3 L0,3.3 C-0.276142375,3.3 -0.5,3.07614237 -0.5,2.8 C-0.5,2.55454011 -0.323124839,2.35039163 -0.0898756324,2.30805567 L0,2.3 L12.6,2.3 Z" id="Path"></path>
                <path d="M11.2,2.3 C11.4454599,2.3 11.6496084,2.47687516 11.6919443,2.71012437 L11.7,2.8 L11.7,12.6 C11.7,13.5993724 10.9284272,14.4185343 9.94848388,14.4942836 L9.8,14.5 L2.8,14.5 C1.8006276,14.5 0.981465667,13.7284272 0.905716395,12.7484839 L0.9,12.6 L0.9,2.8 C0.9,2.52385763 1.12385763,2.3 1.4,2.3 C1.64545989,2.3 1.84960837,2.47687516 1.89194433,2.71012437 L1.9,2.8 L1.9,12.6 C1.9,13.0588212 2.24333667,13.4374518 2.68710591,13.4929877 L2.8,13.5 L9.8,13.5 C10.2588212,13.5 10.6374518,13.1566633 10.6929877,12.7128941 L10.7,12.6 L10.7,2.8 C10.7,2.52385763 10.9238576,2.3 11.2,2.3 Z M7.7,-0.5 C8.6993724,-0.5 9.51853433,0.271572767 9.5942836,1.25151612 L9.6,1.4 L9.6,2.8 C9.6,3.07614237 9.37614237,3.3 9.1,3.3 C8.85454011,3.3 8.65039163,3.12312484 8.60805567,2.88987563 L8.6,2.8 L8.6,1.4 C8.6,0.941178823 8.25666333,0.562548221 7.81289409,0.507012278 L7.7,0.5 L4.9,0.5 C4.44117882,0.5 4.06254822,0.843336665 4.00701228,1.28710591 L4,1.4 L4,2.8 C4,3.07614237 3.77614237,3.3 3.5,3.3 C3.25454011,3.3 3.05039163,3.12312484 3.00805567,2.88987563 L3,2.8 L3,1.4 C3,0.400627596 3.77157277,-0.418534333 4.75151612,-0.494283605 L4.9,-0.5 L7.7,-0.5 Z" id="Shape"></path>
                <path d="M4.9,5.8 C5.14545989,5.8 5.34960837,5.97687516 5.39194433,6.21012437 L5.4,6.3 L5.4,10.5 C5.4,10.7761424 5.17614237,11 4.9,11 C4.65454011,11 4.45039163,10.8231248 4.40805567,10.5898756 L4.4,10.5 L4.4,6.3 C4.4,6.02385763 4.62385763,5.8 4.9,5.8 Z" id="Path"></path>
                <path d="M7.7,5.8 C7.94545989,5.8 8.14960837,5.97687516 8.19194433,6.21012437 L8.2,6.3 L8.2,10.5 C8.2,10.7761424 7.97614237,11 7.7,11 C7.45454011,11 7.25039163,10.8231248 7.20805567,10.5898756 L7.2,10.5 L7.2,6.3 C7.2,6.02385763 7.42385763,5.8 7.7,5.8 Z" id="Path"></path>
            </g>
        </g>
    </g>
</svg>