<?xml version="1.0" encoding="UTF-8"?>
<svg width="12px" height="14px" viewBox="0 0 12 14" version="1.1" xmlns="http://www.w3.org/2000/svg" xmlns:xlink="http://www.w3.org/1999/xlink">
    <title>Group 2</title>
    <g id="Page-1" stroke="none" stroke-width="1" fill="none" fill-rule="evenodd">
        <g id="Artboard" transform="translate(-59.000000, -115.000000)" fill="#D61414" fill-rule="nonzero">
            <g id="Group-2" transform="translate(59.630769, 115.630769)">
                <path d="M10.5230769,2.25641026 C10.7269974,2.25641026 10.8923077,2.4217205 10.8923077,2.62564103 C10.8923077,2.80407148 10.765742,2.95294095 10.5974898,2.98737034 L10.5230769,2.99487179 L0.369230769,2.99487179 C0.165310246,2.99487179 -1.77635684e-15,2.82956155 -1.77635684e-15,2.62564103 C-1.77635684e-15,2.44721057 0.126565657,2.2983411 0.294817891,2.26391171 L0.369230769,2.25641026 L10.5230769,2.25641026 Z" id="Path"></path>
                <path d="M9.39487179,2.25641026 C9.57330225,2.25641026 9.72217172,2.38297591 9.75660111,2.55122815 L9.76410256,2.62564103 L9.76410256,10.5230769 C9.76410256,11.3014402 9.17023138,11.9410975 8.41087974,12.013658 L8.26666667,12.0205128 L2.62564103,12.0205128 C1.84727772,12.0205128 1.20762046,11.4266416 1.13505997,10.66729 L1.12820513,10.5230769 L1.12820513,2.62564103 C1.12820513,2.4217205 1.29351537,2.25641026 1.4974359,2.25641026 C1.67586636,2.25641026 1.82473582,2.38297591 1.85916521,2.55122815 L1.86666667,2.62564103 L1.86666667,10.5230769 C1.86666667,10.9073161 2.15219675,11.2248661 2.5226527,11.2751227 L2.62564103,11.2820513 L8.26666667,11.2820513 C8.6509058,11.2820513 8.96845581,10.9965212 9.01871248,10.6260652 L9.02564103,10.5230769 L9.02564103,2.62564103 C9.02564103,2.4217205 9.19095127,2.25641026 9.39487179,2.25641026 Z M6.57435897,-8.8817842e-15 C7.35272228,-8.8817842e-15 7.99237954,0.593871181 8.06494003,1.35322283 L8.07179487,1.4974359 L8.07179487,2.62564103 C8.07179487,2.82956155 7.90648463,2.99487179 7.7025641,2.99487179 C7.52413364,2.99487179 7.37526418,2.86830614 7.34083479,2.7000539 L7.33333333,2.62564103 L7.33333333,1.4974359 C7.33333333,1.11319676 7.04780325,0.795646754 6.6773473,0.74539008 L6.57435897,0.738461538 L4.31794872,0.738461538 C3.93370958,0.738461538 3.61615957,1.02399162 3.5659029,1.39444757 L3.55897436,1.4974359 L3.55897436,2.62564103 C3.55897436,2.82956155 3.39366411,2.99487179 3.18974359,2.99487179 C3.01131313,2.99487179 2.86244367,2.86830614 2.82801428,2.7000539 L2.82051282,2.62564103 L2.82051282,1.4974359 C2.82051282,0.719072594 3.414384,0.0794153367 4.17373565,0.00685484032 L4.31794872,-8.8817842e-15 L6.57435897,-8.8817842e-15 Z" id="Shape"></path>
                <path d="M4.31794872,5.07692308 C4.49637918,5.07692308 4.64524864,5.20348873 4.67967803,5.37174097 L4.68717949,5.44615385 L4.68717949,8.83076923 C4.68717949,9.03468975 4.52186924,9.2 4.31794872,9.2 C4.13951826,9.2 3.9906488,9.07343434 3.95621941,8.90518211 L3.94871795,8.83076923 L3.94871795,5.44615385 C3.94871795,5.24223332 4.11402819,5.07692308 4.31794872,5.07692308 Z" id="Path"></path>
                <path d="M6.57435897,5.07692308 C6.75278943,5.07692308 6.9016589,5.20348873 6.93608829,5.37174097 L6.94358974,5.44615385 L6.94358974,8.83076923 C6.94358974,9.03468975 6.7782795,9.2 6.57435897,9.2 C6.39592852,9.2 6.24705905,9.07343434 6.21262966,8.90518211 L6.20512821,8.83076923 L6.20512821,5.44615385 C6.20512821,5.24223332 6.37043845,5.07692308 6.57435897,5.07692308 Z" id="Path"></path>
            </g>
        </g>
    </g>
</svg>