<?xml version="1.0" encoding="UTF-8"?>
<svg width="14px" height="15px" viewBox="0 0 14 15" version="1.1" xmlns="http://www.w3.org/2000/svg" xmlns:xlink="http://www.w3.org/1999/xlink">
    <title>trash-2</title>
    <g id="Page-1" stroke="none" stroke-width="1" fill="none" fill-rule="evenodd">
        <g id="Artboard-Copy" transform="translate(-51.000000, -62.000000)" fill="#637082" fill-rule="nonzero">
            <g id="trash-2" transform="translate(52.000000, 63.000000)">
                <path d="M11.8730769,2.16730769 C12.133288,2.16730769 12.3442308,2.37825045 12.3442308,2.63846154 C12.3442308,2.86976028 12.1775599,3.06213096 11.9577674,3.10202447 L11.8730769,3.10961538 L-5.55111512e-17,3.10961538 C-0.260211084,3.10961538 -0.471153846,2.89867262 -0.471153846,2.63846154 C-0.471153846,2.4071628 -0.304483022,2.21479211 -0.0846904997,2.17489861 L-5.55111512e-17,2.16730769 L11.8730769,2.16730769 Z" id="Path"></path>
                <path d="M10.5538462,2.16730769 C10.7851449,2.16730769 10.9775156,2.33397852 11.0174091,2.55377104 L11.025,2.63846154 L11.025,11.8730769 C11.025,12.8124389 10.3015718,13.5828352 9.38145476,13.6575265 L9.23461538,13.6634615 L2.63846154,13.6634615 C1.69909953,13.6634615 0.928703222,12.9400333 0.854011996,12.0199163 L0.848076923,11.8730769 L0.848076923,2.63846154 C0.848076923,2.37825045 1.05901969,2.16730769 1.31923077,2.16730769 C1.55052951,2.16730769 1.7429002,2.33397852 1.7827937,2.55377104 L1.79038462,2.63846154 L1.79038462,11.8730769 C1.79038462,12.3054276 2.1139134,12.6622142 2.53208057,12.7145461 L2.63846154,12.7211538 L9.23461538,12.7211538 C9.66696611,12.7211538 10.0237526,12.3976251 10.0760846,11.9794579 L10.0826923,11.8730769 L10.0826923,2.63846154 C10.0826923,2.37825045 10.2936351,2.16730769 10.5538462,2.16730769 Z M7.25576923,-0.471153846 C8.19513124,-0.471153846 8.96552755,0.252274356 9.04021877,1.17239139 L9.04615385,1.31923077 L9.04615385,2.63846154 C9.04615385,2.89867262 8.83521108,3.10961538 8.575,3.10961538 C8.34370126,3.10961538 8.15133057,2.94294456 8.11143707,2.72315204 L8.10384615,2.63846154 L8.10384615,1.31923077 C8.10384615,0.886880045 7.78031737,0.530093516 7.3621502,0.477761569 L7.25576923,0.471153846 L4.61730769,0.471153846 C4.18495697,0.471153846 3.82817044,0.794682627 3.77583849,1.2128498 L3.76923077,1.31923077 L3.76923077,2.63846154 C3.76923077,2.89867262 3.55828801,3.10961538 3.29807692,3.10961538 C3.06677818,3.10961538 2.8744075,2.94294456 2.834514,2.72315204 L2.82692308,2.63846154 L2.82692308,1.31923077 C2.82692308,0.379868756 3.55035128,-0.390527547 4.47046832,-0.465218773 L4.61730769,-0.471153846 L7.25576923,-0.471153846 Z" id="Shape"></path>
                <path d="M4.61730769,5.46538462 C4.84860643,5.46538462 5.04097712,5.63205544 5.08087062,5.85184796 L5.08846154,5.93653846 L5.08846154,9.89423077 C5.08846154,10.1544419 4.87751878,10.3653846 4.61730769,10.3653846 C4.38600895,10.3653846 4.19363827,10.1987138 4.15374477,9.97892127 L4.14615385,9.89423077 L4.14615385,5.93653846 C4.14615385,5.67632738 4.35709661,5.46538462 4.61730769,5.46538462 Z" id="Path"></path>
                <path d="M7.25576923,5.46538462 C7.48706797,5.46538462 7.67943866,5.63205544 7.71933216,5.85184796 L7.72692308,5.93653846 L7.72692308,9.89423077 C7.72692308,10.1544419 7.51598031,10.3653846 7.25576923,10.3653846 C7.02447049,10.3653846 6.8320998,10.1987138 6.7922063,9.97892127 L6.78461538,9.89423077 L6.78461538,5.93653846 C6.78461538,5.67632738 6.99555815,5.46538462 7.25576923,5.46538462 Z" id="Path"></path>
            </g>
        </g>
    </g>
</svg>