<?xml version="1.0" encoding="UTF-8"?>
<svg width="37px" height="37px" viewBox="0 0 37 37" version="1.1" xmlns="http://www.w3.org/2000/svg" xmlns:xlink="http://www.w3.org/1999/xlink">
    <!-- Generator: Sketch 64 (93537) - https://sketch.com -->
    <title>Group 2</title>
    <desc>Created with Sketch.</desc>
    <defs>
        <linearGradient x1="10.0510638%" y1="94.279704%" x2="95.2406472%" y2="1.83441508%" id="linearGradient-1">
            <stop stop-color="#12D9DD" offset="0%"></stop>
            <stop stop-color="#055CD8" offset="100%"></stop>
        </linearGradient>
        <circle id="path-2" cx="16.5" cy="16.5" r="16.5"></circle>
        <filter x="-10.6%" y="-7.6%" width="121.2%" height="121.2%" filterUnits="objectBoundingBox" id="filter-3">
            <feOffset dx="0" dy="1" in="SourceAlpha" result="shadowOffsetOuter1"></feOffset>
            <feGaussianBlur stdDeviation="1" in="shadowOffsetOuter1" result="shadowBlurOuter1"></feGaussianBlur>
            <feColorMatrix values="0 0 0 0 0.133333333   0 0 0 0 0.133333333   0 0 0 0 0.133333333  0 0 0 1 0" type="matrix" in="shadowBlurOuter1"></feColorMatrix>
        </filter>
    </defs>
    <g id="Symbols" stroke="none" stroke-width="1" fill="none" fill-rule="evenodd">
        <g id="navbar-/-dashboard" transform="translate(-8.000000, -14.000000)">
            <g id="Group-2" transform="translate(10.000000, 15.000000)">
                <g id="Oval">
                    <use fill="black" fill-opacity="1" filter="url(#filter-3)" xlink:href="#path-2"></use>
                    <use fill="url(#linearGradient-1)" fill-rule="evenodd" xlink:href="#path-2"></use>
                </g>
                <g id="Group-2-Copy-5" transform="translate(4.000000, 4.000000)">
                    <circle id="Oval" stroke="#FFFFFF" stroke-width="3" transform="translate(12.500000, 12.500000) scale(1, -1) translate(-12.500000, -12.500000) " cx="12.5" cy="12.5" r="7.29166667"></circle>
                    <g id="noun_Ship-Wheel_1878214" fill="#FFFFFF" fill-rule="nonzero">
                        <g id="Group">
                            <path d="M24.4318182,11.9318182 L21.5621307,11.9318182 C21.4380457,9.91904249 20.6445295,8.00554575 19.3077841,6.49565341 L21.3390341,4.46440341 C21.4862157,4.32163205 21.545052,4.11063335 21.4929856,3.91230237 C21.4409191,3.71397139 21.2860286,3.55908085 21.0876976,3.50701444 C20.8893666,3.45494803 20.6783679,3.51378429 20.5355966,3.66096591 L18.5043466,5.69221591 C16.9944543,4.35547054 15.0809575,3.56195433 13.0681818,3.43786932 L13.0681818,0.568181818 C13.0681818,0.254383665 12.8137982,0 12.5,0 C12.1862018,0 11.9318182,0.254383665 11.9318182,0.568181818 L11.9318182,3.43786932 C9.91904249,3.56195433 8.00554575,4.35547054 6.49565341,5.69221591 L4.46440341,3.66096591 C4.24158418,3.44482341 3.88653594,3.44752344 3.66702969,3.66702969 C3.44752344,3.88653594 3.44482341,4.24158418 3.66096591,4.46440341 L5.69221591,6.49565341 C4.35547054,8.00554575 3.56195433,9.91904249 3.43786932,11.9318182 L0.568181818,11.9318182 C0.254383665,11.9318182 0,12.1862018 0,12.5 C0,12.8137982 0.254383665,13.0681818 0.568181818,13.0681818 L3.43786932,13.0681818 C3.56195433,15.0809575 4.35547054,16.9944543 5.69221591,18.5043466 L3.66096591,20.5355966 C3.51378429,20.6783679 3.45494803,20.8893666 3.50701444,21.0876976 C3.55908085,21.2860286 3.71397139,21.4409191 3.91230237,21.4929856 C4.11063335,21.545052 4.32163205,21.4862157 4.46440341,21.3390341 L6.49565341,19.3077841 C8.00554575,20.6445295 9.91904249,21.4380457 11.9318182,21.5621307 L11.9318182,24.4318182 C11.9318182,24.7456163 12.1862018,25 12.5,25 C12.8137982,25 13.0681818,24.7456163 13.0681818,24.4318182 L13.0681818,21.5621307 C15.0809575,21.4380457 16.9944543,20.6445295 18.5043466,19.3077841 L20.5355966,21.3390341 C20.6783679,21.4862157 20.8893666,21.545052 21.0876976,21.4929856 C21.2860286,21.4409191 21.4409191,21.2860286 21.4929856,21.0876976 C21.545052,20.8893666 21.4862157,20.6783679 21.3390341,20.5355966 L19.3077841,18.5043466 C20.6445295,16.9944543 21.4380457,15.0809575 21.5621307,13.0681818 L24.4318182,13.0681818 C24.7456163,13.0681818 25,12.8137982 25,12.5 C25,12.1862018 24.7456163,11.9318182 24.4318182,11.9318182 Z M12.5,20.4545455 C8.10682585,20.4545455 4.54545455,16.8931741 4.54545455,12.5 C4.54545455,8.10682585 8.10682585,4.54545455 12.5,4.54545455 C16.8931741,4.54545455 20.4545455,8.10682585 20.4545455,12.5 C20.4492233,16.8909677 16.8909677,20.4492233 12.5,20.4545455 Z" id="Shape"></path>
                            <path d="M17.3206818,7.67934659 C17.3168466,7.67551136 17.3115909,7.67440341 17.3076989,7.67082386 C14.6511038,5.01892985 10.3488962,5.01892985 7.69230114,7.67082386 C7.68840909,7.67448864 7.68315341,7.67559659 7.67934659,7.67934659 C7.67553977,7.68309659 7.67440341,7.68840909 7.67082386,7.69230114 C5.01892985,10.3488962 5.01892985,14.6511038 7.67082386,17.3076989 C7.67448864,17.3115909 7.67559659,17.3168466 7.67934659,17.3206818 C7.68309659,17.324517 7.68840909,17.3255966 7.69230114,17.3292045 C10.3488962,19.9810986 14.6511038,19.9810986 17.3076989,17.3292045 C17.3115909,17.3255398 17.3168466,17.3244318 17.3206818,17.3206818 C17.324517,17.3169318 17.3255966,17.3115909 17.3292045,17.3076989 C19.9810986,14.6511038 19.9810986,10.3488962 17.3292045,7.69230114 C17.3255966,7.68840909 17.3244886,7.68315341 17.3206818,7.67934659 Z M16.8790057,16.0755398 L14.4505682,13.6471023 C14.5576933,13.4663555 14.6389572,13.2714866 14.6919886,13.0681818 L18.1244034,13.0681818 C18.0150444,14.1715446 17.5817309,15.2179 16.8790057,16.0755398 Z M6.87559659,13.0681818 L10.3080114,13.0681818 C10.3610606,13.2714896 10.4423437,13.4663587 10.5494886,13.6471023 L8.12105114,16.0755398 C7.41830541,15.2179068 6.98497194,14.1715507 6.87559659,13.0681818 Z M8.12099432,8.92446023 L10.5494318,11.3528977 C10.4423067,11.5336445 10.3610428,11.7285134 10.3080114,11.9318182 L6.87559659,11.9318182 C6.98495561,10.8284554 7.41826906,9.78210001 8.12099432,8.92446023 L8.12099432,8.92446023 Z M12.5,13.6363636 C11.8724037,13.6363636 11.3636364,13.1275963 11.3636364,12.5 C11.3636364,11.8724037 11.8724037,11.3636364 12.5,11.3636364 C13.1275963,11.3636364 13.6363636,11.8724037 13.6363636,12.5 C13.6359406,13.127421 13.127421,13.6359406 12.5,13.6363636 Z M13.6471023,10.5494318 C13.4663555,10.4423067 13.2714866,10.3610428 13.0681818,10.3080114 L13.0681818,6.87559659 C14.1715446,6.98495561 15.2179,7.41826906 16.0755398,8.12099432 L13.6471023,10.5494318 Z M11.9318182,10.3080114 C11.7285104,10.3610606 11.5336413,10.4423437 11.3528977,10.5494886 L8.92446023,8.12105114 C9.78209324,7.41830541 10.8284493,6.98497194 11.9318182,6.87559659 L11.9318182,10.3080114 Z M11.3528977,14.4505682 C11.5336413,14.5577131 11.7285104,14.6389962 11.9318182,14.6920455 L11.9318182,18.1244034 C10.8284554,18.0150444 9.78210001,17.5817309 8.92446023,16.8790057 L11.3528977,14.4505682 Z M13.0681818,14.6920455 C13.2714896,14.6389962 13.4663587,14.5577131 13.6471023,14.4505682 L16.0755398,16.8790057 C15.2179,17.5817309 14.1715446,18.0150444 13.0681818,18.1244034 L13.0681818,14.6920455 Z M14.6919886,11.9318182 C14.6389394,11.7285104 14.5576563,11.5336413 14.4505114,11.3528977 L16.8789489,8.92446023 C17.5816946,9.78209324 18.0150281,10.8284493 18.1244034,11.9318182 L14.6919886,11.9318182 Z" id="Shape"></path>
                        </g>
                    </g>
                    <circle id="Oval" fill="#FFFFFF" cx="12.5" cy="12.5" r="1.5625"></circle>
                </g>
            </g>
        </g>
    </g>
</svg>