<?xml version="1.0" encoding="UTF-8"?>
<svg width="6px" height="10px" viewBox="0 0 6 10" version="1.1" xmlns="http://www.w3.org/2000/svg" xmlns:xlink="http://www.w3.org/1999/xlink">
    <title>Path Copy 4</title>
    <g id="Page-1" stroke="none" stroke-width="1" fill="none" fill-rule="evenodd" opacity="0.91">
        <g id="Artboard" transform="translate(-356.000000, -195.000000)" fill="#D61414" fill-rule="nonzero">
            <g id="Path-Copy-4" transform="translate(356.000000, 195.000000)">
                <path d="M5.96649278,3.35821206 C5.90570453,3.48590497 5.77215902,3.56792116 5.6250076,3.56793317 L4.49997405,3.56793317 L4.49997405,9.64266295 C4.49997405,9.84001476 4.33207583,10 4.12496287,10 L1.87489577,10 C1.66778282,10 1.49988459,9.84001476 1.49988459,9.64266295 L1.49988459,3.56793317 L0.374851042,3.56793317 C0.227762911,3.56787108 0.0942933166,3.48587911 0.0335166769,3.35824739 C-0.0272599628,3.23061567 -0.00412080351,3.08091231 0.0926926286,2.97539689 L2.71777091,0.116700518 C2.79081177,0.0422554064 2.89297686,0 2.99992932,0 C3.10688179,0 3.20904687,0.0422554064 3.28208774,0.116700518 L5.90716601,2.97539689 C6.00408664,3.08084319 6.02729101,3.23057292 5.96649278,3.35821206 Z" id="Path-Copy-2" transform="translate(3.000000, 5.000000) scale(1, -1) translate(-3.000000, -5.000000) "></path>
            </g>
        </g>
    </g>
</svg>