<?xml version="1.0" encoding="UTF-8"?>
<svg width="8px" height="13px" viewBox="0 0 8 13" version="1.1" xmlns="http://www.w3.org/2000/svg" xmlns:xlink="http://www.w3.org/1999/xlink">
    <title>Path</title>
    <g id="Page-1" stroke="none" stroke-width="1" fill="none" fill-rule="evenodd" opacity="0.91">
        <g id="Artboard" transform="translate(-442.000000, -563.000000)" fill="#FFFFFF" fill-rule="nonzero">
            <path d="M449.955324,567.365676 C449.874273,567.531676 449.696212,567.638298 449.50001,567.638313 L447.999965,567.638313 L447.999965,575.535462 C447.999965,575.792019 447.776101,576 447.49995,576 L444.499861,576 C444.22371,576 443.999846,575.792019 443.999846,575.535462 L443.999846,567.638313 L442.499801,567.638313 C442.303684,567.638232 442.125724,567.531643 442.044689,567.365722 C441.963653,567.1998 441.994506,567.005186 442.12359,566.868016 L445.623695,563.151711 C445.721082,563.054932 445.857302,563 445.999906,563 C446.142509,563 446.278729,563.054932 446.376117,563.151711 L449.876221,566.868016 C450.005449,567.005096 450.036388,567.199745 449.955324,567.365676 Z" id="Path" transform="translate(446.000000, 569.500000) scale(1, -1) translate(-446.000000, -569.500000) "></path>
        </g>
    </g>
</svg>