<?xml version="1.0" encoding="UTF-8"?>
<svg width="8px" height="13px" viewBox="0 0 8 13" version="1.1" xmlns="http://www.w3.org/2000/svg" xmlns:xlink="http://www.w3.org/1999/xlink">
    <title>Group 10</title>
    <g id="Page-1" stroke="none" stroke-width="1" fill="none" fill-rule="evenodd" opacity="0.91">
        <g id="Artboard" transform="translate(-647.000000, -193.000000)" fill="#FFFFFF" fill-rule="nonzero">
            <g id="Group-10" transform="translate(647.000000, 193.000000)">
                <path d="M7.95532371,4.36567568 C7.87427271,4.53167646 7.69621202,4.63829751 7.50001013,4.63831313 L5.9999654,4.63831313 L5.9999654,12.5354618 C5.9999654,12.7920192 5.7761011,13 5.49995049,13 L2.49986103,13 C2.22371042,13 1.99984612,12.7920192 1.99984612,12.5354618 L1.99984612,4.63831313 L0.49980139,4.63831313 C0.303683881,4.63823241 0.125724422,4.53164285 0.0446889025,4.36572161 C-0.0363466171,4.19980037 -0.00549440468,4.005186 0.123590171,3.86801595 L3.62369454,0.151710674 C3.72108236,0.0549320284 3.85730247,0 3.99990576,0 C4.14250905,0 4.27872916,0.0549320284 4.37611698,0.151710674 L7.87622135,3.86801595 C8.00544886,4.00509614 8.03638801,4.1997448 7.95532371,4.36567568 Z" id="Path-Copy" transform="translate(4.000000, 6.500000) scale(1, -1) translate(-4.000000, -6.500000) "></path>
            </g>
        </g>
    </g>
</svg>