<?xml version="1.0" encoding="UTF-8"?>
<svg width="12px" height="11px" viewBox="0 0 12 11" version="1.1" xmlns="http://www.w3.org/2000/svg" xmlns:xlink="http://www.w3.org/1999/xlink">
    <!-- Generator: Sketch 64 (93537) - https://sketch.com -->
    <title>edit</title>
    <desc>Created with Sketch.</desc>
    <g id="Page-1" stroke="none" stroke-width="1" fill="none" fill-rule="evenodd">
        <g id="Artboard" transform="translate(-147.000000, -91.000000)" fill="#ACB5C2" fill-rule="nonzero">
            <g id="edit" transform="translate(148.000000, 91.000000)">
                <path d="M4.5,1.1 C4.7209139,1.1 4.9,1.2790861 4.9,1.5 C4.9,1.69329966 4.7628872,1.85457492 4.58061395,1.89187342 L4.5,1.9 L1,1.9 C0.701766235,1.9 0.454353247,2.11758961 0.407852987,2.40267688 L0.4,2.5 L0.4,9.5 C0.4,9.79823376 0.617589612,10.0456468 0.902676883,10.092147 L1,10.1 L8,10.1 C8.29823376,10.1 8.54564675,9.88241039 8.59214701,9.59732312 L8.6,9.5 L8.6,6 C8.6,5.7790861 8.7790861,5.6 9,5.6 C9.19329966,5.6 9.35457492,5.7371128 9.39187342,5.91938605 L9.4,6 L9.4,9.5 C9.4,10.2277164 8.84477112,10.8257521 8.13482934,10.8935912 L8,10.9 L1,10.9 C0.272283624,10.9 -0.3257521,10.3447711 -0.393591194,9.63482934 L-0.4,9.5 L-0.4,2.5 C-0.4,1.77228362 0.155228878,1.1742479 0.865170657,1.10640881 L1,1.1 L4.5,1.1 Z" id="Path"></path>
                <path d="M3.21715729,5.21715729 L3.111943,5.40298575 L2.611943,7.40298575 C2.53870495,7.69593794 2.80406206,7.96129505 3.09701425,7.888057 L5.09701425,7.388057 L5.28284271,7.28284271 L10.0328427,2.53284271 C10.603266,1.96241942 10.603266,1.03758057 10.0328427,0.467157303 C9.46241943,-0.103265967 8.53758058,-0.103265977 7.96715729,0.467157282 L3.21715729,5.21715729 Z M9.53681831,1.11473237 C9.72258108,1.37290492 9.69936073,1.73495383 9.46715728,1.96715729 L4.797,6.637 L3.55,6.949 L3.862,5.702 L8.53284271,1.03284271 C8.79084655,0.774838882 9.20915343,0.774838886 9.46715727,1.03284273 L9.53681831,1.11473237 Z" id="Path"></path>
            </g>
        </g>
    </g>
</svg>