<?xml version="1.0" encoding="UTF-8"?>
<svg width="19px" height="15px" viewBox="0 0 19 15" version="1.1" xmlns="http://www.w3.org/2000/svg" xmlns:xlink="http://www.w3.org/1999/xlink">
    <title>Group 3</title>
    <g id="Page-1" stroke="none" stroke-width="1" fill="none" fill-rule="evenodd">
        <g id="Artboard" transform="translate(-643.000000, -363.000000)" fill="#0295F6" fill-rule="nonzero">
            <g id="Group-3" transform="translate(644.000000, 364.000000)">
                <path d="M14.8114286,-0.658285714 L1.64571429,-0.658285714 C0.377010268,-0.658285714 -0.658285714,0.377010268 -0.658285714,1.64571429 L-0.658285714,11.52 C-0.658285714,12.788704 0.377010268,13.824 1.64571429,13.824 L14.8114286,13.824 C16.0801326,13.824 17.1154286,12.788704 17.1154286,11.52 L17.1154286,1.64571429 C17.1154286,0.377010268 16.0801326,-0.658285714 14.8114286,-0.658285714 Z M1.64571429,0.658285714 L14.8114286,0.658285714 C15.3530103,0.658285714 15.7988571,1.10413259 15.7988571,1.64571429 L15.7988571,11.52 C15.7988571,12.0615817 15.3530103,12.5074286 14.8114286,12.5074286 L1.64571429,12.5074286 C1.10413259,12.5074286 0.658285714,12.0615817 0.658285714,11.52 L0.658285714,1.64571429 C0.658285714,1.10413259 1.10413259,0.658285714 1.64571429,0.658285714 Z" id="Path"></path>
                <path d="M16.0796408,1.10642562 C16.3774817,0.89793698 16.7879429,0.970371309 16.9964315,1.26821222 C17.1840713,1.53626903 17.1441635,1.89554828 16.9171795,2.11671178 L16.8346449,2.18500296 L8.6060735,7.94500296 C8.40774509,8.08383284 8.15197871,8.10118658 7.93929081,7.99706416 L7.85106936,7.94500296 L-0.377502069,2.18500296 C-0.675342977,1.97651432 -0.747777306,1.56605312 -0.53928867,1.26821222 C-0.351648898,1.0001554 -0.000411352617,0.914677912 0.285085781,1.0522512 L0.377502069,1.10642562 L8.228,6.602 L16.0796408,1.10642562 Z" id="Path"></path>
            </g>
        </g>
    </g>
</svg>