<?xml version="1.0" encoding="UTF-8"?>
<svg width="14px" height="12px" viewBox="0 0 14 12" version="1.1" xmlns="http://www.w3.org/2000/svg" xmlns:xlink="http://www.w3.org/1999/xlink">
    <title>mail</title>
    <g id="Page-1" stroke="none" stroke-width="1" fill="none" fill-rule="evenodd">
        <g id="Artboard" transform="translate(-438.000000, -155.000000)" fill="#222222" fill-rule="nonzero">
            <g id="mail" transform="translate(439.000000, 156.000000)">
                <path d="M10.8,-0.6 L1.2,-0.6 C0.20862915,-0.6 -0.6,0.20862915 -0.6,1.2 L-0.6,8.4 C-0.6,9.39137085 0.20862915,10.2 1.2,10.2 L10.8,10.2 C11.7913708,10.2 12.6,9.39137085 12.6,8.4 L12.6,1.2 C12.6,0.20862915 11.7913708,-0.6 10.8,-0.6 Z M1.2,0.6 L10.8,0.6 C11.1286292,0.6 11.4,0.87137085 11.4,1.2 L11.4,8.4 C11.4,8.72862915 11.1286292,9 10.8,9 L1.2,9 C0.87137085,9 0.6,8.72862915 0.6,8.4 L0.6,1.2 C0.6,0.87137085 0.87137085,0.6 1.2,0.6 Z" id="Path"></path>
                <path d="M11.6559226,0.708460848 C11.9273922,0.518432143 12.3015104,0.584453016 12.4915392,0.855922593 C12.662565,1.10024521 12.6261907,1.42771328 12.4193042,1.62929459 L12.3440774,1.69153915 L6.34407741,5.89153915 C6.16699847,6.01549441 5.93968224,6.0332023 5.74824979,5.94466283 L5.65592259,5.89153915 L-0.344077407,1.69153915 C-0.615546984,1.50151045 -0.681567857,1.12739217 -0.491539152,0.855922593 C-0.320513318,0.611599973 -0.000374930771,0.533690805 0.259843811,0.659083123 L0.344077407,0.708460848 L6,4.667 L11.6559226,0.708460848 Z" id="Path"></path>
            </g>
        </g>
    </g>
</svg>