<?xml version="1.0" encoding="UTF-8"?>
<svg width="19px" height="15px" viewBox="0 0 19 15" version="1.1" xmlns="http://www.w3.org/2000/svg" xmlns:xlink="http://www.w3.org/1999/xlink">
    <title>Group 3</title>
    <g id="Page-1" stroke="none" stroke-width="1" fill="none" fill-rule="evenodd">
        <g id="Artboard" transform="translate(-762.000000, -366.000000)" fill="#ACB5C2" fill-rule="nonzero">
            <g id="Group-3" transform="translate(762.000000, 366.000000)">
                <path d="M15.8114286,0.341714286 L2.64571429,0.341714286 C1.37701027,0.341714286 0.341714286,1.37701027 0.341714286,2.64571429 L0.341714286,12.52 C0.341714286,13.788704 1.37701027,14.824 2.64571429,14.824 L15.8114286,14.824 C17.0801326,14.824 18.1154286,13.788704 18.1154286,12.52 L18.1154286,2.64571429 C18.1154286,1.37701027 17.0801326,0.341714286 15.8114286,0.341714286 Z M2.64571429,1.65828571 L15.8114286,1.65828571 C16.3530103,1.65828571 16.7988571,2.10413259 16.7988571,2.64571429 L16.7988571,12.52 C16.7988571,13.0615817 16.3530103,13.5074286 15.8114286,13.5074286 L2.64571429,13.5074286 C2.10413259,13.5074286 1.65828571,13.0615817 1.65828571,12.52 L1.65828571,2.64571429 C1.65828571,2.10413259 2.10413259,1.65828571 2.64571429,1.65828571 Z" id="Path"></path>
                <path d="M17.0796408,2.10642562 C17.3774817,1.89793698 17.7879429,1.97037131 17.9964315,2.26821222 C18.1840713,2.53626903 18.1441635,2.89554828 17.9171795,3.11671178 L17.8346449,3.18500296 L9.6060735,8.94500296 C9.40774509,9.08383284 9.15197871,9.10118658 8.93929081,8.99706416 L8.85106936,8.94500296 L0.622497931,3.18500296 C0.324657023,2.97651432 0.252222694,2.56605312 0.46071133,2.26821222 C0.648351102,2.0001554 0.999588647,1.91467791 1.28508578,2.0522512 L1.37750207,2.10642562 L9.228,7.602 L17.0796408,2.10642562 Z" id="Path"></path>
            </g>
        </g>
    </g>
</svg>