<?xml version="1.0" encoding="UTF-8"?>
<svg width="499px" height="255px" viewBox="0 0 499 255" version="1.1" xmlns="http://www.w3.org/2000/svg" xmlns:xlink="http://www.w3.org/1999/xlink">
    <title>undraw_server_down_s4lk</title>
    <g id="Common-UI-Elements" stroke="none" stroke-width="1" fill="none" fill-rule="evenodd">
        <g id="403-Error-Page" transform="translate(-195.000000, -164.000000)">
            <g id="undraw_server_down_s4lk" transform="translate(195.000000, 164.000000)">
                <path d="M33.8974366,26.7808684 C33.8974366,26.7808684 40.8325685,26.5672704 42.9226433,25.0789763 C45.0127181,23.5906821 53.5906236,21.8135297 54.1091226,24.2004616 C54.6276217,26.5873935 64.5313386,36.0719626 56.7016088,36.1351212 C48.871879,36.1982797 38.5087951,34.9154992 36.4227423,33.6448205 C34.3366894,32.3741419 33.8974366,26.7808684 33.8974366,26.7808684 Z" id="Path" fill="#A8A8A8" fill-rule="nonzero"></path>
                <path d="M56.8413592,35.3042037 C49.0116294,35.3673757 38.6485545,34.0846087 36.5624972,32.8139076 C34.9738575,31.8462179 34.3408013,28.3738494 34.1289848,26.7718394 C33.9822928,26.7781377 33.8974636,26.780837 33.8974636,26.780837 C33.8974636,26.780837 34.3367164,32.3740744 36.4227738,33.6447756 C38.5088311,34.9154767 48.8719015,36.1982392 56.7016358,36.1350672 C58.9617648,36.1168381 59.7424578,35.3127199 59.6995888,34.1217418 C59.3855823,34.8413277 58.5235872,35.2906398 56.8413592,35.3042037 Z" id="Path" fill="#000000" fill-rule="nonzero" opacity="0.2"></path>
                <ellipse id="Oval" fill="#4B5461" fill-rule="nonzero" cx="84.6330832" cy="131.2252" rx="84.1273697" ry="11.4448898"></ellipse>
                <ellipse id="Oval" fill="#222222" fill-rule="nonzero" opacity="0.1" cx="84.6330832" cy="131.2252" rx="70.6310003" ry="9.60881223"></ellipse>
                <ellipse id="Oval" fill="#4B5461" fill-rule="nonzero" cx="371.655874" cy="237.39664" rx="127.315752" ry="17.3203408"></ellipse>
                <ellipse id="Oval" fill="#4B5461" fill-rule="nonzero" cx="135.019529" cy="230.648456" rx="76.479427" ry="10.4044457"></ellipse>
                <path d="M203.401135,221.875815 C243.890243,232.223032 321.719307,208.379446 330.267008,181.386707" id="Path" stroke="#2F2E41" stroke-width="0.899757965"></path>
                <path d="M134.56965,56.7702288 C134.56965,56.7702288 193.053918,40.5745854 196.65295,92.7605474 C200.251982,144.946509 148.515899,159.792516 189.005007,170.139732" id="Path" stroke="#2F2E41" stroke-width="0.899757965"></path>
                <path d="M78.0658983,181.964046 C78.0658983,181.964046 95.6437048,177.096355 96.7254164,192.781156 C97.8071279,208.465958 82.2575287,212.928028 94.4267777,216.037947" id="Path" stroke="#2F2E41" stroke-width="0.899757965"></path>
                <path d="M345.605875,193.641356 L342.061935,216.268096 C342.061935,216.268096 324.614809,225.536881 336.882321,225.809494 C349.149832,226.082107 406.943432,225.809494 406.943432,225.809494 C406.943432,225.809494 418.1205,225.809494 400.400761,215.995483 L396.856813,192.278313 L345.605875,193.641356 Z" id="Path" fill="#4B5461" fill-rule="nonzero"></path>
                <path d="M334.414469,225.563977 C337.20057,223.084969 342.061917,220.501939 342.061917,220.501939 L345.605866,197.875186 L396.856799,197.923399 L400.400748,220.229299 C404.532886,222.517883 407.092653,224.272361 408.590174,225.61803 C410.866031,225.098771 413.353115,223.169101 400.400748,215.995474 L396.856799,192.278304 L345.605866,193.641361 L342.061935,216.268101 C342.061935,216.268101 327.401211,224.057585 334.414469,225.563977 Z" id="Path" fill="#222222" fill-rule="nonzero" opacity="0.1"></path>
                <rect id="Rectangle" fill="#222222" fill-rule="nonzero" x="255.507828" y="35.9356988" width="230.9018" height="160.840684" rx="8.11837216"></rect>
                <rect id="Rectangle" fill="#4B5461" fill-rule="nonzero" x="263.277251" y="44.5229573" width="215.362953" height="120.49421"></rect>
                <circle id="Oval" fill="#F2F2F2" fill-rule="nonzero" cx="370.958728" cy="40.7063955" r="1.36305684"></circle>
                <path d="M486.409628,174.558561 L486.409628,188.658011 C486.409628,190.81122 485.55466,192.876317 484.032111,194.398866 C482.509562,195.921415 480.444465,196.776654 478.291256,196.776383 L263.626205,196.776383 C261.472995,196.776655 259.407896,195.921417 257.885346,194.398868 C256.362797,192.876319 255.507828,190.811221 255.507828,188.658011 L255.507828,174.558561 L486.409628,174.558561 Z" id="Path" fill="#222222" fill-rule="nonzero"></path>
                <polygon id="Path" fill="#222222" fill-rule="nonzero" points="431.205856 240.530497 431.205856 243.256764 284.540809 243.256764 284.540809 241.075751 284.742804 240.530497 288.357582 230.716387 428.206962 230.716387"></polygon>
                <path d="M487.647272,237.861631 C487.380121,239.003873 486.371456,240.208843 484.092428,241.348337 C475.914078,245.437507 459.284796,240.257893 459.284796,240.257893 C459.284796,240.257893 446.472063,238.077001 446.472063,232.35217 C446.831823,232.105818 447.206975,231.882733 447.595221,231.684284 C451.033619,229.865194 462.43425,225.376432 482.648757,231.874349 C484.137979,232.341802 485.468187,233.213517 486.4912,234.392389 C487.310349,235.351279 487.952601,236.567581 487.647272,237.861631 Z" id="Path" fill="#222222" fill-rule="nonzero"></path>
                <path d="M487.647272,237.861631 C477.637015,241.697299 468.71443,241.983512 459.557409,235.623483 C454.93937,232.417569 450.743879,231.624261 447.595221,231.684261 C451.033619,229.865171 462.43425,225.376409 482.648757,231.874326 C484.137979,232.341779 485.468187,233.213495 486.4912,234.392366 C487.310349,235.351279 487.952601,236.567581 487.647272,237.861631 Z" id="Path" fill="#222222" fill-rule="nonzero" opacity="0.1"></path>
                <ellipse id="Oval" fill="#F2F2F2" fill-rule="nonzero" cx="475.096256" cy="234.533057" rx="3.54394868" ry="1.09044367"></ellipse>
                <circle id="Oval" fill="#F2F2F2" fill-rule="nonzero" cx="370.958728" cy="185.735624" r="5.17961418"></circle>
                <polygon id="Path" fill="#000000" fill-rule="nonzero" opacity="0.1" points="431.205856 240.530497 431.205856 243.256764 284.540809 243.256764 284.540809 241.075751 284.742804 240.530497"></polygon>
                <rect id="Rectangle" fill="#222222" fill-rule="nonzero" x="44.1439748" y="11.7823306" width="93.5748284" height="108.870714"></rect>
                <rect id="Rectangle" fill="#4B5461" fill-rule="nonzero" x="34.6965161" y="0.985234972" width="112.469746" height="38.6895925"></rect>
                <rect id="Rectangle" fill="#4B5461" fill-rule="nonzero" x="34.6965161" y="46.8728912" width="112.469746" height="38.6895925"></rect>
                <rect id="Rectangle" fill="#4B5461" fill-rule="nonzero" x="34.6965161" y="92.7605474" width="112.469746" height="38.6895925"></rect>
                <rect id="Rectangle" fill="#0295F6" fill-rule="nonzero" opacity="0.4" x="117.474249" y="7.73341971" width="7.19806372" height="7.19806372"></rect>
                <rect id="Rectangle" fill="#0295F6" fill-rule="nonzero" opacity="0.8" x="127.821466" y="7.73341971" width="7.19806372" height="7.19806372"></rect>
                <rect id="Rectangle" fill="#0295F6" fill-rule="nonzero" x="138.168682" y="7.73341971" width="7.19806372" height="7.19806372"></rect>
                <rect id="Rectangle" fill="#0295F6" fill-rule="nonzero" opacity="0.4" x="117.474249" y="53.1711969" width="7.19806372" height="7.19806372"></rect>
                <rect id="Rectangle" fill="#0295F6" fill-rule="nonzero" opacity="0.8" x="127.821466" y="53.1711969" width="7.19806372" height="7.19806372"></rect>
                <rect id="Rectangle" fill="#0295F6" fill-rule="nonzero" x="138.168682" y="53.1711969" width="7.19806372" height="7.19806372"></rect>
                <rect id="Rectangle" fill="#0295F6" fill-rule="nonzero" opacity="0.4" x="117.474249" y="98.6089742" width="7.19806372" height="7.19806372"></rect>
                <rect id="Rectangle" fill="#0295F6" fill-rule="nonzero" opacity="0.8" x="127.821466" y="98.6089742" width="7.19806372" height="7.19806372"></rect>
                <rect id="Rectangle" fill="#0295F6" fill-rule="nonzero" x="138.168682" y="98.6089742" width="7.19806372" height="7.19806372"></rect>
                <circle id="Oval" fill="#222222" fill-rule="nonzero" cx="137.718803" cy="182.286465" r="35.5404396"></circle>
                <rect id="Rectangle" fill="#222222" fill-rule="nonzero" x="121.52316" y="210.178962" width="10.7970956" height="19.3447962"></rect>
                <rect id="Rectangle" fill="#222222" fill-rule="nonzero" x="143.117351" y="210.178962" width="10.7970956" height="19.3447962"></rect>
                <ellipse id="Oval" fill="#222222" fill-rule="nonzero" cx="130.520739" cy="229.748698" rx="8.99757965" ry="3.37409237"></ellipse>
                <ellipse id="Oval" fill="#222222" fill-rule="nonzero" cx="152.114931" cy="229.298819" rx="8.99757965" ry="3.37409237"></ellipse>
                <circle id="Oval" fill="#FFFFFF" fill-rule="nonzero" cx="138.618561" cy="173.288885" r="12.1467325"></circle>
                <circle id="Oval" fill="#3F3D56" fill-rule="nonzero" cx="138.618561" cy="173.288885" r="4.04891084"></circle>
                <path d="M103.243376,149.234882 C100.373647,136.382928 109.547012,123.396568 123.732664,120.229038 C137.918315,117.061507 151.744424,124.912278 154.614157,137.764241 C157.48389,150.616204 148.082539,155.356214 133.896892,158.523745 C119.711245,161.691275 106.113104,162.086836 103.243376,149.234882 Z" id="Path" fill="#0295F6" fill-rule="nonzero"></path>
                <ellipse id="Oval" fill="#222222" fill-rule="nonzero" transform="translate(168.857217, 170.069405) rotate(-23.171160) translate(-168.857217, -170.069405) " cx="168.857217" cy="170.069405" rx="17.7702198" ry="5.57862085"></ellipse>
                <ellipse id="Oval" fill="#222222" fill-rule="nonzero" transform="translate(102.275127, 193.912991) rotate(-23.171160) translate(-102.275127, -193.912991) " cx="102.275127" cy="193.912991" rx="17.7702198" ry="5.57862085"></ellipse>
                <path d="M158.413236,192.633682 C158.413236,196.112146 149.456771,202.980898 139.518319,202.980898 C129.579867,202.980898 120.173523,196.562025 120.173523,193.083561 C120.173523,189.605096 129.579867,190.384287 139.518319,190.384287 C149.456771,190.384287 158.413236,189.155217 158.413236,192.633682 Z" id="Path" fill="#FFFFFF" fill-rule="nonzero"></path>
            </g>
        </g>
    </g>
</svg>