<?xml version="1.0" encoding="UTF-8"?>
<svg width="18px" height="18px" viewBox="0 0 18 18" version="1.1" xmlns="http://www.w3.org/2000/svg" xmlns:xlink="http://www.w3.org/1999/xlink">
    <title>Group 2</title>
    <g id="Page-1" stroke="none" stroke-width="1" fill="none" fill-rule="evenodd">
        <g id="Artboard" transform="translate(-350.000000, -809.000000)" fill="#D61414">
            <g id="Group-2" transform="translate(351.000000, 810.000000)">
                <path d="M8,-0.65 C3.22273691,-0.65 -0.65,3.22273691 -0.65,8 C-0.65,12.7772631 3.22273691,16.65 8,16.65 C12.7772631,16.65 16.65,12.7772631 16.65,8 C16.65,3.22273691 12.7772631,-0.65 8,-0.65 Z M8,0.65 C12.0592929,0.65 15.35,3.94070709 15.35,8 C15.35,12.0592929 12.0592929,15.35 8,15.35 C3.94070709,15.35 0.65,12.0592929 0.65,8 C0.65,3.94070709 3.94070709,0.65 8,0.65 Z" id="Oval" fill-rule="nonzero"></path>
                <path d="M8,4.15 C8.32635008,4.15 8.59652646,4.39050819 8.64295233,4.70394776 L8.65,4.8 L8.65,8 C8.65,8.35898509 8.35898509,8.65 8,8.65 C7.67364992,8.65 7.40347354,8.40949181 7.35704767,8.09605224 L7.35,8 L7.35,4.8 C7.35,4.44101491 7.64101491,4.15 8,4.15 Z" id="Path" fill-rule="nonzero"></path>
                <circle id="Oval" cx="8" cy="11.2" r="1"></circle>
            </g>
        </g>
    </g>
</svg>