<?xml version="1.0" encoding="UTF-8"?>
<svg width="18px" height="18px" viewBox="0 0 18 18" version="1.1" xmlns="http://www.w3.org/2000/svg" xmlns:xlink="http://www.w3.org/1999/xlink">
    <title>external-link-637082</title>
    <g id="Page-1" stroke="none" stroke-width="1" fill="none" fill-rule="evenodd">
        <g id="Artboard" transform="translate(-110.000000, -139.000000)" fill="#637082" fill-rule="nonzero">
            <g id="external-link-4B5461" transform="translate(110.000000, 139.000000)">
                <path d="M8.11111112,2.86666666 C8.55293892,2.86666666 8.91111112,3.22483886 8.91111112,3.66666666 C8.91111112,4.053266 8.63688552,4.3758165 8.27233902,4.45041352 L8.11111112,4.46666666 L2.77777778,4.46666666 C2.29776732,4.46666666 1.89854364,4.81255586 1.8157533,5.26868766 L1.8,5.44444444 L1.8,15.2222222 C1.8,15.7022327 2.1458892,16.1014564 2.60202098,16.1842467 L2.77777778,16.2 L12.5555556,16.2 C13.035566,16.2 13.4347897,15.8541108 13.51758,15.397979 L13.5333333,15.2222222 L13.5333333,9.88888888 C13.5333333,9.44706108 13.8915055,9.08888888 14.3333333,9.08888888 C14.7199327,9.08888888 15.0424832,9.36311448 15.1170802,9.72766098 L15.1333333,9.88888888 L15.1333333,15.2222222 C15.1333333,16.5569104 14.1189785,17.6546832 12.8191184,17.7866912 L12.5555556,17.8 L2.77777778,17.8 C1.44308964,17.8 0.34531676,16.7856451 0.213308776,15.485785 L0.2,15.2222222 L0.2,5.44444444 C0.2,4.1097563 1.21435486,3.01198342 2.51421498,2.87997544 L2.77777778,2.86666666 L8.11111112,2.86666666 Z" id="Path"></path>
                <path d="M17,0.2 C17.3865993,0.2 17.7091498,0.47422559 17.7837468,0.838772096 L17.8,1 L17.8,6.33333334 C17.8,6.77516114 17.4418278,7.13333334 17,7.13333334 C16.6134007,7.13333334 16.2908502,6.85910774 16.2162532,6.49456124 L16.2,6.33333334 L16.2,1.8 L11.6666667,1.8 C11.2800673,1.8 10.9575168,1.5257744 10.8829198,1.1612279 L10.8666667,1 C10.8666667,0.613400676 11.1408923,0.290850168 11.5054388,0.216253156 L11.6666667,0.2 L17,0.2 Z" id="Path"></path>
                <path d="M16.4343146,0.434314576 C16.746734,0.121895142 17.253266,0.121895142 17.5656854,0.434314576 C17.8390524,0.70768158 17.8732233,1.129666 17.6681981,1.44018736 L17.5656854,1.56568542 L7.78790764,11.3434632 C7.47548822,11.6558826 6.96895624,11.6558826 6.6565368,11.3434632 C6.3831698,11.0700962 6.34899892,10.6481118 6.55402418,10.3375904 L6.6565368,10.2120924 L16.4343146,0.434314576 Z" id="Path"></path>
            </g>
        </g>
    </g>
</svg>