<?xml version="1.0" encoding="UTF-8"?>
<svg width="14px" height="14px" viewBox="0 0 14 14" version="1.1" xmlns="http://www.w3.org/2000/svg" xmlns:xlink="http://www.w3.org/1999/xlink">
    <!-- Generator: Sketch 64 (93537) - https://sketch.com -->
    <title>external-link copy</title>
    <desc>Created with Sketch.</desc>
    <g id="Page-1" stroke="none" stroke-width="1" fill="none" fill-rule="evenodd">
        <g id="Artboard" transform="translate(-120.000000, -119.000000)" fill="#2193B0" fill-rule="nonzero">
            <g id="external-link-copy" transform="translate(121.000000, 120.000000)">
                <path d="M5.33333333,1.4 C5.66470418,1.4 5.93333333,1.66862915 5.93333333,2 C5.93333333,2.29823376 5.71574372,2.54564675 5.43065645,2.59214701 L5.33333333,2.6 L1.33333333,2.6 C0.962075252,2.6 0.655253283,2.8758838 0.606694469,3.23382434 L0.6,3.33333333 L0.6,10.6666667 C0.6,11.0379247 0.875883795,11.3447467 1.23382434,11.3933055 L1.33333333,11.4 L8.66666667,11.4 C9.03792475,11.4 9.34474672,11.1241162 9.39330553,10.7661757 L9.4,10.6666667 L9.4,6.66666667 C9.4,6.33529582 9.66862915,6.06666667 10,6.06666667 C10.2982338,6.06666667 10.5456468,6.28425628 10.592147,6.56934355 L10.6,6.66666667 L10.6,10.6666667 C10.6,11.6835719 9.81489087,12.5171051 8.81775553,12.5941833 L8.66666667,12.6 L1.33333333,12.6 C0.31642808,12.6 -0.517105111,11.8148909 -0.594183317,10.8177555 L-0.6,10.6666667 L-0.6,3.33333333 C-0.6,2.31642808 0.185109131,1.48289489 1.18224447,1.40581668 L1.33333333,1.4 L5.33333333,1.4 Z" id="Path"></path>
                <path d="M12,-0.6 C12.2982338,-0.6 12.5456468,-0.382410388 12.592147,-0.0973231165 L12.6,0 L12.6,4 C12.6,4.33137085 12.3313708,4.6 12,4.6 C11.7017662,4.6 11.4543532,4.38241039 11.407853,4.09732312 L11.4,4 L11.4,0.6 L8,0.6 C7.70176624,0.6 7.45435325,0.382410388 7.40785299,0.0973231165 L7.4,0 C7.4,-0.298233765 7.61758961,-0.545646753 7.90267688,-0.592147013 L8,-0.6 L12,-0.6 Z" id="Path"></path>
                <path d="M11.5757359,-0.424264069 C11.8100505,-0.658578644 12.1899495,-0.658578644 12.4242641,-0.424264069 C12.6325437,-0.215984446 12.6556859,0.107324835 12.4936906,0.341166604 L12.4242641,0.424264069 L5.09093074,7.7575974 C4.85661616,7.99191198 4.47671717,7.99191198 4.2424026,7.7575974 C4.03412298,7.54931778 4.0109808,7.2260085 4.17297606,6.99216673 L4.2424026,6.90906926 L11.5757359,-0.424264069 Z" id="Path"></path>
            </g>
        </g>
    </g>
</svg>