<?xml version="1.0" encoding="UTF-8"?>
<svg width="10px" height="10px" viewBox="0 0 10 10" version="1.1" xmlns="http://www.w3.org/2000/svg" xmlns:xlink="http://www.w3.org/1999/xlink">
    <!-- Generator: Sketch 64 (93537) - https://sketch.com -->
    <title>external-link</title>
    <desc>Created with Sketch.</desc>
    <g id="Page-1" stroke="none" stroke-width="1" fill="none" fill-rule="evenodd">
        <g id="Artboard" transform="translate(-112.000000, -159.000000)" fill="#222222" fill-rule="nonzero">
            <g id="external-link" transform="translate(112.000000, 159.000000)">
                <path d="M4.55555556,1.93333333 C4.77646946,1.93333333 4.95555556,2.11241943 4.95555556,2.33333333 C4.95555556,2.526633 4.81844276,2.68790825 4.63616951,2.72520676 L4.55555556,2.73333333 L1.88888889,2.73333333 C1.64888366,2.73333333 1.44927182,2.90627793 1.40787665,3.13434383 L1.4,3.22222222 L1.4,8.11111111 C1.4,8.35111634 1.5729446,8.55072818 1.80101049,8.59212335 L1.88888889,8.6 L6.77777778,8.6 C7.017783,8.6 7.21739485,8.4270554 7.25879001,8.19898951 L7.26666667,8.11111111 L7.26666667,5.44444444 C7.26666667,5.22353054 7.44575277,5.04444444 7.66666667,5.04444444 C7.85996633,5.04444444 8.02124158,5.18155724 8.05854009,5.36383049 L8.06666667,5.44444444 L8.06666667,8.11111111 C8.06666667,8.77845518 7.55948923,9.32734162 6.90955918,9.39334561 L6.77777778,9.4 L1.88888889,9.4 C1.22154482,9.4 0.67265838,8.89282257 0.606654388,8.24289251 L0.6,8.11111111 L0.6,3.22222222 C0.6,2.55487815 1.10717743,2.00599171 1.75710749,1.93998772 L1.88888889,1.93333333 L4.55555556,1.93333333 Z" id="Path"></path>
                <path d="M9,0.6 C9.19329966,0.6 9.35457492,0.737112795 9.39187342,0.919386048 L9.4,1 L9.4,3.66666667 C9.4,3.88758057 9.2209139,4.06666667 9,4.06666667 C8.80670034,4.06666667 8.64542508,3.92955387 8.60812658,3.74728062 L8.6,3.66666667 L8.6,1.4 L6.33333333,1.4 C6.14003367,1.4 5.97875842,1.2628872 5.94145991,1.08061395 L5.93333333,1 C5.93333333,0.806700338 6.07044613,0.645425084 6.25271938,0.608126578 L6.33333333,0.6 L9,0.6 Z" id="Path"></path>
                <path d="M8.71715729,0.717157288 C8.873367,0.560947571 9.126633,0.560947571 9.28284271,0.717157288 C9.41952621,0.85384079 9.43661165,1.064833 9.33409903,1.22009368 L9.28284271,1.28284271 L4.39395382,6.1717316 C4.23774411,6.32794132 3.98447812,6.32794132 3.8282684,6.1717316 C3.6915849,6.0350481 3.67449946,5.82405589 3.77701209,5.66879521 L3.8282684,5.60604618 L8.71715729,0.717157288 Z" id="Path"></path>
            </g>
        </g>
    </g>
</svg>