<?xml version="1.0" encoding="UTF-8"?>
<svg width="16px" height="16px" viewBox="0 0 16 16" version="1.1" xmlns="http://www.w3.org/2000/svg" xmlns:xlink="http://www.w3.org/1999/xlink">
    <title>eye-off-DAE0E9</title>
    <g id="Page-1" stroke="none" stroke-width="1" fill="none" fill-rule="evenodd">
        <g id="Artboard" transform="translate(-266.000000, -925.000000)" fill="#DAE0E9" fill-rule="nonzero">
            <g id="eye-off-DAE0E9" transform="translate(266.000000, 925.000000)">
                <path d="M4.61738875,3.91654954 C4.78497981,4.13602128 4.74292221,4.44979768 4.52345046,4.61738875 C3.35572056,5.50908028 2.37516946,6.62023518 1.63611101,7.88709374 L1.57,8.004 L1.71615725,8.25164578 L1.88734923,8.52419183 C2.25729947,9.097018 2.694309,9.67014526 3.19431406,10.203484 C4.59974386,11.7026091 6.20978759,12.5909091 7.99182634,12.5909759 C9.25273177,12.5703607 10.4739609,12.1468368 11.4768909,11.3823508 C11.6965065,11.2149483 12.0102466,11.2572753 12.1776492,11.4768909 C12.3450517,11.6965065 12.3027247,12.0102466 12.0831091,12.1776492 C10.9104263,13.0715296 9.48249592,13.5667378 7.99999996,13.5909091 C5.89248514,13.5909091 4.04230159,12.5701182 2.46477685,10.8874251 C1.92074782,10.3071275 1.44795621,9.68707291 1.04730986,9.06671726 C0.953612591,8.92163762 0.868270616,8.78323945 0.79134827,8.65298106 L0.602763816,8.31943262 C0.581169763,8.27918155 0.564500091,8.24703417 0.552786405,8.2236068 C0.480130601,8.07829519 0.48260524,7.90674234 0.559422165,7.76358686 C1.38469822,6.22560831 2.52933637,4.88190264 3.91654954,3.82261125 C4.13602128,3.65502019 4.44979768,3.69707779 4.61738875,3.91654954 Z M8,2.4090258 C10.1075153,2.4090258 11.9576989,3.42986909 13.5352237,5.11256745 C14.0792527,5.69286686 14.5520442,6.31292331 14.9526905,6.93328084 C15.0463878,7.07836091 15.1317297,7.2167595 15.2086521,7.34701827 L15.3972365,7.68056768 C15.4188305,7.72081887 15.4355002,7.75296633 15.4472139,7.77639377 C15.5197428,7.92145197 15.5174101,8.09267756 15.4409565,8.23570612 C15.0382648,8.98905743 14.5580203,9.69830745 14.0080327,10.3519223 C13.8302399,10.5632144 13.5148243,10.5903709 13.3035322,10.4125781 C13.0922402,10.2347853 13.0650836,9.91936973 13.2428764,9.70807767 C13.6470155,9.22779177 14.0101559,8.71480065 14.328625,8.17452847 L14.429,7.995 L14.2838424,7.74835202 L14.1126504,7.47580506 C13.7427001,6.90297702 13.3056905,6.32984789 12.8056854,5.79650743 C11.4002556,4.2973776 9.79021201,3.40907488 7.99884284,3.40907355 C7.58770725,3.40812204 7.17787263,3.45496397 6.77759297,3.54865891 C6.50871826,3.6115954 6.23973214,3.4446495 6.17679564,3.17577479 C6.11385914,2.90690008 6.28080505,2.63791395 6.54967975,2.57497746 C7.02542577,2.46361783 7.51252158,2.40794536 8,2.4090258 Z M7.01671462,6.31004795 C7.18405009,6.48962912 7.19381884,6.75956614 7.05203251,6.94955078 L6.99177023,7.01671462 C6.61478548,7.36799268 6.4596051,7.89703109 6.58710649,8.39628772 C6.71460787,8.89554434 7.10445566,9.28539213 7.60371228,9.41289351 C8.05304325,9.52764476 8.52649746,9.41342378 8.8727767,9.11461019 L8.98328538,9.00822977 C9.1715378,8.80620095 9.48792324,8.79503297 9.68995205,8.98328538 C9.89198086,9.1715378 9.90314884,9.48792324 9.71489643,9.68995205 C9.11432427,10.3344744 8.20983924,10.5997828 7.35627145,10.3817965 C6.50270367,10.1638103 5.83618972,9.49729633 5.61820348,8.64372855 C5.40021724,7.79016076 5.66552562,6.88567573 6.31004795,6.28510357 C6.51207676,6.09685116 6.8284622,6.10801914 7.01671462,6.31004795 Z" id="Shape"></path>
                <path d="M0.646446609,0.646446609 C0.820012961,0.472880258 1.08943736,0.453595107 1.2843055,0.588591159 L1.35355339,0.646446609 L15.3535534,14.6464466 C15.5488155,14.8417088 15.5488155,15.1582912 15.3535534,15.3535534 C15.179987,15.5271197 14.9105626,15.5464049 14.7156945,15.4114088 L14.6464466,15.3535534 L0.646446609,1.35355339 C0.451184464,1.15829125 0.451184464,0.841708755 0.646446609,0.646446609 Z" id="Path"></path>
            </g>
        </g>
    </g>
</svg>