<?xml version="1.0" encoding="UTF-8"?>
<svg width="16px" height="12px" viewBox="0 0 16 12" version="1.1" xmlns="http://www.w3.org/2000/svg" xmlns:xlink="http://www.w3.org/1999/xlink">
    <title>eye-on-DAE0E9</title>
    <g id="Page-1" stroke="none" stroke-width="1" fill="none" fill-rule="evenodd">
        <g id="Artboard" transform="translate(-214.000000, -924.000000)" fill="#DAE0E9" fill-rule="nonzero">
            <g id="eye-on-DAE0E9" transform="translate(215.000000, 925.000000)">
                <path d="M6.7375,-0.5 C4.70306753,-0.5 2.91776324,0.484995468 1.3961689,2.10802944 C0.871715499,2.66744639 0.41598267,3.26512879 0.0297849986,3.86311228 C-0.0605409068,4.00297175 -0.142817067,4.13639834 -0.216982597,4.26198895 L-0.322140308,4.44432251 C-0.382760471,4.55209169 -0.424531961,4.63102993 -0.447213595,4.6763932 L-0.559016994,4.9 L-0.364067536,5.28033054 L-0.322140308,5.35567749 C-0.223080792,5.5317833 -0.10570386,5.72709852 0.0297849986,5.93688772 C0.41598267,6.53487121 0.871715499,7.13255361 1.3961689,7.69197056 C2.91776324,9.31500453 4.70306753,10.3 6.7375,10.3 C8.77193247,10.3 10.5572368,9.31500453 12.0788311,7.69197056 C12.6032845,7.13255361 13.0590173,6.53487121 13.445215,5.93688772 C13.5355409,5.79702825 13.6178171,5.66360166 13.6919826,5.53801105 L13.7971403,5.35567749 C13.8577605,5.24790831 13.899532,5.16897007 13.9222136,5.1236068 L14.034017,4.9 L13.8390675,4.51966946 L13.7971403,4.44432251 C13.6980808,4.2682167 13.5807039,4.07290148 13.445215,3.86311228 C13.0590173,3.26512879 12.6032845,2.66744639 12.0788311,2.10802944 C10.5572368,0.484995468 8.77193247,-0.5 6.7375,-0.5 Z M6.7375,0.5 C8.45463003,0.5 9.99979449,1.35250453 11.3492939,2.79197056 C11.8297233,3.30442861 12.2496741,3.85518371 12.6051756,4.40563772 L12.7696239,4.66744339 L12.907,4.9 L12.7696239,5.13255661 C12.7205767,5.21302017 12.6657374,5.30058921 12.6051756,5.39436228 C12.2496741,5.94481629 11.8297233,6.49557139 11.3492939,7.00802944 C9.99979449,8.44749547 8.45463003,9.3 6.7375,9.3 C5.02036997,9.3 3.47520551,8.44749547 2.1257061,7.00802944 C1.64527669,6.49557139 1.22532592,5.94481629 0.869824376,5.39436228 L0.705376104,5.13255661 L0.567,4.9 L0.705376104,4.66744339 C0.754423284,4.58697983 0.809262602,4.49941079 0.869824376,4.40563772 C1.22532592,3.85518371 1.64527669,3.30442861 2.1257061,2.79197056 C3.47520551,1.35250453 5.02036997,0.5 6.7375,0.5 Z" id="Path"></path>
                <path d="M6.7375,2.5625 C5.4465344,2.5625 4.4,3.6090344 4.4,4.9 C4.4,6.1909656 5.4465344,7.2375 6.7375,7.2375 C8.0284656,7.2375 9.075,6.1909656 9.075,4.9 C9.075,3.6090344 8.0284656,2.5625 6.7375,2.5625 Z M6.7375,3.5625 C7.47618085,3.5625 8.075,4.16131915 8.075,4.9 C8.075,5.63868085 7.47618085,6.2375 6.7375,6.2375 C5.99881915,6.2375 5.4,5.63868085 5.4,4.9 C5.4,4.16131915 5.99881915,3.5625 6.7375,3.5625 Z" id="Oval"></path>
            </g>
        </g>
    </g>
</svg>