<?xml version="1.0" encoding="UTF-8"?>
<svg width="32px" height="32px" viewBox="0 0 32 32" version="1.1" xmlns="http://www.w3.org/2000/svg" xmlns:xlink="http://www.w3.org/1999/xlink">
    <title>Group 32</title>
    <g id="Workshop" stroke="none" stroke-width="1" fill="none" fill-rule="evenodd">
        <g id="Your-MacBook-Copy" transform="translate(-995.000000, -343.000000)">
            <g id="Group-32" transform="translate(995.000000, 343.000000)">
                <rect id="Rectangle-Copy-28" fill-opacity="0" fill="#ACB5C2" x="0" y="0" width="32" height="32"></rect>
                <g id="Quick-Feedback-Copy-3" transform="translate(3.500000, 5.000000)" stroke="#0295F6">
                    <path d="M20.731049,11.7247429 L20.7310041,11.7250122 C20.6664857,12.0907061 20.3436245,12.3497673 19.9766735,12.3497673 L13.7022735,12.3497673 C13.6774898,12.3497673 13.6573755,12.3698816 13.6573755,12.3946653 L13.6573755,13.4673224 C13.6573755,13.4921061 13.6774898,13.5122204 13.7022735,13.5122204 L19.9766735,13.5122204 C20.9113592,13.5122204 21.7054694,12.8344857 21.8689429,11.9233265 L21.8689878,11.9232816 L22.7359673,7.06213469 L22.7360571,7.06164082 C22.8292204,6.50243673 22.689902,5.9179551 22.315049,5.49582449 C21.941902,5.05281633 21.4049224,4.79559592 20.843698,4.79559592 L18.7603429,4.79559592 C18.9190122,4.29529796 19.1367224,3.58204898 19.2908571,2.65697143 L19.290902,2.65665714 L19.3821347,2.08609388 L19.3821796,2.08609388 L19.3823592,2.08470204 C19.4995429,1.17022041 18.8665265,0.34957551 17.9758408,0.208910204 L17.9758857,0.208820408 L17.973551,0.208595918 C17.5302286,0.161902041 17.1080082,0.255334694 16.7328857,0.536665306 C16.3806612,0.795142857 16.1466531,1.19374694 16.0764776,1.63814694 C16.0764327,1.63823673 16.0764327,1.63832653 16.0764327,1.63837143 L15.9857837,2.1824 C15.962302,2.255 15.9618082,2.32683673 15.9618082,2.3914449 C15.9507633,2.4266 15.9450163,2.46121633 15.9398082,2.4925102 L15.9395837,2.49385714 C15.9337918,2.52856327 15.9285837,2.55936327 15.9184367,2.58971429 L15.9181673,2.58962449 L15.9170898,2.59474286 C15.5100898,4.53985714 13.9492571,6.12462041 11.9573592,6.62271837 L11.9570449,6.62280816 L11.2497224,6.80536327 C11.2299224,6.81048163 11.216049,6.82839592 11.216049,6.84886939 L11.216049,13.4673224 C11.216049,13.4921061 11.2361633,13.5122204 11.2609469,13.5122204 L12.3332898,13.5122204 C12.3581184,13.5122204 12.3781878,13.4921061 12.3781878,13.4673224 L12.3781878,7.72752245 C14.7274735,7.07591837 16.5735878,5.19909388 17.0771633,2.86511837 C17.0890163,2.81752653 17.0949429,2.77590612 17.1005551,2.73648571 L17.1006898,2.73581224 C17.1063918,2.69571837 17.1118245,2.65791429 17.1226,2.61481224 C17.1345878,2.56690612 17.1405592,2.52506122 17.1462163,2.48541633 L17.1463061,2.48474286 C17.1520082,2.44469388 17.1574408,2.4068898 17.1682163,2.36378776 L17.168351,2.36378776 L17.1689347,2.36028571 L17.2602122,1.81253061 C17.2818082,1.6830449 17.3456531,1.56056327 17.4443837,1.50129796 C17.5514204,1.43709388 17.6792449,1.39426122 17.8285306,1.39358776 C18.0993551,1.43709388 18.285502,1.68757959 18.2438816,1.9580898 L18.2437469,1.95907755 L18.1754571,2.48299184 C18.0390122,3.25617959 17.8684898,3.87002449 17.7264776,4.31330204 C17.6554041,4.53505306 17.5914694,4.71415102 17.542351,4.84942857 C17.5348082,4.87021633 17.5275796,4.89006122 17.5207102,4.90891837 C17.4848367,5.0072898 17.4585265,5.07944082 17.4474367,5.12137551 L17.4039306,5.20838776 C17.4008327,5.21462857 17.3992163,5.22149796 17.3992163,5.22850204 L17.3992163,5.93595918 C17.3992163,5.96074286 17.4192857,5.98085714 17.4441143,5.98085714 L20.8665061,5.98085714 C21.1037918,5.98085714 21.3190327,6.08874694 21.4474857,6.23794286 C21.5765673,6.4107551 21.6416694,6.64911837 21.6205673,6.86543673 L20.731049,11.7247429 Z" id="Path" stroke-width="0.5" fill="#0295F6" fill-rule="nonzero" stroke-linejoin="round"></path>
                    <path d="M1.08226531,3.80932245 C1.08226531,3.06540816 1.68533469,2.46238367 2.42920408,2.46238367 L13.6226694,2.46238367 C13.8706408,2.46238367 14.071649,2.26137551 14.071649,2.01340408 C14.071649,1.76543265 13.8706408,1.56442449 13.6226694,1.56442449 L2.42920408,1.56442449 C1.18939184,1.56442449 0.184306122,2.5695102 0.184306122,3.80932245 L0.184306122,15.9664776 C0.184306122,17.2062898 1.18939184,18.2113755 2.42920408,18.2113755 L6.11043265,18.2113755 L4.5672449,21.0940041 C4.47655102,21.263449 4.50375918,21.4718204 4.63490612,21.6123061 C4.76609796,21.7527918 4.9720898,21.7942327 5.14737143,21.7153469 L12.9318245,18.2113755 C12.932498,18.2113755 12.9331714,18.2113755 12.9338449,18.2113755 L22.0607918,18.2113755 C23.3006041,18.2113755 24.3056898,17.2062898 24.3056898,15.9664776 L24.3056898,9.39575102 C24.3056898,9.14777959 24.1046816,8.94677143 23.8567102,8.94677143 C23.6087388,8.94677143 23.4077306,9.14777959 23.4077306,9.39575102 L23.4077306,15.9664776 C23.4077306,16.7103469 22.8046612,17.3134163 22.0607918,17.3134163 L12.9338449,17.3134163 C12.9172327,17.3134163 12.9008898,17.3143143 12.8847714,17.3160653 C12.8075469,17.3074449 12.7270898,17.3187592 12.6511224,17.3529714 L5.98126122,20.3552082 L7.25586939,17.9742694 C7.37287347,17.7556612 7.29053061,17.4835796 7.07192245,17.3665755 C6.99222857,17.3238776 6.90544082,17.3077143 6.82166122,17.3149878 C6.8090898,17.3139551 6.79638367,17.3134163 6.78354286,17.3134163 L2.42920408,17.3134163 C1.68533469,17.3134163 1.08226531,16.7103469 1.08226531,15.9664776 L1.08226531,3.80932245 Z" id="Path" stroke-width="0.4" fill="#0295F6"></path>
                    <line x1="4.03439592" y1="6.68297143" x2="7.85983673" y2="6.68297143" id="Path" stroke-width="0.897959184" stroke-linecap="round"></line>
                    <line x1="4.03439592" y1="10.0297102" x2="7.85983673" y2="10.0297102" id="Path" stroke-width="0.897959184" stroke-linecap="round"></line>
                    <line x1="4.03439592" y1="13.5732816" x2="7.85983673" y2="13.5732816" id="Path" stroke-width="0.897959184" stroke-linecap="round"></line>
                </g>
            </g>
        </g>
    </g>
</svg>