<?xml version="1.0" encoding="UTF-8"?>
<svg width="17px" height="16px" viewBox="0 0 17 16" version="1.1" xmlns="http://www.w3.org/2000/svg" xmlns:xlink="http://www.w3.org/1999/xlink">
    <!-- Generator: Sketch 64 (93537) - https://sketch.com -->
    <title>filter</title>
    <desc>Created with Sketch.</desc>
    <g id="Page-1" stroke="none" stroke-width="1" fill="none" fill-rule="evenodd">
        <g id="Artboard" transform="translate(-92.000000, -100.000000)" fill="#222222" fill-rule="nonzero">
            <g id="filter" transform="translate(93.000000, 101.000000)">
                <path d="M0,-0.5 L-0.0820030347,-0.493621688 C-0.451914264,-0.435003593 -0.637042844,0.0147721056 -0.385041794,0.318971499 L5.595,7.537 L5.5952381,12.4444444 C5.5952381,12.6323366 5.70057501,12.8043674 5.86792781,12.889787 L8.91554686,14.4453426 L8.99321034,14.4773516 C9.30660104,14.5771905 9.64285714,14.3447749 9.64285714,14 L9.642,7.537 L15.623137,0.318971499 C15.8931382,-0.0069564225 15.6613323,-0.5 15.2380952,-0.5 L0,-0.5 Z M14.175,0.5 L8.75781535,7.03880628 L8.70850793,7.11010521 C8.66572753,7.18513147 8.64285714,7.27042702 8.64285714,7.35777778 L8.642,13.183 L6.595,12.138 L6.5952381,7.35777778 L6.58772428,7.27141631 C6.57280628,7.18634837 6.53600469,7.10607366 6.48027989,7.03880628 L1.063,0.5 L14.175,0.5 Z" id="Path"></path>
            </g>
        </g>
    </g>
</svg>