<?xml version="1.0" encoding="UTF-8"?>
<svg width="16px" height="13px" viewBox="0 0 16 13" version="1.1" xmlns="http://www.w3.org/2000/svg" xmlns:xlink="http://www.w3.org/1999/xlink">
    <!-- Generator: Sketch 64 (93537) - https://sketch.com -->
    <title>Group</title>
    <desc>Created with Sketch.</desc>
    <g id="Products" stroke="none" stroke-width="1" fill="none" fill-rule="evenodd">
        <g id="Artboard" transform="translate(-81.000000, -64.000000)" fill="#ACB5C2" fill-rule="nonzero">
            <g id="Group" transform="translate(81.250000, 64.750000)">
                <path d="M14.75,5 C15.1642136,5 15.5,5.33578644 15.5,5.75 C15.5,6.12969577 15.2178461,6.44349096 14.8517706,6.49315338 L14.75,6.5 L0.75,6.5 C0.335786438,6.5 0,6.16421356 0,5.75 C0,5.37030423 0.282153882,5.05650904 0.648229443,5.00684662 L0.75,5 L14.75,5 Z" id="Path"></path>
                <path d="M14.75,0 C15.1642136,0 15.5,0.335786438 15.5,0.75 C15.5,1.12969577 15.2178461,1.44349096 14.8517706,1.49315338 L14.75,1.5 L0.75,1.5 C0.335786438,1.5 0,1.16421356 0,0.75 C0,0.370304234 0.282153882,0.0565090391 0.648229443,0.006846616 L0.75,0 L14.75,0 Z" id="Path"></path>
                <path d="M14.75,10 C15.1642136,10 15.5,10.3357864 15.5,10.75 C15.5,11.1296958 15.2178461,11.443491 14.8517706,11.4931534 L14.75,11.5 L0.75,11.5 C0.335786438,11.5 0,11.1642136 0,10.75 C0,10.3703042 0.282153882,10.056509 0.648229443,10.0068466 L0.75,10 L14.75,10 Z" id="Path"></path>
            </g>
        </g>
    </g>
</svg>