<?xml version="1.0" encoding="UTF-8"?>
<svg width="20px" height="22px" viewBox="0 0 20 22" version="1.1" xmlns="http://www.w3.org/2000/svg" xmlns:xlink="http://www.w3.org/1999/xlink">
    <title>individual</title>
    <g id="Page-1" stroke="none" stroke-width="1" fill="none" fill-rule="evenodd">
        <g id="Artboard" transform="translate(-272.000000, -828.000000)" fill="#0295F6" fill-rule="nonzero" stroke="#CDE5F8">
            <g id="individual" transform="translate(273.000000, 829.000000)">
                <path d="M17.7777778,17.7777778 L17.7777778,20 L0,20 L0,17.7777778 L2.22222222,17.7777778 L2.22222222,1.11111111 C2.22222222,0.497461389 2.71968361,0 3.33333333,0 L14.4444444,0 C15.0580942,0 15.5555556,0.497461389 15.5555556,1.11111111 L15.5555556,17.7777778 L17.7777778,17.7777778 Z M4.44444444,2.22222222 L4.44444444,17.7777778 L13.3333333,17.7777778 L13.3333333,2.22222222 L4.44444444,2.22222222 Z M6.66666667,8.88888889 L11.1111111,8.88888889 L11.1111111,11.1111111 L6.66666667,11.1111111 L6.66666667,8.88888889 Z M6.66666667,13.3333333 L11.1111111,13.3333333 L11.1111111,15.5555556 L6.66666667,15.5555556 L6.66666667,13.3333333 Z M6.66666667,4.44444444 L11.1111111,4.44444444 L11.1111111,6.66666667 L6.66666667,6.66666667 L6.66666667,4.44444444 Z" id="Shape-Copy"></path>
            </g>
        </g>
    </g>
</svg>