<?xml version="1.0" encoding="UTF-8"?>
<svg width="14px" height="15px" viewBox="0 0 14 15" version="1.1" xmlns="http://www.w3.org/2000/svg" xmlns:xlink="http://www.w3.org/1999/xlink">
    <title>lock</title>
    <g id="Page-1" stroke="none" stroke-width="1" fill="none" fill-rule="evenodd">
        <g id="Artboard" transform="translate(-130.000000, -120.000000)" fill="#4B5461" fill-rule="nonzero">
            <g id="lock" transform="translate(131.000000, 121.000000)">
                <path d="M10.4,5.3625 L1.3,5.3625 C0.31279101,5.3625 -0.4875,6.16279101 -0.4875,7.15 L-0.4875,11.7 C-0.4875,12.687209 0.31279101,13.4875 1.3,13.4875 L10.4,13.4875 C11.387209,13.4875 12.1875,12.687209 12.1875,11.7 L12.1875,7.15 C12.1875,6.16279101 11.387209,5.3625 10.4,5.3625 Z M1.3,6.3375 L10.4,6.3375 C10.8487314,6.3375 11.2125,6.70126864 11.2125,7.15 L11.2125,11.7 C11.2125,12.1487314 10.8487314,12.5125 10.4,12.5125 L1.3,12.5125 C0.851268641,12.5125 0.4875,12.1487314 0.4875,11.7 L0.4875,7.15 C0.4875,6.70126864 0.851268641,6.3375 1.3,6.3375 Z" id="Rectangle"></path>
                <path d="M5.85,-0.4875 C7.84757831,-0.4875 9.47913617,1.07961985 9.58231932,3.05150529 L9.5875,3.25 L9.5875,5.85 C9.5875,6.11923882 9.36923882,6.3375 9.1,6.3375 C8.86067661,6.3375 8.66163184,6.16504672 8.62035428,5.93762874 L8.6125,5.85 L8.6125,3.25 C8.6125,1.72431338 7.37568662,0.4875 5.85,0.4875 C4.38082029,0.4875 3.17951207,1.63439416 3.09254161,3.0817162 L3.0875,3.25 L3.0875,5.85 C3.0875,6.11923882 2.86923882,6.3375 2.6,6.3375 C2.36067661,6.3375 2.16163184,6.16504672 2.12035428,5.93762874 L2.1125,5.85 L2.1125,3.25 C2.1125,1.18583575 3.78583575,-0.4875 5.85,-0.4875 Z" id="Path"></path>
            </g>
        </g>
    </g>
</svg>