<?xml version="1.0" encoding="UTF-8"?>
<svg width="50px" height="50px" viewBox="0 0 50 50" version="1.1" xmlns="http://www.w3.org/2000/svg" xmlns:xlink="http://www.w3.org/1999/xlink">
    <!-- Generator: Sketch 63.1 (92452) - https://sketch.com -->
    <title>Group 2</title>
    <desc>Created with Sketch.</desc>
    <defs>
        <linearGradient x1="0%" y1="100%" x2="100%" y2="0%" id="linearGradient-1">
            <stop stop-color="#12D9DD" offset="0%"></stop>
            <stop stop-color="#055CD8" offset="100%"></stop>
        </linearGradient>
    </defs>
    <g id="Logos" stroke="none" stroke-width="1" fill="none" fill-rule="evenodd">
        <g id="Main-Logo" transform="translate(-88.000000, -94.000000)">
            <g id="Group-2" transform="translate(88.000000, 94.000000)">
                <rect id="Rectangle-Copy-4" fill="url(#linearGradient-1)" x="0" y="0" width="50" height="50" rx="10"></rect>
                <g id="Group-2-Copy-4" transform="translate(6.000000, 6.000000)">
                    <circle id="Oval" stroke="#FFFFFF" stroke-width="2.34375" transform="translate(19.000000, 19.000000) scale(1, -1) translate(-19.000000, -19.000000) " cx="19" cy="19" r="11.0833333"></circle>
                    <g id="noun_Ship-Wheel_1878214" fill="#FFFFFF" fill-rule="nonzero">
                        <g id="Group">
                            <path d="M37.1363636,18.1363636 L32.7744386,18.1363636 C32.5858294,15.0769446 31.3796848,12.1684295 29.3478318,9.87339318 L32.4353318,6.78589318 C32.6590479,6.56888072 32.748479,6.24816269 32.669338,5.9466996 C32.5901971,5.64523651 32.3547635,5.4098029 32.0533004,5.33066195 C31.7518373,5.25152101 31.4311193,5.34095212 31.2141068,5.56466818 L28.1266068,8.65216818 C25.8315705,6.62031521 22.9230554,5.41417058 19.8636364,5.22556136 L19.8636364,0.863636364 C19.8636364,0.386663171 19.4769732,0 19,0 C18.5230268,0 18.1363636,0.386663171 18.1363636,0.863636364 L18.1363636,5.22556136 C15.0769446,5.41417058 12.1684295,6.62031521 9.87339318,8.65216818 L6.78589318,5.56466818 C6.44720796,5.23613158 5.90753463,5.24023563 5.57388513,5.57388513 C5.24023563,5.90753463 5.23613158,6.44720796 5.56466818,6.78589318 L8.65216818,9.87339318 C6.62031521,12.1684295 5.41417058,15.0769446 5.22556136,18.1363636 L0.863636364,18.1363636 C0.386663171,18.1363636 0,18.5230268 0,19 C0,19.4769732 0.386663171,19.8636364 0.863636364,19.8636364 L5.22556136,19.8636364 C5.41417058,22.9230554 6.62031521,25.8315705 8.65216818,28.1266068 L5.56466818,31.2141068 C5.34095212,31.4311193 5.25152101,31.7518373 5.33066195,32.0533004 C5.4098029,32.3547635 5.64523651,32.5901971 5.9466996,32.669338 C6.24816269,32.748479 6.56888072,32.6590479 6.78589318,32.4353318 L9.87339318,29.3478318 C12.1684295,31.3796848 15.0769446,32.5858294 18.1363636,32.7744386 L18.1363636,37.1363636 C18.1363636,37.6133368 18.5230268,38 19,38 C19.4769732,38 19.8636364,37.6133368 19.8636364,37.1363636 L19.8636364,32.7744386 C22.9230554,32.5858294 25.8315705,31.3796848 28.1266068,29.3478318 L31.2141068,32.4353318 C31.4311193,32.6590479 31.7518373,32.748479 32.0533004,32.669338 C32.3547635,32.5901971 32.5901971,32.3547635 32.669338,32.0533004 C32.748479,31.7518373 32.6590479,31.4311193 32.4353318,31.2141068 L29.3478318,28.1266068 C31.3796848,25.8315705 32.5858294,22.9230554 32.7744386,19.8636364 L37.1363636,19.8636364 C37.6133368,19.8636364 38,19.4769732 38,19 C38,18.5230268 37.6133368,18.1363636 37.1363636,18.1363636 Z M19,31.0909091 C12.3223753,31.0909091 6.90909091,25.6776247 6.90909091,19 C6.90909091,12.3223753 12.3223753,6.90909091 19,6.90909091 C25.6776247,6.90909091 31.0909091,12.3223753 31.0909091,19 C31.0828193,25.6742709 25.6742709,31.0828193 19,31.0909091 Z" id="Shape"></path>
                            <path d="M26.3274364,11.6726068 C26.3216068,11.6667773 26.3136182,11.6650932 26.3077023,11.6596523 C22.2696778,7.62877338 15.7303222,7.62877338 11.6922977,11.6596523 C11.6863818,11.6652227 11.6783932,11.6669068 11.6726068,11.6726068 C11.6668205,11.6783068 11.6650932,11.6863818 11.6596523,11.6922977 C7.62877338,15.7303222 7.62877338,22.2696778 11.6596523,26.3077023 C11.6652227,26.3136182 11.6669068,26.3216068 11.6726068,26.3274364 C11.6783068,26.3332659 11.6863818,26.3349068 11.6922977,26.3403909 C15.7303222,30.3712698 22.2696778,30.3712698 26.3077023,26.3403909 C26.3136182,26.3348205 26.3216068,26.3331364 26.3274364,26.3274364 C26.3332659,26.3217364 26.3349068,26.3136182 26.3403909,26.3077023 C30.3712698,22.2696778 30.3712698,15.7303222 26.3403909,11.6922977 C26.3349068,11.6863818 26.3332227,11.6783932 26.3274364,11.6726068 Z M25.6560886,24.4348205 L21.9648636,20.7435955 C22.1276938,20.4688604 22.251215,20.1726597 22.3318227,19.8636364 L27.5490932,19.8636364 C27.3828675,21.5407478 26.724231,23.131208 25.6560886,24.4348205 Z M10.4509068,19.8636364 L15.6681773,19.8636364 C15.7488122,20.1726642 15.8723625,20.4688652 16.0352227,20.7435955 L12.3439977,24.4348205 C11.2758242,23.1312183 10.6171573,21.5407571 10.4509068,19.8636364 Z M12.3439114,13.5651795 L16.0351364,17.2564045 C15.8723062,17.5311396 15.748785,17.8273403 15.6681773,18.1363636 L10.4509068,18.1363636 C10.6171325,16.4592522 11.275769,14.868792 12.3439114,13.5651795 L12.3439114,13.5651795 Z M19,20.7272727 C18.0460536,20.7272727 17.2727273,19.9539464 17.2727273,19 C17.2727273,18.0460536 18.0460536,17.2727273 19,17.2727273 C19.9539464,17.2727273 20.7272727,18.0460536 20.7272727,19 C20.7266296,19.9536799 19.9536799,20.7266296 19,20.7272727 Z M20.7435955,16.0351364 C20.4688604,15.8723062 20.1726597,15.748785 19.8636364,15.6681773 L19.8636364,10.4509068 C21.5407478,10.6171325 23.131208,11.275769 24.4348205,12.3439114 L20.7435955,16.0351364 Z M18.1363636,15.6681773 C17.8273358,15.7488122 17.5311348,15.8723625 17.2564045,16.0352227 L13.5651795,12.3439977 C14.8687817,11.2758242 16.4592429,10.6171573 18.1363636,10.4509068 L18.1363636,15.6681773 Z M17.2564045,21.9648636 C17.5311348,22.1277239 17.8273358,22.2512742 18.1363636,22.3319091 L18.1363636,27.5490932 C16.4592522,27.3828675 14.868792,26.724231 13.5651795,25.6560886 L17.2564045,21.9648636 Z M19.8636364,22.3319091 C20.1726642,22.2512742 20.4688652,22.1277239 20.7435955,21.9648636 L24.4348205,25.6560886 C23.131208,26.724231 21.5407478,27.3828675 19.8636364,27.5490932 L19.8636364,22.3319091 Z M22.3318227,18.1363636 C22.2511878,17.8273358 22.1276375,17.5311348 21.9647773,17.2564045 L25.6560023,13.5651795 C26.7241758,14.8687817 27.3828427,16.4592429 27.5490932,18.1363636 L22.3318227,18.1363636 Z" id="Shape"></path>
                        </g>
                    </g>
                    <circle id="Oval" fill="#FFFFFF" cx="19" cy="19" r="2.375"></circle>
                </g>
            </g>
        </g>
    </g>
</svg>