<?xml version="1.0" encoding="UTF-8"?>
<svg width="42px" height="32px" viewBox="0 0 42 32" version="1.1" xmlns="http://www.w3.org/2000/svg" xmlns:xlink="http://www.w3.org/1999/xlink">
    <title>Group 3</title>
    <g id="Page-1" stroke="none" stroke-width="1" fill="none" fill-rule="evenodd">
        <g id="Artboard" transform="translate(-25.000000, -131.000000)" fill-rule="nonzero">
            <g id="Group-3" transform="translate(25.000000, 131.000000)">
                <path d="M7.50769231,31.7397802 L7.50769231,29.6298901 C7.53256795,29.2709258 7.40178,28.9186143 7.1486949,28.6628368 C6.89560981,28.4070593 6.54470197,28.2725506 6.18549451,28.2936264 C5.7121175,28.2625926 5.25936862,28.491662 5.00395604,28.8914286 C4.77109307,28.5035813 4.34471326,28.2741998 3.89274725,28.2936264 C3.49922369,28.2737326 3.12459307,28.4637238 2.90813187,28.792967 L2.90813187,28.378022 L2.1767033,28.378022 L2.1767033,31.7397802 L2.91516484,31.7397802 L2.91516484,29.8901099 C2.88336119,29.6573504 2.95710863,29.4225432 3.11628211,29.2497651 C3.27545559,29.0769871 3.5034406,28.9842727 3.73802198,28.9969231 C4.2232967,28.9969231 4.46945055,29.3134066 4.46945055,29.8830769 L4.46945055,31.7538462 L5.20791209,31.7538462 L5.20791209,29.8901099 C5.17741348,29.6576151 5.25161186,29.4235687 5.41049022,29.251111 C5.56936859,29.0786532 5.79655845,28.9855517 6.03076923,28.9969231 C6.53010989,28.9969231 6.76923077,29.3134066 6.76923077,29.8830769 L6.76923077,31.7538462 L7.50769231,31.7397802 Z M18.4334066,28.378022 L17.2307692,28.378022 L17.2307692,27.3582418 L16.4923077,27.3582418 L16.4923077,28.378022 L15.8241758,28.378022 L15.8241758,29.0461538 L16.5063736,29.0461538 L16.5063736,30.5934066 C16.5063736,31.3740659 16.8087912,31.8382514 17.6738462,31.8382514 C17.9970316,31.8393274 18.3139544,31.7491263 18.5881319,31.578022 L18.3771429,30.9520879 C18.1809945,31.0690847 17.9583757,31.1344185 17.7301099,31.141978 C17.3784615,31.141978 17.2448352,30.9169231 17.2448352,30.5793407 L17.2448352,29.0461538 L18.4404396,29.0461538 L18.4334066,28.378022 Z M24.6716484,28.2936264 C24.3083665,28.2829424 23.9683457,28.4718429 23.7854945,28.7859341 L23.7854945,28.378022 L23.0610989,28.378022 L23.0610989,31.7397802 L23.7925275,31.7397802 L23.7925275,29.8549451 C23.7925275,29.2993407 24.0316484,28.9898901 24.4958242,28.9898901 C24.652267,28.9877502 24.8076009,29.0164272 24.952967,29.0742857 L25.178022,28.370989 C25.0109792,28.3112313 24.8349908,28.2803144 24.6575824,28.2795604 L24.6716484,28.2936264 Z M15.2404396,28.6452747 C14.8264176,28.3991128 14.3504,28.277057 13.869011,28.2936264 C13.018022,28.2936264 12.4624176,28.7015385 12.4624176,29.3696703 C12.4624176,29.9182418 12.8703297,30.2558242 13.6228571,30.3613187 L13.9745055,30.4105495 C14.3753846,30.4668132 14.5652747,30.5723077 14.5652747,30.7621978 C14.5652747,31.0224176 14.298022,31.1701099 13.7986813,31.1701099 C13.3970294,31.1817361 13.0031484,31.0578742 12.6804396,30.8184615 L12.3287912,31.3881319 C12.7548532,31.6856231 13.2651681,31.838471 13.7846154,31.8241758 C14.7551648,31.8241758 15.3178022,31.367033 15.3178022,30.727033 C15.3178022,30.087033 14.8747253,29.8268132 14.1432967,29.7213187 L13.7916484,29.6720879 C13.4751648,29.6298901 13.221978,29.5665934 13.221978,29.3415385 C13.221978,29.1164835 13.4610989,28.9476923 13.861978,28.9476923 C14.2325013,28.9519965 14.595726,29.0512779 14.9169231,29.236044 L15.2404396,28.6452747 Z M34.8307692,28.2936264 C34.4674874,28.2829424 34.1274665,28.4718429 33.9446154,28.7859341 L33.9446154,28.378022 L33.2202198,28.378022 L33.2202198,31.7397802 L33.9516484,31.7397802 L33.9516484,29.8549451 C33.9516484,29.2993407 34.1907692,28.9898901 34.6549451,28.9898901 C34.8113878,28.9877502 34.9667218,29.0164272 35.1120879,29.0742857 L35.3371429,28.370989 C35.1701,28.3112313 34.9941116,28.2803144 34.8167033,28.2795604 L34.8307692,28.2936264 Z M25.4065934,30.0518681 C25.3890032,30.5295595 25.5735226,30.9925495 25.9148602,31.3271942 C26.2561979,31.661839 26.7227505,31.837155 27.2,31.8101099 C27.6391661,31.8324536 28.0707636,31.6894242 28.4096703,31.4092308 L28.058022,30.8184615 C27.8051766,31.0112742 27.4968555,31.1173367 27.1789011,31.1208791 C26.6182684,31.0755176 26.1864047,30.6073 26.1864047,30.0448352 C26.1864047,29.4823703 26.6182684,29.0141527 27.1789011,28.9687912 C27.4968555,28.9723336 27.8051766,29.0783961 28.058022,29.2712088 L28.4096703,28.6804396 C28.0707636,28.4002462 27.6391661,28.2572168 27.2,28.2795604 C26.7227505,28.2525153 26.2561979,28.4278314 25.9148602,28.7624761 C25.5735226,29.0971208 25.3890032,29.5601108 25.4065934,30.0378022 L25.4065934,30.0518681 Z M32.2567033,30.0518681 L32.2567033,28.378022 L31.5252747,28.378022 L31.5252747,28.7859341 C31.2732847,28.4616967 30.880695,28.2784882 30.4703297,28.2936264 C29.4992796,28.2936264 28.7120879,29.080818 28.7120879,30.0518681 C28.7120879,31.0229182 29.4992796,31.8101099 30.4703297,31.8101099 C30.880695,31.8252481 31.2732847,31.6420395 31.5252747,31.3178022 L31.5252747,31.7257143 L32.2567033,31.7257143 L32.2567033,30.0518681 Z M29.5349451,30.0518681 C29.5674708,29.5000153 30.0351444,29.0753788 30.5875659,29.0961134 C31.1399874,29.1168481 31.5745133,29.5753478 31.5655792,30.1280861 C31.5566451,30.6808244 31.1075283,31.1250416 30.5547253,31.1279121 C30.2732445,31.1314737 30.0030679,31.0173109 29.8094285,30.8129879 C29.6157891,30.608665 29.5162864,30.3327524 29.5349451,30.0518681 L29.5349451,30.0518681 Z M20.7085714,28.2936264 C19.7375213,28.3072211 18.9613504,29.1054334 18.9749451,30.0764835 C18.9885398,31.0475336 19.7867521,31.8237046 20.7578022,31.8101099 C21.2637325,31.8360787 21.7612679,31.6731578 22.1538462,31.352967 L21.8021978,30.8114286 C21.5245229,31.03412 21.1805193,31.1578623 20.8246154,31.1630769 C20.3218871,31.2063121 19.8760722,30.8415545 19.8189011,30.3402198 L22.3156044,30.3402198 C22.3156044,30.2487912 22.3156044,30.1573626 22.3156044,30.0589011 C22.3156044,29.003956 21.6615385,28.3006593 20.7191209,28.3006593 L20.7085714,28.2936264 Z M20.7085714,28.9476923 C20.9296186,28.9429796 21.1434795,29.0262962 21.3030818,29.1793033 C21.4626841,29.3323105 21.5549462,29.5424672 21.5595604,29.7635165 L19.8013187,29.7635165 C19.8278078,29.2940038 20.2245198,28.9316527 20.6945055,28.9476923 L20.7085714,28.9476923 Z M39.032967,30.0589011 L39.032967,27.0276923 L38.3296703,27.0276923 L38.3296703,28.7859341 C38.0776803,28.4616967 37.6850906,28.2784882 37.2747253,28.2936264 C36.3036752,28.2936264 35.5164835,29.080818 35.5164835,30.0518681 C35.5164835,31.0229182 36.3036752,31.8101099 37.2747253,31.8101099 C37.6850906,31.8252481 38.0776803,31.6420395 38.3296703,31.3178022 L38.3296703,31.7257143 L39.032967,31.7257143 L39.032967,30.0589011 Z M40.2531868,31.250989 C40.2989056,31.2504289 40.3442949,31.2587901 40.3868132,31.2756044 C40.4271974,31.2920841 40.4641634,31.315933 40.4958242,31.3459341 C40.5267232,31.3762537 40.5517583,31.4120181 40.5696703,31.4514286 C40.6056654,31.5344342 40.6056654,31.6286427 40.5696703,31.7116484 C40.5517583,31.7510589 40.5267232,31.7868233 40.4958242,31.8171429 C40.4641634,31.8471439 40.4271974,31.8709929 40.3868132,31.8874725 C40.3447147,31.9060484 40.2992015,31.9156302 40.2531868,31.9156044 C40.1171164,31.9145788 39.9938506,31.8351409 39.9367033,31.7116484 C39.9011249,31.6285567 39.9011249,31.5345202 39.9367033,31.4514286 C39.9546153,31.4120181 39.9796504,31.3762537 40.0105495,31.3459341 C40.0422103,31.315933 40.0791762,31.2920841 40.1195604,31.2756044 C40.1653626,31.2573849 40.2144836,31.2489984 40.2637363,31.250989 L40.2531868,31.250989 Z M40.2531868,31.8452747 C40.2882846,31.8454879 40.3230331,31.8382986 40.3551648,31.8241758 C40.3854194,31.8106681 40.4128578,31.7915806 40.436044,31.7679121 C40.5272253,31.6684283 40.5272253,31.5157476 40.436044,31.4162637 C40.412913,31.39253 40.3854614,31.3734332 40.3551648,31.36 C40.3230014,31.3459768 40.2882742,31.3387918 40.2531868,31.3388999 C40.2181297,31.3390864 40.1834613,31.3462591 40.1512088,31.36 C40.1196148,31.3729547 40.0909229,31.3920826 40.0668132,31.4162637 C39.9756318,31.5157476 39.9756318,31.6684283 40.0668132,31.7679121 C40.0909822,31.7920209 40.1196587,31.8111386 40.1512088,31.8241758 C40.1866865,31.8394753 40.2251259,31.8466827 40.2637363,31.8452747 L40.2531868,31.8452747 Z M40.2742857,31.4268132 C40.3071126,31.4252212 40.3394605,31.4351745 40.3657143,31.4549451 C40.3875525,31.4730184 40.3993359,31.500513 40.3973626,31.5287912 C40.3983834,31.5524062 40.3894542,31.575367 40.3727473,31.5920879 C40.3523651,31.6106008 40.3263637,31.6217442 40.2989011,31.6237363 L40.4008791,31.7397802 L40.32,31.7397802 L40.2250549,31.6237363 L40.1934066,31.6237363 L40.1934066,31.7397802 L40.1265934,31.7397802 L40.1265934,31.4303297 L40.2742857,31.4268132 Z M40.1969231,31.4865934 L40.1969231,31.570989 L40.2742857,31.570989 C40.2880522,31.5750934 40.302717,31.5750934 40.3164835,31.570989 C40.321499,31.5610357 40.321499,31.549294 40.3164835,31.5393407 C40.321499,31.5293873 40.321499,31.5176456 40.3164835,31.5076923 C40.302717,31.5035879 40.2880522,31.5035879 40.2742857,31.5076923 L40.1969231,31.4865934 Z M36.3287912,30.0589011 C36.3613169,29.5070483 36.8289906,29.0824118 37.3814121,29.1031464 C37.9338335,29.123881 38.3683595,29.5823808 38.3594254,30.1351191 C38.3504913,30.6878574 37.9013745,31.1320745 37.3485714,31.1349451 C37.0670907,31.1385066 36.7969141,31.0243439 36.6032746,30.8200209 C36.4096352,30.6156979 36.3101326,30.3397853 36.3287912,30.0589011 L36.3287912,30.0589011 Z M11.6325275,30.0589011 L11.6325275,28.378022 L10.9010989,28.378022 L10.9010989,28.7859341 C10.6491089,28.4616967 10.2565191,28.2784882 9.84615385,28.2936264 C8.87510374,28.2936264 8.08791209,29.080818 8.08791209,30.0518681 C8.08791209,31.0229182 8.87510374,31.8101099 9.84615385,31.8101099 C10.2565191,31.8252481 10.6491089,31.6420395 10.9010989,31.3178022 L10.9010989,31.7257143 L11.6325275,31.7257143 L11.6325275,30.0589011 Z M8.91076923,30.0589011 C8.94329495,29.5070483 9.41096858,29.0824118 9.96339007,29.1031464 C10.5158116,29.123881 10.9503375,29.5823808 10.9414034,30.1351191 C10.9324693,30.6878574 10.4833525,31.1320745 9.93054945,31.1349451 C9.64785565,31.1404949 9.37579812,31.0272025 9.18059909,30.8226446 C8.98540007,30.6180867 8.88496327,30.3410255 8.90373626,30.0589011 L8.91076923,30.0589011 Z" id="Shape" fill="#231F20"></path>
                <g id="_Group_">
                    <rect id="Rectangle" fill="#FF5F00" x="14.9978022" y="2.76043956" width="11.0769231" height="19.9068132"></rect>
                    <path d="M15.7010989,12.7156044 C15.6969574,8.83041486 17.480033,5.15922435 20.5362637,2.76043956 C15.3458603,-1.31866311 7.8922329,-0.724506531 3.41359047,4.12535202 C-1.06505197,8.97521057 -1.06505197,16.4524817 3.41359047,21.3023403 C7.8922329,26.1521988 15.3458603,26.7463554 20.5362637,22.6672527 C17.4810053,20.2692295 15.6980386,16.5995599 15.7010989,12.7156044 L15.7010989,12.7156044 Z" id="_Path_" fill="#EB001B"></path>
                    <path d="M41.0197802,12.7156044 C41.0197802,17.5625074 38.2521041,21.983877 33.8924854,24.1019407 C29.5328667,26.2200044 24.346581,25.6629081 20.5362637,22.6672527 C23.5901891,20.2671936 25.37329,16.598012 25.37329,12.7138462 C25.37329,8.82968035 23.5901891,5.1604987 20.5362637,2.76043956 C24.346581,-0.235215763 29.5328667,-0.792312061 33.8924854,1.3257516 C38.2521041,3.44381526 41.0197802,7.86518492 41.0197802,12.7120879 L41.0197802,12.7156044 Z" id="Path" fill="#F79E1B"></path>
                    <path d="M39.8101099,20.5573626 L39.8101099,20.1494505 L39.9753846,20.1494505 L39.9753846,20.0650549 L39.5569231,20.0650549 L39.5569231,20.1494505 L39.7362637,20.1494505 L39.7362637,20.5573626 L39.8101099,20.5573626 Z M40.6224176,20.5573626 L40.6224176,20.0650549 L40.4958242,20.0650549 L40.3481319,20.4167033 L40.2004396,20.0650549 L40.0879121,20.0650549 L40.0879121,20.5573626 L40.1793407,20.5573626 L40.1793407,20.1881319 L40.3164835,20.5081319 L40.4114286,20.5081319 L40.5485714,20.1881319 L40.5485714,20.5608791 L40.6224176,20.5573626 Z" id="Shape" fill="#F79E1B"></path>
                </g>
            </g>
        </g>
    </g>
</svg>