<?xml version="1.0" encoding="UTF-8"?>
<svg width="23px" height="11px" viewBox="0 0 23 11" version="1.1" xmlns="http://www.w3.org/2000/svg" xmlns:xlink="http://www.w3.org/1999/xlink">
    <title>double-arrow-vertical-symbol</title>
    <g id="Page-1" stroke="none" stroke-width="1" fill="none" fill-rule="evenodd">
        <g id="Artboard-Copy" transform="translate(-325.000000, -37.000000)" fill="#222222" fill-rule="nonzero" stroke="#222222" stroke-width="0.2">
            <g id="double-arrow-vertical-symbol" transform="translate(336.000000, 43.000000) rotate(90.000000) translate(-336.000000, -43.000000) translate(331.000000, 32.000000)">
                <path d="M8.32703075,16.4912929 L5.43795713,19.3722473 L5.43795713,2.27867785 L8.32703075,5.15963218 C8.59288972,5.4248077 9.02444237,5.4248077 9.290274,5.15963218 C9.55610562,4.894484 9.55610562,4.46424355 9.290274,4.19909537 L5.27220876,0.193195402 C5.13016216,0.051832246 4.94210624,-0.00836533085 4.75675676,0.0010935073 C4.57075116,-0.00904877291 4.38269525,0.051148804 4.24064865,0.193195402 L0.223266853,4.19906803 C-0.0425647717,4.46424355 -0.0425647717,4.89445666 0.223266853,5.15963218 C0.489125815,5.42478037 0.920678472,5.42478037 1.1865101,5.15963218 L4.07558372,2.27867785 L4.07558372,19.3722473 L1.1865101,16.4912929 C0.920678472,16.2261448 0.489098478,16.2261448 0.223266853,16.4912929 C-0.0425647717,16.7564685 -0.0425647717,17.1866816 0.223266853,17.4518571 L4.24064865,21.4584132 C4.38269525,21.5997763 4.57075116,21.6599739 4.75610065,21.6505151 C4.94213358,21.6599739 5.1301895,21.5997763 5.27155266,21.4584132 L9.28890711,17.4518571 C9.55476608,17.1866816 9.55476608,16.7564685 9.28890711,16.4912929 C9.02375893,16.2261448 8.59286238,16.2261448 8.32703075,16.4912929 Z" id="Path"></path>
            </g>
        </g>
    </g>
</svg>