<?xml version="1.0" encoding="UTF-8"?>
<svg width="24px" height="24px" viewBox="0 0 24 24" version="1.1" xmlns="http://www.w3.org/2000/svg" xmlns:xlink="http://www.w3.org/1999/xlink">
    <!-- Generator: Sketch 64 (93537) - https://sketch.com -->
    <title>bell-off</title>
    <desc>Created with Sketch.</desc>
    <g id="Page-1" stroke="none" stroke-width="1" fill="none" fill-rule="evenodd">
        <g id="Artboard" transform="translate(-38.000000, -115.000000)" fill="#222222" fill-rule="nonzero">
            <g id="bell-off" transform="translate(39.000000, 116.000000)">
                <path d="M11.865,19.4982281 C12.1421209,19.0205018 12.7540456,18.8578791 13.2317719,19.135 C13.7094982,19.4121209 13.8721209,20.0240456 13.595,20.5017719 C13.0583034,21.4269784 12.0696029,21.9964563 11,21.9964563 C9.93039709,21.9964563 8.94169664,21.4269784 8.405,20.5017719 C8.12787905,20.0240456 8.29050183,19.4121209 8.76822814,19.135 C9.21183114,18.8776734 9.77114594,18.9995136 10.0706633,19.4007267 L10.135,19.4982281 C10.3138989,19.8066303 10.6434657,19.9964563 11,19.9964563 C11.3169194,19.9964563 11.6125311,19.8464703 11.7999564,19.5965394 L11.865,19.4982281 Z" id="Path"></path>
                <path d="M17.0159775,6.00012765 C17.5681918,6.00895179 18.0086965,6.46376326 17.9998724,7.01597751 C17.9744059,8.60966464 18.1746539,10.1989338 18.5946571,11.7364918 C18.7401887,12.2692572 18.4262737,12.8191256 17.8935082,12.9646571 C17.3607428,13.1101887 16.8108744,12.7962737 16.6653429,12.2635082 C16.1956056,10.543883 15.9716457,8.7664233 16.0001276,6.98402249 C16.0089518,6.43180823 16.4637633,5.99130351 17.0159775,6.00012765 Z" id="Path"></path>
                <path d="M4.30437137,4.96542586 C4.46706018,4.43764674 5.02679502,4.14168257 5.55457414,4.30437137 C6.08235326,4.46706018 6.37831743,5.02679502 6.21562863,5.55457414 C6.07154193,6.02200612 5.99884571,6.50851158 6,7 C6,10.2252461 5.39796518,12.7337245 4.37789557,14.6038521 L4.23967931,14.8493814 L4.148,15 L16,15 C16.5128358,15 16.9355072,15.3860402 16.9932723,15.8833789 L17,16 C17,16.5128358 16.6139598,16.9355072 16.1166211,16.9932723 L16,17 L2,17 C1.05016836,17 0.65410638,15.8173794 1.35228872,15.2372047 L1.4452998,15.1679497 C1.47819199,15.1460216 1.58468175,15.0572801 1.74279732,14.8903804 C2.03553362,14.5813809 2.33584811,14.1709511 2.62210443,13.6461479 C3.47703482,12.0787755 4,9.89975389 4.00000277,7.00235419 C3.99837738,6.31193014 4.10098974,5.62521667 4.30437137,4.96542586 Z" id="Path"></path>
                <path d="M7.1149989,1.16815039 C9.26440285,-0.265908775 12.0290124,-0.399275125 14.306474,0.821229501 C16.5839336,2.04173304 18.0038316,4.41759816 18.0000133,7.00148072 C17.9991878,7.55376487 17.5508101,8.00081668 16.9985259,8.00000002 C16.4462418,7.99918112 15.99919,7.55080342 16.0000077,6.99851928 C16.0027406,5.15288605 14.9885267,3.45583763 13.361769,2.58404898 C11.7350107,1.71225996 9.76028964,1.80752164 8.2250011,2.83184961 C7.76558325,3.13836826 7.14466903,3.01441896 6.83815039,2.5550011 C6.53163174,2.09558325 6.65558104,1.47466903 7.1149989,1.16815039 Z" id="Path"></path>
                <path d="M-0.707106781,-0.707106781 C-0.34662282,-1.06759074 0.220608236,-1.09532028 0.612899443,-0.790295388 L0.707106781,-0.707106781 L22.7071068,21.2928932 C23.0976311,21.6834175 23.0976311,22.3165825 22.7071068,22.7071068 C22.3466228,23.0675907 21.7793918,23.0953203 21.3871006,22.7902954 L21.2928932,22.7071068 L-0.707106781,0.707106781 C-1.09763107,0.316582489 -1.09763107,-0.316582489 -0.707106781,-0.707106781 Z" id="Path"></path>
            </g>
        </g>
    </g>
</svg>