<?xml version="1.0" encoding="UTF-8"?>
<svg width="17px" height="19px" viewBox="0 0 17 19" version="1.1" xmlns="http://www.w3.org/2000/svg" xmlns:xlink="http://www.w3.org/1999/xlink">
    <title>Group 2</title>
    <g id="Page-1" stroke="none" stroke-width="1" fill="none" fill-rule="evenodd">
        <g id="Artboard" transform="translate(-630.000000, -311.000000)" fill="#ACB5C2" fill-rule="nonzero">
            <g id="Group-2" transform="translate(631.685714, 312.228571)">
                <path d="M6.99428571,-0.731428571 C9.90080448,-0.731428571 12.2704259,1.56730216 12.3842882,4.44590178 L12.3885714,4.66285714 C12.3885714,6.92381999 12.7967974,8.6247615 13.464975,9.84975387 C13.8088001,10.4800998 14.1333588,10.8470004 14.3369488,11.0067807 L14.394295,11.0485575 C14.9663272,11.4299123 14.738455,12.2960556 14.0937715,12.3817165 L13.9885714,12.3885714 L3.73034936e-14,12.3885714 C-0.687497187,12.3885714 -0.978345868,11.5414959 -0.489452899,11.1126157 L-0.405723572,11.0485575 C-0.209506448,10.9177461 0.145388804,10.5431344 0.523596381,9.84975387 C1.15246947,8.69681988 1.55107393,7.12228387 1.59579254,5.05605433 L1.6,4.66285714 C1.6,1.68367541 4.01510398,-0.731428571 6.99428571,-0.731428571 Z M6.99428571,0.731428571 C4.82301767,0.731428571 3.06285714,2.4915891 3.06285714,4.66285714 C3.06285714,7.1618943 2.59679739,9.10380993 1.80783219,10.5502461 L1.6834173,10.7701306 L1.588,10.925 L12.399,10.925 L12.3051541,10.7701306 L12.1807392,10.5502461 C11.4381838,9.18889441 10.9816622,7.3886405 10.9305231,5.09809298 L10.9257143,4.66285714 L10.9205987,4.46054635 C10.8153028,2.38329797 9.09770163,0.731428571 6.99428571,0.731428571 Z" id="Path"></path>
                <path d="M7.70605714,14.398704 C7.90875132,14.0492813 8.35633046,13.9303344 8.70575313,14.1330286 C9.0551758,14.3357227 9.17412275,14.7833019 8.97142857,15.1327246 C8.56251684,15.8376438 7.80922126,16.2715317 6.99428571,16.2715317 C6.17935016,16.2715317 5.42605458,15.8376438 5.01714286,15.1327246 C4.81444868,14.7833019 4.93339562,14.3357227 5.2828183,14.1330286 C5.60047527,13.9487611 5.99925329,14.0303128 6.22142026,14.3091897 L6.28251429,14.398704 C6.42972251,14.6524749 6.70090892,14.8086746 6.99428571,14.8086746 C7.25099041,14.8086746 7.49070559,14.6890842 7.64524139,14.4891799 L7.70605714,14.398704 Z" id="Path"></path>
            </g>
        </g>
    </g>
</svg>