<?xml version="1.0" encoding="UTF-8"?>
<svg width="8px" height="10px" viewBox="0 0 8 10" version="1.1" xmlns="http://www.w3.org/2000/svg" xmlns:xlink="http://www.w3.org/1999/xlink">
    <title>pause</title>
    <g id="Page-1" stroke="none" stroke-width="1" fill="none" fill-rule="evenodd">
        <g id="Artboard" transform="translate(-177.000000, -381.000000)" fill="#4B5461" fill-rule="nonzero">
            <g id="pause" transform="translate(178.000000, 382.000000)">
                <path d="M2,-0.6 L0,-0.6 C-0.33137085,-0.6 -0.6,-0.33137085 -0.6,0 L-0.6,8 C-0.6,8.33137085 -0.33137085,8.6 0,8.6 L2,8.6 C2.33137085,8.6 2.6,8.33137085 2.6,8 L2.6,0 C2.6,-0.33137085 2.33137085,-0.6 2,-0.6 Z M1.4,0.6 L1.4,7.4 L0.6,7.4 L0.6,0.6 L1.4,0.6 Z" id="Rectangle"></path>
                <path d="M6,-0.6 L4,-0.6 C3.66862915,-0.6 3.4,-0.33137085 3.4,0 L3.4,8 C3.4,8.33137085 3.66862915,8.6 4,8.6 L6,8.6 C6.33137085,8.6 6.6,8.33137085 6.6,8 L6.6,0 C6.6,-0.33137085 6.33137085,-0.6 6,-0.6 Z M5.4,0.6 L5.4,7.4 L4.6,7.4 L4.6,0.6 L5.4,0.6 Z" id="Rectangle"></path>
            </g>
        </g>
    </g>
</svg>