<?xml version="1.0" encoding="UTF-8"?>
<svg width="135px" height="100px" viewBox="0 0 135 100" version="1.1" xmlns="http://www.w3.org/2000/svg" xmlns:xlink="http://www.w3.org/1999/xlink">
    <title>undraw_Credit_card_3ed6</title>
    <g id="Profile" stroke="none" stroke-width="1" fill="none" fill-rule="evenodd">
        <g id="Billing-Details---Zero-State" transform="translate(-793.000000, -221.000000)" fill-rule="nonzero">
            <g id="Group-3" transform="translate(464.000000, 135.000000)">
                <g id="undraw_Credit_card_3ed6" transform="translate(329.000000, 86.000000)">
                    <rect id="Rectangle" fill-opacity="0.55" fill="#DAE0E9" transform="translate(60.263717, 46.676644) rotate(-17.261500) translate(-60.263717, -46.676644) " x="7.23445983" y="14.2893254" width="106.058515" height="64.7746376" rx="4.00291121"></rect>
                    <rect id="Rectangle" fill="#FFFFFF" transform="translate(60.471875, 46.117061) rotate(-17.261500) translate(-60.471875, -46.117061) " x="8.5245733" y="14.8760265" width="103.894603" height="62.4820684" rx="4.00291121"></rect>
                    <rect id="Rectangle" fill="#0295F6" transform="translate(54.974397, 28.424835) rotate(-17.261500) translate(-54.974397, -28.424835) " x="3.02709617" y="23.9445313" width="103.894603" height="8.96060699"></rect>
                    <rect id="Rectangle" fill="#ACB5C2" transform="translate(37.727491, 75.754843) rotate(-17.261500) translate(-37.727491, -75.754843) " x="24.52876" y="73.8174139" width="26.3974629" height="3.87485735"></rect>
                    <rect id="Rectangle" fill="#DAE0E9" transform="translate(45.038043, 66.636030) rotate(-17.261500) translate(-45.038043, -66.636030) " x="22.1521693" y="64.6986009" width="45.7717482" height="3.87485735"></rect>
                    <rect id="Rectangle" fill-opacity="0.55" fill="#DAE0E9" x="27.6503493" y="35.0561892" width="106.656453" height="64.8384352" rx="4.00291121"></rect>
                    <rect id="Rectangle" fill="#FFFFFF" x="28.8612416" y="35.7173057" width="103.894603" height="62.4820684" rx="4.00291121"></rect>
                    <rect id="Rectangle" fill="#DAE0E9" x="53.5681106" y="66.0495546" width="3.02723144" height="8.59733916"></rect>
                    <rect id="Rectangle" fill="#DAE0E9" x="57.442968" y="66.0495546" width="3.02723144" height="8.59733916"></rect>
                    <rect id="Rectangle" fill="#DAE0E9" x="61.3178253" y="66.0495546" width="3.02723144" height="8.59733916"></rect>
                    <rect id="Rectangle" fill="#DAE0E9" x="68.0988239" y="66.0495546" width="3.02723144" height="8.59733916"></rect>
                    <rect id="Rectangle" fill="#DAE0E9" x="71.9736812" y="66.0495546" width="3.02723144" height="8.59733916"></rect>
                    <rect id="Rectangle" fill="#DAE0E9" x="75.8485386" y="66.0495546" width="3.02723144" height="8.59733916"></rect>
                    <rect id="Rectangle" fill="#DAE0E9" x="82.6295386" y="66.0495546" width="3.02723144" height="8.59733916"></rect>
                    <rect id="Rectangle" fill="#DAE0E9" x="86.5043945" y="66.0495546" width="3.02723144" height="8.59733916"></rect>
                    <rect id="Rectangle" fill="#DAE0E9" x="90.3792518" y="66.0495546" width="3.02723144" height="8.59733916"></rect>
                    <rect id="Rectangle" fill="#DAE0E9" x="97.1602518" y="66.0495546" width="3.02723144" height="8.59733916"></rect>
                    <rect id="Rectangle" fill="#DAE0E9" x="101.035109" y="66.0495546" width="3.02723144" height="8.59733916"></rect>
                    <rect id="Rectangle" fill="#DAE0E9" x="104.909967" y="66.0495546" width="3.02723144" height="8.59733916"></rect>
                    <rect id="Rectangle" fill="#0295F6" x="35.4712853" y="52.0867569" width="18.0494905" height="9.89810771"></rect>
                    <rect id="Rectangle" fill="#0295F6" opacity="0.1" x="105.631402" y="84.5467278" width="11.062591" height="11.062591"></rect>
                    <rect id="Rectangle" fill="#0295F6" opacity="0.1" x="111.162697" y="84.5467278" width="11.062591" height="11.062591"></rect>
                </g>
            </g>
        </g>
    </g>
</svg>