<?xml version="1.0" encoding="UTF-8"?>
<svg width="16px" height="16px" viewBox="0 0 16 16" version="1.1" xmlns="http://www.w3.org/2000/svg" xmlns:xlink="http://www.w3.org/1999/xlink">
    <title>plus</title>
    <g id="Page-1" stroke="none" stroke-width="1" fill="none" fill-rule="evenodd">
        <g id="Artboard" transform="translate(-477.000000, -561.000000)" fill="#222222" fill-rule="nonzero">
            <g id="plus" transform="translate(478.000000, 562.000000)">
                <path d="M7,-0.75 C7.37969577,-0.75 7.69349096,-0.467846118 7.74315338,-0.101770557 L7.75,0 L7.75,14 C7.75,14.4142136 7.41421356,14.75 7,14.75 C6.62030423,14.75 6.30650904,14.4678461 6.25684662,14.1017706 L6.25,14 L6.25,0 C6.25,-0.414213562 6.58578644,-0.75 7,-0.75 Z" id="Path"></path>
                <path d="M14,6.25 C14.4142136,6.25 14.75,6.58578644 14.75,7 C14.75,7.37969577 14.4678461,7.69349096 14.1017706,7.74315338 L14,7.75 L0,7.75 C-0.414213562,7.75 -0.75,7.41421356 -0.75,7 C-0.75,6.62030423 -0.467846118,6.30650904 -0.101770557,6.25684662 L0,6.25 L14,6.25 Z" id="Path"></path>
            </g>
        </g>
    </g>
</svg>