<?xml version="1.0" encoding="UTF-8"?>
<svg width="14px" height="14px" viewBox="0 0 14 14" version="1.1" xmlns="http://www.w3.org/2000/svg" xmlns:xlink="http://www.w3.org/1999/xlink">
    <!-- Generator: Sketch 64 (93537) - https://sketch.com -->
    <title>Group Copy</title>
    <desc>Created with Sketch.</desc>
    <g id="Page-1" stroke="none" stroke-width="1" fill="none" fill-rule="evenodd">
        <g id="Artboard" transform="translate(-118.000000, -77.000000)" fill="#FFFFFF" fill-rule="nonzero">
            <g id="Group-Copy" transform="translate(119.000000, 78.000000)">
                <path d="M6,-0.75 C6.37969577,-0.75 6.69349096,-0.467846118 6.74315338,-0.101770557 L6.75,0 L6.75,12 C6.75,12.4142136 6.41421356,12.75 6,12.75 C5.62030423,12.75 5.30650904,12.4678461 5.25684662,12.1017706 L5.25,12 L5.25,0 C5.25,-0.414213562 5.58578644,-0.75 6,-0.75 Z" id="Path"></path>
                <path d="M12,5.25 C12.4142136,5.25 12.75,5.58578644 12.75,6 C12.75,6.37969577 12.4678461,6.69349096 12.1017706,6.74315338 L12,6.75 L0,6.75 C-0.414213562,6.75 -0.75,6.41421356 -0.75,6 C-0.75,5.62030423 -0.467846118,5.30650904 -0.101770557,5.25684662 L0,5.25 L12,5.25 Z" id="Path"></path>
            </g>
        </g>
    </g>
</svg>