<?xml version="1.0" encoding="UTF-8"?>
<svg width="18px" height="18px" viewBox="0 0 18 18" version="1.1" xmlns="http://www.w3.org/2000/svg" xmlns:xlink="http://www.w3.org/1999/xlink">
    <title>plus-circle-0295F6</title>
    <g id="Page-1" stroke="none" stroke-width="1" fill="none" fill-rule="evenodd">
        <g id="Artboard" transform="translate(-295.000000, -379.000000)" fill="#0295F6" fill-rule="nonzero">
            <g id="plus-circle-0295F6" transform="translate(295.000000, 379.000000)">
                <path d="M9,0.6 C4.3608081,0.6 0.6,4.3608081 0.6,9 C0.6,13.6391919 4.3608081,17.4 9,17.4 C13.6391919,17.4 17.4,13.6391919 17.4,9 C17.4,4.3608081 13.6391919,0.6 9,0.6 Z M9,1.4 C13.1973641,1.4 16.6,4.8026359 16.6,9 C16.6,13.1973641 13.1973641,16.6 9,16.6 C4.8026359,16.6 1.4,13.1973641 1.4,9 C1.4,4.8026359 4.8026359,1.4 9,1.4 Z" id="Oval"></path>
                <path d="M9,5.4 C9.19329966,5.4 9.35457492,5.5371128 9.39187342,5.71938605 L9.4,5.8 L9.4,12.2 C9.4,12.4209139 9.2209139,12.6 9,12.6 C8.80670034,12.6 8.64542508,12.4628872 8.60812658,12.280614 L8.6,12.2 L8.6,5.8 C8.6,5.5790861 8.7790861,5.4 9,5.4 Z" id="Path"></path>
                <path d="M12.2,8.6 C12.4209139,8.6 12.6,8.7790861 12.6,9 C12.6,9.19329966 12.4628872,9.35457492 12.280614,9.39187342 L12.2,9.4 L5.8,9.4 C5.5790861,9.4 5.4,9.2209139 5.4,9 C5.4,8.80670034 5.5371128,8.64542508 5.71938605,8.60812658 L5.8,8.6 L12.2,8.6 Z" id="Path"></path>
            </g>
        </g>
    </g>
</svg>