<?xml version="1.0" encoding="UTF-8"?>
<svg width="14px" height="14px" viewBox="0 0 14 14" version="1.1" xmlns="http://www.w3.org/2000/svg" xmlns:xlink="http://www.w3.org/1999/xlink">
    <title>Group 11</title>
    <g id="Page-1" stroke="none" stroke-width="1" fill="none" fill-rule="evenodd">
        <g id="Artboard" transform="translate(-274.000000, -583.000000)" fill="#ACB5C2" fill-rule="nonzero">
            <g id="Group-11" transform="translate(274.000000, 583.000000)">
                <path d="M7,0.4 C7.29823376,0.4 7.54564675,0.617589612 7.59214701,0.902676883 L7.6,1 L7.6,13 C7.6,13.3313708 7.33137085,13.6 7,13.6 C6.70176624,13.6 6.45435325,13.3824104 6.40785299,13.0973231 L6.4,13 L6.4,1 C6.4,0.66862915 6.66862915,0.4 7,0.4 Z" id="Path"></path>
                <path d="M13,6.4 C13.3313708,6.4 13.6,6.66862915 13.6,7 C13.6,7.29823376 13.3824104,7.54564675 13.0973231,7.59214701 L13,7.6 L1,7.6 C0.66862915,7.6 0.4,7.33137085 0.4,7 C0.4,6.70176624 0.617589612,6.45435325 0.902676883,6.40785299 L1,6.4 L13,6.4 Z" id="Path"></path>
            </g>
        </g>
    </g>
</svg>