<?xml version="1.0" encoding="UTF-8"?>
<svg width="18px" height="18px" viewBox="0 0 18 18" version="1.1" xmlns="http://www.w3.org/2000/svg" xmlns:xlink="http://www.w3.org/1999/xlink">
    <!-- Generator: Sketch 64 (93537) - https://sketch.com -->
    <title>plus-circle</title>
    <desc>Created with Sketch.</desc>
    <g id="Page-1" stroke="none" stroke-width="1" fill="none" fill-rule="evenodd">
        <g id="Artboard" transform="translate(-64.000000, -77.000000)" fill="#2193B0" fill-rule="nonzero">
            <g id="plus-circle" transform="translate(65.000000, 78.000000)">
                <path d="M8,-0.4 C3.3608081,-0.4 -0.4,3.3608081 -0.4,8 C-0.4,12.6391919 3.3608081,16.4 8,16.4 C12.6391919,16.4 16.4,12.6391919 16.4,8 C16.4,3.3608081 12.6391919,-0.4 8,-0.4 Z M8,0.4 C12.1973641,0.4 15.6,3.8026359 15.6,8 C15.6,12.1973641 12.1973641,15.6 8,15.6 C3.8026359,15.6 0.4,12.1973641 0.4,8 C0.4,3.8026359 3.8026359,0.4 8,0.4 Z" id="Oval"></path>
                <path d="M8,4.4 C8.19329966,4.4 8.35457492,4.5371128 8.39187342,4.71938605 L8.4,4.8 L8.4,11.2 C8.4,11.4209139 8.2209139,11.6 8,11.6 C7.80670034,11.6 7.64542508,11.4628872 7.60812658,11.280614 L7.6,11.2 L7.6,4.8 C7.6,4.5790861 7.7790861,4.4 8,4.4 Z" id="Path"></path>
                <path d="M11.2,7.6 C11.4209139,7.6 11.6,7.7790861 11.6,8 C11.6,8.19329966 11.4628872,8.35457492 11.280614,8.39187342 L11.2,8.4 L4.8,8.4 C4.5790861,8.4 4.4,8.2209139 4.4,8 C4.4,7.80670034 4.5371128,7.64542508 4.71938605,7.60812658 L4.8,7.6 L11.2,7.6 Z" id="Path"></path>
            </g>
        </g>
    </g>
</svg>