<?xml version="1.0" encoding="UTF-8"?>
<svg width="20px" height="21px" viewBox="0 0 20 21" version="1.1"
    xmlns="http://www.w3.org/2000/svg" 
    xmlns:xlink="http://www.w3.org/1999/xlink">
    <title>products-637082</title>
    <g id="Page-1" stroke="none" stroke-width="1" fill="none" fill-rule="evenodd">
        <g id="Artboard" transform="translate(-54.000000, -334.000000)" stroke="#637082" stroke-width="1.5">
            <g id="products-selected" transform="translate(55.000000, 335.000000)">
                <line x1="13.3571429" y1="7.04761905" x2="4.78571429" y2="2.1047619" id="Path"></line>
                <path d="M17.6428571,13.3333333 L17.6428571,5.71428571 C17.6421599,5.03447773 17.2792077,4.40657048 16.6904762,4.06666667 L10.0238095,0.257142857 C9.43447414,-0.0831100856 8.708383,-0.0831100856 8.11904762,0.257142857 L1.45238095,4.06666667 C0.863649448,4.40657048 0.500697285,5.03447773 0.5,5.71428571 L0.5,13.3333333 C0.500697285,14.0131413 0.863649448,14.6410486 1.45238095,14.9809524 L8.11904762,18.7904762 C8.708383,19.1307291 9.43447414,19.1307291 10.0238095,18.7904762 L16.6904762,14.9809524 C17.2792077,14.6410486 17.6421599,14.0131413 17.6428571,13.3333333 Z" id="Path"></path>
                <polyline id="Path" points="0.757142857 4.72380952 9.07142857 9.53333333 17.3857143 4.72380952"></polyline>
                <line x1="9.07142857" y1="19.1238095" x2="9.07142857" y2="9.52380952" id="Path"></line>
            </g>
        </g>
    </g>
</svg>