<?xml version="1.0" encoding="UTF-8"?>
<svg width="18px" height="18px" viewBox="0 0 18 18" version="1.1" xmlns="http://www.w3.org/2000/svg" xmlns:xlink="http://www.w3.org/1999/xlink">
    <title>Group 6 Copy</title>
    <g id="Page-1" stroke="none" stroke-width="1" fill="none" fill-rule="evenodd">
        <g id="Artboard" transform="translate(-68.000000, -74.000000)" fill="#ACB5C2" fill-rule="nonzero">
            <g id="Group-6-Copy" transform="translate(69.000000, 75.000000)">
                <path d="M8,-0.65 C3.22273691,-0.65 -0.65,3.22273691 -0.65,8 C-0.65,12.7772631 3.22273691,16.65 8,16.65 C12.7772631,16.65 16.65,12.7772631 16.65,8 C16.65,3.22273691 12.7772631,-0.65 8,-0.65 Z M8,0.65 C12.0592929,0.65 15.35,3.94070709 15.35,8 C15.35,12.0592929 12.0592929,15.35 8,15.35 C3.94070709,15.35 0.65,12.0592929 0.65,8 C0.65,3.94070709 3.94070709,0.65 8,0.65 Z" id="Oval"></path>
                <path d="M8.25634766,9.63183594 L8.25634766,9.33886719 C8.25634766,9.14355469 8.29785156,8.98567708 8.38085938,8.86523438 C8.46386719,8.74479167 8.66162109,8.56901042 8.97412109,8.33789062 C9.42985026,8.01236979 9.73909505,7.71940104 9.90185547,7.45898438 C10.0646159,7.19856771 10.1459961,6.88932292 10.1459961,6.53125 C10.1459961,5.99414062 9.94824219,5.56445312 9.55273438,5.2421875 C9.15722656,4.91992188 8.6241862,4.75878906 7.95361328,4.75878906 C7.1398112,4.75878906 6.36995443,4.96223958 5.64404297,5.36914062 L5.64404297,5.36914062 L6.17626953,6.43847656 C6.80126953,6.11946615 7.35791016,5.95996094 7.84619141,5.95996094 C8.12613932,5.95996094 8.34423828,6.01529948 8.50048828,6.12597656 C8.65673828,6.23665365 8.73486328,6.39778646 8.73486328,6.609375 C8.73486328,6.79817708 8.68033854,6.96907552 8.57128906,7.12207031 C8.46223958,7.2750651 8.23681641,7.47363281 7.89501953,7.71777344 C7.54020182,7.9781901 7.2960612,8.22395833 7.16259766,8.45507812 C7.02913411,8.68619792 6.96240234,8.95800781 6.96240234,9.27050781 L6.96240234,9.27050781 L6.96240234,9.63183594 L8.25634766,9.63183594 Z M7.66552734,12.1318359 C7.93245443,12.1318359 8.14078776,12.0577799 8.29052734,11.909668 C8.44026693,11.761556 8.51513672,11.5589193 8.51513672,11.3017578 C8.51513672,11.0348307 8.44108073,10.8297526 8.29296875,10.6865234 C8.14485677,10.5432943 7.93570964,10.4716797 7.66552734,10.4716797 C7.38557943,10.4716797 7.17236328,10.5416667 7.02587891,10.6816406 C6.87939453,10.8216146 6.80615234,11.0283203 6.80615234,11.3017578 C6.80615234,11.5654297 6.88102214,11.769694 7.03076172,11.9145508 C7.1805013,12.0594076 7.39208984,12.1318359 7.66552734,12.1318359 Z" id="?"></path>
            </g>
        </g>
    </g>
</svg>