<?xml version="1.0" encoding="UTF-8"?>
<svg width="18px" height="18px" viewBox="0 0 18 18" version="1.1" xmlns="http://www.w3.org/2000/svg" xmlns:xlink="http://www.w3.org/1999/xlink">
    <title>Group 6</title>
    <g id="Page-1" stroke="none" stroke-width="1" fill="none" fill-rule="evenodd">
        <g id="Artboard" transform="translate(-93.000000, -118.000000)" fill="#222222" fill-rule="nonzero">
            <g id="Group-6" transform="translate(93.000000, 118.000000)">
                <path d="M9,0.35 C4.22273691,0.35 0.35,4.22273691 0.35,9 C0.35,13.7772631 4.22273691,17.65 9,17.65 C13.7772631,17.65 17.65,13.7772631 17.65,9 C17.65,4.22273691 13.7772631,0.35 9,0.35 Z M9,1.65 C13.0592929,1.65 16.35,4.94070709 16.35,9 C16.35,13.0592929 13.0592929,16.35 9,16.35 C4.94070709,16.35 1.65,13.0592929 1.65,9 C1.65,4.94070709 4.94070709,1.65 9,1.65 Z" id="Oval"></path>
                <path d="M9.25634766,10.6318359 L9.25634766,10.3388672 C9.25634766,10.1435547 9.29785156,9.98567708 9.38085938,9.86523438 C9.46386719,9.74479167 9.66162109,9.56901042 9.97412109,9.33789062 C10.4298503,9.01236979 10.7390951,8.71940104 10.9018555,8.45898438 C11.0646159,8.19856771 11.1459961,7.88932292 11.1459961,7.53125 C11.1459961,6.99414062 10.9482422,6.56445312 10.5527344,6.2421875 C10.1572266,5.91992188 9.6241862,5.75878906 8.95361328,5.75878906 C8.1398112,5.75878906 7.36995443,5.96223958 6.64404297,6.36914062 L6.64404297,6.36914062 L7.17626953,7.43847656 C7.80126953,7.11946615 8.35791016,6.95996094 8.84619141,6.95996094 C9.12613932,6.95996094 9.34423828,7.01529948 9.50048828,7.12597656 C9.65673828,7.23665365 9.73486328,7.39778646 9.73486328,7.609375 C9.73486328,7.79817708 9.68033854,7.96907552 9.57128906,8.12207031 C9.46223958,8.2750651 9.23681641,8.47363281 8.89501953,8.71777344 C8.54020182,8.9781901 8.2960612,9.22395833 8.16259766,9.45507812 C8.02913411,9.68619792 7.96240234,9.95800781 7.96240234,10.2705078 L7.96240234,10.2705078 L7.96240234,10.6318359 L9.25634766,10.6318359 Z M8.66552734,13.1318359 C8.93245443,13.1318359 9.14078776,13.0577799 9.29052734,12.909668 C9.44026693,12.761556 9.51513672,12.5589193 9.51513672,12.3017578 C9.51513672,12.0348307 9.44108073,11.8297526 9.29296875,11.6865234 C9.14485677,11.5432943 8.93570964,11.4716797 8.66552734,11.4716797 C8.38557943,11.4716797 8.17236328,11.5416667 8.02587891,11.6816406 C7.87939453,11.8216146 7.80615234,12.0283203 7.80615234,12.3017578 C7.80615234,12.5654297 7.88102214,12.769694 8.03076172,12.9145508 C8.1805013,13.0594076 8.39208984,13.1318359 8.66552734,13.1318359 Z" id="?"></path>
            </g>
        </g>
    </g>
</svg>