<?xml version="1.0" encoding="UTF-8"?>
<svg width="13px" height="14px" viewBox="0 0 13 14" version="1.1" xmlns="http://www.w3.org/2000/svg" xmlns:xlink="http://www.w3.org/1999/xlink">
    <title>zap</title>
    <g id="Page-1" stroke="none" stroke-width="1" fill="none" fill-rule="evenodd">
        <g id="Artboard" transform="translate(-554.000000, -530.000000)" fill="#FFFFFF" fill-rule="nonzero">
            <g id="zap" transform="translate(555.000000, 531.000000)">
                <path d="M-0.368746214,6.89271149 L-0.417292414,6.96195291 C-0.596575633,7.27073409 -0.377893352,7.68 5.55111512e-17,7.68 L4.856,7.679 L4.32370662,11.9404633 C4.26425657,12.4160637 4.86190481,12.6754982 5.16874621,12.3072885 L11.1687462,5.10728851 L11.2172924,5.03804709 C11.3965756,4.72926591 11.1778934,4.32 10.8,4.32 L5.943,4.32 L6.47629338,0.0595366726 C6.53574343,-0.416063701 5.93809519,-0.6754982 5.63125379,-0.307288512 L-0.368746214,6.89271149 Z M5.32,1.565 L4.92370662,4.74046333 L4.9205453,4.82518731 C4.93322587,5.0750318 5.14015287,5.28 5.4,5.28 L9.774,5.28 L5.479,10.434 L5.87629338,7.25953667 L5.8794547,7.17481269 C5.86677413,6.9249682 5.65984713,6.72 5.4,6.72 L1.024,6.72 L5.32,1.565 Z" id="Path"></path>
            </g>
        </g>
    </g>
</svg>