<?xml version="1.0" encoding="UTF-8"?>
<svg width="178px" height="150px" viewBox="0 0 178 150" version="1.1" xmlns="http://www.w3.org/2000/svg" xmlns:xlink="http://www.w3.org/1999/xlink">
    <title>Group 4</title>
    <g id="Rule-Builder" stroke="none" stroke-width="1" fill="none" fill-rule="evenodd">
        <g id="Quick-Creation---Zero-State" transform="translate(-709.000000, -154.000000)" fill-rule="nonzero">
            <g id="Group-4" transform="translate(709.000000, 154.000000)">
                <g id="Group-2" transform="translate(124.731348, 52.755563) rotate(12.000000) translate(-124.731348, -52.755563) translate(80.231348, 9.255563)" fill="#DAE0E9">
                    <path d="M44.2745902,15.192623 C55.6861028,15.192623 65.9738874,22.0669713 70.3405013,32.6099929 C74.7071152,43.1530145 72.2925696,55.2882997 64.2228255,63.3568715 C56.1530814,71.4254433 44.0174456,73.838226 33.4750585,69.4700805 C22.9326713,65.101935 16.0598177,54.8131519 16.0614751,43.4016393 C16.0637386,27.8215669 28.6945175,15.192623 44.2745902,15.192623 M44.2745902,8.22540984 C30.0451028,8.22540984 17.2168195,16.7972651 11.7718134,29.9437559 C6.32680728,43.0902466 9.33743805,58.2222543 19.3997911,68.2834351 C29.4621442,78.344616 44.5945026,81.3534838 57.7403588,75.9069461 C70.8862151,70.4604085 79.4565757,57.6311266 79.454918,43.4016393 C79.4323294,23.9821086 63.6941234,8.24573603 44.2745902,8.22540984 Z" id="Shape"></path>
                    <rect id="Rectangle" x="39.0655738" y="5.9697238e-14" width="8.24590164" height="8.68032787"></rect>
                    <rect id="Rectangle" transform="translate(63.320670, 9.357917) rotate(31.000000) translate(-63.320670, -9.357917) " x="59.197719" y="5.01775266" width="8.24590164" height="8.68032787"></rect>
                    <rect id="Rectangle" transform="translate(77.789697, 23.439940) rotate(61.000000) translate(-77.789697, -23.439940) " x="73.6667458" y="19.0997757" width="8.24590164" height="8.68032787"></rect>
                    <rect id="Rectangle" transform="translate(77.979572, 63.040027) rotate(122.000000) translate(-77.979572, -63.040027) " x="73.8566211" y="58.6998633" width="8.24590164" height="8.68032787"></rect>
                    <rect id="Rectangle" transform="translate(10.761309, 23.443560) rotate(119.000000) translate(-10.761309, -23.443560) " x="6.63835823" y="19.1033964" width="8.24590164" height="8.68032787"></rect>
                    <rect id="Rectangle" transform="translate(10.570472, 63.039055) rotate(58.000000) translate(-10.570472, -63.039055) " x="6.44752121" y="58.6988912" width="8.24590164" height="8.68032787"></rect>
                    <rect id="Rectangle" transform="translate(25.229448, 9.358631) rotate(149.000000) translate(-25.229448, -9.358631) " x="21.1064976" y="5.01846682" width="8.24590164" height="8.68032787"></rect>
                    <rect id="Rectangle" x="39.0655738" y="78.1270492" width="8.24590164" height="8.68032787"></rect>
                    <rect id="Rectangle" transform="translate(63.319078, 77.446109) rotate(-31.000000) translate(-63.319078, -77.446109) " x="59.1961272" y="73.1059451" width="8.24590164" height="8.68032787"></rect>
                    <rect id="Rectangle" transform="translate(25.227857, 77.443901) rotate(-149.000000) translate(-25.227857, -77.443901) " x="21.1049057" y="73.1037371" width="8.24590164" height="8.68032787"></rect>
                    <rect id="Rectangle" x="-2.03844227e-14" y="39.9303279" width="9.98360656" height="7.37704918"></rect>
                    <rect id="Rectangle" transform="translate(83.557377, 43.618852) rotate(-180.000000) translate(-83.557377, -43.618852) " x="78.5655738" y="39.9303279" width="9.98360656" height="7.37704918"></rect>
                </g>
                <g id="Group" transform="translate(56.094384, 89.902575) rotate(-17.000000) translate(-56.094384, -89.902575) translate(11.094384, 45.902575)" fill="#DAE0E9">
                    <path d="M44.649732,15.6098724 C44.9816992,15.6098724 45.3136664,15.6098724 45.6456336,15.6098724 C61.0303746,16.134562 73.1547039,28.8947108 72.8930357,44.2861721 C72.6313674,59.6776334 60.0803026,72.018279 44.6866173,72.0197085 C44.35465,72.0197085 44.0226828,72.0197085 43.6866173,72.0197085 C28.3010803,71.4949904 16.1764528,58.7335987 16.4392526,43.34136 C16.7020523,27.9491213 29.2552501,15.6090671 44.649732,15.6098724 M44.649732,8.6426593 L44.649732,8.6426593 C25.4533883,8.64028896 9.79900319,24.0269127 9.4702205,43.2204408 C9.14143781,62.4139689 24.2596514,78.3277233 43.444814,78.9828232 C43.85465,78.9828232 44.2644861,79.003315 44.6743222,79.003315 C63.8698655,79.003315 79.5221115,63.6162312 79.8497625,44.4234844 C80.1774136,25.2307376 65.0595042,9.31822802 45.8751418,8.66315111 C45.4653058,8.66315111 45.0554697,8.6426593 44.6456336,8.6426593 L44.649732,8.6426593 Z" id="Shape"></path>
                    <rect id="Rectangle" transform="translate(44.932635, 4.750000) rotate(1.990000) translate(-44.932635, -4.750000) " x="40.8096846" y="0.409836066" width="8.24590164" height="8.68032787"></rect>
                    <rect id="Rectangle" transform="translate(64.872431, 10.464344) rotate(32.990000) translate(-64.872431, -10.464344) " x="60.7494798" y="6.12418029" width="8.24590164" height="8.68032787"></rect>
                    <rect id="Rectangle" transform="translate(78.847074, 25.038506) rotate(62.990000) translate(-78.847074, -25.038506) " x="74.7241236" y="20.698342" width="8.24590164" height="8.68032787"></rect>
                    <rect id="Rectangle" transform="translate(77.670590, 64.607776) rotate(123.990000) translate(-77.670590, -64.607776) " x="73.5476395" y="60.2676119" width="8.24590164" height="8.68032787"></rect>
                    <rect id="Rectangle" transform="translate(11.862611, 22.705364) rotate(120.990000) translate(-11.862611, -22.705364) " x="7.73965976" y="18.3651996" width="8.24590164" height="8.68032787"></rect>
                    <rect id="Rectangle" transform="translate(10.523216, 62.934954) rotate(60.113473) translate(-10.523216, -62.934954) " x="6.38606506" y="58.5798426" width="8.2743011" height="8.71022352"></rect>
                    <rect id="Rectangle" transform="translate(26.818075, 9.131326) rotate(150.990000) translate(-26.818075, -9.131326) " x="22.6951244" y="4.79116199" width="8.24590164" height="8.68032787"></rect>
                    <rect id="Rectangle" transform="translate(42.223010, 82.826054) rotate(1.990000) translate(-42.223010, -82.826054) " x="38.100059" y="78.4858899" width="8.24590164" height="8.68032787"></rect>
                    <rect id="Rectangle" transform="translate(62.519999, 78.512146) rotate(-29.010000) translate(-62.519999, -78.512146) " x="58.3970481" y="74.1719825" width="8.24590164" height="8.68032787"></rect>
                    <rect id="Rectangle" transform="translate(24.459510, 77.180693) rotate(-147.010000) translate(-24.459510, -77.180693) " x="20.3365595" y="72.840529" width="8.24590164" height="8.68032787"></rect>
                    <rect id="Rectangle" transform="translate(5.401639, 42.678116) rotate(1.990000) translate(-5.401639, -42.678116) " x="0.409836066" y="38.9895915" width="9.98360656" height="7.37704918"></rect>
                    <rect id="Rectangle" transform="translate(83.920963, 45.394796) rotate(-178.010000) translate(-83.920963, -45.394796) " x="78.9291595" y="41.7062718" width="9.98360656" height="7.37704918"></rect>
                </g>
                <g id="flash" transform="translate(39.551371, 0.000000)">
                    <polygon id="Path" fill="#FFD691" points="7.93496885 150 42.363771 64.0718563 0 53.2786885 32.4625913 0 98.7704918 0 46.1706246 45.15 98.7704918 59.8802395"></polygon>
                    <polygon id="Path" fill="#FFA815" points="7.78688525 150 58.1115794 60.0038922 18.830874 47.9041916 52.4896605 0 98.7704918 0 55.4949092 44.011976 98.7704918 59.8802395"></polygon>
                </g>
            </g>
        </g>
    </g>
</svg>