<?xml version="1.0" encoding="UTF-8"?>
<svg width="20px" height="22px" viewBox="0 0 20 22" version="1.1" xmlns="http://www.w3.org/2000/svg" xmlns:xlink="http://www.w3.org/1999/xlink">
    <title>zap</title>
    <g id="Page-1" stroke="none" stroke-width="1" fill="none" fill-rule="evenodd">
        <g id="Artboard" transform="translate(-622.000000, -563.000000)" fill="#222222" fill-rule="nonzero">
            <g id="zap" transform="translate(623.000000, 564.000000)">
                <path d="M-0.614577024,11.4878525 L-0.676522598,11.5722146 C-1.00893988,12.0899949 -0.642571691,12.8 0,12.8 L8.094,12.8 L7.2061777,19.9007722 C7.10709429,20.6934395 8.10317468,21.1258303 8.61457702,20.5121475 L18.614577,8.51214752 L18.6765226,8.42778538 C19.0089399,7.91000515 18.6425717,7.2 18,7.2 L9.905,7.2 L10.7938223,0.0992277877 C10.8929057,-0.693439502 9.89682532,-1.12583033 9.38542298,-0.51214752 L-0.614577024,11.4878525 Z M8.868,2.608 L8.2061777,7.90077221 L8.1998824,8.00210339 C8.20023497,8.43635229 8.55317292,8.8 9,8.8 L16.291,8.8 L9.131,17.391 L9.7938223,12.0992278 L9.8001176,11.9978966 C9.79976503,11.5636477 9.44682708,11.2 9,11.2 L1.707,11.2 L8.868,2.608 Z" id="Path"></path>
            </g>
        </g>
    </g>
</svg>