<?xml version="1.0" encoding="UTF-8"?>
<svg width="13px" height="16px" viewBox="0 0 13 16" version="1.1" xmlns="http://www.w3.org/2000/svg" xmlns:xlink="http://www.w3.org/1999/xlink">
    <title>Shape 2</title>
    <g id="Page-1" stroke="none" stroke-width="1" fill="none" fill-rule="evenodd">
        <g id="Artboard-Copy" transform="translate(-558.000000, -120.000000)" fill="#FFB400" fill-rule="nonzero" stroke="#FFFFFF" stroke-width="0.2">
            <g id="Shape-2" transform="translate(559.000000, 121.000000)">
                <path d="M4.1065939,10.6665075 L4.81264676,10.6665075 L4.81264676,7.33301501 L6.18762799,7.33301501 L6.18762799,10.6665075 L6.89368086,10.6665075 C6.98442962,9.86513591 7.40586137,9.203771 8.08991453,8.48173653 C8.16760097,8.40039931 8.66190672,7.90370893 8.72034342,7.83303889 C10.0702988,6.19753501 9.89041126,3.82903338 8.30793079,2.40297997 C6.72545033,0.976926565 4.27646738,0.976419646 2.6933593,2.4018178 C1.11025122,3.82721596 0.929321055,6.1956429 2.27855635,7.83170549 C2.33768054,7.90304223 2.83336128,8.40039931 2.90967274,8.48106983 C3.59441339,9.203771 4.01584514,9.86513591 4.1065939,10.6665075 L4.1065939,10.6665075 Z M4.12515615,11.9999045 L4.12515615,12.666603 L6.87511861,12.666603 L6.87511861,11.9999045 L4.12515615,11.9999045 Z M1.20607099,8.66641201 C-0.594073138,6.48531394 -0.353683105,3.32672591 1.75714999,1.425548 C3.86798309,-0.475629921 7.13393593,-0.475122766 9.24414106,1.42671062 C11.3543462,3.328544 11.5936931,6.48720652 9.79282879,8.66774541 C9.3665846,9.18243665 8.25009984,9.99980901 8.25009984,10.9998568 L8.25009984,12.666603 C8.25009984,13.4030178 7.63449978,14 6.87511861,14 L4.12515615,14 C3.36577498,14 2.75017491,13.4030178 2.75017491,12.666603 L2.75017491,10.9998568 C2.75017491,9.99980901 1.63300266,9.18243665 1.20607099,8.66641201 Z" id="Shape"></path>
            </g>
        </g>
    </g>
</svg>