<?xml version="1.0" encoding="UTF-8"?>
<svg width="11px" height="11px" viewBox="0 0 11 11" version="1.1" xmlns="http://www.w3.org/2000/svg" xmlns:xlink="http://www.w3.org/1999/xlink">
    <title>history-line</title>
    <g id="Page-1" stroke="none" stroke-width="1" fill="none" fill-rule="evenodd">
        <g id="Artboard" transform="translate(-412.000000, -151.000000)" fill="#222222" fill-rule="nonzero">
            <g id="history-line" transform="translate(412.000000, 151.000000)">
                <path d="M5.5,0 C8.53765,0 11,2.46235 11,5.5 C11,8.53765 8.53765,11 5.5,11 C2.46235,11 0,8.53765 0,5.5 L1.1,5.5 C1.1,7.9299 3.0701,9.9 5.5,9.9 C7.9299,9.9 9.9,7.9299 9.9,5.5 C9.9,3.0701 7.9299,1.1 5.5,1.1 C3.9875,1.1 2.6532,1.86285 1.86175,3.025 L3.3,3.025 L3.3,4.125 L0,4.125 L0,0.825 L1.1,0.825 L1.1,2.2 C2.1032,0.8635 3.70095,0 5.5,0 Z" id="Shape"></path>
            </g>
        </g>
    </g>
</svg>