<?xml version="1.0" encoding="UTF-8"?>
<svg width="22px" height="22px" viewBox="0 0 22 22" version="1.1" xmlns="http://www.w3.org/2000/svg" xmlns:xlink="http://www.w3.org/1999/xlink">
    <title>download (1) copy 2</title>
    <g id="Page-1" stroke="none" stroke-width="1" fill="none" fill-rule="evenodd">
        <g id="Artboard" transform="translate(-330.000000, -378.000000)" fill="#0295F6" fill-rule="nonzero">
            <g id="download-(1)-copy-2" transform="translate(331.000000, 379.000000)">
                <path d="M20,12.5833333 C20.3796958,12.5833333 20.693491,12.8654872 20.7431534,13.2315628 L20.75,13.3333333 L20.75,17.7777778 C20.75,19.3606653 19.5126441,20.6545529 17.9524184,20.7449545 L17.7777778,20.75 L2.22222222,20.75 C0.63933468,20.75 -0.654552908,19.5126441 -0.744954461,17.9524184 L-0.75,17.7777778 L-0.75,13.3333333 C-0.75,12.9191198 -0.414213562,12.5833333 0,12.5833333 C0.379695766,12.5833333 0.693490961,12.8654872 0.743153384,13.2315628 L0.75,13.3333333 L0.75,17.7777778 C0.75,18.5430351 1.33387164,19.1719219 2.0804374,19.2432606 L2.22222222,19.25 L17.7777778,19.25 C18.5430351,19.25 19.1719219,18.6661284 19.2432606,17.9195626 L19.25,17.7777778 L19.25,13.3333333 C19.25,12.9191198 19.5857864,12.5833333 20,12.5833333 Z" id="Path"></path>
                <path d="M3.91411436,7.24744769 C4.18038092,6.98118113 4.5970446,6.95697508 4.8906561,7.17482954 L4.97477453,7.24744769 L10,12.273 L15.0252255,7.24744769 C15.291492,6.98118113 15.7081557,6.95697508 16.0017672,7.17482954 L16.0858856,7.24744769 C16.3521522,7.51371425 16.3763583,7.93037794 16.1585038,8.22398943 L16.0858856,8.30810786 L10.5303301,13.8636634 C10.2640635,14.12993 9.84739984,14.154136 9.55378835,13.9362816 L9.46966991,13.8636634 L3.91411436,8.30810786 C3.62122114,8.01521464 3.62122114,7.54034091 3.91411436,7.24744769 Z" id="Path"></path>
                <path d="M10,-0.75 C10.3796958,-0.75 10.693491,-0.467846118 10.7431534,-0.101770557 L10.75,0 L10.75,13.3333333 C10.75,13.7475469 10.4142136,14.0833333 10,14.0833333 C9.62030423,14.0833333 9.30650904,13.8011795 9.25684662,13.4351039 L9.25,13.3333333 L9.25,0 C9.25,-0.414213562 9.58578644,-0.75 10,-0.75 Z" id="Path"></path>
            </g>
        </g>
    </g>
</svg>