<?xml version="1.0" encoding="UTF-8"?>
<svg width="11px" height="13px" viewBox="0 0 11 13" version="1.1" xmlns="http://www.w3.org/2000/svg" xmlns:xlink="http://www.w3.org/1999/xlink">
    <title>file</title>
    <g id="Page-1" stroke="none" stroke-width="1" fill="none" fill-rule="evenodd">
        <g id="Artboard" transform="translate(-219.000000, -516.000000)" fill="#222222" fill-rule="nonzero">
            <g id="file" transform="translate(220.000000, 517.000000)">
                <path d="M4.95,-0.66 L1.1,-0.66 C0.12797884,-0.66 -0.66,0.12797884 -0.66,1.1 L-0.66,9.9 C-0.66,10.8720212 0.12797884,11.66 1.1,11.66 L7.7,11.66 C8.67202116,11.66 9.46,10.8720212 9.46,9.9 L9.46,3.85 C9.46,3.67495712 9.39046449,3.50708353 9.26669048,3.38330952 L5.41669048,-0.466690476 C5.29291647,-0.590464485 5.12504288,-0.66 4.95,-0.66 Z M4.677,0.66 L8.139,4.122 L8.14,9.9 C8.14,10.1430053 7.94300529,10.34 7.7,10.34 L1.1,10.34 C0.85699471,10.34 0.66,10.1430053 0.66,9.9 L0.66,1.1 C0.66,0.85699471 0.85699471,0.66 1.1,0.66 L4.677,0.66 Z" id="Path"></path>
                <path d="M4.95,-0.66 C5.28137085,-0.66 5.55570379,-0.415791682 5.60284391,-0.0975299628 L5.61,0 L5.609,3.19 L8.8,3.19 C9.13137085,3.19 9.40570379,3.43420832 9.45284391,3.75247004 L9.46,3.85 C9.46,4.18137085 9.21579168,4.45570379 8.89752996,4.50284391 L8.8,4.51 L4.95,4.51 C4.61862915,4.51 4.34429621,4.26579168 4.29715609,3.94752996 L4.29,3.85 L4.29,0 C4.29,-0.364507935 4.58549207,-0.66 4.95,-0.66 Z" id="Path"></path>
            </g>
        </g>
    </g>
</svg>