<?xml version="1.0" encoding="UTF-8"?>
<svg width="19px" height="24px" viewBox="0 0 19 24" version="1.1" xmlns="http://www.w3.org/2000/svg" xmlns:xlink="http://www.w3.org/1999/xlink">
    <!-- Generator: Sketch 64 (93537) - https://sketch.com -->
    <title>Shape 2</title>
    <desc>Created with Sketch.</desc>
    <g id="Common-UI-Elements" stroke="none" stroke-width="1" fill="none" fill-rule="evenodd">
        <g id="Navbar---Expand" transform="translate(-17.000000, -366.000000)" fill="#4B5461" fill-rule="nonzero" stroke="#222222" stroke-width="0.628571429">
            <g id="Group-3" transform="translate(18.000000, 367.000000)">
                <g id="Shape-2">
                    <path d="M6.25775231,16.7608544 L10.5047999,16.7608544 C10.6430856,15.5016163 11.2852761,14.4623782 12.3276571,13.3278067 C12.446038,13.1999972 13.1992761,12.419521 13.2883237,12.3084734 C15.3454267,9.73851859 15.0713086,6.01676517 12.6598769,3.77593109 C10.2484451,1.53509702 6.51661066,1.53430047 4.10422257,3.77410491 C1.69183447,6.01390936 1.4161276,9.73554542 3.47213326,12.3063782 C3.5622285,12.4184734 4.31756183,13.1999972 4.43384754,13.3267591 C5.47727612,14.4623782 6.11946659,15.5016163 6.25775231,16.7608544 L6.25775231,16.7608544 Z M10.4765142,18.8560924 L6.28603802,18.8560924 L6.28603802,19.9037115 L10.4765142,19.9037115 L10.4765142,18.8560924 Z M1.83784754,13.6179972 C-0.905266662,10.190721 -0.53895304,5.22746255 2.67759844,2.24003989 C5.89414992,-0.747382761 10.8709079,-0.746585842 14.0865025,2.24186678 C17.302097,5.2303194 17.6668211,10.1936949 14.9226094,13.6200924 C14.2730856,14.4288544 12.5717523,15.7132353 12.5717523,17.2846639 L12.5717523,19.9037115 C12.5717523,21.0608795 11.6336823,21.9989496 10.4765142,21.9989496 L6.28603802,21.9989496 C5.12886997,21.9989496 4.19079993,21.0608795 4.19079993,19.9037115 L4.19079993,17.2846639 C4.19079993,15.7132353 2.48841897,14.4288544 1.83784754,13.6179972 Z M9.42889516,8.38409245 L12.0479428,8.38409245 L7.33365707,14.6698067 L7.33365707,10.4793305 L4.71460945,10.4793305 L9.42889516,4.18942578 L9.42889516,8.38514007 L9.42889516,8.38409245 Z" id="Shape"></path>
                </g>
            </g>
        </g>
    </g>
</svg>