<?xml version="1.0" encoding="UTF-8"?>
<svg width="22px" height="22px" viewBox="0 0 22 22" version="1.1" xmlns="http://www.w3.org/2000/svg" xmlns:xlink="http://www.w3.org/1999/xlink">
    <title>inquiry</title>
    <g id="Page-1" stroke="none" stroke-width="1" fill="none" fill-rule="evenodd">
        <g id="Artboard" transform="translate(-771.000000, -229.000000)" fill="#0295F6" fill-rule="nonzero">
            <g id="inquiry" transform="translate(771.000000, 229.000000)">
                <polygon id="Path" points="12.3058104 3.81451508 17.5321878 3.81451508 17.5321878 5.12110942 12.3058104 5.12110942"></polygon>
                <polygon id="Path" points="12.3058104 6.42770376 17.5321878 6.42770376 17.5321878 7.7342981 12.3058104 7.7342981"></polygon>
                <polygon id="Path" points="12.3058104 9.04089244 15.5722962 9.04089244 15.5722962 10.3474868 12.3058104 10.3474868"></polygon>
                <path d="M14.8136876,0 C12.8941698,0 11.0895453,0.747502623 9.73225506,2.10483638 C7.35150951,4.48549482 7.04380654,8.027193 8.53689545,10.6913824 L6.49860828,12.7297131 L5.57467187,11.8057767 L0.95520757,16.4253281 C-0.318373488,17.6989092 -0.318373488,19.7712114 0.95520757,21.0447924 C2.22874508,22.3183299 4.30104726,22.3183735 5.57467187,21.0447924 L10.1941797,16.4253281 L9.2702433,15.5013917 L11.308574,13.4631045 C12.3676559,14.0566468 13.5663255,14.3725813 14.8136876,14.3725813 C18.7851682,14.3725813 22,11.158577 22,7.18631243 C22,3.21474472 18.7859521,0 14.8136876,0 Z M8.34643755,16.4253281 L4.65077901,20.1209431 C3.88659553,20.8851266 2.64315325,20.8850395 1.87905688,20.1209431 C1.11491695,19.3567596 1.11491695,18.1134045 1.87905688,17.349221 L5.57462831,13.653606 C6.31659969,14.3955774 7.91199493,15.9909291 8.34643755,16.4253281 Z M10.2150417,12.7088512 L8.346394,14.5774989 L7.42250114,13.653606 L9.29114881,11.7849583 C9.57894799,12.1282442 9.87136381,12.4207471 10.2150417,12.7088512 Z M18.9712708,11.3438521 C17.8607527,12.4543702 16.3842575,13.065987 14.8136876,13.065987 C11.5653198,13.065987 8.93401303,10.4345931 8.93401303,7.18631243 C8.93401303,5.61574248 9.54562984,4.13924732 10.6561479,3.02872924 C12.9539683,0.730908875 16.6731891,0.730647556 18.9712708,3.02872924 C21.2690911,5.3265496 21.2693089,9.0457704 18.9712708,11.3438521 L18.9712708,11.3438521 Z" id="Shape"></path>
            </g>
        </g>
    </g>
</svg>