<?xml version="1.0" encoding="UTF-8"?>
<svg width="23px" height="23px" viewBox="0 0 23 23" version="1.1" xmlns="http://www.w3.org/2000/svg" xmlns:xlink="http://www.w3.org/1999/xlink">
    <title>automation</title>
    <g id="Page-1" stroke="none" stroke-width="1" fill="none" fill-rule="evenodd">
        <g id="Artboard" transform="translate(-461.000000, -376.000000)" fill="#637082" fill-rule="nonzero">
            <g id="automation" transform="translate(461.000000, 376.000000)">
                <path d="M11.5,4.08789062 C9.64223479,4.08789062 8.13085938,5.59926604 8.13085938,7.45703125 C8.13085938,9.31479646 9.64223479,10.8261719 11.5,10.8261719 C13.3577652,10.8261719 14.8691406,9.31479646 14.8691406,7.45703125 C14.8691406,5.59926604 13.3577652,4.08789062 11.5,4.08789062 Z M11.5,9.47851562 C10.385376,9.47851562 9.47851562,8.57165527 9.47851562,7.45703125 C9.47851562,6.34240723 10.385376,5.43554688 11.5,5.43554688 C12.614624,5.43554688 13.5214844,6.34240723 13.5214844,7.45703125 C13.5214844,8.57165527 12.614624,9.47851562 11.5,9.47851562 Z" id="Shape"></path>
                <path d="M20.3046875,13.5214844 C19.8037033,13.5214844 19.3344803,13.6594085 18.9321136,13.898407 L17.2217484,12.2175217 L18.1705475,11.2687225 L16.9720459,10.0703964 C17.0645218,9.87737273 17.1466446,9.67996216 17.2180633,9.47851562 L18.9121094,9.47851562 L18.9121094,5.43554688 L17.2178879,5.43554688 C17.1466446,5.23427581 17.0645218,5.03668977 16.9720459,4.84366609 L18.1705475,3.64533999 L15.3116913,0.786483742 L14.1131897,1.98498535 C13.9203415,1.89250945 13.7229309,1.81038665 13.5214844,1.73896792 L13.5214844,0 L9.47851562,0 L9.47851562,1.73896792 C9.27706909,1.81038665 9.07965852,1.89250945 8.88663484,1.98498535 L7.68813323,0.786483742 L4.82945249,3.64533999 L6.02777864,4.84366609 C5.9354782,5.03668977 5.8533554,5.23410034 5.78193667,5.43554688 L4.08789062,5.43554688 L4.08789062,9.47851562 L5.78211213,9.47851562 C5.8533554,9.67978669 5.9354782,9.87737273 6.0279541,10.0703964 L4.82945249,11.2687225 L5.77825164,12.2175217 L4.06788637,13.898407 C3.6655197,13.6594085 3.1962967,13.5214844 2.6953125,13.5214844 C1.20903013,13.5214844 -2.55351296e-15,14.7305145 -2.55351296e-15,16.2167969 C-2.55351296e-15,17.7030792 1.20903013,18.9121094 2.6953125,18.9121094 C4.18159487,18.9121094 5.390625,17.7030792 5.390625,16.2167969 C5.390625,15.7194977 5.2548065,15.2536087 5.01896665,14.8533478 L6.73126221,13.1705322 L7.68830874,14.1275788 L8.8868103,12.9290771 C9.07965852,13.0215531 9.27706909,13.1036759 9.47851562,13.1749191 L9.47851562,14.8691406 L10.8261719,14.8691406 L10.8261719,17.6946564 C9.6650467,17.994545 8.8046875,19.0510864 8.8046875,20.3046875 C8.8046875,21.7909699 10.0138931,23 11.5,23 C12.9862824,23 14.1953125,21.7909699 14.1953125,20.3046875 C14.1953125,19.0510864 13.3351288,17.994545 12.1738281,17.6946564 L12.1738281,14.8691406 L13.5214844,14.8691406 L13.5214844,13.1750946 C13.7229309,13.1036759 13.9203415,13.0215531 14.1133652,12.9290771 L15.3118668,14.1275788 L16.2689133,13.1705322 L17.9812088,14.8533478 C17.7451935,15.2536087 17.609375,15.7194977 17.609375,16.2167969 C17.609375,17.7030792 18.8184051,18.9121094 20.3046875,18.9121094 C21.7909699,18.9121094 23,17.7030792 23,16.2167969 C23,14.7305145 21.7909699,13.5214844 20.3046875,13.5214844 L20.3046875,13.5214844 Z M2.6953125,17.5644531 C1.95217131,17.5644531 1.34765625,16.9599381 1.34765625,16.2167969 C1.34765625,15.4736557 1.95217131,14.8691406 2.6953125,14.8691406 C3.43845369,14.8691406 4.04296875,15.4736557 4.04296875,16.2167969 C4.04296875,16.9599381 3.43845369,17.5644531 2.6953125,17.5644531 Z M12.8476562,20.3046875 C12.8476562,21.0478287 12.2431412,21.6523438 11.5,21.6523438 C10.7568588,21.6523438 10.1523437,21.0478287 10.1523437,20.3046875 C10.1523437,19.5615463 10.7568588,18.9570312 11.5,18.9570312 C12.2431412,18.9570312 12.8476562,19.5615463 12.8476562,20.3046875 Z M14.3437653,11.2536316 C13.2907333,11.8767471 13.2282638,11.8828888 12.1738281,12.1552277 L12.1738281,13.5214844 L10.8261719,13.5214844 L10.8261719,12.1552277 C9.63504028,11.8474426 9.59275056,11.807785 8.65623472,11.2536316 L7.68830874,12.2217331 L6.73529817,11.2687225 L7.70339966,10.3007965 C7.07431794,9.23758699 7.07273863,9.17967986 6.80180357,8.13085938 L5.43554688,8.13085938 L5.43554688,6.78320312 L6.80180357,6.78320312 C7.1060791,5.60575864 7.14275359,5.56083677 7.70339966,4.61326597 L6.73529817,3.64533999 L7.68830874,2.69232942 L8.65623472,3.66043091 C9.70926667,3.03731536 9.77173616,3.03117368 10.8261719,2.75883482 L10.8261719,1.34765625 L12.1738281,1.34765625 L12.1738281,2.75883482 C13.3649597,3.06661987 13.4072494,3.10627749 14.3437653,3.66043091 L15.3116913,2.69232942 L16.2647018,3.64533999 L15.2966003,4.61326597 C15.9255066,5.67630005 15.9274368,5.73508454 16.1981964,6.78320312 L17.5644531,6.78320312 L17.5644531,8.13085938 L16.1981964,8.13085938 C15.8905868,9.32163999 15.8511047,9.36375425 15.2966003,10.3007965 L16.2647018,11.2687225 L15.3116913,12.2217331 L14.3437653,11.2536316 Z M20.3046875,17.5644531 C19.5615463,17.5644531 18.9570312,16.9599381 18.9570312,16.2167969 C18.9570312,15.4736557 19.5615463,14.8691406 20.3046875,14.8691406 C21.0478287,14.8691406 21.6523437,15.4736557 21.6523437,16.2167969 C21.6523437,16.9599381 21.0478287,17.5644531 20.3046875,17.5644531 Z" id="Shape"></path>
            </g>
        </g>
    </g>
</svg>