<?xml version="1.0" encoding="UTF-8"?>
<svg width="246px" height="200px" viewBox="0 0 246 200" version="1.1" xmlns="http://www.w3.org/2000/svg" xmlns:xlink="http://www.w3.org/1999/xlink">
    <title>Group</title>
    <g id="Rule-Builder" stroke="none" stroke-width="1" fill="none" fill-rule="evenodd">
        <g id="Rules-Manager---Zero-State" transform="translate(-350.000000, -221.000000)" fill-rule="nonzero">
            <g id="Group-2" transform="translate(73.000000, 81.000000)">
                <g id="Group" transform="translate(277.000000, 140.000000)">
                    <path d="M153.753271,67.2496733 L91.2925527,67.2496733 L91.2925527,-6.14892752e-14 L153.753271,-6.14892752e-14 L153.753271,67.2496733 Z M92.0933518,66.4488813 L152.952454,66.4488813 L152.952454,0.800802614 L92.0933518,0.800802614 L92.0933518,66.4488813 Z" id="Shape" fill="#4B5461"></path>
                    <path d="M153.753271,199.549197 L91.2925527,199.549197 L91.2925527,132.299315 L153.753271,132.299315 L153.753271,199.549197 Z M92.0933518,198.748395 L152.952454,198.748395 L152.952454,133.100117 L92.0933518,133.100117 L92.0933518,198.748395 Z" id="Shape" fill="#4B5461"></path>
                    <path d="M62.4607003,199.549197 L-6.14892752e-14,199.549197 L-6.14892752e-14,132.299315 L62.4607003,132.299315 L62.4607003,199.549197 Z M0.800802614,198.748395 L61.6598835,198.748395 L61.6598835,133.100117 L0.800802614,133.100117 L0.800802614,198.748395 Z" id="Shape" fill="#4B5461"></path>
                    <path d="M245.045813,199.549197 L182.585109,199.549197 L182.585109,132.299315 L245.045813,132.299315 L245.045813,199.549197 Z M183.385912,198.748395 L244.244993,198.748395 L244.244993,133.100117 L183.385912,133.100117 L183.385912,198.748395 Z" id="Shape" fill="#4B5461"></path>
                    <rect id="Rectangle" fill="#4B5461" x="122.122502" y="66.8492862" width="1" height="65.8504333"></rect>
                    <polygon id="Path" fill="#4B5461" points="214.21618 132.699766 213.415342 132.699766 213.415342 95.9844449 31.6307692 95.9844449 31.6307692 132.699766 30.8299311 132.699766 30.8299311 95.1836068 214.21618 95.1836068"></polygon>
                    <rect id="Rectangle" fill="#4B5461" x="91.692954" y="26.8138114" width="41.0067618" height="1"></rect>
                    <rect id="Rectangle" fill="#4B5461" x="91.692954" y="37.7141985" width="41.0067618" height="1"></rect>
                    <rect id="Rectangle" fill="#4B5461" x="91.692954" y="48.6145856" width="41.0067618" height="1"></rect>
                    <circle id="Oval" fill="#0295F6" cx="31.2303431" cy="165.924192" r="24.2449073"></circle>
                    <polygon id="Path" fill="#FFFFFF" points="46.4958165 163.529725 33.6248739 163.529725 33.6248739 150.658783 28.8358264 150.658783 28.8358264 163.529725 15.9648839 163.529725 15.9648839 168.318773 28.8358264 168.318773 28.8358264 181.18936 33.6248739 181.18936 33.6248739 168.318773 46.4958165 168.318773"></polygon>
                    <path d="M122.522906,190.569486 C108.911757,190.569486 97.8776902,179.53549 97.8776902,165.92434 C97.8776902,152.31319 108.911617,141.279054 122.522767,141.279054 C136.133917,141.279054 147.168123,152.312911 147.168123,165.924061 C147.152748,179.528898 136.127744,190.553996 122.522906,190.569486 Z M122.522906,142.079828 C112.878718,142.079828 104.18416,147.889355 100.493506,156.799431 C96.8028523,165.709507 98.8429153,175.965436 105.662414,182.78488 C112.481913,189.604324 122.737859,191.644305 131.647905,187.953579 C140.557951,184.262853 146.367331,175.56825 146.367331,165.924061 C146.352361,152.761386 135.685582,142.094692 122.522906,142.079828 L122.522906,142.079828 Z" id="Shape" fill="#4B5461"></path>
                    <path d="M138.188621,168.71905 L106.857184,168.71905 L106.857184,163.129068 L138.188621,163.129068 L138.188621,168.71905 Z M107.657994,167.918247 L137.387815,167.918247 L137.387815,163.929871 L107.657994,163.929871 L107.657994,167.918247 Z" id="Shape" fill="#4B5461"></path>
                    <path d="M213.815655,190.569486 C200.204481,190.569486 189.170257,179.535634 189.170257,165.924461 C189.170257,152.313287 200.2041,141.279054 213.815273,141.279054 C227.426447,141.279054 238.46069,152.312887 238.46069,165.924061 C238.445223,179.528789 227.420383,190.553804 213.815655,190.569486 L213.815655,190.569486 Z M213.815655,142.079828 C204.171448,142.079828 195.476832,147.889228 191.786118,156.799298 C188.095403,165.709368 190.135419,175.965329 196.954903,182.784813 C203.774386,189.604296 214.030347,191.644312 222.940417,187.953597 C231.850487,184.262883 237.659887,175.568267 237.659887,165.924061 C237.644825,152.761498 226.978217,142.09489 213.815655,142.079828 L213.815655,142.079828 Z" id="Shape" fill="#4B5461"></path>
                    <path d="M219.999982,172.995216 L219.999982,168.71905 L199.346843,168.71905 L199.346843,163.129068 L219.999982,163.129068 L219.999982,158.813804 L228.509301,166.162188 L219.999982,172.995216 Z M200.147649,167.918247 L220.800788,167.918247 L220.800788,171.324789 L227.258047,166.139509 L220.800788,160.563215 L220.800788,163.929871 L200.147649,163.929871 L200.147649,167.918247 Z" id="Shape" fill="#4B5461"></path>
                </g>
            </g>
        </g>
    </g>
</svg>