<?xml version="1.0" encoding="UTF-8"?>
<svg width="15px" height="12px" viewBox="0 0 15 12" version="1.1" xmlns="http://www.w3.org/2000/svg" xmlns:xlink="http://www.w3.org/1999/xlink">
    <title>Rule Builder Copy 12</title>
    <g id="Page-1" stroke="none" stroke-width="1" fill="none" fill-rule="evenodd">
        <g id="Artboard-Copy" transform="translate(-596.000000, -297.000000)" fill="#00CC55" fill-rule="nonzero" stroke="#00CC55" stroke-width="0.1">
            <g id="Rule-Builder-Copy-12" transform="translate(596.000000, 297.000000)">
                <path d="M13.4793946,2.47295773 L4.53519669,2.47295773 C4.23632869,2.47295773 4.00153388,2.23808642 4.00153388,1.93914191 C4.00153388,1.6401974 4.23632869,1.40532609 4.53519669,1.40532609 L13.4793946,1.40532609 C13.7782626,1.40532609 14.0130574,1.6401974 14.0130574,1.93914191 C13.9917124,2.23808642 13.7569176,2.47295773 13.4793946,2.47295773 Z" id="Path"></path>
                <path d="M2.44319717,2.47295773 L0.863553719,2.47295773 C0.564723967,2.47295773 0.329890909,2.23808642 0.329890909,1.93914191 C0.329890909,1.6401974 0.564723967,1.40532609 0.863553719,1.40532609 L2.44319717,1.40532609 C2.74206517,1.40532609 2.97685998,1.6401974 2.97685998,1.93914191 C2.95551499,2.23808642 2.72072019,2.47295773 2.44319717,2.47295773 Z" id="Path"></path>
                <path d="M9.78644486,6.67925809 L0.863553719,6.67925809 C0.564723967,6.67925809 0.329890909,6.44438678 0.329890909,6.14544227 C0.329890909,5.84649776 0.564723967,5.61162645 0.863553719,5.61162645 L9.80778985,5.61162645 C10.1066196,5.61162645 10.3414527,5.84649776 10.3414527,6.14544227 C10.3201077,6.44438678 10.0852746,6.67925809 9.78644486,6.67925809 Z" id="Path"></path>
                <path d="M4.53519669,10.885941 L0.863553719,10.885941 C0.564723967,10.885941 0.329890909,10.6510697 0.329890909,10.3521251 C0.329890909,10.0531806 0.564723967,9.81830933 0.863553719,9.81830933 L4.53519669,9.81830933 C4.83402645,9.81830933 5.0688595,10.0531806 5.0688595,10.3521251 C5.0688595,10.6510697 4.83402645,10.885941 4.53519669,10.885941 Z" id="Path"></path>
                <path d="M3.48921606,3.51916789 C2.61399528,3.51916789 1.90957261,2.8145157 1.90957261,1.93906541 C1.90957261,1.06361511 2.61399528,0.359001181 3.48921606,0.359001181 C4.36443684,0.359001181 5.0688595,1.06361511 5.0688595,1.93906541 C5.0688595,2.8145157 4.36443684,3.51916789 3.48921606,3.51916789 Z M3.48921606,1.42659457 C3.19034805,1.42659457 2.95555325,1.66150413 2.95555325,1.96041039 C2.95555325,2.2593549 3.19034805,2.49422621 3.48921606,2.49422621 C3.78804581,2.49422621 4.02287887,2.2593549 4.02287887,1.96041039 C4.02287887,1.66150413 3.78804581,1.42659457 3.48921606,1.42659457 Z" id="Shape"></path>
                <path d="M10.8537705,7.72581251 C9.9785497,7.72581251 9.27412704,7.02119858 9.27412704,6.14574829 C9.27412704,5.27029799 9.9785497,4.56564581 10.8537705,4.56564581 C11.7289913,4.56564581 12.4334139,5.27029799 12.4334139,6.14574829 C12.4334139,7.02119858 11.7289913,7.72581251 10.8537705,7.72581251 Z M10.8537705,5.61193247 C10.5549025,5.61193247 10.3201077,5.84680378 10.3201077,6.14574829 C10.3201077,6.4446928 10.5549025,6.67956411 10.8537705,6.67956411 C11.1526002,6.67956411 11.3874333,6.4446928 11.3874333,6.14574829 C11.3660883,5.86814876 11.1312553,5.61193247 10.8537705,5.61193247 Z" id="Shape"></path>
                <path d="M5.60252231,11.9321129 C4.72730153,11.9321129 4.02284061,11.2274989 4.02284061,10.3520486 C4.02284061,9.47659835 4.72730153,8.77194616 5.60252231,8.77194616 C6.47770484,8.77194616 7.18216576,9.47659835 7.18216576,10.3520486 C7.18216576,11.2274989 6.45635986,11.9321129 5.60252231,11.9321129 Z M5.60252231,9.81823282 C5.30365431,9.81823282 5.0688595,10.0531041 5.0688595,10.3520486 C5.0688595,10.6509549 5.30365431,10.8858262 5.60252231,10.8858262 C5.90135207,10.8858262 6.13618512,10.6509549 6.13618512,10.3520486 C6.13618512,10.0531041 5.88000708,9.81823282 5.60252231,9.81823282 Z" id="Shape"></path>
                <path d="M13.4793946,6.67925809 L11.8997511,6.67925809 C11.6008831,6.67925809 11.3660883,6.44438678 11.3660883,6.14544227 C11.3660883,5.84649776 11.6008831,5.61162645 11.8997511,5.61162645 L13.4793946,5.61162645 C13.7782626,5.61162645 14.0130574,5.84649776 14.0130574,6.14544227 C13.9917124,6.44438678 13.7569176,6.67925809 13.4793946,6.67925809 Z" id="Path"></path>
                <path d="M13.4793946,10.885941 L6.64850295,10.885941 C6.34963495,10.885941 6.11484014,10.6510697 6.11484014,10.3521251 C6.11484014,10.0531806 6.34963495,9.81830933 6.64850295,9.81830933 L13.4793946,9.81830933 C13.7782626,9.81830933 14.0130574,10.0531806 14.0130574,10.3521251 C14.0130574,10.6510697 13.7569176,10.885941 13.4793946,10.885941 Z" id="Path"></path>
            </g>
        </g>
    </g>
</svg>