<?xml version="1.0" encoding="UTF-8"?>
<svg width="24px" height="24px" viewBox="0 0 24 24" version="1.1" xmlns="http://www.w3.org/2000/svg" xmlns:xlink="http://www.w3.org/1999/xlink">
    <title>Group 17</title>
    <g id="Page-1" stroke="none" stroke-width="1" fill="none" fill-rule="evenodd">
        <g id="Artboard" transform="translate(-549.000000, -534.000000)" fill="#00CC55">
            <g id="Group-17" transform="translate(549.000000, 534.000000)">
                <rect id="Rectangle-Copy-10" opacity="0.13" x="0" y="0" width="24" height="24" rx="7"></rect>
                <g id="Rule-Builder-Copy-10" transform="translate(5.000000, 6.000000)" fill-rule="nonzero">
                    <path d="M13.214175,10.645725 L4.4459625,10.645725 C4.152975,10.645725 3.9228,10.415475 3.9228,10.1224125 C3.9228,9.8293875 4.152975,9.5991375 4.4459625,9.5991375 L13.214175,9.5991375 C13.5071625,9.5991375 13.7373375,9.8293875 13.7373375,10.1224125 C13.7164125,10.415475 13.4862375,10.645725 13.214175,10.645725 Z" id="Path"></path>
                    <path d="M2.395125,10.645725 L0.8465625,10.645725 C0.5536125,10.645725 0.3234,10.415475 0.3234,10.1224125 C0.3234,9.8293875 0.5536125,9.5991375 0.8465625,9.5991375 L2.395125,9.5991375 C2.6881125,9.5991375 2.9182875,9.8293875 2.9182875,10.1224125 C2.8973625,10.415475 2.6671875,10.645725 2.395125,10.645725 Z" id="Path"></path>
                    <path d="M9.5938875,2.4243 L0.8465625,2.4243 C0.5536125,2.4243 0.3234,2.19405 0.3234,1.9009875 C0.3234,1.607925 0.5536125,1.377675 0.8465625,1.377675 L9.6148125,1.377675 C9.9077625,1.377675 10.137975,1.607925 10.137975,1.9009875 C10.11705,2.19405 9.8868375,2.4243 9.5938875,2.4243 Z" id="Path"></path>
                    <path d="M4.8453375,6.6001875 L0.8972625,6.6001875 C0.5758875,6.6001875 0.3234,6.3469875 0.3234,6.0247125 C0.3234,5.7024375 0.5758875,5.4492 0.8972625,5.4492 L4.8453375,5.4492 C5.166675,5.4492 5.4192,5.7024375 5.4192,6.0247125 C5.4192,6.3469875 5.166675,6.6001875 4.8453375,6.6001875 Z" id="Path"></path>
                    <path d="M3.420525,11.67135 C2.5625625,11.67135 1.8719625,10.9806 1.8719625,10.122375 C1.8719625,9.26415 2.5625625,8.5733625 3.420525,8.5733625 C4.278525,8.5733625 4.969125,9.26415 4.969125,10.122375 C4.969125,10.9806 4.278525,11.67135 3.420525,11.67135 Z M3.420525,9.6199875 C3.127575,9.6199875 2.8973625,9.8502375 2.8973625,10.1433 C2.8973625,10.436325 3.127575,10.6666125 3.420525,10.6666125 C3.7135125,10.6666125 3.943725,10.436325 3.943725,10.1433 C3.943725,9.8502375 3.7135125,9.6199875 3.420525,9.6199875 Z" id="Shape"></path>
                    <path d="M10.6402125,3.449925 C9.7822125,3.449925 9.09165,2.7591375 9.09165,1.9009125 C9.09165,1.0426875 9.7822125,0.3519375 10.6402125,0.3519375 C11.4982125,0.3519375 12.188775,1.0426875 12.188775,1.9009125 C12.188775,2.7591375 11.4982125,3.449925 10.6402125,3.449925 Z M10.6402125,1.3776 C10.347225,1.3776 10.11705,1.6078875 10.11705,1.9009125 C10.11705,2.193975 10.347225,2.424225 10.6402125,2.424225 C10.9331625,2.424225 11.163375,2.193975 11.163375,1.9009125 C11.14245,1.6288125 10.9122375,1.3776 10.6402125,1.3776 Z" id="Shape"></path>
                    <path d="M6.3102375,7.5606375 C5.4522375,7.5606375 4.761675,6.86985 4.761675,6.011625 C4.761675,5.1534 5.4522375,4.46265 6.3102375,4.46265 C7.1682,4.46265 7.8588,5.1534 7.8588,6.011625 C7.8588,6.86985 7.147275,7.5606375 6.3102375,7.5606375 Z M6.3102375,5.4883125 C6.01725,5.4883125 5.787075,5.7185625 5.787075,6.011625 C5.787075,6.3046875 6.01725,6.5349375 6.3102375,6.5349375 C6.6031875,6.5349375 6.8334,6.3046875 6.8334,6.011625 C6.8334,5.7185625 6.5822625,5.4883125 6.3102375,5.4883125 Z" id="Shape"></path>
                    <path d="M13.214175,2.4243 L11.6656125,2.4243 C11.372625,2.4243 11.14245,2.19405 11.14245,1.9009875 C11.14245,1.607925 11.372625,1.377675 11.6656125,1.377675 L13.214175,1.377675 C13.5071625,1.377675 13.7373375,1.607925 13.7373375,1.9009875 C13.7164125,2.19405 13.4862375,2.4243 13.214175,2.4243 Z" id="Path"></path>
                    <path d="M13.3693875,6.6001875 L7.8249,6.6001875 C7.5823125,6.6001875 7.3917375,6.3469875 7.3917375,6.0247125 C7.3917375,5.7024375 7.5823125,5.4492 7.8249,5.4492 L13.3693875,5.4492 C13.611975,5.4492 13.80255,5.7024375 13.80255,6.0247125 C13.80255,6.3469875 13.59465,6.6001875 13.3693875,6.6001875 Z" id="Path"></path>
                </g>
            </g>
        </g>
    </g>
</svg>