<?xml version="1.0" encoding="UTF-8"?>
<svg width="18px" height="18px" viewBox="0 0 18 18" version="1.1" xmlns="http://www.w3.org/2000/svg" xmlns:xlink="http://www.w3.org/1999/xlink">
    <!-- Generator: Sketch 64 (93537) - https://sketch.com -->
    <title>save</title>
    <desc>Created with Sketch.</desc>
    <g id="Page-1" stroke="none" stroke-width="1" fill="none" fill-rule="evenodd">
        <g id="Artboard" transform="translate(-91.000000, -146.000000)" fill="#222222" fill-rule="nonzero">
            <g id="save" transform="translate(92.000000, 147.000000)">
                <path d="M16.65,4.17520563 L11.8247944,-0.65 L1.77777778,-0.65 C0.436953136,-0.65 -0.65,0.436953136 -0.65,1.77777778 L-0.65,14.2222222 C-0.65,15.5630469 0.436953125,16.65 1.77777778,16.65 L14.2222222,16.65 C15.5630469,16.65 16.65,15.5630469 16.65,14.2222222 L16.65,4.17520563 Z M11.286,0.65 L15.35,4.714 L15.35,14.2222222 C15.35,14.8450767 14.8450767,15.35 14.2222222,15.35 L1.77777778,15.35 C1.1549233,15.35 0.65,14.8450767 0.65,14.2222222 L0.65,1.77777778 C0.65,1.15492331 1.15492331,0.65 1.77777778,0.65 L11.286,0.65 Z" id="Path"></path>
                <polygon id="Path" points="13.0944444 8.23888889 13.0944444 16 11.7944444 16 11.794 9.538 4.205 9.538 4.20555556 16 2.90555556 16 2.90555556 8.23888889"></polygon>
                <polygon id="Path" points="4.20555556 0 4.205 3.794 10.6666667 3.79444444 10.6666667 5.09444444 2.90555556 5.09444444 2.90555556 0"></polygon>
            </g>
        </g>
    </g>
</svg>