<?xml version="1.0" encoding="UTF-8"?>
<svg width="16px" height="16px" viewBox="0 0 16 16" version="1.1" xmlns="http://www.w3.org/2000/svg" xmlns:xlink="http://www.w3.org/1999/xlink">
    <title>Group 8</title>
    <g id="Page-1" stroke="none" stroke-width="1" fill="none" fill-rule="evenodd">
        <g id="Artboard" transform="translate(-79.000000, -212.000000)" fill="#222222" fill-rule="nonzero">
            <g id="Group-8" transform="translate(80.000000, 213.000000)">
                <path d="M6.22222222,-0.6 C2.45441293,-0.6 -0.6,2.45441293 -0.6,6.22222222 C-0.6,9.99003152 2.45441293,13.0444444 6.22222222,13.0444444 C9.99003152,13.0444444 13.0444444,9.99003152 13.0444444,6.22222222 C13.0444444,2.45441293 9.99003152,-0.6 6.22222222,-0.6 Z M6.22222222,0.6 C9.32728982,0.6 11.8444444,3.11715463 11.8444444,6.22222222 C11.8444444,9.32728982 9.32728982,11.8444444 6.22222222,11.8444444 C3.11715463,11.8444444 0.6,9.32728982 0.6,6.22222222 C0.6,3.11715463 3.11715463,0.6 6.22222222,0.6 Z" id="Oval"></path>
                <path d="M10.1924026,10.1924026 C10.4006822,9.98412298 10.7239915,9.9609808 10.9578333,10.1229761 L11.0409307,10.1924026 L14.4242641,13.5757359 C14.6585786,13.8100505 14.6585786,14.1899495 14.4242641,14.4242641 C14.2159844,14.6325437 13.8926752,14.6556859 13.6588334,14.4936906 L13.5757359,14.4242641 L10.1924026,11.0409307 C9.95808802,10.8066162 9.95808802,10.4267172 10.1924026,10.1924026 Z" id="Path"></path>
            </g>
        </g>
    </g>
</svg>