<?xml version="1.0" encoding="UTF-8"?>
<svg width="22px" height="21px" viewBox="0 0 22 21" version="1.1" xmlns="http://www.w3.org/2000/svg" xmlns:xlink="http://www.w3.org/1999/xlink">
    <title>star copy</title>
    <g id="Page-1" stroke="none" stroke-width="1" fill="none" fill-rule="evenodd">
        <g id="Artboard" transform="translate(-657.000000, -143.000000)" fill="#637082" fill-rule="nonzero">
            <g id="star-copy" transform="translate(657.000000, 143.000000)">
                <path d="M7.378,6.529 L0.884297432,7.47841114 L0.778686906,7.5007872 C0.201590809,7.66281034 -0.00667912795,8.40625441 0.441813761,8.84308649 L5.14,13.42 L4.0315131,19.8847653 L4.0203158,19.9865758 C3.99135831,20.5885597 4.63634703,21.020461 5.19236102,20.7280588 L10.999,17.674 L16.807639,20.7280588 L16.901001,20.770181 C17.4645464,20.9838156 18.074682,20.5039367 17.9684869,19.8847653 L16.859,13.42 L21.5581862,8.84308649 L21.630573,8.7629964 C22.002796,8.29316511 21.7351937,7.56895905 21.1157026,7.47841114 L14.621,6.529 L11.7173659,0.645900868 C11.4238976,0.0513663774 10.5761024,0.0513663774 10.2826341,0.645900868 L7.378,6.529 Z M11,2.808 L13.3726341,7.61409913 L13.428964,7.71060739 C13.5540579,7.89414898 13.7511974,8.01897945 13.9742974,8.05158886 L19.28,8.827 L15.4418138,12.5669135 L15.3673044,12.650396 C15.2311727,12.8262857 15.1733459,13.0527003 15.2115131,13.2752347 L16.117,18.556 L11.372361,16.0619412 L11.2699433,16.0169088 C11.0606072,15.9418547 10.8274444,15.9568655 10.627639,16.0619412 L5.882,18.556 L6.7884869,13.2752347 L6.7996529,13.163896 C6.80631349,12.9415795 6.71992823,12.7244502 6.55818624,12.5669135 L2.719,8.827 L8.02570257,8.05158886 C8.28598592,8.01354454 8.51093409,7.84997713 8.62736588,7.61409913 L11,2.808 Z" id="Path"></path>
            </g>
        </g>
    </g>
</svg>