<?xml version="1.0" encoding="UTF-8"?>
<svg width="19px" height="18px" viewBox="0 0 19 18" version="1.1" xmlns="http://www.w3.org/2000/svg" xmlns:xlink="http://www.w3.org/1999/xlink">
    <title>check-square</title>
    <g id="Page-1" stroke="none" stroke-width="1" fill="none" fill-rule="evenodd">
        <g id="Artboard" transform="translate(-359.000000, -97.000000)" fill="#4A4A4A" fill-rule="nonzero">
            <g id="check-square" transform="translate(360.000000, 98.000000)">
                <path d="M16.3989592,0.293696078 C16.7309049,-0.0382495699 17.2690951,-0.0382495699 17.6010408,0.293696078 C17.9053243,0.597979589 17.9306812,1.07556584 17.6771116,1.40873314 L17.6010408,1.49577761 L8.65367234,10.443146 C8.34938883,10.7474295 7.87180258,10.7727865 7.53863528,10.5192169 L7.45159081,10.443146 L4.76738029,7.7589355 C4.43543464,7.42698985 4.43543464,6.88879962 4.76738029,6.55685397 C5.0716638,6.25257046 5.54925005,6.2272135 5.88241735,6.4807831 L5.96946182,6.55685397 L8.052,8.64 L16.3989592,0.293696078 Z" id="Path"></path>
                <path d="M11.6315789,-0.85 C12.101021,-0.85 12.4815789,-0.469442037 12.4815789,0 C12.4815789,0.433331111 12.1573165,0.79092668 11.7382011,0.843377293 L11.6315789,0.85 L1.78947368,0.85 C1.30767791,0.85 0.910589325,1.2126746 0.856320527,1.67991121 L0.85,1.78947368 L0.85,14.3157895 C0.85,14.7975852 1.2126746,15.1946738 1.67991121,15.2489426 L1.78947368,15.2552632 L14.3157895,15.2552632 C14.7975852,15.2552632 15.1946738,14.8925886 15.2489426,14.425352 L15.2552632,14.3157895 L15.2552632,8.05263158 C15.2552632,7.58318954 15.6358211,7.20263158 16.1052632,7.20263158 C16.5385943,7.20263158 16.8961898,7.52689398 16.9486405,7.94600938 L16.9552632,8.05263158 L16.9552632,14.3157895 C16.9552632,15.7174636 15.8626849,16.8639524 14.4827139,16.9500703 L14.3157895,16.9552632 L1.78947368,16.9552632 C0.387799585,16.9552632 -0.758689194,15.8626849 -0.844807156,14.4827139 L-0.85,14.3157895 L-0.85,1.78947368 C-0.85,0.387799585 0.242578237,-0.758689194 1.62254921,-0.844807156 L1.78947368,-0.85 L11.6315789,-0.85 Z" id="Path"></path>
            </g>
        </g>
    </g>
</svg>