<?xml version="1.0" encoding="UTF-8" standalone="yes"?><svg xmlns="http://www.w3.org/2000/svg" xmlns:xlink="http://www.w3.org/1999/xlink" width="13px" height="13px" viewBox="0 0 13 13" version="1.1" style="zoom: 32;"><title>clock</title><g id="Page-1" stroke="none" stroke-width="1" fill="none" fill-rule="evenodd"><g id="Artboard" transform="translate(-326.000000, -516.000000)" fill="#0295F6" fill-rule="nonzero"><g id="clock" transform="translate(327.000000, 517.000000)"><path d="M5.5,-0.55 C2.158677,-0.55 -0.55,2.158677 -0.55,5.5 C-0.55,8.841323 2.158677,11.55 5.5,11.55 C8.841323,11.55 11.55,8.841323 11.55,5.5 C11.55,2.158677 8.841323,-0.55 5.5,-0.55 M5.5,0.55 C8.233809,0.55 10.45,2.766191 10.45,5.5 C10.45,8.233809 8.233809,10.45 5.5,10.45 C2.766191,10.45 0.55,8.233809 0.55,5.5 C0.55,2.766191 2.766191,0.55 5.5,0.55 " id="Oval" visibility="visible"></path><path d="M5.5,1.65 C5.77338095,1.65 6.00017619,1.84945714 6.04280143,2.11078714 L6.05,2.2 L6.05,5.161 L7.94596748,6.10806504 C8.18746808,6.22881534 8.30131255,6.50326527 8.22822219,6.75357868 L8.19193496,6.84596748 C8.07118466,7.08746808 7.79673473,7.20131255 7.54642132,7.12822219 L7.45403252,7.09193496 L5.25403252,5.99193496 C5.09432005,5.91207872 4.98502956,5.76075212 4.95706314,5.58795581 L4.95,5.5 L4.95,2.2 C4.95,1.89624339 5.19624339,1.65 5.5,1.65 Z" id="Path" visibility="visible"></path></g></g></g></svg>