<?xml version="1.0" encoding="UTF-8"?>
<svg width="16px" height="16px" viewBox="0 0 16 16" version="1.1" xmlns="http://www.w3.org/2000/svg" xmlns:xlink="http://www.w3.org/1999/xlink">
    <title>bulb-outline copy</title>
    <g id="Page-1" stroke="none" stroke-width="1" fill="none" fill-rule="evenodd">
        <g id="Artboard" transform="translate(-312.000000, -466.000000)" fill="#4B5461" fill-rule="nonzero">
            <g id="bulb-outline-copy" transform="translate(312.000000, 466.000000)">
                <rect id="Rectangle" opacity="0" transform="translate(8.000000, 8.000000) rotate(180.000000) translate(-8.000000, -8.000000) " x="-1.18423789e-15" y="1.18423789e-15" width="16" height="16"></rect>
                <path d="M8,4.66666667 C6.56523197,4.66666667 5.29143583,5.58476698 4.83772234,6.94590745 C4.38400885,8.30704791 4.85218558,9.80580585 6,10.6666667 L6,13.3333333 C6,14.069713 6.59695367,14.6666667 7.33333333,14.6666667 L8.66666667,14.6666667 C9.40304633,14.6666667 10,14.069713 10,13.3333333 L10,10.6666667 C11.1478144,9.80580585 11.6159911,8.30704791 11.1622777,6.94590745 C10.7085642,5.58476698 9.43476803,4.66666667 8,4.66666667 L8,4.66666667 Z M9,9.72666667 C8.79291054,9.84622731 8.66571733,10.0675435 8.66666667,10.3066667 L8.66666667,13.3333333 L7.33333333,13.3333333 L7.33333333,10.3066667 C7.33428267,10.0675435 7.20708946,9.84622731 7,9.72666667 C6.38286062,9.37036453 6.00191989,8.71260687 6,8 C6,6.8954305 6.8954305,6 8,6 C9.1045695,6 10,6.8954305 10,8 C9.99808011,8.71260687 9.61713938,9.37036453 9,9.72666667 L9,9.72666667 Z" id="Shape"></path>
                <path d="M8,4 C8.36818983,4 8.66666667,3.70152317 8.66666667,3.33333333 L8.66666667,2 C8.66666667,1.63181017 8.36818983,1.33333333 8,1.33333333 C7.63181017,1.33333333 7.33333333,1.63181017 7.33333333,2 L7.33333333,3.33333333 C7.33333333,3.70152317 7.63181017,4 8,4 Z" id="Path"></path>
                <path d="M14,7.33333333 L12.6666667,7.33333333 C12.2984768,7.33333333 12,7.63181017 12,8 C12,8.36818983 12.2984768,8.66666667 12.6666667,8.66666667 L14,8.66666667 C14.3681898,8.66666667 14.6666667,8.36818983 14.6666667,8 C14.6666667,7.63181017 14.3681898,7.33333333 14,7.33333333 Z" id="Path"></path>
                <path d="M3.33333333,7.33333333 L2,7.33333333 C1.63181017,7.33333333 1.33333333,7.63181017 1.33333333,8 C1.33333333,8.36818983 1.63181017,8.66666667 2,8.66666667 L3.33333333,8.66666667 C3.70152317,8.66666667 4,8.36818983 4,8 C4,7.63181017 3.70152317,7.33333333 3.33333333,7.33333333 Z" id="Path"></path>
                <path d="M5.10666667,4.28 L4.14666667,3.33333333 C3.87604714,3.07744141 3.44922528,3.08938049 3.19333335,3.36000001 C2.93744142,3.63061953 2.94938048,4.0574414 3.22,4.31333333 L4.18,5.24 C4.31016762,5.36568901 4.48583426,5.433068 4.66666667,5.42666667 C4.84812508,5.42597416 5.02146077,5.35134351 5.14666667,5.22 C5.39442001,4.94909796 5.3765382,4.52887545 5.10666667,4.28 L5.10666667,4.28 Z" id="Path"></path>
                <path d="M12.7933333,3.36666667 C12.5333084,3.10818427 12.1133583,3.10818427 11.8533333,3.36666667 L10.8933333,4.28 C10.6348509,4.54002497 10.6348509,4.95997503 10.8933333,5.22 C11.0185392,5.35134351 11.1918749,5.42597416 11.3733333,5.42666667 C11.5449797,5.42598312 11.7097483,5.35912048 11.8333333,5.24 L12.7933333,4.31333333 C12.9195418,4.1881556 12.9905322,4.01775836 12.9905322,3.84 C12.9905322,3.66224164 12.9195418,3.4918444 12.7933333,3.36666667 L12.7933333,3.36666667 Z" id="Path"></path>
            </g>
        </g>
    </g>
</svg>