<?xml version="1.0" encoding="UTF-8"?>
<svg width="41px" height="31px" viewBox="0 0 41 31" version="1.1" xmlns="http://www.w3.org/2000/svg" xmlns:xlink="http://www.w3.org/1999/xlink">
    <title>Group 13 Copy</title>
    <g id="Page-1" stroke="none" stroke-width="1" fill="none" fill-rule="evenodd">
        <g id="Artboard" transform="translate(-600.000000, -120.000000)" fill="#FFFFFF" fill-rule="nonzero">
            <g id="Group-13-Copy" transform="translate(601.000000, 120.000000)">
                <path d="M23.4553237,4.36567568 C23.3742727,4.53167646 23.196212,4.63829751 23.0000101,4.63831313 L21.4999654,4.63831313 L21.4999654,12.5354618 C21.4999654,12.7920192 21.2761011,13 20.9999505,13 L17.999861,13 C17.7237104,13 17.4998461,12.7920192 17.4998461,12.5354618 L17.4998461,4.63831313 L15.9998014,4.63831313 C15.8036839,4.63823241 15.6257244,4.53164285 15.5446889,4.36572161 C15.4636534,4.19980037 15.4945056,4.005186 15.6235902,3.86801595 L19.1236945,0.151710674 C19.2210824,0.0549320284 19.3573025,0 19.4999058,0 C19.642509,0 19.7787292,0.0549320284 19.876117,0.151710674 L23.3762214,3.86801595 C23.5054489,4.00509614 23.536388,4.1997448 23.4553237,4.36567568 Z" id="Path" opacity="0.91"></path>
                <path d="M23.4553237,22.3656757 C23.3742727,22.5316765 23.196212,22.6382975 23.0000101,22.6383131 L21.4999654,22.6383131 L21.4999654,30.5354618 C21.4999654,30.7920192 21.2761011,31 20.9999505,31 L17.999861,31 C17.7237104,31 17.4998461,30.7920192 17.4998461,30.5354618 L17.4998461,22.6383131 L15.9998014,22.6383131 C15.8036839,22.6382324 15.6257244,22.5316428 15.5446889,22.3657216 C15.4636534,22.1998004 15.4945056,22.005186 15.6235902,21.868016 L19.1236945,18.1517107 C19.2210824,18.054932 19.3573025,18 19.4999058,18 C19.642509,18 19.7787292,18.054932 19.876117,18.1517107 L23.3762214,21.868016 C23.5054489,22.0050961 23.536388,22.1997448 23.4553237,22.3656757 Z" id="Path-Copy" opacity="0.91" transform="translate(19.500000, 24.500000) scale(1, -1) translate(-19.500000, -24.500000) "></path>
                <polygon id="Line-12" fill-opacity="0.9" points="39.5 14.5 39.5 15.5 -0.5 15.5 -0.5 14.5"></polygon>
            </g>
        </g>
    </g>
</svg>