<?xml version="1.0" encoding="UTF-8"?>
<svg width="8px" height="13px" viewBox="0 0 8 13" version="1.1" xmlns="http://www.w3.org/2000/svg" xmlns:xlink="http://www.w3.org/1999/xlink">
    <title>Path</title>
    <g id="Page-1" stroke="none" stroke-width="1" fill="none" fill-rule="evenodd" opacity="0.91">
        <g id="Artboard" transform="translate(-412.000000, -563.000000)" fill="#FFFFFF" fill-rule="nonzero">
            <path d="M419.955324,567.365676 C419.874273,567.531676 419.696212,567.638298 419.50001,567.638313 L417.999965,567.638313 L417.999965,575.535462 C417.999965,575.792019 417.776101,576 417.49995,576 L414.499861,576 C414.22371,576 413.999846,575.792019 413.999846,575.535462 L413.999846,567.638313 L412.499801,567.638313 C412.303684,567.638232 412.125724,567.531643 412.044689,567.365722 C411.963653,567.1998 411.994506,567.005186 412.12359,566.868016 L415.623695,563.151711 C415.721082,563.054932 415.857302,563 415.999906,563 C416.142509,563 416.278729,563.054932 416.376117,563.151711 L419.876221,566.868016 C420.005449,567.005096 420.036388,567.199745 419.955324,567.365676 Z" id="Path"></path>
        </g>
    </g>
</svg>