<?xml version="1.0" encoding="UTF-8"?>
<svg width="381px" height="98px" viewBox="0 0 381 98" version="1.1" xmlns="http://www.w3.org/2000/svg" xmlns:xlink="http://www.w3.org/1999/xlink">
    <title>ED1DAAC7-1F20-4BFD-BBB7-73051428C911</title>
    <g id="Products" stroke="none" stroke-width="1" fill="none" fill-rule="evenodd">
        <g id="Upload-New-Catalog---Under-process" transform="translate(-476.000000, -186.000000)">
            <g id="undraw_uploading_go67" transform="translate(481.000000, 190.000000)">
                <rect id="Rectangle" fill="#0295F6" fill-rule="nonzero" x="0.11" y="0.65" width="226" height="88"></rect>
                <rect id="Rectangle" stroke="#4B5461" stroke-width="9" x="0.11" y="0.65" width="371" height="88" rx="12"></rect>
                <path d="M203.37,39.94 C201.871827,32.3959774 195.769558,26.622656 188.15417,25.5443909 C180.538781,24.4661257 173.073617,28.3184301 169.54,35.15 C161.871237,35.959025 156.181912,42.6361535 156.600503,50.3361032 C157.019095,58.0360528 163.398728,64.057078 171.11,64.030091 L202.53,64.030091 C209.214264,64.0134502 214.62106,58.5842752 214.610107,51.9 C214.636553,45.5599901 209.699456,40.3066372 203.37,39.94 Z M189.48,47.07 L189.48,56.25 L181.74,56.25 L181.74,47.07 L173.53,47.07 L185.61,34.98 L197.69,47.07 L189.48,47.07 Z" id="Shape" fill="#FFFFFF" fill-rule="nonzero"></path>
            </g>
        </g>
    </g>
</svg>