<?xml version="1.0" encoding="UTF-8"?>
<svg width="42px" height="28px" viewBox="0 0 42 28" version="1.1" xmlns="http://www.w3.org/2000/svg" xmlns:xlink="http://www.w3.org/1999/xlink">
    <title>Group 7</title>
    <g id="Page-1" stroke="none" stroke-width="1" fill="none" fill-rule="evenodd">
        <g id="Artboard" transform="translate(-84.000000, -147.000000)">
            <g id="Group-7" transform="translate(84.000000, 147.000000)">
                <polygon id="Path" fill="#1D5B99" fill-rule="nonzero" points="40.8059256 27.943563 3.55271368e-15 27.943563 3.55271368e-15 7.05213665e-13 41.5112109 7.05213665e-13 41.5112109 27.943563"></polygon>
                <polygon id="Path" fill="#FFFFFF" points="40.8059256 27.2382777 0.70528527 27.2382777 0.70528527 0.70528527 40.8059256 0.70528527 40.8059256 27.2382777"></polygon>
                <path d="M15.1985905,18.2807297 L17.8029024,9.6937752 L20.1266119,9.6937752 L17.5220638,18.2807297 L15.1985905,18.2807297 L15.1985905,18.2807297 Z M14.1597946,9.69613718 L12.0694481,13.3364106 C11.5375317,14.2899393 11.2262236,14.7715457 11.0767107,15.3736127 L11.044824,15.3736127 C11.081907,14.6102229 10.975382,13.6722833 10.9654617,13.1422564 L10.7344607,9.69613718 L6.82303268,9.69613718 L6.78311533,9.92713818 C7.78789883,9.92713818 8.38382473,10.4318919 8.54774569,11.4645467 L9.31019072,18.2807297 L11.717514,18.2807297 L16.5853051,9.69613718 L14.1597946,9.69613718 Z M32.2303086,18.2807297 L32.1662991,17.0038468 L29.2650871,17.0014848 L28.671287,18.2807297 L26.1486994,18.2807297 L30.7231334,9.71007282 L33.8194443,9.71007282 L34.5939354,18.2807297 L32.2303086,18.2807297 L32.2303086,18.2807297 Z M31.9641142,13.2154776 C31.9378963,12.5808153 31.9166385,11.7196398 31.9593903,11.1981161 L31.9251416,11.1981161 C31.7838956,11.6244523 31.1763961,12.9046419 30.9092569,13.5341078 L30.0447746,15.4161283 L32.0819767,15.4161283 L31.9641142,13.2154776 Z M22.5660581,18.5247215 C20.9256675,18.5247215 19.8367978,18.0043788 19.0597085,17.540251 L20.1665293,15.8500228 C20.8644924,16.2402208 21.412234,16.6906491 22.6730555,16.6906491 C23.0781339,16.6906491 23.4688043,16.5855413 23.6908298,16.2012482 C24.0137116,15.6431139 23.6161915,15.3421985 22.7087213,14.8284693 L22.2604187,14.5370017 C20.9148024,13.6177217 20.332576,12.7442639 20.9660573,11.2198462 C21.3716081,10.2448236 22.4404011,9.50552592 24.204559,9.50552592 C25.420503,9.50552592 26.5611,10.0317736 27.2252869,10.545739 L25.9528918,12.0380338 C25.3042939,11.5136757 24.7669449,11.2484261 24.151887,11.2484261 C23.6615414,11.2484261 23.2888219,11.4376202 23.1600944,11.6927133 C22.9179921,12.1721939 23.2385119,12.4990911 23.9456868,12.9379457 L24.478548,13.2771251 C26.1125612,14.3076541 26.501342,15.3880208 26.0922482,16.3977644 C25.3874353,18.1368855 24.0085153,18.5247215 22.5660581,18.5247215 L22.5660581,18.5247215 Z M35.2857575,10.8575195 L35.1851374,10.8575195 L35.1851374,10.2448236 L35.4175556,10.2448236 C35.5656513,10.2448236 35.6407621,10.2965508 35.6407621,10.4210268 C35.6407621,10.5320396 35.5729734,10.5780981 35.4810927,10.5882545 L35.6528081,10.8575195 L35.538961,10.8575195 L35.3807088,10.5958129 L35.2857575,10.5958129 L35.2857575,10.8575195 L35.2857575,10.8575195 Z M35.3981874,10.5096008 C35.4737705,10.5096008 35.5403782,10.5022787 35.5403782,10.4134685 C35.5403782,10.3395387 35.4678656,10.3305632 35.4076353,10.3305632 L35.2857575,10.3305632 L35.2857575,10.5096008 L35.3981874,10.5096008 Z M35.395353,11.0944255 C35.076959,11.0944255 34.8504457,10.8561023 34.8504457,10.5407789 C34.8504457,10.2079768 35.1017597,9.9873685 35.395353,9.9873685 C35.6851672,9.9873685 35.9369535,10.2079768 35.9369535,10.5407789 C35.9369535,10.8738171 35.6851672,11.0944255 35.395353,11.0944255 Z M35.395353,10.0835008 C35.1553765,10.0835008 34.9690168,10.2715139 34.9690168,10.5407789 C34.9690168,10.7923291 35.1317568,10.9980569 35.395353,10.9980569 C35.6320228,10.9980569 35.8183825,10.811461 35.8183825,10.5407789 C35.8183825,10.2715139 35.6320228,10.0835008 35.395353,10.0835008 Z" id="Shape" fill="#1D5B99"></path>
                <polygon id="Path" fill="#E7A83A" points="39.8186207 20.9476339 1.76321317 20.9476339 1.76321317 26.03934 39.8186207 26.03934 39.8186207 20.9476339"></polygon>
                <path d="M39.7479977,1.974846 L1.69282637,1.974846 L1.69282637,7.06678834 L39.7479977,7.06678834 L39.7479977,1.974846 Z M38.8783191,25.6772495 L38.777699,25.6772495 L38.777699,25.0645536 L39.0101172,25.0645536 C39.1582129,25.0645536 39.2333237,25.1162808 39.2333237,25.2407568 C39.2333237,25.3515334 39.165535,25.3975918 39.0736543,25.4077483 L39.2453697,25.6772495 L39.1315226,25.6772495 L38.9732704,25.4153066 L38.8783191,25.4153066 L38.8783191,25.6772495 L38.8783191,25.6772495 Z M38.9909852,25.3293308 C39.0665683,25.3293308 39.133176,25.3220087 39.133176,25.2329623 C39.133176,25.1592687 39.0606634,25.1502932 39.0004331,25.1502932 L38.8785553,25.1502932 L38.8785553,25.3293308 L38.9909852,25.3293308 L38.9909852,25.3293308 Z M38.9881508,25.9139192 C38.6697568,25.9139192 38.4432435,25.6758323 38.4432435,25.3602727 C38.4432435,25.0277068 38.6950299,24.8070985 38.9881508,24.8070985 C39.2784374,24.8070985 39.5297513,25.0277068 39.5297513,25.3602727 C39.5297513,25.6933109 39.2784374,25.9139192 38.9881508,25.9139192 Z M38.9881508,24.9029946 C38.7481743,24.9029946 38.5618146,25.0912439 38.5618146,25.3602727 C38.5618146,25.612059 38.7245546,25.8175507 38.9881508,25.8175507 C39.2248206,25.8175507 39.4111803,25.631191 39.4111803,25.3602727 C39.4111803,25.0912439 39.2248206,24.9029946 38.9881508,24.9029946 Z" id="Shape" fill="#1D5B99"></path>
            </g>
        </g>
    </g>
</svg>