<?xml version="1.0" encoding="UTF-8"?>
<svg width="26px" height="26px" viewBox="0 0 26 26" version="1.1" xmlns="http://www.w3.org/2000/svg" xmlns:xlink="http://www.w3.org/1999/xlink">
    <title>icon / API / wayfair Copy</title>
    <g id="Page-1" stroke="none" stroke-width="1" fill="none" fill-rule="evenodd">
        <g id="Artboard" transform="translate(-611.000000, -439.000000)" fill-rule="nonzero">
            <g id="Group-2-Copy" transform="translate(611.000000, 439.000000)">
                <path d="M25.6563842,8.19050186 L24.0352077,2.0728548 C23.9740313,1.85873715 23.8210901,1.70579597 23.6069724,1.6446195 L17.4893254,0.0234430324 C17.2752077,-0.0377334382 17.0610901,0.0234430324 16.9387372,0.176384209 L12.8705019,4.30579597 L21.4352077,12.8705019 L25.5340313,8.77167833 C25.6563842,8.61873715 25.7175607,8.4046195 25.6563842,8.19050186 L25.6563842,8.19050186 Z" id="Path" fill="#82D170"></path>
                <path d="M0.0540312677,17.5199136 L1.67520774,23.6375607 C1.73638421,23.8516783 1.88932539,24.0046195 2.10344303,24.065796 L8.22109009,25.6869724 C8.43520774,25.7481489 8.64932539,25.6869724 8.77167833,25.5340313 L12.8705019,21.4352077 L4.30579597,12.8705019 L0.206972444,16.9693254 C0.0540312677,17.1222666 -0.00714520286,17.3363842 0.0540312677,17.5199136 Z" id="Path" fill="#F8CF1C"></path>
                <path d="M8.19050186,0.0540312677 L2.0728548,1.67520774 C1.85873715,1.73638421 1.70579597,1.88932539 1.6446195,2.10344303 L0.0234430324,8.22109009 C-0.0377334382,8.43520774 0.0234430324,8.64932539 0.176384209,8.77167833 L4.30579597,12.8705019 L12.8705019,4.30579597 L8.77167833,0.206972444 C8.61873715,0.0540312677 8.4046195,-0.00714520286 8.19050186,0.0540312677 Z" id="Path" fill="#C6D636"></path>
                <path d="M25.4728548,16.9081489 L21.4352077,12.8705019 L12.8705019,21.4352077 L16.9081489,25.4728548 C17.0916783,25.6563842 17.3669724,25.7175607 17.6116783,25.6563842 L23.545796,24.065796 C23.7905019,24.0046195 24.0046195,23.7905019 24.065796,23.545796 L25.6563842,17.6116783 C25.7175607,17.3669724 25.6563842,17.0916783 25.4728548,16.9081489 L25.4728548,16.9081489 Z" id="Path" fill="#D57DEA"></path>
                <polygon id="Path" fill="#7F187F" points="12.8705019 4.30579597 4.30579597 12.8705019 12.8705019 21.4352077 21.4352077 12.8705019"></polygon>
                <path d="M25.6563842,8.19050186 L24.0352077,2.0728548 C23.9740313,1.85873715 23.8210901,1.70579597 23.6069724,1.6446195 L17.4893254,0.0234430324 C17.2752077,-0.0377334382 17.0610901,0.0234430324 16.9387372,0.176384209 L12.8705019,4.30579597 L21.4352077,12.8705019 L25.5340313,8.77167833 C25.6563842,8.61873715 25.7175607,8.4046195 25.6563842,8.19050186 L25.6563842,8.19050186 Z" id="Path" fill="#82D170"></path>
                <path d="M0.0540312677,17.5199136 L1.67520774,23.6375607 C1.73638421,23.8516783 1.88932539,24.0046195 2.10344303,24.065796 L8.22109009,25.6869724 C8.43520774,25.7481489 8.64932539,25.6869724 8.77167833,25.5340313 L12.8705019,21.4352077 L4.30579597,12.8705019 L0.206972444,16.9693254 C0.0540312677,17.1222666 -0.00714520286,17.3363842 0.0540312677,17.5199136 Z" id="Path" fill="#F8CF1C"></path>
                <path d="M8.19050186,0.0540312677 L2.0728548,1.67520774 C1.85873715,1.73638421 1.70579597,1.88932539 1.6446195,2.10344303 L0.0234430324,8.22109009 C-0.0377334382,8.43520774 0.0234430324,8.64932539 0.176384209,8.77167833 L4.30579597,12.8705019 L12.8705019,4.30579597 L8.77167833,0.206972444 C8.61873715,0.0540312677 8.4046195,-0.00714520286 8.19050186,0.0540312677 Z" id="Path" fill="#C6D636"></path>
                <path d="M25.4728548,16.9081489 L21.4352077,12.8705019 L12.8705019,21.4352077 L16.9081489,25.4728548 C17.0916783,25.6563842 17.3669724,25.7175607 17.6116783,25.6563842 L23.545796,24.065796 C23.7905019,24.0046195 24.0046195,23.7905019 24.065796,23.545796 L25.6563842,17.6116783 C25.7175607,17.3669724 25.6563842,17.0916783 25.4728548,16.9081489 L25.4728548,16.9081489 Z" id="Path" fill="#D57DEA"></path>
                <polygon id="Path" fill="#7F187F" points="12.8705019 4.30579597 4.30579597 12.8705019 12.8705019 21.4352077 21.4352077 12.8705019"></polygon>
            </g>
        </g>
    </g>
</svg>