<?xml version="1.0" encoding="UTF-8"?>
<svg width="17px" height="17px" viewBox="0 0 17 17" version="1.1"
  xmlns="http://www.w3.org/2000/svg"
  xmlns:xlink="http://www.w3.org/1999/xlink">
  <title>Group 7</title>
  <g id="Page-1" stroke="none" stroke-width="1" fill="none" fill-rule="evenodd">
    <g id="Artboard" transform="translate(-298.000000, -617.000000)" fill="#0295F6" fill-rule="nonzero">
      <g id="Group-7" transform="translate(299.000000, 618.000000)">
        <g id="tool" transform="translate(0.666667, 0.666667)">
          <path d="M5.78675374,0.983451993 C4.58481832,2.30090125 4.17172811,4.1457666 4.67198187,5.83474855 L4.74,6.049 L-0.0167378541,10.8072621 C-0.884600607,11.6751249 -0.884600607,13.0822084 -0.0167378541,13.9500712 L0.110794258,14.0681478 C0.983910131,14.815966 2.29953523,14.7766071 3.12607119,13.9500712 L7.884,9.191 L8.09858478,9.26135146 C9.86100073,9.78335539 11.7931498,9.31086758 13.1186754,7.98534204 C14.6098916,6.4941258 15.021482,4.23515163 14.1520403,2.31381803 C13.9599431,1.88931255 13.4027361,1.78778815 13.0732621,2.11726215 L10.3085955,4.88192881 C10.2874104,4.90264763 10.2459229,4.90264763 10.22,4.8772381 L9.05140452,3.70859548 C9.0306857,3.68741043 9.0306857,3.6459229 9.05873785,3.61740452 L11.8160712,0.860071187 C12.1455452,0.530597189 12.0440208,-0.0266097356 11.6195153,-0.218706917 C9.6981817,-1.08814862 7.43920753,-0.67655827 5.9479913,0.814657963 L5.78675374,0.983451993 Z M9.85980343,0.678351006 L10.086,0.705 L8.10859548,2.68192881 C7.57030474,3.23104758 7.57030474,4.10228575 8.10390477,4.64666667 L9.28192881,5.82473785 L9.3958552,5.92522018 C9.94575997,6.36065703 10.7385778,6.32745525 11.2466667,5.82942856 L13.227,3.848 C13.3989905,5.00660814 13.024932,6.19346729 12.1758663,7.042533 C11.0770754,8.1413239 9.41256814,8.44460101 7.99684864,7.80395975 C7.74404158,7.68955952 7.44680814,7.74371615 7.25059548,7.93992881 L2.18326215,13.0072621 C1.83609845,13.3544258 1.27323488,13.3544258 0.926071187,13.0072621 C0.57890749,12.6600984 0.57890749,12.0972349 0.926071187,11.7500712 L5.99340452,6.68273785 C6.18961718,6.48652519 6.24377381,6.18929175 6.12937358,5.9364847 C5.48873233,4.5207652 5.79200943,2.85625791 6.89080034,1.757467 C7.68679943,0.961467909 8.77968731,0.582955619 9.85980343,0.678351006 Z" id="Path"></path>
        </g>
      </g>
    </g>
  </g>
</svg>