<?xml version="1.0" encoding="UTF-8"?>
<svg width="13px" height="13px" viewBox="0 0 13 13" version="1.1" xmlns="http://www.w3.org/2000/svg" xmlns:xlink="http://www.w3.org/1999/xlink">
    <!-- Generator: Sketch 64 (93537) - https://sketch.com -->
    <title>x (1) copy</title>
    <desc>Created with Sketch.</desc>
    <g id="Page-1" stroke="none" stroke-width="1" fill="none" fill-rule="evenodd">
        <g id="Artboard" transform="translate(-158.000000, -94.000000)" fill="#2193B0" fill-rule="nonzero">
            <g id="x-(1)-copy" transform="translate(159.000000, 95.000000)">
                <path d="M9.54878908,-0.636396103 C9.90026094,-0.987867966 10.4701094,-0.987867966 10.8215813,-0.636396103 C11.1437638,-0.314213562 11.1706124,0.191465998 10.9021269,0.544231375 L10.8215813,0.636396103 L0.636396103,10.8215813 C0.28492424,11.1730532 -0.28492424,11.1730532 -0.636396103,10.8215813 C-0.958578644,10.4993987 -0.985427189,9.99371919 -0.716941738,9.64095381 L-0.636396103,9.54878908 L9.54878908,-0.636396103 Z" id="Path"></path>
                <path d="M-0.636396103,-0.636396103 C-0.314213562,-0.958578644 0.191465998,-0.985427189 0.544231375,-0.716941738 L0.636396103,-0.636396103 L10.8215813,9.54878908 C11.1730532,9.90026094 11.1730532,10.4701094 10.8215813,10.8215813 C10.4993987,11.1437638 9.99371919,11.1706124 9.64095381,10.9021269 L9.54878908,10.8215813 L-0.636396103,0.636396103 C-0.987867966,0.28492424 -0.987867966,-0.28492424 -0.636396103,-0.636396103 Z" id="Path"></path>
            </g>
        </g>
    </g>
</svg>