<?xml version="1.0" encoding="UTF-8"?>
<svg width="11px" height="11px" viewBox="0 0 11 11" version="1.1" xmlns="http://www.w3.org/2000/svg" xmlns:xlink="http://www.w3.org/1999/xlink">
    <!-- Generator: Sketch 64 (93537) - https://sketch.com -->
    <title>x (1)</title>
    <desc>Created with Sketch.</desc>
    <g id="Products" stroke="none" stroke-width="1" fill="none" fill-rule="evenodd">
        <g id="Artboard" transform="translate(-81.000000, -65.000000)" fill="#ACB5C2" fill-rule="nonzero">
            <g id="x-(1)" transform="translate(82.000000, 66.000000)">
                <path d="M8.52270292,-0.477297077 C8.78630682,-0.740900974 9.21369318,-0.740900974 9.47729708,-0.477297077 C9.71454058,-0.24005357 9.73826494,0.129853733 9.54847013,0.393629999 L9.47729708,0.477297077 L0.477297077,9.47729708 C0.21369318,9.74090097 -0.21369318,9.74090097 -0.477297077,9.47729708 C-0.714540585,9.24005357 -0.738264935,8.87014627 -0.548470129,8.60637 L-0.477297077,8.52270292 L8.52270292,-0.477297077 Z" id="Path"></path>
                <path d="M-0.477297077,-0.477297077 C-0.24005357,-0.714540585 0.129853733,-0.738264935 0.393629999,-0.548470129 L0.477297077,-0.477297077 L9.47729708,8.52270292 C9.74090097,8.78630682 9.74090097,9.21369318 9.47729708,9.47729708 C9.24005357,9.71454058 8.87014627,9.73826494 8.60637,9.54847013 L8.52270292,9.47729708 L-0.477297077,0.477297077 C-0.740900974,0.21369318 -0.740900974,-0.21369318 -0.477297077,-0.477297077 Z" id="Path"></path>
            </g>
        </g>
    </g>
</svg>