<?xml version="1.0" encoding="UTF-8"?>
<svg width="13px" height="13px" viewBox="0 0 13 13" version="1.1" xmlns="http://www.w3.org/2000/svg" xmlns:xlink="http://www.w3.org/1999/xlink">
    <title>x-0295F6</title>
    <g id="Page-1" stroke="none" stroke-width="1" fill="none" fill-rule="evenodd">
        <g id="Artboard" transform="translate(-245.000000, -349.000000)" fill="#0295F6" fill-rule="nonzero">
            <g id="x-0295F6" transform="translate(245.000000, 349.000000)">
                <path d="M10.5487891,0.363603897 C10.9002609,0.012132034 11.4701094,0.012132034 11.8215813,0.363603897 C12.1437638,0.685786438 12.1706124,1.191466 11.9021269,1.54423137 L11.8215813,1.6363961 L1.6363961,11.8215813 C1.28492424,12.1730532 0.71507576,12.1730532 0.363603897,11.8215813 C0.041421356,11.4993987 0.014572811,10.9937192 0.283058262,10.6409538 L0.363603897,10.5487891 L10.5487891,0.363603897 Z" id="Path"></path>
                <path d="M0.363603897,0.363603897 C0.685786438,0.041421356 1.191466,0.014572811 1.54423137,0.283058262 L1.6363961,0.363603897 L11.8215813,10.5487891 C12.1730532,10.9002609 12.1730532,11.4701094 11.8215813,11.8215813 C11.4993987,12.1437638 10.9937192,12.1706124 10.6409538,11.9021269 L10.5487891,11.8215813 L0.363603897,1.6363961 C0.012132034,1.28492424 0.012132034,0.71507576 0.363603897,0.363603897 Z" id="Path"></path>
            </g>
        </g>
    </g>
</svg>