<?xml version="1.0" encoding="UTF-8"?>
<svg width="13px" height="13px" viewBox="0 0 13 13" version="1.1" xmlns="http://www.w3.org/2000/svg" xmlns:xlink="http://www.w3.org/1999/xlink">
    <!-- Generator: Sketch 64 (93537) - https://sketch.com -->
    <title>Combined Shape 2</title>
    <desc>Created with Sketch.</desc>
    <g id="Page-1" stroke="none" stroke-width="1" fill="none" fill-rule="evenodd">
        <g id="Artboard" transform="translate(-113.000000, -94.000000)" fill="#FFFFFF" fill-rule="nonzero">
            <g id="Combined-Shape-2" transform="translate(113.100000, 94.100000)">
                <path d="M11.7215813,0.263603897 C12.0437638,0.585786438 12.0706124,1.091466 11.8021269,1.44423138 L11.7215813,1.5363961 L7.265,5.992 L11.7215813,10.4487891 C12.0730532,10.8002609 12.0730532,11.3701094 11.7215813,11.7215813 C11.3993987,12.0437638 10.8937192,12.0706124 10.5409538,11.8021269 L10.4487891,11.7215813 L5.992,7.265 L1.5363961,11.7215813 C1.18492424,12.0730532 0.61507576,12.0730532 0.263603897,11.7215813 C-0.0585786438,11.3993987 -0.0854271888,10.8937192 0.183058262,10.5409538 L0.263603897,10.4487891 L4.719,5.992 L0.263603897,1.5363961 C-0.0878679656,1.18492424 -0.0878679656,0.61507576 0.263603897,0.263603897 C0.585786438,-0.0585786438 1.091466,-0.0854271888 1.44423138,0.183058262 L1.5363961,0.263603897 L5.992,4.719 L10.4487891,0.263603897 C10.8002609,-0.0878679656 11.3701094,-0.0878679656 11.7215813,0.263603897 Z" id="Combined-Shape"></path>
            </g>
        </g>
    </g>
</svg>